<?xml version="1.0" encoding="UTF-8" standalone="no"?><svg xmlns="http://www.w3.org/2000/svg" xmlns:xlink="http://www.w3.org/1999/xlink" contentScriptType="application/ecmascript" contentStyleType="text/css" height="703px" preserveAspectRatio="none" style="width:930px;height:703px;background:#FFFFFF;" version="1.1" viewBox="0 0 930 703" width="930px" zoomAndPan="magnify"><defs/><g><polygon fill="#FFFFFF" points="240.5,118.5703,240.5,118.6404,242.5,118.4322,244.5,118.6347,246.5,118.7035,248.5,118.3325,250.5,118.5703,250.4223,118.5703,250.0735,128.5675,250.1165,138.5648,250.4318,148.562,249.8086,158.5592,251.0536,168.5565,249.8697,178.5537,250.3022,188.5509,250.9319,198.5482,250.4142,208.5454,250.5682,218.5426,250.4681,228.5399,250.6785,238.5371,250.7391,248.5343,251.0857,258.5316,251.1711,268.5288,251.1793,278.526,250.7546,288.5233,250.9636,298.5205,251.2022,308.5177,249.7788,318.515,251.1785,328.5122,250.2035,338.5094,251.0338,348.5067,250.005,358.5039,250.4315,368.5011,251.2416,378.4984,250.4513,388.4956,250.6053,398.4928,250.8386,408.4901,250.9162,418.4873,250.4961,428.4845,250.7872,438.4818,249.9276,448.479,250.7844,458.4762,251.0482,468.4735,250.9445,478.4707,251.113,488.4679,250.0169,498.4652,249.8478,508.4624,249.8786,518.4596,250.4411,528.4569,250.3035,538.4541,251.1814,548.4513,250.3253,558.4486,250.1569,568.4458,250.7283,578.443,249.8332,588.4403,250.5,598.4375,250.5,598.2645,248.5,598.6538,246.5,598.5827,244.5,598.6823,242.5,598.3302,240.5,598.4375,240.8192,598.4375,241.0904,588.4403,240.0276,578.443,240.4041,568.4458,240.626,558.4486,241.1518,548.4513,240.4958,538.4541,240.9626,528.4569,239.9462,518.4596,239.8227,508.4624,241.0036,498.4652,239.7831,488.4679,241.009,478.4707,240.7066,468.4735,240.2321,458.4762,240.1462,448.479,240.9588,438.4818,240.2007,428.4845,241.0919,418.4873,239.9473,408.4901,241.1174,398.4928,240.9843,388.4956,240.745,378.4984,240.5472,368.5011,241.2266,358.5039,241.1136,348.5067,240.6693,338.5094,240.7682,328.5122,240.3697,318.515,241.2165,308.5177,240.6549,298.5205,240.6726,288.5233,239.8916,278.526,240.0948,268.5288,241.0307,258.5316,240.9298,248.5343,240.4571,238.5371,240.1778,228.5399,240.2811,218.5426,239.8138,208.5454,240.9147,198.5482,241.2396,188.5509,241.0264,178.5537,241.1949,168.5565,240.3633,158.5592,240.5872,148.562,240.1124,138.5648,240.784,128.5675,240.5,118.5703" style="stroke:#383838;stroke-width:1.0;"/><polygon fill="#FFFFFF" points="413.5,148.9219,413.5,148.9919,415.5,148.7838,417.5,148.9863,419.5,149.0551,421.5,148.6841,423.5,148.9219,423.4223,148.9219,423.0735,158.9805,423.1165,169.0391,423.4318,179.0977,422.8086,189.1563,424.0536,199.2148,423.5,209.2734,423.5,209.0633,421.5,209.2075,419.5,209.4174,417.5,209.2448,415.5,209.2962,413.5,209.2734,413.4681,209.2734,413.6785,199.2148,413.7391,189.1563,414.0857,179.0977,414.1711,169.0391,414.1793,158.9805,413.5,148.9219" style="stroke:#383838;stroke-width:1.0;"/><polygon fill="#FFFFFF" points="413.5,343.6797,413.5,343.7497,415.5,343.5416,417.5,343.7441,419.5,343.8129,421.5,343.4419,423.5,343.6797,423.4223,343.6797,423.0735,353.7383,423.1165,363.7969,423.4318,373.8555,422.8086,383.9141,424.0536,393.9727,422.8697,404.0313,423.3022,414.0898,423.9319,424.1484,423.4142,434.207,423.5682,444.2656,423.4681,454.3242,423.5,464.3828,423.5,464.4423,421.5,464.4625,419.5,464.578,417.5,464.6065,415.5,464.6092,413.5,464.3828,413.7546,464.3828,413.9636,454.3242,414.2022,444.2656,412.7788,434.207,414.1785,424.1484,413.2035,414.0898,414.0338,404.0313,413.005,393.9727,413.4315,383.9141,414.2416,373.8555,413.4513,363.7969,413.6053,353.7383,413.5,343.6797" style="stroke:#383838;stroke-width:1.0;"/><polygon fill="#FFFFFF" points="663,434.3828,663,434.4529,665,434.2447,667,434.4472,669,434.516,671,434.145,673,434.3828,672.9741,434.3828,672.8578,440.3828,672.8722,446.3828,672.9773,452.3828,672.7695,458.3828,673,464.3828,673,464.5674,671,464.1727,669,464.3169,667,464.5268,665,464.3542,663,464.3828,663.0227,464.3828,662.9894,458.3828,663.0595,452.3828,663.0797,446.3828,663.1952,440.3828,663,434.3828" style="stroke:#383838;stroke-width:1.0;"/><polygon fill="#FFFFFF" points="762.5,179.2734,762.5,179.3435,764.5,179.1353,766.5,179.3379,768.5,179.4067,770.5,179.0356,772.5,179.2734,772.4741,179.2734,772.3578,185.2734,772.3722,191.2734,772.4773,197.2734,772.2695,203.2734,772.5,209.2734,772.5,209.458,770.5,209.0633,768.5,209.2075,766.5,209.4174,764.5,209.2448,762.5,209.2734,762.5227,209.2734,762.4894,203.2734,762.5595,197.2734,762.5797,191.2734,762.6952,185.2734,762.5,179.2734" style="stroke:#383838;stroke-width:1.0;"/><polygon fill="#FFFFFF" points="874,374.0313,874,374.1013,876,373.8931,878,374.0957,880,374.1645,882,373.7935,884,374.0313,883.9741,374.0313,883.8578,380.0313,883.8722,386.0313,883.9773,392.0313,883.7695,398.0313,884,404.0313,884,404.2158,882,403.8212,880,403.9653,878,404.1752,876,404.0027,874,404.0313,874.0227,404.0313,873.9894,398.0313,874.0595,392.0313,874.0797,386.0313,874.1952,380.0313,874,374.0313" style="stroke:#383838;stroke-width:1.0;"/><polygon fill="#FFFFFF" points="874,494.7344,874,494.8044,876,494.5963,878,494.7988,880,494.8676,882,494.4966,884,494.7344,883.9741,494.7344,883.8578,500.7344,883.8722,506.7344,883.9773,512.7344,883.7695,518.7344,884,524.7344,884,524.9189,882,524.5243,880,524.6685,878,524.8784,876,524.7058,874,524.7344,874.0227,524.7344,873.9894,518.7344,874.0595,512.7344,874.0797,506.7344,874.1952,500.7344,874,494.7344" style="stroke:#383838;stroke-width:1.0;"/><path d="M22,86.2188 L22.2802,86.2188 L21.4476,96.2229 L22.2577,106.227 L22.5329,116.2311 L21.0488,126.2353 L21.8964,136.2394 L21.4313,146.2435 L21.4887,156.2476 L21.9091,166.2518 L21.0782,176.2559 L22.7382,186.26 L21.1596,196.2642 L21.7363,206.2683 L22.5759,216.2724 L21.8856,226.2765 L22.091,236.2807 L21.9574,246.2848 L22.238,256.2889 L22.3188,266.293 L22.7809,276.2972 L22.8947,286.3013 L22.9057,296.3054 L22.3395,306.3096 L22.6181,316.3137 L22.9363,326.3178 L21.0384,336.3219 L22.9047,346.3261 L21.6047,356.3302 L22.7117,366.3343 L21.34,376.3384 L21.9087,386.3426 L22.9888,396.3467 L21.935,406.3508 L22.1404,416.355 L22.4515,426.3591 L22.555,436.3632 L21.9948,446.3673 L22.383,456.3715 L21.2368,466.3756 L22.3792,476.3797 L22.7309,486.3838 L22.5927,496.388 L22.8174,506.3921 L21.3559,516.3962 L21.1304,526.4004 L21.1715,536.4045 L21.9215,546.4086 L21.738,556.4127 L22.9085,566.4169 L21.7671,576.421 L21.5426,586.4251 L22.3044,596.4292 L21.1109,606.4334 L22,616.4375 " fill="none" style="stroke:#383838;stroke-width:1.0;stroke-dasharray:5.0,5.0;"/><path d="M245,86.2188 L245.2802,86.2188 L244.4476,96.2229 L245.2577,106.227 L245.5329,116.2311 L244.0488,126.2353 L244.8964,136.2394 L244.4313,146.2435 L244.4887,156.2476 L244.9091,166.2518 L244.0782,176.2559 L245.7382,186.26 L244.1596,196.2642 L244.7363,206.2683 L245.5759,216.2724 L244.8856,226.2765 L245.091,236.2807 L244.9574,246.2848 L245.238,256.2889 L245.3188,266.293 L245.7809,276.2972 L245.8947,286.3013 L245.9057,296.3054 L245.3395,306.3096 L245.6181,316.3137 L245.9363,326.3178 L244.0384,336.3219 L245.9047,346.3261 L244.6047,356.3302 L245.7117,366.3343 L244.34,376.3384 L244.9087,386.3426 L245.9888,396.3467 L244.935,406.3508 L245.1404,416.355 L245.4515,426.3591 L245.555,436.3632 L244.9948,446.3673 L245.383,456.3715 L244.2368,466.3756 L245.3792,476.3797 L245.7309,486.3838 L245.5927,496.388 L245.8174,506.3921 L244.3559,516.3962 L244.1304,526.4004 L244.1715,536.4045 L244.9215,546.4086 L244.738,556.4127 L245.9085,566.4169 L244.7671,576.421 L244.5426,586.4251 L245.3044,596.4292 L244.1109,606.4334 L245,616.4375 " fill="none" style="stroke:#383838;stroke-width:1.0;stroke-dasharray:5.0,5.0;"/><path d="M418,86.2188 L418.2802,86.2188 L417.4476,96.2229 L418.2577,106.227 L418.5329,116.2311 L417.0488,126.2353 L417.8964,136.2394 L417.4313,146.2435 L417.4887,156.2476 L417.9091,166.2518 L417.0782,176.2559 L418.7382,186.26 L417.1596,196.2642 L417.7363,206.2683 L418.5759,216.2724 L417.8856,226.2765 L418.091,236.2807 L417.9574,246.2848 L418.238,256.2889 L418.3188,266.293 L418.7809,276.2972 L418.8947,286.3013 L418.9057,296.3054 L418.3395,306.3096 L418.6181,316.3137 L418.9363,326.3178 L417.0384,336.3219 L418.9047,346.3261 L417.6047,356.3302 L418.7117,366.3343 L417.34,376.3384 L417.9087,386.3426 L418.9888,396.3467 L417.935,406.3508 L418.1404,416.355 L418.4515,426.3591 L418.555,436.3632 L417.9948,446.3673 L418.383,456.3715 L417.2368,466.3756 L418.3792,476.3797 L418.7309,486.3838 L418.5927,496.388 L418.8174,506.3921 L417.3559,516.3962 L417.1304,526.4004 L417.1715,536.4045 L417.9215,546.4086 L417.738,556.4127 L418.9085,566.4169 L417.7671,576.421 L417.5426,586.4251 L418.3044,596.4292 L417.1109,606.4334 L418,616.4375 " fill="none" style="stroke:#383838;stroke-width:1.0;stroke-dasharray:5.0,5.0;"/><path d="M567,86.2188 L567.2802,86.2188 L566.4476,96.2229 L567.2577,106.227 L567.5329,116.2311 L566.0488,126.2353 L566.8964,136.2394 L566.4313,146.2435 L566.4887,156.2476 L566.9091,166.2518 L566.0782,176.2559 L567.7382,186.26 L566.1596,196.2642 L566.7363,206.2683 L567.5759,216.2724 L566.8856,226.2765 L567.091,236.2807 L566.9574,246.2848 L567.238,256.2889 L567.3188,266.293 L567.7809,276.2972 L567.8947,286.3013 L567.9057,296.3054 L567.3395,306.3096 L567.6181,316.3137 L567.9363,326.3178 L566.0384,336.3219 L567.9047,346.3261 L566.6047,356.3302 L567.7117,366.3343 L566.34,376.3384 L566.9087,386.3426 L567.9888,396.3467 L566.935,406.3508 L567.1404,416.355 L567.4515,426.3591 L567.555,436.3632 L566.9948,446.3673 L567.383,456.3715 L566.2368,466.3756 L567.3792,476.3797 L567.7309,486.3838 L567.5927,496.388 L567.8174,506.3921 L566.3559,516.3962 L566.1304,526.4004 L566.1715,536.4045 L566.9215,546.4086 L566.738,556.4127 L567.9085,566.4169 L566.7671,576.421 L566.5426,586.4251 L567.3044,596.4292 L566.1109,606.4334 L567,616.4375 " fill="none" style="stroke:#383838;stroke-width:1.0;stroke-dasharray:5.0,5.0;"/><path d="M668,86.2188 L668.2802,86.2188 L667.4476,96.2229 L668.2577,106.227 L668.5329,116.2311 L667.0488,126.2353 L667.8964,136.2394 L667.4313,146.2435 L667.4887,156.2476 L667.9091,166.2518 L667.0782,176.2559 L668.7382,186.26 L667.1596,196.2642 L667.7363,206.2683 L668.5759,216.2724 L667.8856,226.2765 L668.091,236.2807 L667.9574,246.2848 L668.238,256.2889 L668.3188,266.293 L668.7809,276.2972 L668.8947,286.3013 L668.9057,296.3054 L668.3395,306.3096 L668.6181,316.3137 L668.9363,326.3178 L667.0384,336.3219 L668.9047,346.3261 L667.6047,356.3302 L668.7117,366.3343 L667.34,376.3384 L667.9087,386.3426 L668.9888,396.3467 L667.935,406.3508 L668.1404,416.355 L668.4515,426.3591 L668.555,436.3632 L667.9948,446.3673 L668.383,456.3715 L667.2368,466.3756 L668.3792,476.3797 L668.7309,486.3838 L668.5927,496.388 L668.8174,506.3921 L667.3559,516.3962 L667.1304,526.4004 L667.1715,536.4045 L667.9215,546.4086 L667.738,556.4127 L668.9085,566.4169 L667.7671,576.421 L667.5426,586.4251 L668.3044,596.4292 L667.1109,606.4334 L668,616.4375 " fill="none" style="stroke:#383838;stroke-width:1.0;stroke-dasharray:5.0,5.0;"/><path d="M767,86.2188 L767.2802,86.2188 L766.4476,96.2229 L767.2577,106.227 L767.5329,116.2311 L766.0488,126.2353 L766.8964,136.2394 L766.4313,146.2435 L766.4887,156.2476 L766.9091,166.2518 L766.0782,176.2559 L767.7382,186.26 L766.1596,196.2642 L766.7363,206.2683 L767.5759,216.2724 L766.8856,226.2765 L767.091,236.2807 L766.9574,246.2848 L767.238,256.2889 L767.3188,266.293 L767.7809,276.2972 L767.8947,286.3013 L767.9057,296.3054 L767.3395,306.3096 L767.6181,316.3137 L767.9363,326.3178 L766.0384,336.3219 L767.9047,346.3261 L766.6047,356.3302 L767.7117,366.3343 L766.34,376.3384 L766.9087,386.3426 L767.9888,396.3467 L766.935,406.3508 L767.1404,416.355 L767.4515,426.3591 L767.555,436.3632 L766.9948,446.3673 L767.383,456.3715 L766.2368,466.3756 L767.3792,476.3797 L767.7309,486.3838 L767.5927,496.388 L767.8174,506.3921 L766.3559,516.3962 L766.1304,526.4004 L766.1715,536.4045 L766.9215,546.4086 L766.738,556.4127 L767.9085,566.4169 L766.7671,576.421 L766.5426,586.4251 L767.3044,596.4292 L766.1109,606.4334 L767,616.4375 " fill="none" style="stroke:#383838;stroke-width:1.0;stroke-dasharray:5.0,5.0;"/><path d="M879,86.2188 L879.2802,86.2188 L878.4476,96.2229 L879.2577,106.227 L879.5329,116.2311 L878.0488,126.2353 L878.8964,136.2394 L878.4313,146.2435 L878.4887,156.2476 L878.9091,166.2518 L878.0782,176.2559 L879.7382,186.26 L878.1596,196.2642 L878.7363,206.2683 L879.5759,216.2724 L878.8856,226.2765 L879.091,236.2807 L878.9574,246.2848 L879.238,256.2889 L879.3188,266.293 L879.7809,276.2972 L879.8947,286.3013 L879.9057,296.3054 L879.3395,306.3096 L879.6181,316.3137 L879.9363,326.3178 L878.0384,336.3219 L879.9047,346.3261 L878.6047,356.3302 L879.7117,366.3343 L878.34,376.3384 L878.9087,386.3426 L879.9888,396.3467 L878.935,406.3508 L879.1404,416.355 L879.4515,426.3591 L879.555,436.3632 L878.9948,446.3673 L879.383,456.3715 L878.2368,466.3756 L879.3792,476.3797 L879.7309,486.3838 L879.5927,496.388 L879.8174,506.3921 L878.3559,516.3962 L878.1304,526.4004 L878.1715,536.4045 L878.9215,546.4086 L878.738,556.4127 L879.9085,566.4169 L878.7671,576.421 L878.5426,586.4251 L879.3044,596.4292 L878.1109,606.4334 L879,616.4375 " fill="none" style="stroke:#383838;stroke-width:1.0;stroke-dasharray:5.0,5.0;"/><text fill="#000000" font-family="FG Virgil" font-size="14" lengthAdjust="spacing" textLength="29" x="5" y="83.1426">User</text><polygon fill="#F8F8F8" points="30.5442,17.5553,29.3715,19.1576,27.9845,21.5044,26.0008,23.086,23.9163,23.9509,22.2542,24.026,20.118,22.9443,18.1023,22.2377,16.5724,20.803,15.7699,19.1605,15.2939,17.8527,14.8277,16.1444,14.0709,14.6744,14.6525,13.2392,15.162,11.667,17.074,10.4235,18.4192,8.8102,20.0843,8.2744,22.0637,7.813,24.6021,8.0872,25.9924,8.7429,27.6089,9.0401,29.5743,11.0537,30.2595,13.1795,30.5571,14.63,30.22,17.0202" style="stroke:#383838;stroke-width:2.0;"/><path d="M22.5,23.6094 L22.6868,23.6094 L22.1317,29.0094 L22.6718,34.4094 L22.8553,39.8094 L21.8659,45.2094 L22.5,50.6094 M9.5,31.6094 L9.5,31.5403 L14.7,31.2303 L19.9,31.2685 L25.1,31.5488 L30.3,30.9948 L35.5,31.6094 M22.5,50.6094 L22.8719,50.9317 L19.4766,53.2425 L17.1672,56.4942 L14.9901,59.8608 L12.0424,62.5594 L9.5,65.6094 M22.5,50.6094 L22.5458,50.6491 L25.0785,53.5908 L27.8199,56.7133 L30.4606,59.7486 L33.2934,62.9503 L35.5,65.6094 " fill="none" style="stroke:#383838;stroke-width:2.0;"/><text fill="#000000" font-family="FG Virgil" font-size="14" lengthAdjust="spacing" textLength="29" x="5" y="629.9707">User</text><polygon fill="#F8F8F8" points="30.5442,644.9928,29.3715,646.5951,27.9845,648.9419,26.0008,650.5235,23.9163,651.3884,22.2542,651.4635,20.118,650.3818,18.1023,649.6752,16.5724,648.2405,15.7699,646.598,15.2939,645.2902,14.8277,643.5819,14.0709,642.1119,14.6525,640.6767,15.162,639.1045,17.074,637.861,18.4192,636.2477,20.0843,635.7119,22.0637,635.2505,24.6021,635.5247,25.9924,636.1804,27.6089,636.4776,29.5743,638.4912,30.2595,640.617,30.5571,642.0675,30.22,644.4577" style="stroke:#383838;stroke-width:2.0;"/><path d="M22.5,651.0469 L22.6868,651.0469 L22.1317,656.4469 L22.6718,661.8469 L22.8553,667.2469 L21.8659,672.6469 L22.5,678.0469 M9.5,659.0469 L9.5,658.9778 L14.7,658.6678 L19.9,658.706 L25.1,658.9863 L30.3,658.4323 L35.5,659.0469 M22.5,678.0469 L22.8719,678.3692 L19.4766,680.68 L17.1672,683.9317 L14.9901,687.2983 L12.0424,689.9969 L9.5,693.0469 M22.5,678.0469 L22.5458,678.0866 L25.0785,681.0283 L27.8199,684.1508 L30.4606,687.1861 L33.2934,690.3878 L35.5,693.0469 " fill="none" style="stroke:#383838;stroke-width:2.0;"/><polygon fill="#F8F8F8" points="191,36,191,36.2102,200.9091,35.5857,210.8182,36.1933,220.7273,36.3997,230.6364,35.2866,240.5455,35.9223,250.4545,35.5735,260.3636,35.6165,270.2727,35.9318,280.1818,35.3086,290.0909,36.5536,300,36,299.3697,36,299.8022,45.8438,300.4319,55.6875,299.9142,65.5313,300.0682,75.375,300,85.2188,300,85.1868,290.0909,85.3973,280.1818,85.4579,270.2727,85.8044,260.3636,85.8898,250.4545,85.898,240.5455,85.4734,230.6364,85.6823,220.7273,85.921,210.8182,84.4976,200.9091,85.8973,191,85.2188,190.7035,85.2188,191.5338,75.375,190.505,65.5313,190.9315,55.6875,191.7416,45.8438,191,36" style="stroke:#383838;stroke-width:1.5;"/><text fill="#000000" font-family="FG Virgil" font-size="14" font-style="italic" lengthAdjust="spacing" textLength="95" x="198" y="57.5332">«presentation»</text><text fill="#000000" font-family="FG Virgil" font-size="14" lengthAdjust="spacing" textLength="18" x="236.5" y="75.1426">/all</text><polygon fill="#F8F8F8" points="191,615.4375,191,615.6477,200.9091,615.0232,210.8182,615.6308,220.7273,615.8372,230.6364,614.7241,240.5455,615.3598,250.4545,615.011,260.3636,615.054,270.2727,615.3693,280.1818,614.7461,290.0909,615.9911,300,615.4375,299.3697,615.4375,299.8022,625.2813,300.4319,635.125,299.9142,644.9688,300.0682,654.8125,300,664.6563,300,664.6243,290.0909,664.8348,280.1818,664.8954,270.2727,665.2419,260.3636,665.3273,250.4545,665.3355,240.5455,664.9109,230.6364,665.1198,220.7273,665.3585,210.8182,663.9351,200.9091,665.3348,191,664.6563,190.7035,664.6563,191.5338,654.8125,190.505,644.9688,190.9315,635.125,191.7416,625.2813,191,615.4375" style="stroke:#383838;stroke-width:1.5;"/><text fill="#000000" font-family="FG Virgil" font-size="14" font-style="italic" lengthAdjust="spacing" textLength="95" x="198" y="636.9707">«presentation»</text><text fill="#000000" font-family="FG Virgil" font-size="14" lengthAdjust="spacing" textLength="18" x="236.5" y="654.5801">/all</text><text fill="#000000" font-family="FG Virgil" font-size="14" font-style="italic" lengthAdjust="spacing" textLength="84" x="373.5" y="65.5332">«application»</text><text fill="#000000" font-family="FG Virgil" font-size="14" lengthAdjust="spacing" textLength="167" x="332" y="83.1426">AddFruitGeneralController</text><polygon fill="#F8F8F8" points="430.5663,37.9189,428.8073,40.3223,426.7268,43.8426,423.7512,46.215,420.6244,47.5123,418.1313,47.6249,414.9269,46.0024,411.9035,44.9425,409.6086,42.7904,408.4048,40.3267,407.6909,38.3649,406.9915,35.8026,405.8564,33.5976,406.7287,31.4447,407.4929,29.0864,410.3611,27.2212,412.3789,24.8012,414.8764,23.9976,417.8456,23.3055,421.6532,23.7167,423.7386,24.7002,426.1633,25.146,429.1115,28.1665,430.1392,31.3552,430.5857,33.5309,430.08,37.1162" style="stroke:#383838;stroke-width:2.0;"/><polygon fill="#383838" points="414.5,23,414.5449,23.0538,415.6116,21.8939,416.9412,21.0495,418.1853,20.1023,419.1478,18.8173,420.5,18,420.4759,17.9904,419.968,18.9472,419.5813,19.9525,419.2789,20.9916,418.686,21.9144,418.5,23,418.6713,23.0685,418.7049,23.922,419.2388,24.9755,419.8337,26.0535,420.0735,26.9894,420.5,28,420.5146,28.0175,419.2932,26.9918,418.1381,26.0457,416.951,25.0612,415.825,24.15,414.5,23" style="stroke:#383838;stroke-width:1.0;"/><text fill="#000000" font-family="FG Virgil" font-size="14" font-style="italic" lengthAdjust="spacing" textLength="84" x="373.5" y="629.9707">«application»</text><text fill="#000000" font-family="FG Virgil" font-size="14" lengthAdjust="spacing" textLength="167" x="332" y="647.5801">AddFruitGeneralController</text><polygon fill="#F8F8F8" points="430.5663,669.5751,428.8073,671.9786,426.7268,675.4988,423.7512,677.8712,420.6244,679.1686,418.1313,679.2811,414.9269,677.6587,411.9035,676.5987,409.6086,674.4466,408.4048,671.9829,407.6909,670.0212,406.9915,667.4588,405.8564,665.2539,406.7287,663.101,407.4929,660.7427,410.3611,658.8775,412.3789,656.4574,414.8764,655.6538,417.8456,654.9618,421.6532,655.3729,423.7386,656.3565,426.1633,656.8023,429.1115,659.8228,430.1392,663.0115,430.5857,665.1872,430.08,668.7725" style="stroke:#383838;stroke-width:2.0;"/><polygon fill="#383838" points="414.5,654.6563,414.5449,654.7101,415.6116,653.5502,416.9412,652.7057,418.1853,651.7586,419.1478,650.4736,420.5,649.6563,420.4759,649.6466,419.968,650.6035,419.5813,651.6088,419.2789,652.6478,418.686,653.5707,418.5,654.6563,418.6713,654.7248,418.7049,655.5782,419.2388,656.6318,419.8337,657.7097,420.0735,658.6456,420.5,659.6563,420.5146,659.6737,419.2932,658.6481,418.1381,657.702,416.951,656.7175,415.825,655.8062,414.5,654.6563" style="stroke:#383838;stroke-width:1.0;"/><polygon fill="#F8F8F8" points="515,36,515,36.2102,524.5455,35.5857,534.0909,36.1933,543.6364,36.3997,553.1818,35.2866,562.7273,35.9223,572.2727,35.5735,581.8182,35.6165,591.3636,35.9318,600.9091,35.3086,610.4545,36.5536,620,36,619.3697,36,619.8022,45.8438,620.4319,55.6875,619.9142,65.5313,620.0682,75.375,620,85.2188,620,85.1868,610.4545,85.3973,600.9091,85.4579,591.3636,85.8044,581.8182,85.8898,572.2727,85.898,562.7273,85.4734,553.1818,85.6823,543.6364,85.921,534.0909,84.4976,524.5455,85.8973,515,85.2188,514.7035,85.2188,515.5338,75.375,514.505,65.5313,514.9315,55.6875,515.7416,45.8438,515,36" style="stroke:#383838;stroke-width:1.5;"/><text fill="#000000" font-family="FG Virgil" font-size="14" font-style="italic" lengthAdjust="spacing" textLength="91" x="522" y="57.5332">«value object»</text><text fill="#000000" font-family="FG Virgil" font-size="14" lengthAdjust="spacing" textLength="79" x="528" y="75.1426">UserSession</text><polygon fill="#F8F8F8" points="515,615.4375,515,615.6477,524.5455,615.0232,534.0909,615.6308,543.6364,615.8372,553.1818,614.7241,562.7273,615.3598,572.2727,615.011,581.8182,615.054,591.3636,615.3693,600.9091,614.7461,610.4545,615.9911,620,615.4375,619.3697,615.4375,619.8022,625.2813,620.4319,635.125,619.9142,644.9688,620.0682,654.8125,620,664.6563,620,664.6243,610.4545,664.8348,600.9091,664.8954,591.3636,665.2419,581.8182,665.3273,572.2727,665.3355,562.7273,664.9109,553.1818,665.1198,543.6364,665.3585,534.0909,663.9351,524.5455,665.3348,515,664.6563,514.7035,664.6563,515.5338,654.8125,514.505,644.9688,514.9315,635.125,515.7416,625.2813,515,615.4375" style="stroke:#383838;stroke-width:1.5;"/><text fill="#000000" font-family="FG Virgil" font-size="14" font-style="italic" lengthAdjust="spacing" textLength="91" x="522" y="636.9707">«value object»</text><text fill="#000000" font-family="FG Virgil" font-size="14" lengthAdjust="spacing" textLength="79" x="528" y="654.5801">UserSession</text><polygon fill="#F8F8F8" points="630,36,630,36.2102,639.5,35.5857,649,36.1933,658.5,36.3997,668,35.2866,677.5,35.9223,687,35.5735,696.5,35.6165,706,36,705.9318,36,705.3086,45.8438,706.5536,55.6875,705.3697,65.5313,705.8022,75.375,706,85.2188,706,85.6507,696.5,85.133,687,85.287,677.5,85.1868,668,85.3973,658.5,85.4579,649,85.8044,639.5,85.8898,630,85.2188,630.6793,85.2188,630.2546,75.375,630.4636,65.5313,630.7022,55.6875,629.2788,45.8438,630,36" style="stroke:#383838;stroke-width:1.5;"/><text fill="#000000" font-family="FG Virgil" font-size="14" font-style="italic" lengthAdjust="spacing" textLength="62" x="637" y="57.5332">«domain»</text><text fill="#000000" font-family="FG Virgil" font-size="14" lengthAdjust="spacing" textLength="54" x="641" y="75.1426">kart:Kart</text><polygon fill="#F8F8F8" points="630,615.4375,630,615.6477,639.5,615.0232,649,615.6308,658.5,615.8372,668,614.7241,677.5,615.3598,687,615.011,696.5,615.054,706,615.4375,705.9318,615.4375,705.3086,625.2813,706.5536,635.125,705.3697,644.9688,705.8022,654.8125,706,664.6563,706,665.0882,696.5,664.5705,687,664.7245,677.5,664.6243,668,664.8348,658.5,664.8954,649,665.2419,639.5,665.3273,630,664.6563,630.6793,664.6563,630.2546,654.8125,630.4636,644.9688,630.7022,635.125,629.2788,625.2813,630,615.4375" style="stroke:#383838;stroke-width:1.5;"/><text fill="#000000" font-family="FG Virgil" font-size="14" font-style="italic" lengthAdjust="spacing" textLength="62" x="637" y="636.9707">«domain»</text><text fill="#000000" font-family="FG Virgil" font-size="14" lengthAdjust="spacing" textLength="54" x="641" y="654.5801">kart:Kart</text><text fill="#000000" font-family="FG Virgil" font-size="14" font-style="italic" lengthAdjust="spacing" textLength="79" x="725" y="65.5332">«repository»</text><text fill="#000000" font-family="FG Virgil" font-size="14" lengthAdjust="spacing" textLength="97" x="716" y="83.1426">FruitRepository</text><path d="M749.5,15 L749.5,15 L749.5651,15.067 L751.1716,13.118 L753.1599,11.5616 L755.0238,9.8774 L756.479,7.7727 L758.5,6.25 L758.4952,6.2158 L760.2739,5.8122 L762.0766,5.5812 L763.8958,5.47 L765.6577,4.9456 L767.5,5 L767.5,5 L767.5339,5.2437 L769.2615,4.9725 L771.0879,5.4129 L772.9264,5.9402 L774.6948,5.9622 L776.5,6.25 L776.5211,6.2717 L778.2901,7.9898 L780.1553,9.8069 L781.9741,11.5762 L783.8815,13.4366 L785.5,15 L786.0965,15 L786.1038,20.2 L785.7263,25.4 L785.9121,30.6 L786.1242,35.8 L785.5,41 L785.5,41 L785.2766,40.7702 L783.9102,42.9662 L781.8081,44.4055 L780.2654,46.4201 L778.1466,47.8423 L776.5,49.75 L776.4958,49.7198 L774.7453,50.3265 L772.897,50.2285 L771.1064,50.5464 L769.3207,50.8991 L767.5,51 L767.5,51 L767.5254,51.1832 L765.6998,50.7483 L763.9176,50.6264 L762.065,49.998 L760.3174,50.1252 L758.5,49.75 L758.6698,49.9247 L756.8377,48.1417 L755.0899,46.4453 L752.9503,44.3461 L751.0979,42.5422 L749.5,41 L748.9476,41 L749.4477,35.8 L749.3253,30.6 L750.1057,25.4 L749.3447,20.2 L749.5,15 " fill="#F8F8F8" style="stroke:#000000;stroke-width:1.5;"/><path d="M749.5,15 L749.5,15 L749.5651,15.067 L751.1716,16.618 L753.1599,18.5616 L755.0238,20.3774 L756.479,21.7727 L758.5,23.75 L758.4952,23.7158 L760.2739,23.8122 L762.0766,24.0812 L763.8958,24.47 L765.6577,24.4456 L767.5,25 L767.5,25 L767.5339,25.2437 L769.2615,24.4725 L771.0879,24.4129 L772.9264,24.4402 L774.6948,23.9622 L776.5,23.75 L776.5211,23.7717 L778.2901,21.9898 L780.1553,20.3069 L781.9741,18.5762 L783.8815,16.9366 L785.5,15 " fill="none" style="stroke:#000000;stroke-width:1.5;"/><text fill="#000000" font-family="FG Virgil" font-size="14" font-style="italic" lengthAdjust="spacing" textLength="79" x="725" y="629.9707">«repository»</text><text fill="#000000" font-family="FG Virgil" font-size="14" lengthAdjust="spacing" textLength="97" x="716" y="647.5801">FruitRepository</text><path d="M749.5,660.6563 L749.5,660.6563 L749.5651,660.7232 L751.1716,658.7742 L753.1599,657.2178 L755.0238,655.5336 L756.479,653.4289 L758.5,651.9063 L758.4952,651.872 L760.2739,651.4685 L762.0766,651.2374 L763.8958,651.1262 L765.6577,650.6019 L767.5,650.6563 L767.5,650.6563 L767.5339,650.9 L769.2615,650.6288 L771.0879,651.0692 L772.9264,651.5964 L774.6948,651.6185 L776.5,651.9063 L776.5211,651.928 L778.2901,653.6461 L780.1553,655.4631 L781.9741,657.2325 L783.8815,659.0929 L785.5,660.6563 L786.0965,660.6563 L786.1038,665.8563 L785.7263,671.0563 L785.9121,676.2563 L786.1242,681.4563 L785.5,686.6563 L785.5,686.6563 L785.2766,686.4264 L783.9102,688.6225 L781.8081,690.0618 L780.2654,692.0764 L778.1466,693.4985 L776.5,695.4063 L776.4958,695.3761 L774.7453,695.9827 L772.897,695.8848 L771.1064,696.2026 L769.3207,696.5553 L767.5,696.6563 L767.5,696.6563 L767.5254,696.8395 L765.6998,696.4045 L763.9176,696.2827 L762.065,695.6543 L760.3174,695.7814 L758.5,695.4063 L758.6698,695.5809 L756.8377,693.7979 L755.0899,692.1016 L752.9503,690.0023 L751.0979,688.1984 L749.5,686.6563 L748.9476,686.6563 L749.4477,681.4563 L749.3253,676.2563 L750.1057,671.0563 L749.3447,665.8563 L749.5,660.6563 " fill="#F8F8F8" style="stroke:#000000;stroke-width:1.5;"/><path d="M749.5,660.6563 L749.5,660.6563 L749.5651,660.7232 L751.1716,662.2742 L753.1599,664.2178 L755.0238,666.0336 L756.479,667.4289 L758.5,669.4063 L758.4952,669.372 L760.2739,669.4685 L762.0766,669.7374 L763.8958,670.1262 L765.6577,670.1019 L767.5,670.6563 L767.5,670.6563 L767.5339,670.9 L769.2615,670.1288 L771.0879,670.0692 L772.9264,670.0964 L774.6948,669.6185 L776.5,669.4063 L776.5211,669.428 L778.2901,667.6461 L780.1553,665.9631 L781.9741,664.2325 L783.8815,662.5929 L785.5,660.6563 " fill="none" style="stroke:#000000;stroke-width:1.5;"/><text fill="#000000" font-family="FG Virgil" font-size="14" font-style="italic" lengthAdjust="spacing" textLength="79" x="836.5" y="65.5332">«repository»</text><text fill="#000000" font-family="FG Virgil" font-size="14" lengthAdjust="spacing" textLength="94" x="829" y="83.1426">KartRepository</text><path d="M861,15 L861,15 L861.0651,15.067 L862.6716,13.118 L864.6599,11.5616 L866.5238,9.8774 L867.979,7.7727 L870,6.25 L869.9952,6.2158 L871.7739,5.8122 L873.5766,5.5812 L875.3958,5.47 L877.1577,4.9456 L879,5 L879,5 L879.0339,5.2437 L880.7615,4.9725 L882.5879,5.4129 L884.4264,5.9402 L886.1948,5.9622 L888,6.25 L888.0211,6.2717 L889.7901,7.9898 L891.6553,9.8069 L893.4741,11.5762 L895.3815,13.4366 L897,15 L897.5965,15 L897.6038,20.2 L897.2263,25.4 L897.4121,30.6 L897.6242,35.8 L897,41 L897,41 L896.7766,40.7702 L895.4102,42.9662 L893.3081,44.4055 L891.7654,46.4201 L889.6466,47.8423 L888,49.75 L887.9958,49.7198 L886.2453,50.3265 L884.397,50.2285 L882.6064,50.5464 L880.8207,50.8991 L879,51 L879,51 L879.0254,51.1832 L877.1998,50.7483 L875.4176,50.6264 L873.565,49.998 L871.8174,50.1252 L870,49.75 L870.1698,49.9247 L868.3377,48.1417 L866.5899,46.4453 L864.4503,44.3461 L862.5979,42.5422 L861,41 L860.4476,41 L860.9477,35.8 L860.8253,30.6 L861.6057,25.4 L860.8447,20.2 L861,15 " fill="#F8F8F8" style="stroke:#000000;stroke-width:1.5;"/><path d="M861,15 L861,15 L861.0651,15.067 L862.6716,16.618 L864.6599,18.5616 L866.5238,20.3774 L867.979,21.7727 L870,23.75 L869.9952,23.7158 L871.7739,23.8122 L873.5766,24.0812 L875.3958,24.47 L877.1577,24.4456 L879,25 L879,25 L879.0339,25.2437 L880.7615,24.4725 L882.5879,24.4129 L884.4264,24.4402 L886.1948,23.9622 L888,23.75 L888.0211,23.7717 L889.7901,21.9898 L891.6553,20.3069 L893.4741,18.5762 L895.3815,16.9366 L897,15 " fill="none" style="stroke:#000000;stroke-width:1.5;"/><text fill="#000000" font-family="FG Virgil" font-size="14" font-style="italic" lengthAdjust="spacing" textLength="79" x="836.5" y="629.9707">«repository»</text><text fill="#000000" font-family="FG Virgil" font-size="14" lengthAdjust="spacing" textLength="94" x="829" y="647.5801">KartRepository</text><path d="M861,660.6563 L861,660.6563 L861.0651,660.7232 L862.6716,658.7742 L864.6599,657.2178 L866.5238,655.5336 L867.979,653.4289 L870,651.9063 L869.9952,651.872 L871.7739,651.4685 L873.5766,651.2374 L875.3958,651.1262 L877.1577,650.6019 L879,650.6563 L879,650.6563 L879.0339,650.9 L880.7615,650.6288 L882.5879,651.0692 L884.4264,651.5964 L886.1948,651.6185 L888,651.9063 L888.0211,651.928 L889.7901,653.6461 L891.6553,655.4631 L893.4741,657.2325 L895.3815,659.0929 L897,660.6563 L897.5965,660.6563 L897.6038,665.8563 L897.2263,671.0563 L897.4121,676.2563 L897.6242,681.4563 L897,686.6563 L897,686.6563 L896.7766,686.4264 L895.4102,688.6225 L893.3081,690.0618 L891.7654,692.0764 L889.6466,693.4985 L888,695.4063 L887.9958,695.3761 L886.2453,695.9827 L884.397,695.8848 L882.6064,696.2026 L880.8207,696.5553 L879,696.6563 L879,696.6563 L879.0254,696.8395 L877.1998,696.4045 L875.4176,696.2827 L873.565,695.6543 L871.8174,695.7814 L870,695.4063 L870.1698,695.5809 L868.3377,693.7979 L866.5899,692.1016 L864.4503,690.0023 L862.5979,688.1984 L861,686.6563 L860.4476,686.6563 L860.9477,681.4563 L860.8253,676.2563 L861.6057,671.0563 L860.8447,665.8563 L861,660.6563 " fill="#F8F8F8" style="stroke:#000000;stroke-width:1.5;"/><path d="M861,660.6563 L861,660.6563 L861.0651,660.7232 L862.6716,662.2742 L864.6599,664.2178 L866.5238,666.0336 L867.979,667.4289 L870,669.4063 L869.9952,669.372 L871.7739,669.4685 L873.5766,669.7374 L875.3958,670.1262 L877.1577,670.1019 L879,670.6563 L879,670.6563 L879.0339,670.9 L880.7615,670.1288 L882.5879,670.0692 L884.4264,670.0964 L886.1948,669.6185 L888,669.4063 L888.0211,669.428 L889.7901,667.6461 L891.6553,665.9631 L893.4741,664.2325 L895.3815,662.5929 L897,660.6563 " fill="none" style="stroke:#000000;stroke-width:1.5;"/><polygon fill="#FFFFFF" points="240.5,118.5703,240.5,118.6404,242.5,118.4322,244.5,118.6347,246.5,118.7035,248.5,118.3325,250.5,118.5703,250.4223,118.5703,250.0735,128.5675,250.1165,138.5648,250.4318,148.562,249.8086,158.5592,251.0536,168.5565,249.8697,178.5537,250.3022,188.5509,250.9319,198.5482,250.4142,208.5454,250.5682,218.5426,250.4681,228.5399,250.6785,238.5371,250.7391,248.5343,251.0857,258.5316,251.1711,268.5288,251.1793,278.526,250.7546,288.5233,250.9636,298.5205,251.2022,308.5177,249.7788,318.515,251.1785,328.5122,250.2035,338.5094,251.0338,348.5067,250.005,358.5039,250.4315,368.5011,251.2416,378.4984,250.4513,388.4956,250.6053,398.4928,250.8386,408.4901,250.9162,418.4873,250.4961,428.4845,250.7872,438.4818,249.9276,448.479,250.7844,458.4762,251.0482,468.4735,250.9445,478.4707,251.113,488.4679,250.0169,498.4652,249.8478,508.4624,249.8786,518.4596,250.4411,528.4569,250.3035,538.4541,251.1814,548.4513,250.3253,558.4486,250.1569,568.4458,250.7283,578.443,249.8332,588.4403,250.5,598.4375,250.5,598.2645,248.5,598.6538,246.5,598.5827,244.5,598.6823,242.5,598.3302,240.5,598.4375,240.8192,598.4375,241.0904,588.4403,240.0276,578.443,240.4041,568.4458,240.626,558.4486,241.1518,548.4513,240.4958,538.4541,240.9626,528.4569,239.9462,518.4596,239.8227,508.4624,241.0036,498.4652,239.7831,488.4679,241.009,478.4707,240.7066,468.4735,240.2321,458.4762,240.1462,448.479,240.9588,438.4818,240.2007,428.4845,241.0919,418.4873,239.9473,408.4901,241.1174,398.4928,240.9843,388.4956,240.745,378.4984,240.5472,368.5011,241.2266,358.5039,241.1136,348.5067,240.6693,338.5094,240.7682,328.5122,240.3697,318.515,241.2165,308.5177,240.6549,298.5205,240.6726,288.5233,239.8916,278.526,240.0948,268.5288,241.0307,258.5316,240.9298,248.5343,240.4571,238.5371,240.1778,228.5399,240.2811,218.5426,239.8138,208.5454,240.9147,198.5482,241.2396,188.5509,241.0264,178.5537,241.1949,168.5565,240.3633,158.5592,240.5872,148.562,240.1124,138.5648,240.784,128.5675,240.5,118.5703" style="stroke:#383838;stroke-width:1.0;"/><polygon fill="#FFFFFF" points="413.5,148.9219,413.5,148.9919,415.5,148.7838,417.5,148.9863,419.5,149.0551,421.5,148.6841,423.5,148.9219,423.4223,148.9219,423.0735,158.9805,423.1165,169.0391,423.4318,179.0977,422.8086,189.1563,424.0536,199.2148,423.5,209.2734,423.5,209.0633,421.5,209.2075,419.5,209.4174,417.5,209.2448,415.5,209.2962,413.5,209.2734,413.4681,209.2734,413.6785,199.2148,413.7391,189.1563,414.0857,179.0977,414.1711,169.0391,414.1793,158.9805,413.5,148.9219" style="stroke:#383838;stroke-width:1.0;"/><polygon fill="#FFFFFF" points="413.5,343.6797,413.5,343.7497,415.5,343.5416,417.5,343.7441,419.5,343.8129,421.5,343.4419,423.5,343.6797,423.4223,343.6797,423.0735,353.7383,423.1165,363.7969,423.4318,373.8555,422.8086,383.9141,424.0536,393.9727,422.8697,404.0313,423.3022,414.0898,423.9319,424.1484,423.4142,434.207,423.5682,444.2656,423.4681,454.3242,423.5,464.3828,423.5,464.4423,421.5,464.4625,419.5,464.578,417.5,464.6065,415.5,464.6092,413.5,464.3828,413.7546,464.3828,413.9636,454.3242,414.2022,444.2656,412.7788,434.207,414.1785,424.1484,413.2035,414.0898,414.0338,404.0313,413.005,393.9727,413.4315,383.9141,414.2416,373.8555,413.4513,363.7969,413.6053,353.7383,413.5,343.6797" style="stroke:#383838;stroke-width:1.0;"/><polygon fill="#FFFFFF" points="663,434.3828,663,434.4529,665,434.2447,667,434.4472,669,434.516,671,434.145,673,434.3828,672.9741,434.3828,672.8578,440.3828,672.8722,446.3828,672.9773,452.3828,672.7695,458.3828,673,464.3828,673,464.5674,671,464.1727,669,464.3169,667,464.5268,665,464.3542,663,464.3828,663.0227,464.3828,662.9894,458.3828,663.0595,452.3828,663.0797,446.3828,663.1952,440.3828,663,434.3828" style="stroke:#383838;stroke-width:1.0;"/><polygon fill="#FFFFFF" points="762.5,179.2734,762.5,179.3435,764.5,179.1353,766.5,179.3379,768.5,179.4067,770.5,179.0356,772.5,179.2734,772.4741,179.2734,772.3578,185.2734,772.3722,191.2734,772.4773,197.2734,772.2695,203.2734,772.5,209.2734,772.5,209.458,770.5,209.0633,768.5,209.2075,766.5,209.4174,764.5,209.2448,762.5,209.2734,762.5227,209.2734,762.4894,203.2734,762.5595,197.2734,762.5797,191.2734,762.6952,185.2734,762.5,179.2734" style="stroke:#383838;stroke-width:1.0;"/><polygon fill="#FFFFFF" points="874,374.0313,874,374.1013,876,373.8931,878,374.0957,880,374.1645,882,373.7935,884,374.0313,883.9741,374.0313,883.8578,380.0313,883.8722,386.0313,883.9773,392.0313,883.7695,398.0313,884,404.0313,884,404.2158,882,403.8212,880,403.9653,878,404.1752,876,404.0027,874,404.0313,874.0227,404.0313,873.9894,398.0313,874.0595,392.0313,874.0797,386.0313,874.1952,380.0313,874,374.0313" style="stroke:#383838;stroke-width:1.0;"/><polygon fill="#FFFFFF" points="874,494.7344,874,494.8044,876,494.5963,878,494.7988,880,494.8676,882,494.4966,884,494.7344,883.9741,494.7344,883.8578,500.7344,883.8722,506.7344,883.9773,512.7344,883.7695,518.7344,884,524.7344,884,524.9189,882,524.5243,880,524.6685,878,524.8784,876,524.7058,874,524.7344,874.0227,524.7344,873.9894,518.7344,874.0595,512.7344,874.0797,506.7344,874.1952,500.7344,874,494.7344" style="stroke:#383838;stroke-width:1.0;"/><polygon fill="#383838" points="228.5,114.5703,228.526,114.6354,230.4487,115.2421,232.5239,116.2301,234.5495,117.094,236.4117,117.5495,238.5,118.5703,238.4904,118.5463,236.4472,119.2383,234.4525,120.0516,232.4916,120.9492,230.4144,121.5563,228.5,122.5703,228.6305,122.7008,229.1514,121.6218,230.0534,120.9237,231.0018,120.2721,231.6798,119.3501,232.5,118.5703,232.5161,118.5864,231.6925,117.7628,230.9421,117.0124,230.1564,116.2267,229.438,115.5084,228.5,114.5703" style="stroke:#383838;stroke-width:1.0;"/><path d="M22.5,118.5703 L22.5,118.8506 L32.5952,118.0179 L42.6905,118.828 L52.7857,119.1032 L62.881,117.6191 L72.9762,118.4667 L83.0714,118.0017 L93.1667,118.059 L103.2619,118.4794 L113.3571,117.6485 L123.4524,119.3085 L133.5476,117.7299 L143.6429,118.3066 L153.7381,119.1462 L163.8333,118.4559 L173.9286,118.6613 L184.0238,118.5277 L194.119,118.8083 L204.2143,118.8892 L214.3095,119.3512 L224.4048,119.4651 L234.5,118.5703 " fill="none" style="stroke:#383838;stroke-width:1.0;stroke-dasharray:2.0,2.0;"/><text fill="#000000" font-family="FG Virgil" font-size="13" lengthAdjust="spacing" textLength="89" x="29.5" y="113.7139">Add fruit to kart</text><polygon fill="#383838" points="401.5,144.9219,401.526,144.9869,403.4487,145.5936,405.5239,146.5817,407.5495,147.4456,409.4117,147.9011,411.5,148.9219,411.4904,148.8978,409.4472,149.5899,407.4525,150.4032,405.4916,151.3008,403.4144,151.9079,401.5,152.9219,401.6305,153.0524,402.1514,151.9733,403.0534,151.2753,404.0018,150.6237,404.6798,149.7017,405.5,148.9219,405.5161,148.938,404.6925,148.1143,403.9421,147.364,403.1564,146.5782,402.438,145.8599,401.5,144.9219" style="stroke:#383838;stroke-width:1.0;"/><path d="M250.5,148.9219 L250.5,149.2021 L260.3125,148.3694 L270.125,149.1796 L279.9375,149.4548 L289.75,147.9707 L299.5625,148.8183 L309.375,148.3532 L319.1875,148.4105 L329,148.831 L338.8125,148 L348.625,149.6601 L358.4375,148.0815 L368.25,148.6582 L378.0625,149.4978 L387.875,148.8075 L397.6875,149.0129 L407.5,148.9219 " fill="none" style="stroke:#383838;stroke-width:1.0;"/><text fill="#000000" font-family="FG Virgil" font-size="13" lengthAdjust="spacing" textLength="74" x="257.5" y="144.0654">getAllFruits()</text><polygon fill="#383838" points="750.5,175.2734,750.526,175.3385,752.4487,175.9452,754.5239,176.9333,756.5495,177.7971,758.4117,178.2526,760.5,179.2734,760.4904,179.2494,758.4472,179.9414,756.4525,180.7547,754.4916,181.6523,752.4144,182.2595,750.5,183.2734,750.6305,183.4039,751.1514,182.3249,752.0534,181.6268,753.0018,180.9752,753.6798,180.0532,754.5,179.2734,754.5161,179.2895,753.6925,178.4659,752.9421,177.7155,752.1564,176.9298,751.438,176.2115,750.5,175.2734" style="stroke:#383838;stroke-width:1.0;"/><path d="M423.5,179.2734 L423.5,179.5537 L433.5909,178.721 L443.6818,179.5312 L453.7727,179.8063 L463.8636,178.3222 L473.9545,179.1698 L484.0455,178.7048 L494.1364,178.7621 L504.2273,179.1826 L514.3182,178.3516 L524.4091,180.0116 L534.5,178.4331 L544.5909,179.0097 L554.6818,179.8494 L564.7727,179.1591 L574.8636,179.3644 L584.9545,179.2308 L595.0455,179.5115 L605.1364,179.5923 L615.2273,180.0544 L625.3182,180.1682 L635.4091,180.1791 L645.5,179.6129 L655.5909,179.8916 L665.6818,180.2097 L675.7727,178.3119 L685.8636,180.1781 L695.9545,178.8781 L706.0455,179.9852 L716.1364,178.6134 L726.2273,179.1821 L736.3182,180.2622 L746.4091,179.2085 L756.5,179.2734 " fill="none" style="stroke:#383838;stroke-width:1.0;"/><text fill="#000000" font-family="FG Virgil" font-size="13" lengthAdjust="spacing" textLength="74" x="430.5" y="174.417">getAllFruits()</text><path d="M250.5,239.625 L250.5,239.7184 L258.9,239.4409 L267.3,239.7109 L275.7,239.8026 L284.1,239.3079 L292.5,239.625 " fill="none" style="stroke:#383838;stroke-width:1.0;"/><path d="M292.5,239.625 L292.5934,239.625 L292.3159,242.225 L292.5859,244.825 L292.6776,247.425 L292.1829,250.025 L292.5,252.625 " fill="none" style="stroke:#383838;stroke-width:1.0;"/><path d="M251.5,252.625 L251.5,252.7184 L259.7,252.4409 L267.9,252.7109 L276.1,252.8026 L284.3,252.3079 L292.5,252.625 " fill="none" style="stroke:#383838;stroke-width:1.0;"/><polygon fill="#383838" points="261.5,248.625,261.526,248.69,259.4487,249.2968,257.5239,250.2848,255.5495,251.1487,253.4117,251.6042,251.5,252.625,251.4904,252.6009,253.4472,253.293,255.4525,254.1063,257.4916,255.0039,259.4144,255.611,261.5,256.625,261.6305,256.7555,260.5514,255.6764,259.8534,254.9784,259.2018,254.3268,258.2798,253.4048,257.5,252.625,257.5161,252.6411,258.2925,251.8175,259.1421,251.0671,259.9564,250.2814,260.838,249.563,261.5,248.625" style="stroke:#383838;stroke-width:1.0;"/><text fill="#000000" font-family="FG Virgil" font-size="13" lengthAdjust="spacing" textLength="38" x="257.5" y="234.7686">show()</text><polygon fill="#383838" points="33.5,278.9766,33.526,279.0416,31.4487,279.6483,29.5239,280.6364,27.5495,281.5003,25.4117,281.9558,23.5,282.9766,23.4904,282.9525,25.4472,283.6446,27.4525,284.4579,29.4916,285.3555,31.4144,285.9626,33.5,286.9766,33.6305,287.1071,32.5514,286.028,31.8534,285.3299,31.2018,284.6784,30.2798,283.7563,29.5,282.9766,29.5161,282.9926,30.2925,282.169,31.1421,281.4186,31.9564,280.6329,32.838,279.9146,33.5,278.9766" style="stroke:#383838;stroke-width:1.0;"/><path d="M27.5,282.9766 L27.5,283.2568 L37.5952,282.4241 L47.6905,283.2343 L57.7857,283.5095 L67.881,282.0254 L77.9762,282.8729 L88.0714,282.4079 L98.1667,282.4652 L108.2619,282.8857 L118.3571,282.0547 L128.4524,283.7148 L138.5476,282.1362 L148.6429,282.7129 L158.7381,283.5525 L168.8333,282.8622 L178.9286,283.0675 L189.0238,282.934 L199.119,283.2146 L209.2143,283.2954 L219.3095,283.7575 L229.4048,283.8713 L239.5,282.9766 " fill="none" style="stroke:#383838;stroke-width:1.0;stroke-dasharray:2.0,2.0;"/><text fill="#000000" font-family="FG Virgil" font-size="13" lengthAdjust="spacing" textLength="117" x="39.5" y="278.1201">Shows all fruit in tab</text><polygon fill="#383838" points="228.5,309.3281,228.526,309.3932,230.4487,309.9999,232.5239,310.9879,234.5495,311.8518,236.4117,312.3073,238.5,313.3281,238.4904,313.3041,236.4472,313.9961,234.4525,314.8094,232.4916,315.707,230.4144,316.3142,228.5,317.3281,228.6305,317.4586,229.1514,316.3796,230.0534,315.6815,231.0018,315.0299,231.6798,314.1079,232.5,313.3281,232.5161,313.3442,231.6925,312.5206,230.9421,311.7702,230.1564,310.9845,229.438,310.2662,228.5,309.3281" style="stroke:#383838;stroke-width:1.0;"/><path d="M22.5,313.3281 L22.5,313.6084 L32.5952,312.7757 L42.6905,313.5858 L52.7857,313.861 L62.881,312.3769 L72.9762,313.2245 L83.0714,312.7595 L93.1667,312.8168 L103.2619,313.2372 L113.3571,312.4063 L123.4524,314.0663 L133.5476,312.4878 L143.6429,313.0644 L153.7381,313.9041 L163.8333,313.2138 L173.9286,313.4191 L184.0238,313.2855 L194.119,313.5662 L204.2143,313.647 L214.3095,314.109 L224.4048,314.2229 L234.5,313.3281 " fill="none" style="stroke:#383838;stroke-width:1.0;stroke-dasharray:2.0,2.0;"/><text fill="#000000" font-family="FG Virgil" font-size="13" lengthAdjust="spacing" textLength="114" x="29.5" y="308.4717">Choses Fruit to add</text><polygon fill="#383838" points="401.5,339.6797,401.526,339.7447,403.4487,340.3515,405.5239,341.3395,407.5495,342.2034,409.4117,342.6589,411.5,343.6797,411.4904,343.6556,409.4472,344.3477,407.4525,345.161,405.4916,346.0586,403.4144,346.6657,401.5,347.6797,401.6305,347.8102,402.1514,346.7311,403.0534,346.0331,404.0018,345.3815,404.6798,344.4595,405.5,343.6797,405.5161,343.6958,404.6925,342.8722,403.9421,342.1218,403.1564,341.3361,402.438,340.6177,401.5,339.6797" style="stroke:#383838;stroke-width:1.0;"/><path d="M250.5,343.6797 L250.5,343.9599 L260.3125,343.1273 L270.125,343.9374 L279.9375,344.2126 L289.75,342.7285 L299.5625,343.5761 L309.375,343.111 L319.1875,343.1684 L329,343.5888 L338.8125,342.7579 L348.625,344.4179 L358.4375,342.8393 L368.25,343.416 L378.0625,344.2556 L387.875,343.5653 L397.6875,343.7707 L407.5,343.6797 " fill="none" style="stroke:#383838;stroke-width:1.0;"/><text fill="#000000" font-family="FG Virgil" font-size="13" lengthAdjust="spacing" textLength="144" x="257.5" y="338.8232">addFruitToKart(Fruit fruit)</text><polygon fill="#383838" points="862,370.0313,862.026,370.0963,863.9487,370.703,866.0239,371.6911,868.0495,372.5549,869.9117,373.0105,872,374.0313,871.9904,374.0072,869.9472,374.6993,867.9525,375.5126,865.9916,376.4102,863.9144,377.0173,862,378.0313,862.1305,378.1617,862.6514,377.0827,863.5534,376.3846,864.5018,375.7331,865.1798,374.811,866,374.0313,866.0161,374.0473,865.1925,373.2237,864.4421,372.4733,863.6564,371.6876,862.938,370.9693,862,370.0313" style="stroke:#383838;stroke-width:1.0;"/><path d="M423.5,374.0313 L423.5,374.3115 L433.6023,373.4788 L443.7045,374.289 L453.8068,374.5642 L463.9091,373.0801 L474.0114,373.9276 L484.1136,373.4626 L494.2159,373.5199 L504.3182,373.9404 L514.4205,373.1094 L524.5227,374.7694 L534.625,373.1909 L544.7273,373.7676 L554.8295,374.6072 L564.9318,373.9169 L575.0341,374.1222 L585.1364,373.9887 L595.2386,374.2693 L605.3409,374.3501 L615.4432,374.8122 L625.5455,374.926 L635.6477,374.9369 L645.75,374.3708 L655.8523,374.6494 L665.9545,374.9676 L676.0568,373.0697 L686.1591,374.9359 L696.2614,373.6359 L706.3636,374.743 L716.4659,373.3712 L726.5682,373.9399 L736.6705,375.0201 L746.7727,373.9663 L756.875,374.1717 L766.9773,374.4828 L777.0795,374.5862 L787.1818,374.026 L797.2841,374.4142 L807.3864,373.268 L817.4886,374.4104 L827.5909,374.7622 L837.6932,374.624 L847.7955,374.8486 L857.8977,373.3871 L868,374.0313 " fill="none" style="stroke:#383838;stroke-width:1.0;"/><text fill="#000000" font-family="FG Virgil" font-size="13" lengthAdjust="spacing" textLength="176" x="430.5" y="369.1748">kart=getKartById(String token)</text><polygon fill="#383838" points="651,430.3828,651.026,430.4479,652.9487,431.0546,655.0239,432.0426,657.0495,432.9065,658.9117,433.362,661,434.3828,660.9904,434.3588,658.9472,435.0508,656.9525,435.8641,654.9916,436.7617,652.9144,437.3688,651,438.3828,651.1305,438.5133,651.6514,437.4343,652.5534,436.7362,653.5018,436.0846,654.1798,435.1626,655,434.3828,655.0161,434.3989,654.1925,433.5753,653.4421,432.8249,652.6564,432.0392,651.938,431.3209,651,430.3828" style="stroke:#383838;stroke-width:1.0;"/><path d="M423.5,434.3828 L423.5,434.6631 L433.6522,433.8304 L443.8043,434.6405 L453.9565,434.9157 L464.1087,433.4316 L474.2609,434.2792 L484.413,433.8142 L494.5652,433.8715 L504.7174,434.2919 L514.8696,433.461 L525.0217,435.121 L535.1739,433.5424 L545.3261,434.1191 L555.4783,434.9587 L565.6304,434.2684 L575.7826,434.4738 L585.9348,434.3402 L596.087,434.6208 L606.2391,434.7017 L616.3913,435.1637 L626.5435,435.2776 L636.6957,435.2885 L646.8478,434.7223 L657,434.3828 " fill="none" style="stroke:#383838;stroke-width:1.0;"/><text fill="#000000" font-family="FG Virgil" font-size="13" lengthAdjust="spacing" textLength="106" x="430.5" y="429.5264">addFruit(Fruit fruit)</text><polygon fill="#383838" points="862,490.7344,862.026,490.7994,863.9487,491.4061,866.0239,492.3942,868.0495,493.2581,869.9117,493.7136,872,494.7344,871.9904,494.7103,869.9472,495.4024,867.9525,496.2157,865.9916,497.1133,863.9144,497.7204,862,498.7344,862.1305,498.8649,862.6514,497.7858,863.5534,497.0878,864.5018,496.4362,865.1798,495.5142,866,494.7344,866.0161,494.7505,865.1925,493.9268,864.4421,493.1765,863.6564,492.3907,862.938,491.6724,862,490.7344" style="stroke:#383838;stroke-width:1.0;"/><path d="M250.5,494.7344 L250.5,495.0146 L260.4597,494.1819 L270.4194,494.9921 L280.379,495.2673 L290.3387,493.7832 L300.2984,494.6308 L310.2581,494.1657 L320.2177,494.223 L330.1774,494.6435 L340.1371,493.8125 L350.0968,495.4726 L360.0565,493.894 L370.0161,494.4707 L379.9758,495.3103 L389.9355,494.62 L399.8952,494.8254 L409.8548,494.6918 L419.8145,494.9724 L429.7742,495.0532 L439.7339,495.5153 L449.6935,495.6291 L459.6532,495.6401 L469.6129,495.0739 L479.5726,495.3525 L489.5323,495.6707 L499.4919,493.7728 L509.4516,495.6391 L519.4113,494.339 L529.371,495.4461 L539.3306,494.0743 L549.2903,494.643 L559.25,495.7232 L569.2097,494.6694 L579.1694,494.8748 L589.129,495.1859 L599.0887,495.2894 L609.0484,494.7292 L619.0081,495.1173 L628.9677,493.9712 L638.9274,495.1136 L648.8871,495.4653 L658.8468,495.3271 L668.8065,495.5517 L678.7661,494.0903 L688.7258,493.8648 L698.6855,493.9058 L708.6452,494.6559 L718.6048,494.4723 L728.5645,495.6429 L738.5242,494.5015 L748.4839,494.277 L758.4435,495.0387 L768.4032,493.8453 L778.3629,494.0422 L788.3226,495.5996 L798.2823,495.3153 L808.2419,495.7137 L818.2016,494.3053 L828.1613,495.16 L838.121,495.5216 L848.0806,494.1045 L858.0403,494.6066 L868,494.7344 " fill="none" style="stroke:#383838;stroke-width:1.0;"/><text fill="#000000" font-family="FG Virgil" font-size="13" lengthAdjust="spacing" textLength="56" x="257.5" y="489.8779">save(kart)</text><path d="M250.5,555.0859 L250.5,555.1794 L258.9,554.9018 L267.3,555.1718 L275.7,555.2636 L284.1,554.7689 L292.5,555.0859 " fill="none" style="stroke:#383838;stroke-width:1.0;"/><path d="M292.5,555.0859 L292.5934,555.0859 L292.3159,557.6859 L292.5859,560.2859 L292.6776,562.8859 L292.1829,565.4859 L292.5,568.0859 " fill="none" style="stroke:#383838;stroke-width:1.0;"/><path d="M251.5,568.0859 L251.5,568.1794 L259.7,567.9018 L267.9,568.1718 L276.1,568.2636 L284.3,567.7689 L292.5,568.0859 " fill="none" style="stroke:#383838;stroke-width:1.0;"/><polygon fill="#383838" points="261.5,564.0859,261.526,564.151,259.4487,564.7577,257.5239,565.7458,255.5495,566.6096,253.4117,567.0651,251.5,568.0859,251.4904,568.0619,253.4472,568.7539,255.4525,569.5672,257.4916,570.4648,259.4144,571.072,261.5,572.0859,261.6305,572.2164,260.5514,571.1374,259.8534,570.4393,259.2018,569.7877,258.2798,568.8657,257.5,568.0859,257.5161,568.102,258.2925,567.2784,259.1421,566.528,259.9564,565.7423,260.838,565.024,261.5,564.0859" style="stroke:#383838;stroke-width:1.0;"/><text fill="#000000" font-family="FG Virgil" font-size="13" lengthAdjust="spacing" textLength="38" x="257.5" y="550.2295">show()</text><polygon fill="#383838" points="33.5,594.4375,33.526,594.5025,31.4487,595.1093,29.5239,596.0973,27.5495,596.9612,25.4117,597.4167,23.5,598.4375,23.4904,598.4134,25.4472,599.1055,27.4525,599.9188,29.4916,600.8164,31.4144,601.4235,33.5,602.4375,33.6305,602.568,32.5514,601.4889,31.8534,600.7909,31.2018,600.1393,30.2798,599.2173,29.5,598.4375,29.5161,598.4536,30.2925,597.63,31.1421,596.8796,31.9564,596.0939,32.838,595.3755,33.5,594.4375" style="stroke:#383838;stroke-width:1.0;"/><path d="M27.5,598.4375 L27.5,598.7177 L37.3636,597.8851 L47.2273,598.6952 L57.0909,598.9704 L66.9545,597.4863 L76.8182,598.3339 L86.6818,597.8688 L96.5455,597.9262 L106.4091,598.3466 L116.2727,597.5157 L126.1364,599.1757 L136,597.5971 L145.8636,598.1738 L155.7273,599.0134 L165.5909,598.3231 L175.4545,598.5285 L185.3182,598.3949 L195.1818,598.6755 L205.0455,598.7563 L214.9091,599.2184 L224.7727,599.3322 L234.6364,599.3432 L244.5,598.4375 " fill="none" style="stroke:#383838;stroke-width:1.0;stroke-dasharray:2.0,2.0;"/><text fill="#000000" font-family="FG Virgil" font-size="13" lengthAdjust="spacing" textLength="194" x="39.5" y="593.5811">Fruit is added and kart is updated</text><!--MD5=[6083a8fab7bdcfabb9fc8347f5b2afba]
@startuml
skinparam handwritten true
skinparam monochrome true
skinparam packageStyle rect
skinparam defaultFontName FG Virgil
skinparam shadowing false

actor User as Actor
participant "/all" as UI <<presentation>>
control AddFruitGeneralController as Controller <<application>>
participant "UserSession" as UserSession <<value object>>
participant "kart:Kart" as Domain <<domain>>
database FruitRepository as FS <<repository>>
database KartRepository as KS <<repository>>


Actor - -> UI: Add fruit to kart
activate UI
         UI -> Controller: getAllFruits()
      activate Controller

       Controller ->FS : getAllFruits()
       activate FS
       deactivate FS
       deactivate Controller
       UI -> UI : show()
    UI - -> Actor: Shows all fruit in tab
    Actor - -> UI: Choses Fruit to add

   UI -> Controller: addFruitToKart(Fruit fruit)
 activate Controller
        Controller -> KS : kart=getKartById(String token)
        activate KS
        deactivate KS
       Controller -> Domain :  addFruit(Fruit fruit)
       activate Domain
       deactivate Domain
       deactivate Controller

UI -> KS : save(kart)
activate KS
deactivate KS


UI -> UI : show()
 UI - -> Actor: Fruit is added and kart is updated
deactivate UI
@enduml

PlantUML version 1.2021.11(Sat Oct 02 15:26:11 CEST 2021)
(GPL source distribution)
Java Runtime: OpenJDK Runtime Environment
JVM: Dynamic Code Evolution 64-Bit Server VM
Default Encoding: Cp1252
Language: pt
Country: PT
--></g></svg>