<?xml version="1.0" encoding="UTF-8" standalone="no"?><svg xmlns="http://www.w3.org/2000/svg" xmlns:xlink="http://www.w3.org/1999/xlink" contentScriptType="application/ecmascript" contentStyleType="text/css" height="828px" preserveAspectRatio="none" style="width:1448px;height:828px;background:#FFFFFF;" version="1.1" viewBox="0 0 1448 828" width="1448px" zoomAndPan="magnify"><defs/><g><polygon fill="#FFFFFF" points="17.5,118.5703,17.5,118.6404,19.5,118.4322,21.5,118.6347,23.5,118.7035,25.5,118.3325,27.5,118.5703,27.4223,118.5703,27.0735,128.6523,27.1165,138.7344,27.4318,148.8164,26.8086,158.8984,28.0536,168.9805,26.8697,179.0625,27.3022,189.1445,27.9319,199.2266,27.4142,209.3086,27.5682,219.3906,27.4681,229.4727,27.6785,239.5547,27.7391,249.6367,28.0857,259.7188,28.1711,269.8008,28.1793,279.8828,27.7546,289.9648,27.9636,300.0469,28.2022,310.1289,26.7788,320.2109,28.1785,330.293,27.2035,340.375,28.0338,350.457,27.005,360.5391,27.4315,370.6211,28.2416,380.7031,27.4513,390.7852,27.6053,400.8672,27.8386,410.9492,27.9162,421.0313,27.4961,431.1133,27.7872,441.1953,26.9276,451.2773,27.7844,461.3594,28.0482,471.4414,27.9445,481.5234,28.113,491.6055,27.0169,501.6875,26.8478,511.7695,26.8786,521.8516,27.4411,531.9336,27.3035,542.0156,28.1814,552.0977,27.3253,562.1797,27.1569,572.2617,27.7283,582.3438,26.8332,592.4258,26.9809,602.5078,28.149,612.5898,27.9357,622.6719,28.2345,632.7539,27.1782,642.8359,27.8192,652.918,28.0904,663,27.0276,673.082,27.4041,683.1641,27.626,693.2461,28.1518,703.3281,27.4958,713.4102,27.5,723.4922,27.5,723.6464,25.5,723.3076,23.5,723.2664,21.5,723.6601,19.5,723.2532,17.5,723.4922,18.009,723.4922,17.7066,713.4102,17.2321,703.3281,17.1462,693.2461,17.9588,683.1641,17.2007,673.082,18.0919,663,16.9473,652.918,18.1174,642.8359,17.9843,632.7539,17.745,622.6719,17.5472,612.5898,18.2266,602.5078,18.1136,592.4258,17.6693,582.3438,17.7682,572.2617,17.3697,562.1797,18.2165,552.0977,17.6549,542.0156,17.6726,531.9336,16.8916,521.8516,17.0948,511.7695,18.0307,501.6875,17.9298,491.6055,17.4571,481.5234,17.1778,471.4414,17.2811,461.3594,16.8138,451.2773,17.9147,441.1953,18.2396,431.1133,18.0264,421.0313,18.1949,410.9492,17.3633,400.8672,17.5872,390.7852,17.1124,380.7031,17.784,370.6211,17.7468,360.5391,18.0524,350.457,17.2703,340.375,17.3656,330.293,17.9435,320.2109,18.0673,310.1289,16.9875,300.0469,17.3061,289.9648,17.6493,279.8828,16.8892,269.8008,17.8534,259.7188,17.758,249.6367,17.3992,239.5547,17.6422,229.4727,18.2287,219.3906,17.1871,209.3086,17.815,199.2266,17.7856,189.1445,17.6158,179.0625,17.6409,168.9805,17.6135,158.8984,16.8758,148.8164,17.0992,138.7344,17.0385,128.6523,17.5,118.5703" style="stroke:#383838;stroke-width:1.0;"/><polygon fill="#FFFFFF" points="247.5,118.5703,247.5,118.6404,249.5,118.4322,251.5,118.6347,253.5,118.7035,255.5,118.3325,257.5,118.5703,257.4223,118.5703,257.0735,128.6523,257.1165,138.7344,257.4318,148.8164,256.8086,158.8984,258.0536,168.9805,256.8697,179.0625,257.3022,189.1445,257.9319,199.2266,257.4142,209.3086,257.5682,219.3906,257.4681,229.4727,257.6785,239.5547,257.7391,249.6367,258.0857,259.7188,258.1711,269.8008,258.1793,279.8828,257.7546,289.9648,257.9636,300.0469,258.2022,310.1289,256.7788,320.2109,258.1785,330.293,257.2035,340.375,258.0338,350.457,257.005,360.5391,257.4315,370.6211,258.2416,380.7031,257.4513,390.7852,257.6053,400.8672,257.8386,410.9492,257.9162,421.0313,257.4961,431.1133,257.7872,441.1953,256.9276,451.2773,257.7844,461.3594,258.0482,471.4414,257.9445,481.5234,258.113,491.6055,257.0169,501.6875,256.8478,511.7695,256.8786,521.8516,257.4411,531.9336,257.3035,542.0156,258.1814,552.0977,257.3253,562.1797,257.1569,572.2617,257.7283,582.3438,256.8332,592.4258,256.9809,602.5078,258.149,612.5898,257.9357,622.6719,258.2345,632.7539,257.1782,642.8359,257.8192,652.918,258.0904,663,257.0276,673.082,257.4041,683.1641,257.626,693.2461,258.1518,703.3281,257.4958,713.4102,257.5,723.4922,257.5,723.6464,255.5,723.3076,253.5,723.2664,251.5,723.6601,249.5,723.2532,247.5,723.4922,248.009,723.4922,247.7066,713.4102,247.2321,703.3281,247.1462,693.2461,247.9588,683.1641,247.2007,673.082,248.0919,663,246.9473,652.918,248.1174,642.8359,247.9843,632.7539,247.745,622.6719,247.5472,612.5898,248.2266,602.5078,248.1136,592.4258,247.6693,582.3438,247.7682,572.2617,247.3697,562.1797,248.2165,552.0977,247.6549,542.0156,247.6726,531.9336,246.8916,521.8516,247.0948,511.7695,248.0307,501.6875,247.9298,491.6055,247.4571,481.5234,247.1778,471.4414,247.2811,461.3594,246.8138,451.2773,247.9147,441.1953,248.2396,431.1133,248.0264,421.0313,248.1949,410.9492,247.3633,400.8672,247.5872,390.7852,247.1124,380.7031,247.784,370.6211,247.7468,360.5391,248.0524,350.457,247.2703,340.375,247.3656,330.293,247.9435,320.2109,248.0673,310.1289,246.9875,300.0469,247.3061,289.9648,247.6493,279.8828,246.8892,269.8008,247.8534,259.7188,247.758,249.6367,247.3992,239.5547,247.6422,229.4727,248.2287,219.3906,247.1871,209.3086,247.815,199.2266,247.7856,189.1445,247.6158,179.0625,247.6409,168.9805,247.6135,158.8984,246.8758,148.8164,247.0992,138.7344,247.0385,128.6523,247.5,118.5703" style="stroke:#383838;stroke-width:1.0;"/><polygon fill="#FFFFFF" points="516.5,148.9219,516.5,148.9919,518.5,148.7838,520.5,148.9863,522.5,149.0551,524.5,148.6841,526.5,148.9219,526.4223,148.9219,526.0735,159,526.1165,169.0781,526.4318,179.1563,525.8086,189.2344,527.0536,199.3125,525.8697,209.3906,526.3022,219.4688,526.9319,229.5469,526.4142,239.625,526.5682,249.7031,526.4681,259.7813,526.6785,269.8594,526.7391,279.9375,527.0857,290.0156,527.1711,300.0938,527.1793,310.1719,526.7546,320.25,526.5,330.3281,526.5,330.4827,524.5,330.5622,522.5,330.0877,520.5,330.5543,518.5,330.2293,516.5,330.3281,517.0338,330.3281,516.005,320.25,516.4315,310.1719,517.2416,300.0938,516.4513,290.0156,516.6053,279.9375,516.8386,269.8594,516.9162,259.7813,516.4961,249.7031,516.7872,239.625,515.9276,229.5469,516.7844,219.4688,517.0482,209.3906,516.9445,199.3125,517.113,189.2344,516.0169,179.1563,515.8478,169.0781,515.8786,159,516.5,148.9219" style="stroke:#383838;stroke-width:1.0;"/><polygon fill="#FFFFFF" points="516.5,421.3828,516.5,421.4529,518.5,421.2447,520.5,421.4472,522.5,421.516,524.5,421.145,526.5,421.3828,526.4223,421.3828,526.0735,431.4479,526.1165,441.513,526.4318,451.5781,525.8086,461.6432,527.0536,471.7083,525.8697,481.7734,526.3022,491.8385,526.9319,501.9036,526.4142,511.9688,526.5682,522.0339,526.4681,532.099,526.6785,542.1641,526.7391,552.2292,527.0857,562.2943,527.1711,572.3594,527.1793,582.4245,526.7546,592.4896,526.9636,602.5547,527.2022,612.6198,525.7788,622.6849,527.1785,632.75,526.2035,642.8151,527.0338,652.8802,526.005,662.9453,526.4315,673.0104,527.2416,683.0755,526.5,693.1406,526.5,693.1244,524.5,693.1757,522.5,693.2535,520.5,693.2794,518.5,693.1393,516.5,693.1406,516.7872,693.1406,515.9276,683.0755,516.7844,673.0104,517.0482,662.9453,516.9445,652.8802,517.113,642.8151,516.0169,632.75,515.8478,622.6849,515.8786,612.6198,516.4411,602.5547,516.3035,592.4896,517.1814,582.4245,516.3253,572.3594,516.1569,562.2943,516.7283,552.2292,515.8332,542.1641,515.9809,532.099,517.149,522.0339,516.9357,511.9688,517.2345,501.9036,516.1782,491.8385,516.8192,481.7734,517.0904,471.7083,516.0276,461.6432,516.4041,451.5781,516.626,441.513,517.1518,431.4479,516.5,421.3828" style="stroke:#383838;stroke-width:1.0;"/><polygon fill="#FFFFFF" points="620,179.2734,620,179.3435,622,179.1353,624,179.3379,626,179.4067,628,179.0356,630,179.2734,629.9223,179.2734,629.5735,189.332,629.6165,199.3906,629.9318,209.4492,629.3086,219.5078,630.5536,229.5664,630,239.625,630,239.4149,628,239.5591,626,239.769,624,239.5964,622,239.6477,620,239.625,619.9681,239.625,620.1785,229.5664,620.2391,219.5078,620.5857,209.4492,620.6711,199.3906,620.6793,189.332,620,179.2734" style="stroke:#383838;stroke-width:1.0;"/><polygon fill="#FFFFFF" points="732.5,451.7344,732.5,451.8044,734.5,451.5963,736.5,451.7988,738.5,451.8676,740.5,451.4966,742.5,451.7344,742.4223,451.7344,742.0735,461.793,742.1165,471.8516,742.4318,481.9102,741.8086,491.9688,743.0536,502.0273,741.8697,512.0859,742.3022,522.1445,742.9319,532.2031,742.4142,542.2617,742.5682,552.3203,742.4681,562.3789,742.6785,572.4375,742.7391,582.4961,743.0857,592.5547,743.1711,602.6133,743.1793,612.6719,742.7546,622.7305,742.9636,632.7891,743.2022,642.8477,741.7788,652.9063,743.1785,662.9648,742.2035,673.0234,743.0338,683.082,742.5,693.1406,742.5,692.9756,740.5,693.1178,738.5,693.3878,736.5,693.1244,734.5,693.1757,732.5,693.1406,732.8386,693.1406,732.9162,683.082,732.4961,673.0234,732.7872,662.9648,731.9276,652.9063,732.7844,642.8477,733.0482,632.7891,732.9445,622.7305,733.113,612.6719,732.0169,602.6133,731.8478,592.5547,731.8786,582.4961,732.4411,572.4375,732.3035,562.3789,733.1814,552.3203,732.3253,542.2617,732.1569,532.2031,732.7283,522.1445,731.8332,512.0859,731.9809,502.0273,733.149,491.9688,732.9357,481.9102,733.2345,471.8516,732.1782,461.793,732.5,451.7344" style="stroke:#383838;stroke-width:1.0;"/><polygon fill="#FFFFFF" points="845.5,269.9766,845.5,270.0466,847.5,269.8385,849.5,270.041,851.5,270.1098,853.5,269.7388,855.5,269.9766,855.4223,269.9766,855.0735,280.0352,855.1165,290.0938,855.4318,300.1523,854.8086,310.2109,856.0536,320.2695,855.5,330.3281,855.5,330.118,853.5,330.2622,851.5,330.4721,849.5,330.2995,847.5,330.3509,845.5,330.3281,845.4681,330.3281,845.6785,320.2695,845.7391,310.2109,846.0857,300.1523,846.1711,290.0938,846.1793,280.0352,845.5,269.9766" style="stroke:#383838;stroke-width:1.0;"/><polygon fill="#FFFFFF" points="966.5,209.625,966.5,209.6951,968.5,209.4869,970.5,209.6894,972.5,209.7582,974.5,209.3872,976.5,209.625,976.4741,209.625,976.3578,215.625,976.3722,221.625,976.4773,227.625,976.2695,233.625,976.5,239.625,976.5,239.8095,974.5,239.4149,972.5,239.5591,970.5,239.769,968.5,239.5964,966.5,239.625,966.5227,239.625,966.4894,233.625,966.5595,227.625,966.5797,221.625,966.6952,215.625,966.5,209.625" style="stroke:#383838;stroke-width:1.0;"/><polygon fill="#FFFFFF" points="966.5,482.0859,966.5,482.156,968.5,481.9478,970.5,482.1504,972.5,482.2192,974.5,481.8481,976.5,482.0859,976.4741,482.0859,976.3578,488.0859,976.3722,494.0859,976.4773,500.0859,976.2695,506.0859,976.5,512.0859,976.5,512.2705,974.5,511.8758,972.5,512.02,970.5,512.2299,968.5,512.0573,966.5,512.0859,966.5227,512.0859,966.4894,506.0859,966.5595,500.0859,966.5797,494.0859,966.6952,488.0859,966.5,482.0859" style="stroke:#383838;stroke-width:1.0;"/><polygon fill="#FFFFFF" points="1066,602.7891,1066,602.8591,1068,602.651,1070,602.8535,1072,602.9223,1074,602.5513,1076,602.7891,1075.9741,602.7891,1075.8578,608.7891,1075.8722,614.7891,1075.9773,620.7891,1075.7695,626.7891,1076,632.7891,1076,632.9736,1074,632.579,1072,632.7231,1070,632.933,1068,632.7605,1066,632.7891,1066.0227,632.7891,1065.9894,626.7891,1066.0595,620.7891,1066.0797,614.7891,1066.1952,608.7891,1066,602.7891" style="stroke:#383838;stroke-width:1.0;"/><polygon fill="#FFFFFF" points="1250,542.4375,1250,542.5076,1252,542.2994,1254,542.5019,1256,542.5707,1258,542.1997,1260,542.4375,1259.9741,542.4375,1259.8578,548.4375,1259.8722,554.4375,1259.9773,560.4375,1259.7695,566.4375,1260,572.4375,1260,572.622,1258,572.2274,1256,572.3716,1254,572.5815,1252,572.4089,1250,572.4375,1250.0227,572.4375,1249.9894,566.4375,1250.0595,560.4375,1250.0797,554.4375,1250.1952,548.4375,1250,542.4375" style="stroke:#383838;stroke-width:1.0;"/><polygon fill="#FFFFFF" points="1250,663.1406,1250,663.2107,1252,663.0025,1254,663.2051,1256,663.2739,1258,662.9028,1260,663.1406,1259.9741,663.1406,1259.8578,669.1406,1259.8722,675.1406,1259.9773,681.1406,1259.7695,687.1406,1260,693.1406,1260,693.3252,1258,692.9305,1256,693.0747,1254,693.2846,1252,693.112,1250,693.1406,1250.0227,693.1406,1249.9894,687.1406,1250.0595,681.1406,1250.0797,675.1406,1250.1952,669.1406,1250,663.1406" style="stroke:#383838;stroke-width:1.0;"/><polygon fill="#FFFFFF" points="1376,300.3281,1376,300.3982,1378,300.19,1380,300.3926,1382,300.4614,1384,300.0903,1386,300.3281,1385.9741,300.3281,1385.8578,306.3281,1385.8722,312.3281,1385.9773,318.3281,1385.7695,324.3281,1386,330.3281,1386,330.5127,1384,330.118,1382,330.2622,1380,330.4721,1378,330.2995,1376,330.3281,1376.0227,330.3281,1375.9894,324.3281,1376.0595,318.3281,1376.0797,312.3281,1376.1952,306.3281,1376,300.3281" style="stroke:#383838;stroke-width:1.0;"/><path d="M22,86.2188 L22.2802,86.2188 L21.4476,96.1471 L22.2577,106.0755 L22.5329,116.0039 L21.0488,125.9323 L21.8964,135.8607 L21.4313,145.7891 L21.4887,155.7174 L21.9091,165.6458 L21.0782,175.5742 L22.7382,185.5026 L21.1596,195.431 L21.7363,205.3594 L22.5759,215.2878 L21.8856,225.2161 L22.091,235.1445 L21.9574,245.0729 L22.238,255.0013 L22.3188,264.9297 L22.7809,274.8581 L22.8947,284.7865 L22.9057,294.7148 L22.3395,304.6432 L22.6181,314.5716 L22.9363,324.5 L21.0384,334.4284 L22.9047,344.3568 L21.6047,354.2852 L22.7117,364.2135 L21.34,374.1419 L21.9087,384.0703 L22.9888,393.9987 L21.935,403.9271 L22.1404,413.8555 L22.4515,423.7839 L22.555,433.7122 L21.9948,443.6406 L22.383,453.569 L21.2368,463.4974 L22.3792,473.4258 L22.7309,483.3542 L22.5927,493.2826 L22.8174,503.2109 L21.3559,513.1393 L21.1304,523.0677 L21.1715,532.9961 L21.9215,542.9245 L21.738,552.8529 L22.9085,562.7813 L21.7671,572.7096 L21.5426,582.638 L22.3044,592.5664 L21.1109,602.4948 L21.3078,612.4232 L22.8653,622.3516 L22.5809,632.2799 L22.9793,642.2083 L21.5709,652.1367 L22.4256,662.0651 L22.7872,671.9935 L21.3701,681.9219 L21.8722,691.8503 L22.168,701.7786 L22.869,711.707 L21.9944,721.6354 L22.6168,731.5638 L22,741.4922 " fill="none" style="stroke:#383838;stroke-width:1.0;stroke-dasharray:5.0,5.0;"/><path d="M252,86.2188 L252.2802,86.2188 L251.4476,96.1471 L252.2577,106.0755 L252.5329,116.0039 L251.0488,125.9323 L251.8964,135.8607 L251.4313,145.7891 L251.4887,155.7174 L251.9091,165.6458 L251.0782,175.5742 L252.7382,185.5026 L251.1596,195.431 L251.7363,205.3594 L252.5759,215.2878 L251.8856,225.2161 L252.091,235.1445 L251.9574,245.0729 L252.238,255.0013 L252.3188,264.9297 L252.7809,274.8581 L252.8947,284.7865 L252.9057,294.7148 L252.3395,304.6432 L252.6181,314.5716 L252.9363,324.5 L251.0384,334.4284 L252.9047,344.3568 L251.6047,354.2852 L252.7117,364.2135 L251.34,374.1419 L251.9087,384.0703 L252.9888,393.9987 L251.935,403.9271 L252.1404,413.8555 L252.4515,423.7839 L252.555,433.7122 L251.9948,443.6406 L252.383,453.569 L251.2368,463.4974 L252.3792,473.4258 L252.7309,483.3542 L252.5927,493.2826 L252.8174,503.2109 L251.3559,513.1393 L251.1304,523.0677 L251.1715,532.9961 L251.9215,542.9245 L251.738,552.8529 L252.9085,562.7813 L251.7671,572.7096 L251.5426,582.638 L252.3044,592.5664 L251.1109,602.4948 L251.3078,612.4232 L252.8653,622.3516 L252.5809,632.2799 L252.9793,642.2083 L251.5709,652.1367 L252.4256,662.0651 L252.7872,671.9935 L251.3701,681.9219 L251.8722,691.8503 L252.168,701.7786 L252.869,711.707 L251.9944,721.6354 L252.6168,731.5638 L252,741.4922 " fill="none" style="stroke:#383838;stroke-width:1.0;stroke-dasharray:5.0,5.0;"/><path d="M521,86.2188 L521.2802,86.2188 L520.4476,96.1471 L521.2577,106.0755 L521.5329,116.0039 L520.0488,125.9323 L520.8964,135.8607 L520.4313,145.7891 L520.4887,155.7174 L520.9091,165.6458 L520.0782,175.5742 L521.7382,185.5026 L520.1596,195.431 L520.7363,205.3594 L521.5759,215.2878 L520.8856,225.2161 L521.091,235.1445 L520.9574,245.0729 L521.238,255.0013 L521.3188,264.9297 L521.7809,274.8581 L521.8947,284.7865 L521.9057,294.7148 L521.3395,304.6432 L521.6181,314.5716 L521.9363,324.5 L520.0384,334.4284 L521.9047,344.3568 L520.6047,354.2852 L521.7117,364.2135 L520.34,374.1419 L520.9087,384.0703 L521.9888,393.9987 L520.935,403.9271 L521.1404,413.8555 L521.4515,423.7839 L521.555,433.7122 L520.9948,443.6406 L521.383,453.569 L520.2368,463.4974 L521.3792,473.4258 L521.7309,483.3542 L521.5927,493.2826 L521.8174,503.2109 L520.3559,513.1393 L520.1304,523.0677 L520.1715,532.9961 L520.9215,542.9245 L520.738,552.8529 L521.9085,562.7813 L520.7671,572.7096 L520.5426,582.638 L521.3044,592.5664 L520.1109,602.4948 L520.3078,612.4232 L521.8653,622.3516 L521.5809,632.2799 L521.9793,642.2083 L520.5709,652.1367 L521.4256,662.0651 L521.7872,671.9935 L520.3701,681.9219 L520.8722,691.8503 L521.168,701.7786 L521.869,711.707 L520.9944,721.6354 L521.6168,731.5638 L521,741.4922 " fill="none" style="stroke:#383838;stroke-width:1.0;stroke-dasharray:5.0,5.0;"/><path d="M625,86.2188 L625.2802,86.2188 L624.4476,96.1471 L625.2577,106.0755 L625.5329,116.0039 L624.0488,125.9323 L624.8964,135.8607 L624.4313,145.7891 L624.4887,155.7174 L624.9091,165.6458 L624.0782,175.5742 L625.7382,185.5026 L624.1596,195.431 L624.7363,205.3594 L625.5759,215.2878 L624.8856,225.2161 L625.091,235.1445 L624.9574,245.0729 L625.238,255.0013 L625.3188,264.9297 L625.7809,274.8581 L625.8947,284.7865 L625.9057,294.7148 L625.3395,304.6432 L625.6181,314.5716 L625.9363,324.5 L624.0384,334.4284 L625.9047,344.3568 L624.6047,354.2852 L625.7117,364.2135 L624.34,374.1419 L624.9087,384.0703 L625.9888,393.9987 L624.935,403.9271 L625.1404,413.8555 L625.4515,423.7839 L625.555,433.7122 L624.9948,443.6406 L625.383,453.569 L624.2368,463.4974 L625.3792,473.4258 L625.7309,483.3542 L625.5927,493.2826 L625.8174,503.2109 L624.3559,513.1393 L624.1304,523.0677 L624.1715,532.9961 L624.9215,542.9245 L624.738,552.8529 L625.9085,562.7813 L624.7671,572.7096 L624.5426,582.638 L625.3044,592.5664 L624.1109,602.4948 L624.3078,612.4232 L625.8653,622.3516 L625.5809,632.2799 L625.9793,642.2083 L624.5709,652.1367 L625.4256,662.0651 L625.7872,671.9935 L624.3701,681.9219 L624.8722,691.8503 L625.168,701.7786 L625.869,711.707 L624.9944,721.6354 L625.6168,731.5638 L625,741.4922 " fill="none" style="stroke:#383838;stroke-width:1.0;stroke-dasharray:5.0,5.0;"/><path d="M737,86.2188 L737.2802,86.2188 L736.4476,96.1471 L737.2577,106.0755 L737.5329,116.0039 L736.0488,125.9323 L736.8964,135.8607 L736.4313,145.7891 L736.4887,155.7174 L736.9091,165.6458 L736.0782,175.5742 L737.7382,185.5026 L736.1596,195.431 L736.7363,205.3594 L737.5759,215.2878 L736.8856,225.2161 L737.091,235.1445 L736.9574,245.0729 L737.238,255.0013 L737.3188,264.9297 L737.7809,274.8581 L737.8947,284.7865 L737.9057,294.7148 L737.3395,304.6432 L737.6181,314.5716 L737.9363,324.5 L736.0384,334.4284 L737.9047,344.3568 L736.6047,354.2852 L737.7117,364.2135 L736.34,374.1419 L736.9087,384.0703 L737.9888,393.9987 L736.935,403.9271 L737.1404,413.8555 L737.4515,423.7839 L737.555,433.7122 L736.9948,443.6406 L737.383,453.569 L736.2368,463.4974 L737.3792,473.4258 L737.7309,483.3542 L737.5927,493.2826 L737.8174,503.2109 L736.3559,513.1393 L736.1304,523.0677 L736.1715,532.9961 L736.9215,542.9245 L736.738,552.8529 L737.9085,562.7813 L736.7671,572.7096 L736.5426,582.638 L737.3044,592.5664 L736.1109,602.4948 L736.3078,612.4232 L737.8653,622.3516 L737.5809,632.2799 L737.9793,642.2083 L736.5709,652.1367 L737.4256,662.0651 L737.7872,671.9935 L736.3701,681.9219 L736.8722,691.8503 L737.168,701.7786 L737.869,711.707 L736.9944,721.6354 L737.6168,731.5638 L737,741.4922 " fill="none" style="stroke:#383838;stroke-width:1.0;stroke-dasharray:5.0,5.0;"/><path d="M850,86.2188 L850.2802,86.2188 L849.4476,96.1471 L850.2577,106.0755 L850.5329,116.0039 L849.0488,125.9323 L849.8964,135.8607 L849.4313,145.7891 L849.4887,155.7174 L849.9091,165.6458 L849.0782,175.5742 L850.7382,185.5026 L849.1596,195.431 L849.7363,205.3594 L850.5759,215.2878 L849.8856,225.2161 L850.091,235.1445 L849.9574,245.0729 L850.238,255.0013 L850.3188,264.9297 L850.7809,274.8581 L850.8947,284.7865 L850.9057,294.7148 L850.3395,304.6432 L850.6181,314.5716 L850.9363,324.5 L849.0384,334.4284 L850.9047,344.3568 L849.6047,354.2852 L850.7117,364.2135 L849.34,374.1419 L849.9087,384.0703 L850.9888,393.9987 L849.935,403.9271 L850.1404,413.8555 L850.4515,423.7839 L850.555,433.7122 L849.9948,443.6406 L850.383,453.569 L849.2368,463.4974 L850.3792,473.4258 L850.7309,483.3542 L850.5927,493.2826 L850.8174,503.2109 L849.3559,513.1393 L849.1304,523.0677 L849.1715,532.9961 L849.9215,542.9245 L849.738,552.8529 L850.9085,562.7813 L849.7671,572.7096 L849.5426,582.638 L850.3044,592.5664 L849.1109,602.4948 L849.3078,612.4232 L850.8653,622.3516 L850.5809,632.2799 L850.9793,642.2083 L849.5709,652.1367 L850.4256,662.0651 L850.7872,671.9935 L849.3701,681.9219 L849.8722,691.8503 L850.168,701.7786 L850.869,711.707 L849.9944,721.6354 L850.6168,731.5638 L850,741.4922 " fill="none" style="stroke:#383838;stroke-width:1.0;stroke-dasharray:5.0,5.0;"/><path d="M971,86.2188 L971.2802,86.2188 L970.4476,96.1471 L971.2577,106.0755 L971.5329,116.0039 L970.0488,125.9323 L970.8964,135.8607 L970.4313,145.7891 L970.4887,155.7174 L970.9091,165.6458 L970.0782,175.5742 L971.7382,185.5026 L970.1596,195.431 L970.7363,205.3594 L971.5759,215.2878 L970.8856,225.2161 L971.091,235.1445 L970.9574,245.0729 L971.238,255.0013 L971.3188,264.9297 L971.7809,274.8581 L971.8947,284.7865 L971.9057,294.7148 L971.3395,304.6432 L971.6181,314.5716 L971.9363,324.5 L970.0384,334.4284 L971.9047,344.3568 L970.6047,354.2852 L971.7117,364.2135 L970.34,374.1419 L970.9087,384.0703 L971.9888,393.9987 L970.935,403.9271 L971.1404,413.8555 L971.4515,423.7839 L971.555,433.7122 L970.9948,443.6406 L971.383,453.569 L970.2368,463.4974 L971.3792,473.4258 L971.7309,483.3542 L971.5927,493.2826 L971.8174,503.2109 L970.3559,513.1393 L970.1304,523.0677 L970.1715,532.9961 L970.9215,542.9245 L970.738,552.8529 L971.9085,562.7813 L970.7671,572.7096 L970.5426,582.638 L971.3044,592.5664 L970.1109,602.4948 L970.3078,612.4232 L971.8653,622.3516 L971.5809,632.2799 L971.9793,642.2083 L970.5709,652.1367 L971.4256,662.0651 L971.7872,671.9935 L970.3701,681.9219 L970.8722,691.8503 L971.168,701.7786 L971.869,711.707 L970.9944,721.6354 L971.6168,731.5638 L971,741.4922 " fill="none" style="stroke:#383838;stroke-width:1.0;stroke-dasharray:5.0,5.0;"/><path d="M1071,86.2188 L1071.2802,86.2188 L1070.4476,96.1471 L1071.2577,106.0755 L1071.5329,116.0039 L1070.0488,125.9323 L1070.8964,135.8607 L1070.4313,145.7891 L1070.4887,155.7174 L1070.9091,165.6458 L1070.0782,175.5742 L1071.7382,185.5026 L1070.1596,195.431 L1070.7363,205.3594 L1071.5759,215.2878 L1070.8856,225.2161 L1071.091,235.1445 L1070.9574,245.0729 L1071.238,255.0013 L1071.3188,264.9297 L1071.7809,274.8581 L1071.8947,284.7865 L1071.9057,294.7148 L1071.3395,304.6432 L1071.6181,314.5716 L1071.9363,324.5 L1070.0384,334.4284 L1071.9047,344.3568 L1070.6047,354.2852 L1071.7117,364.2135 L1070.34,374.1419 L1070.9087,384.0703 L1071.9888,393.9987 L1070.935,403.9271 L1071.1404,413.8555 L1071.4515,423.7839 L1071.555,433.7122 L1070.9948,443.6406 L1071.383,453.569 L1070.2368,463.4974 L1071.3792,473.4258 L1071.7309,483.3542 L1071.5927,493.2826 L1071.8174,503.2109 L1070.3559,513.1393 L1070.1304,523.0677 L1070.1715,532.9961 L1070.9215,542.9245 L1070.738,552.8529 L1071.9085,562.7813 L1070.7671,572.7096 L1070.5426,582.638 L1071.3044,592.5664 L1070.1109,602.4948 L1070.3078,612.4232 L1071.8653,622.3516 L1071.5809,632.2799 L1071.9793,642.2083 L1070.5709,652.1367 L1071.4256,662.0651 L1071.7872,671.9935 L1070.3701,681.9219 L1070.8722,691.8503 L1071.168,701.7786 L1071.869,711.707 L1070.9944,721.6354 L1071.6168,731.5638 L1071,741.4922 " fill="none" style="stroke:#383838;stroke-width:1.0;stroke-dasharray:5.0,5.0;"/><path d="M1157,86.2188 L1157.2802,86.2188 L1156.4476,96.1471 L1157.2577,106.0755 L1157.5329,116.0039 L1156.0488,125.9323 L1156.8964,135.8607 L1156.4313,145.7891 L1156.4887,155.7174 L1156.9091,165.6458 L1156.0782,175.5742 L1157.7382,185.5026 L1156.1596,195.431 L1156.7363,205.3594 L1157.5759,215.2878 L1156.8856,225.2161 L1157.091,235.1445 L1156.9574,245.0729 L1157.238,255.0013 L1157.3188,264.9297 L1157.7809,274.8581 L1157.8947,284.7865 L1157.9057,294.7148 L1157.3395,304.6432 L1157.6181,314.5716 L1157.9363,324.5 L1156.0384,334.4284 L1157.9047,344.3568 L1156.6047,354.2852 L1157.7117,364.2135 L1156.34,374.1419 L1156.9087,384.0703 L1157.9888,393.9987 L1156.935,403.9271 L1157.1404,413.8555 L1157.4515,423.7839 L1157.555,433.7122 L1156.9948,443.6406 L1157.383,453.569 L1156.2368,463.4974 L1157.3792,473.4258 L1157.7309,483.3542 L1157.5927,493.2826 L1157.8174,503.2109 L1156.3559,513.1393 L1156.1304,523.0677 L1156.1715,532.9961 L1156.9215,542.9245 L1156.738,552.8529 L1157.9085,562.7813 L1156.7671,572.7096 L1156.5426,582.638 L1157.3044,592.5664 L1156.1109,602.4948 L1156.3078,612.4232 L1157.8653,622.3516 L1157.5809,632.2799 L1157.9793,642.2083 L1156.5709,652.1367 L1157.4256,662.0651 L1157.7872,671.9935 L1156.3701,681.9219 L1156.8722,691.8503 L1157.168,701.7786 L1157.869,711.707 L1156.9944,721.6354 L1157.6168,731.5638 L1157,741.4922 " fill="none" style="stroke:#383838;stroke-width:1.0;stroke-dasharray:5.0,5.0;"/><path d="M1255,86.2188 L1255.2802,86.2188 L1254.4476,96.1471 L1255.2577,106.0755 L1255.5329,116.0039 L1254.0488,125.9323 L1254.8964,135.8607 L1254.4313,145.7891 L1254.4887,155.7174 L1254.9091,165.6458 L1254.0782,175.5742 L1255.7382,185.5026 L1254.1596,195.431 L1254.7363,205.3594 L1255.5759,215.2878 L1254.8856,225.2161 L1255.091,235.1445 L1254.9574,245.0729 L1255.238,255.0013 L1255.3188,264.9297 L1255.7809,274.8581 L1255.8947,284.7865 L1255.9057,294.7148 L1255.3395,304.6432 L1255.6181,314.5716 L1255.9363,324.5 L1254.0384,334.4284 L1255.9047,344.3568 L1254.6047,354.2852 L1255.7117,364.2135 L1254.34,374.1419 L1254.9087,384.0703 L1255.9888,393.9987 L1254.935,403.9271 L1255.1404,413.8555 L1255.4515,423.7839 L1255.555,433.7122 L1254.9948,443.6406 L1255.383,453.569 L1254.2368,463.4974 L1255.3792,473.4258 L1255.7309,483.3542 L1255.5927,493.2826 L1255.8174,503.2109 L1254.3559,513.1393 L1254.1304,523.0677 L1254.1715,532.9961 L1254.9215,542.9245 L1254.738,552.8529 L1255.9085,562.7813 L1254.7671,572.7096 L1254.5426,582.638 L1255.3044,592.5664 L1254.1109,602.4948 L1254.3078,612.4232 L1255.8653,622.3516 L1255.5809,632.2799 L1255.9793,642.2083 L1254.5709,652.1367 L1255.4256,662.0651 L1255.7872,671.9935 L1254.3701,681.9219 L1254.8722,691.8503 L1255.168,701.7786 L1255.869,711.707 L1254.9944,721.6354 L1255.6168,731.5638 L1255,741.4922 " fill="none" style="stroke:#383838;stroke-width:1.0;stroke-dasharray:5.0,5.0;"/><path d="M1381,86.2188 L1381.2802,86.2188 L1380.4476,96.1471 L1381.2577,106.0755 L1381.5329,116.0039 L1380.0488,125.9323 L1380.8964,135.8607 L1380.4313,145.7891 L1380.4887,155.7174 L1380.9091,165.6458 L1380.0782,175.5742 L1381.7382,185.5026 L1380.1596,195.431 L1380.7363,205.3594 L1381.5759,215.2878 L1380.8856,225.2161 L1381.091,235.1445 L1380.9574,245.0729 L1381.238,255.0013 L1381.3188,264.9297 L1381.7809,274.8581 L1381.8947,284.7865 L1381.9057,294.7148 L1381.3395,304.6432 L1381.6181,314.5716 L1381.9363,324.5 L1380.0384,334.4284 L1381.9047,344.3568 L1380.6047,354.2852 L1381.7117,364.2135 L1380.34,374.1419 L1380.9087,384.0703 L1381.9888,393.9987 L1380.935,403.9271 L1381.1404,413.8555 L1381.4515,423.7839 L1381.555,433.7122 L1380.9948,443.6406 L1381.383,453.569 L1380.2368,463.4974 L1381.3792,473.4258 L1381.7309,483.3542 L1381.5927,493.2826 L1381.8174,503.2109 L1380.3559,513.1393 L1380.1304,523.0677 L1380.1715,532.9961 L1380.9215,542.9245 L1380.738,552.8529 L1381.9085,562.7813 L1380.7671,572.7096 L1380.5426,582.638 L1381.3044,592.5664 L1380.1109,602.4948 L1380.3078,612.4232 L1381.8653,622.3516 L1381.5809,632.2799 L1381.9793,642.2083 L1380.5709,652.1367 L1381.4256,662.0651 L1381.7872,671.9935 L1380.3701,681.9219 L1380.8722,691.8503 L1381.168,701.7786 L1381.869,711.707 L1380.9944,721.6354 L1381.6168,731.5638 L1381,741.4922 " fill="none" style="stroke:#383838;stroke-width:1.0;stroke-dasharray:5.0,5.0;"/><text fill="#000000" font-family="FG Virgil" font-size="14" lengthAdjust="spacing" textLength="29" x="5" y="83.1426">User</text><polygon fill="#F8F8F8" points="30.5442,17.5553,29.3715,19.1576,27.9845,21.5044,26.0008,23.086,23.9163,23.9509,22.2542,24.026,20.118,22.9443,18.1023,22.2377,16.5724,20.803,15.7699,19.1605,15.2939,17.8527,14.8277,16.1444,14.0709,14.6744,14.6525,13.2392,15.162,11.667,17.074,10.4235,18.4192,8.8102,20.0843,8.2744,22.0637,7.813,24.6021,8.0872,25.9924,8.7429,27.6089,9.0401,29.5743,11.0537,30.2595,13.1795,30.5571,14.63,30.22,17.0202" style="stroke:#383838;stroke-width:2.0;"/><path d="M22.5,23.6094 L22.6868,23.6094 L22.1317,29.0094 L22.6718,34.4094 L22.8553,39.8094 L21.8659,45.2094 L22.5,50.6094 M9.5,31.6094 L9.5,31.5403 L14.7,31.2303 L19.9,31.2685 L25.1,31.5488 L30.3,30.9948 L35.5,31.6094 M22.5,50.6094 L22.8719,50.9317 L19.4766,53.2425 L17.1672,56.4942 L14.9901,59.8608 L12.0424,62.5594 L9.5,65.6094 M22.5,50.6094 L22.5458,50.6491 L25.0785,53.5908 L27.8199,56.7133 L30.4606,59.7486 L33.2934,62.9503 L35.5,65.6094 " fill="none" style="stroke:#383838;stroke-width:2.0;"/><text fill="#000000" font-family="FG Virgil" font-size="14" lengthAdjust="spacing" textLength="29" x="5" y="755.0254">User</text><polygon fill="#F8F8F8" points="30.5442,770.0475,29.3715,771.6498,27.9845,773.9966,26.0008,775.5782,23.9163,776.4431,22.2542,776.5182,20.118,775.4365,18.1023,774.7299,16.5724,773.2951,15.7699,771.6527,15.2939,770.3449,14.8277,768.6366,14.0709,767.1666,14.6525,765.7314,15.162,764.1592,17.074,762.9157,18.4192,761.3024,20.0843,760.7666,22.0637,760.3052,24.6021,760.5794,25.9924,761.235,27.6089,761.5322,29.5743,763.5459,30.2595,765.6717,30.5571,767.1222,30.22,769.5124" style="stroke:#383838;stroke-width:2.0;"/><path d="M22.5,776.1016 L22.6868,776.1016 L22.1317,781.5016 L22.6718,786.9016 L22.8553,792.3016 L21.8659,797.7016 L22.5,803.1016 M9.5,784.1016 L9.5,784.0325 L14.7,783.7225 L19.9,783.7607 L25.1,784.041 L30.3,783.487 L35.5,784.1016 M22.5,803.1016 L22.8719,803.4239 L19.4766,805.7346 L17.1672,808.9864 L14.9901,812.353 L12.0424,815.0516 L9.5,818.1016 M22.5,803.1016 L22.5458,803.1413 L25.0785,806.083 L27.8199,809.2055 L30.4606,812.2408 L33.2934,815.4425 L35.5,818.1016 " fill="none" style="stroke:#383838;stroke-width:2.0;"/><polygon fill="#F8F8F8" points="198,36,198,36.2102,207.9091,35.5857,217.8182,36.1933,227.7273,36.3997,237.6364,35.2866,247.5455,35.9223,257.4545,35.5735,267.3636,35.6165,277.2727,35.9318,287.1818,35.3086,297.0909,36.5536,307,36,306.3697,36,306.8022,45.8438,307.4319,55.6875,306.9142,65.5313,307.0682,75.375,307,85.2188,307,85.1868,297.0909,85.3973,287.1818,85.4579,277.2727,85.8044,267.3636,85.8898,257.4545,85.898,247.5455,85.4734,237.6364,85.6823,227.7273,85.921,217.8182,84.4976,207.9091,85.8973,198,85.2188,197.7035,85.2188,198.5338,75.375,197.505,65.5313,197.9315,55.6875,198.7416,45.8438,198,36" style="stroke:#383838;stroke-width:1.5;"/><text fill="#000000" font-family="FG Virgil" font-size="14" font-style="italic" lengthAdjust="spacing" textLength="95" x="205" y="57.5332">«presentation»</text><text fill="#000000" font-family="FG Virgil" font-size="14" lengthAdjust="spacing" textLength="53" x="226" y="75.1426">fruits.jsp</text><polygon fill="#F8F8F8" points="198,740.4922,198,740.7024,207.9091,740.0779,217.8182,740.6855,227.7273,740.8919,237.6364,739.7788,247.5455,740.4145,257.4545,740.0657,267.3636,740.1087,277.2727,740.424,287.1818,739.8008,297.0909,741.0458,307,740.4922,306.3697,740.4922,306.8022,750.3359,307.4319,760.1797,306.9142,770.0234,307.0682,779.8672,307,789.7109,307,789.679,297.0909,789.8895,287.1818,789.9501,277.2727,790.2966,267.3636,790.382,257.4545,790.3902,247.5455,789.9656,237.6364,790.1745,227.7273,790.4132,217.8182,788.9898,207.9091,790.3894,198,789.7109,197.7035,789.7109,198.5338,779.8672,197.505,770.0234,197.9315,760.1797,198.7416,750.3359,198,740.4922" style="stroke:#383838;stroke-width:1.5;"/><text fill="#000000" font-family="FG Virgil" font-size="14" font-style="italic" lengthAdjust="spacing" textLength="95" x="205" y="762.0254">«presentation»</text><text fill="#000000" font-family="FG Virgil" font-size="14" lengthAdjust="spacing" textLength="53" x="226" y="779.6348">fruits.jsp</text><text fill="#000000" font-family="FG Virgil" font-size="14" font-style="italic" lengthAdjust="spacing" textLength="84" x="476.5" y="65.5332">«application»</text><text fill="#000000" font-family="FG Virgil" font-size="14" lengthAdjust="spacing" textLength="91" x="473" y="83.1426">FruitController</text><polygon fill="#F8F8F8" points="533.5663,37.9189,531.8073,40.3223,529.7268,43.8426,526.7512,46.215,523.6244,47.5123,521.1313,47.6249,517.9269,46.0024,514.9035,44.9425,512.6086,42.7904,511.4048,40.3267,510.6909,38.3649,509.9915,35.8026,508.8564,33.5976,509.7287,31.4447,510.4929,29.0864,513.3611,27.2212,515.3789,24.8012,517.8764,23.9976,520.8456,23.3055,524.6532,23.7167,526.7386,24.7002,529.1633,25.146,532.1115,28.1665,533.1392,31.3552,533.5857,33.5309,533.08,37.1162" style="stroke:#383838;stroke-width:2.0;"/><polygon fill="#383838" points="517.5,23,517.5449,23.0538,518.6116,21.8939,519.9412,21.0495,521.1853,20.1023,522.1478,18.8173,523.5,18,523.4759,17.9904,522.968,18.9472,522.5813,19.9525,522.2789,20.9916,521.686,21.9144,521.5,23,521.6713,23.0685,521.7049,23.922,522.2388,24.9755,522.8337,26.0535,523.0735,26.9894,523.5,28,523.5146,28.0175,522.2932,26.9918,521.1381,26.0457,519.951,25.0612,518.825,24.15,517.5,23" style="stroke:#383838;stroke-width:1.0;"/><text fill="#000000" font-family="FG Virgil" font-size="14" font-style="italic" lengthAdjust="spacing" textLength="84" x="476.5" y="755.0254">«application»</text><text fill="#000000" font-family="FG Virgil" font-size="14" lengthAdjust="spacing" textLength="91" x="473" y="772.6348">FruitController</text><polygon fill="#F8F8F8" points="533.5663,794.6298,531.8073,797.0333,529.7268,800.5535,526.7512,802.9259,523.6244,804.2232,521.1313,804.3358,517.9269,802.7133,514.9035,801.6534,512.6086,799.5013,511.4048,797.0376,510.6909,795.0759,509.9915,792.5135,508.8564,790.3085,509.7287,788.1557,510.4929,785.7974,513.3611,783.9322,515.3789,781.5121,517.8764,780.7085,520.8456,780.0164,524.6532,780.4276,526.7386,781.4112,529.1633,781.857,532.1115,784.8775,533.1392,788.0662,533.5857,790.2419,533.08,793.8272" style="stroke:#383838;stroke-width:2.0;"/><polygon fill="#383838" points="517.5,779.7109,517.5449,779.7648,518.6116,778.6048,519.9412,777.7604,521.1853,776.8133,522.1478,775.5283,523.5,774.7109,523.4759,774.7013,522.968,775.6581,522.5813,776.6635,522.2789,777.7025,521.686,778.6253,521.5,779.7109,521.6713,779.7795,521.7049,780.6329,522.2388,781.6865,522.8337,782.7644,523.0735,783.7003,523.5,784.7109,523.5146,784.7284,522.2932,783.7028,521.1381,782.7567,519.951,781.7722,518.825,780.8609,517.5,779.7109" style="stroke:#383838;stroke-width:1.0;"/><polygon fill="#F8F8F8" points="580,36,580,36.2102,590,35.5857,600,36.1933,610,36.3997,620,35.2866,630,35.9223,640,35.5735,650,35.6165,660,35.9318,670,36,669.3086,36,670.5536,45.8438,669.3697,55.6875,669.8022,65.5313,670.4319,75.375,670,85.2188,670,85.133,660,85.287,650,85.1868,640,85.3973,630,85.4579,620,85.8044,610,85.8898,600,85.898,590,85.4734,580,85.2188,580.4636,85.2188,580.7022,75.375,579.2788,65.5313,580.6785,55.6875,579.7035,45.8438,580,36" style="stroke:#383838;stroke-width:1.5;"/><text fill="#000000" font-family="FG Virgil" font-size="14" font-style="italic" lengthAdjust="spacing" textLength="60" x="595" y="57.5332">«service»</text><text fill="#000000" font-family="FG Virgil" font-size="14" lengthAdjust="spacing" textLength="76" x="587" y="75.1426">FruitService</text><polygon fill="#F8F8F8" points="580,740.4922,580,740.7024,590,740.0779,600,740.6855,610,740.8919,620,739.7788,630,740.4145,640,740.0657,650,740.1087,660,740.424,670,740.4922,669.3086,740.4922,670.5536,750.3359,669.3697,760.1797,669.8022,770.0234,670.4319,779.8672,670,789.7109,670,789.6252,660,789.7792,650,789.679,640,789.8895,630,789.9501,620,790.2966,610,790.382,600,790.3902,590,789.9656,580,789.7109,580.4636,789.7109,580.7022,779.8672,579.2788,770.0234,580.6785,760.1797,579.7035,750.3359,580,740.4922" style="stroke:#383838;stroke-width:1.5;"/><text fill="#000000" font-family="FG Virgil" font-size="14" font-style="italic" lengthAdjust="spacing" textLength="60" x="595" y="762.0254">«service»</text><text fill="#000000" font-family="FG Virgil" font-size="14" lengthAdjust="spacing" textLength="76" x="587" y="779.6348">FruitService</text><polygon fill="#F8F8F8" points="694,36,694,36.2102,703.6667,35.5857,713.3333,36.1933,723,36.3997,732.6667,35.2866,742.3333,35.9223,752,35.5735,761.6667,35.6165,771.3333,35.9318,781,36,780.3086,36,781.5536,45.8438,780.3697,55.6875,780.8022,65.5313,781.4319,75.375,781,85.2188,781,85.133,771.3333,85.287,761.6667,85.1868,752,85.3973,742.3333,85.4579,732.6667,85.8044,723,85.8898,713.3333,85.898,703.6667,85.4734,694,85.2188,694.4636,85.2188,694.7022,75.375,693.2788,65.5313,694.6785,55.6875,693.7035,45.8438,694,36" style="stroke:#383838;stroke-width:1.5;"/><text fill="#000000" font-family="FG Virgil" font-size="14" font-style="italic" lengthAdjust="spacing" textLength="60" x="707.5" y="57.5332">«service»</text><text fill="#000000" font-family="FG Virgil" font-size="14" lengthAdjust="spacing" textLength="73" x="701" y="75.1426">ItemService</text><polygon fill="#F8F8F8" points="694,740.4922,694,740.7024,703.6667,740.0779,713.3333,740.6855,723,740.8919,732.6667,739.7788,742.3333,740.4145,752,740.0657,761.6667,740.1087,771.3333,740.424,781,740.4922,780.3086,740.4922,781.5536,750.3359,780.3697,760.1797,780.8022,770.0234,781.4319,779.8672,781,789.7109,781,789.6252,771.3333,789.7792,761.6667,789.679,752,789.8895,742.3333,789.9501,732.6667,790.2966,723,790.382,713.3333,790.3902,703.6667,789.9656,694,789.7109,694.4636,789.7109,694.7022,779.8672,693.2788,770.0234,694.6785,760.1797,693.7035,750.3359,694,740.4922" style="stroke:#383838;stroke-width:1.5;"/><text fill="#000000" font-family="FG Virgil" font-size="14" font-style="italic" lengthAdjust="spacing" textLength="60" x="707.5" y="762.0254">«service»</text><text fill="#000000" font-family="FG Virgil" font-size="14" lengthAdjust="spacing" textLength="73" x="701" y="779.6348">ItemService</text><polygon fill="#F8F8F8" points="791,36,791,36.2102,800.9167,35.5857,810.8333,36.1933,820.75,36.3997,830.6667,35.2866,840.5833,35.9223,850.5,35.5735,860.4167,35.6165,870.3333,35.9318,880.25,35.3086,890.1667,36.5536,900.0833,35.3697,910,36,909.8022,36,910.4319,45.8438,909.9142,55.6875,910.0682,65.5313,909.9681,75.375,910,85.2188,910,85.3973,900.0833,85.4579,890.1667,85.8044,880.25,85.8898,870.3333,85.898,860.4167,85.4734,850.5,85.6823,840.5833,85.921,830.6667,84.4976,820.75,85.8973,810.8333,84.9222,800.9167,85.7526,791,85.2188,790.505,85.2188,790.9315,75.375,791.7416,65.5313,790.9513,55.6875,791.1053,45.8438,791,36" style="stroke:#383838;stroke-width:1.5;"/><text fill="#000000" font-family="FG Virgil" font-size="14" font-style="italic" lengthAdjust="spacing" textLength="60" x="820.5" y="57.5332">«service»</text><text fill="#000000" font-family="FG Virgil" font-size="14" lengthAdjust="spacing" textLength="105" x="798" y="75.1426">CategoryService</text><polygon fill="#F8F8F8" points="791,740.4922,791,740.7024,800.9167,740.0779,810.8333,740.6855,820.75,740.8919,830.6667,739.7788,840.5833,740.4145,850.5,740.0657,860.4167,740.1087,870.3333,740.424,880.25,739.8008,890.1667,741.0458,900.0833,739.8619,910,740.4922,909.8022,740.4922,910.4319,750.3359,909.9142,760.1797,910.0682,770.0234,909.9681,779.8672,910,789.7109,910,789.8895,900.0833,789.9501,890.1667,790.2966,880.25,790.382,870.3333,790.3902,860.4167,789.9656,850.5,790.1745,840.5833,790.4132,830.6667,788.9898,820.75,790.3894,810.8333,789.4144,800.9167,790.2447,791,789.7109,790.505,789.7109,790.9315,779.8672,791.7416,770.0234,790.9513,760.1797,791.1053,750.3359,791,740.4922" style="stroke:#383838;stroke-width:1.5;"/><text fill="#000000" font-family="FG Virgil" font-size="14" font-style="italic" lengthAdjust="spacing" textLength="60" x="820.5" y="762.0254">«service»</text><text fill="#000000" font-family="FG Virgil" font-size="14" lengthAdjust="spacing" textLength="105" x="798" y="779.6348">CategoryService</text><text fill="#000000" font-family="FG Virgil" font-size="14" font-style="italic" lengthAdjust="spacing" textLength="79" x="929" y="65.5332">«repository»</text><text fill="#000000" font-family="FG Virgil" font-size="14" lengthAdjust="spacing" textLength="97" x="920" y="83.1426">FruitRepository</text><path d="M953.5,15 L953.5,15 L953.5651,15.067 L955.1716,13.118 L957.1599,11.5616 L959.0238,9.8774 L960.479,7.7727 L962.5,6.25 L962.4952,6.2158 L964.2739,5.8122 L966.0766,5.5812 L967.8958,5.47 L969.6577,4.9456 L971.5,5 L971.5,5 L971.5339,5.2437 L973.2615,4.9725 L975.0879,5.4129 L976.9264,5.9402 L978.6948,5.9622 L980.5,6.25 L980.5211,6.2717 L982.2901,7.9898 L984.1553,9.8069 L985.9741,11.5762 L987.8815,13.4366 L989.5,15 L990.0965,15 L990.1038,20.2 L989.7263,25.4 L989.9121,30.6 L990.1242,35.8 L989.5,41 L989.5,41 L989.2766,40.7702 L987.9102,42.9662 L985.8081,44.4055 L984.2654,46.4201 L982.1466,47.8423 L980.5,49.75 L980.4958,49.7198 L978.7453,50.3265 L976.897,50.2285 L975.1064,50.5464 L973.3207,50.8991 L971.5,51 L971.5,51 L971.5254,51.1832 L969.6998,50.7483 L967.9176,50.6264 L966.065,49.998 L964.3174,50.1252 L962.5,49.75 L962.6698,49.9247 L960.8377,48.1417 L959.0899,46.4453 L956.9503,44.3461 L955.0979,42.5422 L953.5,41 L952.9476,41 L953.4477,35.8 L953.3253,30.6 L954.1057,25.4 L953.3447,20.2 L953.5,15 " fill="#F8F8F8" style="stroke:#000000;stroke-width:1.5;"/><path d="M953.5,15 L953.5,15 L953.5651,15.067 L955.1716,16.618 L957.1599,18.5616 L959.0238,20.3774 L960.479,21.7727 L962.5,23.75 L962.4952,23.7158 L964.2739,23.8122 L966.0766,24.0812 L967.8958,24.47 L969.6577,24.4456 L971.5,25 L971.5,25 L971.5339,25.2437 L973.2615,24.4725 L975.0879,24.4129 L976.9264,24.4402 L978.6948,23.9622 L980.5,23.75 L980.5211,23.7717 L982.2901,21.9898 L984.1553,20.3069 L985.9741,18.5762 L987.8815,16.9366 L989.5,15 " fill="none" style="stroke:#000000;stroke-width:1.5;"/><text fill="#000000" font-family="FG Virgil" font-size="14" font-style="italic" lengthAdjust="spacing" textLength="79" x="929" y="755.0254">«repository»</text><text fill="#000000" font-family="FG Virgil" font-size="14" lengthAdjust="spacing" textLength="97" x="920" y="772.6348">FruitRepository</text><path d="M953.5,785.7109 L953.5,785.7109 L953.5651,785.7779 L955.1716,783.8289 L957.1599,782.2725 L959.0238,780.5883 L960.479,778.4836 L962.5,776.9609 L962.4952,776.9267 L964.2739,776.5232 L966.0766,776.2921 L967.8958,776.1809 L969.6577,775.6566 L971.5,775.7109 L971.5,775.7109 L971.5339,775.9547 L973.2615,775.6835 L975.0879,776.1239 L976.9264,776.6511 L978.6948,776.6732 L980.5,776.9609 L980.5211,776.9827 L982.2901,778.7008 L984.1553,780.5178 L985.9741,782.2871 L987.8815,784.1476 L989.5,785.7109 L990.0965,785.7109 L990.1038,790.9109 L989.7263,796.1109 L989.9121,801.3109 L990.1242,806.5109 L989.5,811.7109 L989.5,811.7109 L989.2766,811.4811 L987.9102,813.6772 L985.8081,815.1165 L984.2654,817.131 L982.1466,818.5532 L980.5,820.4609 L980.4958,820.4308 L978.7453,821.0374 L976.897,820.9395 L975.1064,821.2573 L973.3207,821.61 L971.5,821.7109 L971.5,821.7109 L971.5254,821.8942 L969.6998,821.4592 L967.9176,821.3374 L966.065,820.7089 L964.3174,820.8361 L962.5,820.4609 L962.6698,820.6356 L960.8377,818.8526 L959.0899,817.1563 L956.9503,815.057 L955.0979,813.2531 L953.5,811.7109 L952.9476,811.7109 L953.4477,806.5109 L953.3253,801.3109 L954.1057,796.1109 L953.3447,790.9109 L953.5,785.7109 " fill="#F8F8F8" style="stroke:#000000;stroke-width:1.5;"/><path d="M953.5,785.7109 L953.5,785.7109 L953.5651,785.7779 L955.1716,787.3289 L957.1599,789.2725 L959.0238,791.0883 L960.479,792.4836 L962.5,794.4609 L962.4952,794.4267 L964.2739,794.5232 L966.0766,794.7921 L967.8958,795.1809 L969.6577,795.1566 L971.5,795.7109 L971.5,795.7109 L971.5339,795.9547 L973.2615,795.1835 L975.0879,795.1239 L976.9264,795.1511 L978.6948,794.6732 L980.5,794.4609 L980.5211,794.4827 L982.2901,792.7008 L984.1553,791.0178 L985.9741,789.2871 L987.8815,787.6476 L989.5,785.7109 " fill="none" style="stroke:#000000;stroke-width:1.5;"/><polygon fill="#F8F8F8" points="1033,36,1033,36.2102,1042.5,35.5857,1052,36.1933,1061.5,36.3997,1071,35.2866,1080.5,35.9223,1090,35.5735,1099.5,35.6165,1109,36,1108.9318,36,1108.3086,45.8438,1109.5536,55.6875,1108.3697,65.5313,1108.8022,75.375,1109,85.2188,1109,85.6507,1099.5,85.133,1090,85.287,1080.5,85.1868,1071,85.3973,1061.5,85.4579,1052,85.8044,1042.5,85.8898,1033,85.2188,1033.6793,85.2188,1033.2546,75.375,1033.4636,65.5313,1033.7022,55.6875,1032.2788,45.8438,1033,36" style="stroke:#383838;stroke-width:1.5;"/><text fill="#000000" font-family="FG Virgil" font-size="14" font-style="italic" lengthAdjust="spacing" textLength="62" x="1040" y="57.5332">«domain»</text><text fill="#000000" font-family="FG Virgil" font-size="14" lengthAdjust="spacing" textLength="56" x="1043" y="75.1426">item:Item</text><polygon fill="#F8F8F8" points="1033,740.4922,1033,740.7024,1042.5,740.0779,1052,740.6855,1061.5,740.8919,1071,739.7788,1080.5,740.4145,1090,740.0657,1099.5,740.1087,1109,740.4922,1108.9318,740.4922,1108.3086,750.3359,1109.5536,760.1797,1108.3697,770.0234,1108.8022,779.8672,1109,789.7109,1109,790.1429,1099.5,789.6252,1090,789.7792,1080.5,789.679,1071,789.8895,1061.5,789.9501,1052,790.2966,1042.5,790.382,1033,789.7109,1033.6793,789.7109,1033.2546,779.8672,1033.4636,770.0234,1033.7022,760.1797,1032.2788,750.3359,1033,740.4922" style="stroke:#383838;stroke-width:1.5;"/><text fill="#000000" font-family="FG Virgil" font-size="14" font-style="italic" lengthAdjust="spacing" textLength="62" x="1040" y="762.0254">«domain»</text><text fill="#000000" font-family="FG Virgil" font-size="14" lengthAdjust="spacing" textLength="56" x="1043" y="779.6348">item:Item</text><polygon fill="#F8F8F8" points="1119,36,1119,36.2102,1128.5,35.5857,1138,36.1933,1147.5,36.3997,1157,35.2866,1166.5,35.9223,1176,35.5735,1185.5,35.6165,1195,36,1194.9318,36,1194.3086,45.8438,1195.5536,55.6875,1194.3697,65.5313,1194.8022,75.375,1195,85.2188,1195,85.6507,1185.5,85.133,1176,85.287,1166.5,85.1868,1157,85.3973,1147.5,85.4579,1138,85.8044,1128.5,85.8898,1119,85.2188,1119.6793,85.2188,1119.2546,75.375,1119.4636,65.5313,1119.7022,55.6875,1118.2788,45.8438,1119,36" style="stroke:#383838;stroke-width:1.5;"/><text fill="#000000" font-family="FG Virgil" font-size="14" font-style="italic" lengthAdjust="spacing" textLength="62" x="1126" y="57.5332">«domain»</text><text fill="#000000" font-family="FG Virgil" font-size="14" lengthAdjust="spacing" textLength="57" x="1128.5" y="75.1426">fruit:Fruit</text><polygon fill="#F8F8F8" points="1119,740.4922,1119,740.7024,1128.5,740.0779,1138,740.6855,1147.5,740.8919,1157,739.7788,1166.5,740.4145,1176,740.0657,1185.5,740.1087,1195,740.4922,1194.9318,740.4922,1194.3086,750.3359,1195.5536,760.1797,1194.3697,770.0234,1194.8022,779.8672,1195,789.7109,1195,790.1429,1185.5,789.6252,1176,789.7792,1166.5,789.679,1157,789.8895,1147.5,789.9501,1138,790.2966,1128.5,790.382,1119,789.7109,1119.6793,789.7109,1119.2546,779.8672,1119.4636,770.0234,1119.7022,760.1797,1118.2788,750.3359,1119,740.4922" style="stroke:#383838;stroke-width:1.5;"/><text fill="#000000" font-family="FG Virgil" font-size="14" font-style="italic" lengthAdjust="spacing" textLength="62" x="1126" y="762.0254">«domain»</text><text fill="#000000" font-family="FG Virgil" font-size="14" lengthAdjust="spacing" textLength="57" x="1128.5" y="779.6348">fruit:Fruit</text><text fill="#000000" font-family="FG Virgil" font-size="14" font-style="italic" lengthAdjust="spacing" textLength="79" x="1212.5" y="65.5332">«repository»</text><text fill="#000000" font-family="FG Virgil" font-size="14" lengthAdjust="spacing" textLength="94" x="1205" y="83.1426">ItemRepository</text><path d="M1237,15 L1237,15 L1237.0651,15.067 L1238.6716,13.118 L1240.6599,11.5616 L1242.5238,9.8774 L1243.979,7.7727 L1246,6.25 L1245.9952,6.2158 L1247.7739,5.8122 L1249.5766,5.5812 L1251.3958,5.47 L1253.1577,4.9456 L1255,5 L1255,5 L1255.0339,5.2437 L1256.7615,4.9725 L1258.5879,5.4129 L1260.4264,5.9402 L1262.1948,5.9622 L1264,6.25 L1264.0211,6.2717 L1265.7901,7.9898 L1267.6553,9.8069 L1269.4741,11.5762 L1271.3815,13.4366 L1273,15 L1273.5965,15 L1273.6038,20.2 L1273.2263,25.4 L1273.4121,30.6 L1273.6242,35.8 L1273,41 L1273,41 L1272.7766,40.7702 L1271.4102,42.9662 L1269.3081,44.4055 L1267.7654,46.4201 L1265.6466,47.8423 L1264,49.75 L1263.9958,49.7198 L1262.2453,50.3265 L1260.397,50.2285 L1258.6064,50.5464 L1256.8207,50.8991 L1255,51 L1255,51 L1255.0254,51.1832 L1253.1998,50.7483 L1251.4176,50.6264 L1249.565,49.998 L1247.8174,50.1252 L1246,49.75 L1246.1698,49.9247 L1244.3377,48.1417 L1242.5899,46.4453 L1240.4503,44.3461 L1238.5979,42.5422 L1237,41 L1236.4476,41 L1236.9477,35.8 L1236.8253,30.6 L1237.6057,25.4 L1236.8447,20.2 L1237,15 " fill="#F8F8F8" style="stroke:#000000;stroke-width:1.5;"/><path d="M1237,15 L1237,15 L1237.0651,15.067 L1238.6716,16.618 L1240.6599,18.5616 L1242.5238,20.3774 L1243.979,21.7727 L1246,23.75 L1245.9952,23.7158 L1247.7739,23.8122 L1249.5766,24.0812 L1251.3958,24.47 L1253.1577,24.4456 L1255,25 L1255,25 L1255.0339,25.2437 L1256.7615,24.4725 L1258.5879,24.4129 L1260.4264,24.4402 L1262.1948,23.9622 L1264,23.75 L1264.0211,23.7717 L1265.7901,21.9898 L1267.6553,20.3069 L1269.4741,18.5762 L1271.3815,16.9366 L1273,15 " fill="none" style="stroke:#000000;stroke-width:1.5;"/><text fill="#000000" font-family="FG Virgil" font-size="14" font-style="italic" lengthAdjust="spacing" textLength="79" x="1212.5" y="755.0254">«repository»</text><text fill="#000000" font-family="FG Virgil" font-size="14" lengthAdjust="spacing" textLength="94" x="1205" y="772.6348">ItemRepository</text><path d="M1237,785.7109 L1237,785.7109 L1237.0651,785.7779 L1238.6716,783.8289 L1240.6599,782.2725 L1242.5238,780.5883 L1243.979,778.4836 L1246,776.9609 L1245.9952,776.9267 L1247.7739,776.5232 L1249.5766,776.2921 L1251.3958,776.1809 L1253.1577,775.6566 L1255,775.7109 L1255,775.7109 L1255.0339,775.9547 L1256.7615,775.6835 L1258.5879,776.1239 L1260.4264,776.6511 L1262.1948,776.6732 L1264,776.9609 L1264.0211,776.9827 L1265.7901,778.7008 L1267.6553,780.5178 L1269.4741,782.2871 L1271.3815,784.1476 L1273,785.7109 L1273.5965,785.7109 L1273.6038,790.9109 L1273.2263,796.1109 L1273.4121,801.3109 L1273.6242,806.5109 L1273,811.7109 L1273,811.7109 L1272.7766,811.4811 L1271.4102,813.6772 L1269.3081,815.1165 L1267.7654,817.131 L1265.6466,818.5532 L1264,820.4609 L1263.9958,820.4308 L1262.2453,821.0374 L1260.397,820.9395 L1258.6064,821.2573 L1256.8207,821.61 L1255,821.7109 L1255,821.7109 L1255.0254,821.8942 L1253.1998,821.4592 L1251.4176,821.3374 L1249.565,820.7089 L1247.8174,820.8361 L1246,820.4609 L1246.1698,820.6356 L1244.3377,818.8526 L1242.5899,817.1563 L1240.4503,815.057 L1238.5979,813.2531 L1237,811.7109 L1236.4476,811.7109 L1236.9477,806.5109 L1236.8253,801.3109 L1237.6057,796.1109 L1236.8447,790.9109 L1237,785.7109 " fill="#F8F8F8" style="stroke:#000000;stroke-width:1.5;"/><path d="M1237,785.7109 L1237,785.7109 L1237.0651,785.7779 L1238.6716,787.3289 L1240.6599,789.2725 L1242.5238,791.0883 L1243.979,792.4836 L1246,794.4609 L1245.9952,794.4267 L1247.7739,794.5232 L1249.5766,794.7921 L1251.3958,795.1809 L1253.1577,795.1566 L1255,795.7109 L1255,795.7109 L1255.0339,795.9547 L1256.7615,795.1835 L1258.5879,795.1239 L1260.4264,795.1511 L1262.1948,794.6732 L1264,794.4609 L1264.0211,794.4827 L1265.7901,792.7008 L1267.6553,791.0178 L1269.4741,789.2871 L1271.3815,787.6476 L1273,785.7109 " fill="none" style="stroke:#000000;stroke-width:1.5;"/><text fill="#000000" font-family="FG Virgil" font-size="14" font-style="italic" lengthAdjust="spacing" textLength="79" x="1338.5" y="65.5332">«repository»</text><text fill="#000000" font-family="FG Virgil" font-size="14" lengthAdjust="spacing" textLength="126" x="1315" y="83.1426">CategoryRepository</text><path d="M1363,15 L1363,15 L1363.0651,15.067 L1364.6716,13.118 L1366.6599,11.5616 L1368.5238,9.8774 L1369.979,7.7727 L1372,6.25 L1371.9952,6.2158 L1373.7739,5.8122 L1375.5766,5.5812 L1377.3958,5.47 L1379.1577,4.9456 L1381,5 L1381,5 L1381.0339,5.2437 L1382.7615,4.9725 L1384.5879,5.4129 L1386.4264,5.9402 L1388.1948,5.9622 L1390,6.25 L1390.0211,6.2717 L1391.7901,7.9898 L1393.6553,9.8069 L1395.4741,11.5762 L1397.3815,13.4366 L1399,15 L1399.5965,15 L1399.6038,20.2 L1399.2263,25.4 L1399.4121,30.6 L1399.6242,35.8 L1399,41 L1399,41 L1398.7766,40.7702 L1397.4102,42.9662 L1395.3081,44.4055 L1393.7654,46.4201 L1391.6466,47.8423 L1390,49.75 L1389.9958,49.7198 L1388.2453,50.3265 L1386.397,50.2285 L1384.6064,50.5464 L1382.8207,50.8991 L1381,51 L1381,51 L1381.0254,51.1832 L1379.1998,50.7483 L1377.4176,50.6264 L1375.565,49.998 L1373.8174,50.1252 L1372,49.75 L1372.1698,49.9247 L1370.3377,48.1417 L1368.5899,46.4453 L1366.4503,44.3461 L1364.5979,42.5422 L1363,41 L1362.4476,41 L1362.9477,35.8 L1362.8253,30.6 L1363.6057,25.4 L1362.8447,20.2 L1363,15 " fill="#F8F8F8" style="stroke:#000000;stroke-width:1.5;"/><path d="M1363,15 L1363,15 L1363.0651,15.067 L1364.6716,16.618 L1366.6599,18.5616 L1368.5238,20.3774 L1369.979,21.7727 L1372,23.75 L1371.9952,23.7158 L1373.7739,23.8122 L1375.5766,24.0812 L1377.3958,24.47 L1379.1577,24.4456 L1381,25 L1381,25 L1381.0339,25.2437 L1382.7615,24.4725 L1384.5879,24.4129 L1386.4264,24.4402 L1388.1948,23.9622 L1390,23.75 L1390.0211,23.7717 L1391.7901,21.9898 L1393.6553,20.3069 L1395.4741,18.5762 L1397.3815,16.9366 L1399,15 " fill="none" style="stroke:#000000;stroke-width:1.5;"/><text fill="#000000" font-family="FG Virgil" font-size="14" font-style="italic" lengthAdjust="spacing" textLength="79" x="1338.5" y="755.0254">«repository»</text><text fill="#000000" font-family="FG Virgil" font-size="14" lengthAdjust="spacing" textLength="126" x="1315" y="772.6348">CategoryRepository</text><path d="M1363,785.7109 L1363,785.7109 L1363.0651,785.7779 L1364.6716,783.8289 L1366.6599,782.2725 L1368.5238,780.5883 L1369.979,778.4836 L1372,776.9609 L1371.9952,776.9267 L1373.7739,776.5232 L1375.5766,776.2921 L1377.3958,776.1809 L1379.1577,775.6566 L1381,775.7109 L1381,775.7109 L1381.0339,775.9547 L1382.7615,775.6835 L1384.5879,776.1239 L1386.4264,776.6511 L1388.1948,776.6732 L1390,776.9609 L1390.0211,776.9827 L1391.7901,778.7008 L1393.6553,780.5178 L1395.4741,782.2871 L1397.3815,784.1476 L1399,785.7109 L1399.5965,785.7109 L1399.6038,790.9109 L1399.2263,796.1109 L1399.4121,801.3109 L1399.6242,806.5109 L1399,811.7109 L1399,811.7109 L1398.7766,811.4811 L1397.4102,813.6772 L1395.3081,815.1165 L1393.7654,817.131 L1391.6466,818.5532 L1390,820.4609 L1389.9958,820.4308 L1388.2453,821.0374 L1386.397,820.9395 L1384.6064,821.2573 L1382.8207,821.61 L1381,821.7109 L1381,821.7109 L1381.0254,821.8942 L1379.1998,821.4592 L1377.4176,821.3374 L1375.565,820.7089 L1373.8174,820.8361 L1372,820.4609 L1372.1698,820.6356 L1370.3377,818.8526 L1368.5899,817.1563 L1366.4503,815.057 L1364.5979,813.2531 L1363,811.7109 L1362.4476,811.7109 L1362.9477,806.5109 L1362.8253,801.3109 L1363.6057,796.1109 L1362.8447,790.9109 L1363,785.7109 " fill="#F8F8F8" style="stroke:#000000;stroke-width:1.5;"/><path d="M1363,785.7109 L1363,785.7109 L1363.0651,785.7779 L1364.6716,787.3289 L1366.6599,789.2725 L1368.5238,791.0883 L1369.979,792.4836 L1372,794.4609 L1371.9952,794.4267 L1373.7739,794.5232 L1375.5766,794.7921 L1377.3958,795.1809 L1379.1577,795.1566 L1381,795.7109 L1381,795.7109 L1381.0339,795.9547 L1382.7615,795.1835 L1384.5879,795.1239 L1386.4264,795.1511 L1388.1948,794.6732 L1390,794.4609 L1390.0211,794.4827 L1391.7901,792.7008 L1393.6553,791.0178 L1395.4741,789.2871 L1397.3815,787.6476 L1399,785.7109 " fill="none" style="stroke:#000000;stroke-width:1.5;"/><polygon fill="#FFFFFF" points="17.5,118.5703,17.5,118.6404,19.5,118.4322,21.5,118.6347,23.5,118.7035,25.5,118.3325,27.5,118.5703,27.4223,118.5703,27.0735,128.6523,27.1165,138.7344,27.4318,148.8164,26.8086,158.8984,28.0536,168.9805,26.8697,179.0625,27.3022,189.1445,27.9319,199.2266,27.4142,209.3086,27.5682,219.3906,27.4681,229.4727,27.6785,239.5547,27.7391,249.6367,28.0857,259.7188,28.1711,269.8008,28.1793,279.8828,27.7546,289.9648,27.9636,300.0469,28.2022,310.1289,26.7788,320.2109,28.1785,330.293,27.2035,340.375,28.0338,350.457,27.005,360.5391,27.4315,370.6211,28.2416,380.7031,27.4513,390.7852,27.6053,400.8672,27.8386,410.9492,27.9162,421.0313,27.4961,431.1133,27.7872,441.1953,26.9276,451.2773,27.7844,461.3594,28.0482,471.4414,27.9445,481.5234,28.113,491.6055,27.0169,501.6875,26.8478,511.7695,26.8786,521.8516,27.4411,531.9336,27.3035,542.0156,28.1814,552.0977,27.3253,562.1797,27.1569,572.2617,27.7283,582.3438,26.8332,592.4258,26.9809,602.5078,28.149,612.5898,27.9357,622.6719,28.2345,632.7539,27.1782,642.8359,27.8192,652.918,28.0904,663,27.0276,673.082,27.4041,683.1641,27.626,693.2461,28.1518,703.3281,27.4958,713.4102,27.5,723.4922,27.5,723.6464,25.5,723.3076,23.5,723.2664,21.5,723.6601,19.5,723.2532,17.5,723.4922,18.009,723.4922,17.7066,713.4102,17.2321,703.3281,17.1462,693.2461,17.9588,683.1641,17.2007,673.082,18.0919,663,16.9473,652.918,18.1174,642.8359,17.9843,632.7539,17.745,622.6719,17.5472,612.5898,18.2266,602.5078,18.1136,592.4258,17.6693,582.3438,17.7682,572.2617,17.3697,562.1797,18.2165,552.0977,17.6549,542.0156,17.6726,531.9336,16.8916,521.8516,17.0948,511.7695,18.0307,501.6875,17.9298,491.6055,17.4571,481.5234,17.1778,471.4414,17.2811,461.3594,16.8138,451.2773,17.9147,441.1953,18.2396,431.1133,18.0264,421.0313,18.1949,410.9492,17.3633,400.8672,17.5872,390.7852,17.1124,380.7031,17.784,370.6211,17.7468,360.5391,18.0524,350.457,17.2703,340.375,17.3656,330.293,17.9435,320.2109,18.0673,310.1289,16.9875,300.0469,17.3061,289.9648,17.6493,279.8828,16.8892,269.8008,17.8534,259.7188,17.758,249.6367,17.3992,239.5547,17.6422,229.4727,18.2287,219.3906,17.1871,209.3086,17.815,199.2266,17.7856,189.1445,17.6158,179.0625,17.6409,168.9805,17.6135,158.8984,16.8758,148.8164,17.0992,138.7344,17.0385,128.6523,17.5,118.5703" style="stroke:#383838;stroke-width:1.0;"/><polygon fill="#FFFFFF" points="247.5,118.5703,247.5,118.6404,249.5,118.4322,251.5,118.6347,253.5,118.7035,255.5,118.3325,257.5,118.5703,257.4223,118.5703,257.0735,128.6523,257.1165,138.7344,257.4318,148.8164,256.8086,158.8984,258.0536,168.9805,256.8697,179.0625,257.3022,189.1445,257.9319,199.2266,257.4142,209.3086,257.5682,219.3906,257.4681,229.4727,257.6785,239.5547,257.7391,249.6367,258.0857,259.7188,258.1711,269.8008,258.1793,279.8828,257.7546,289.9648,257.9636,300.0469,258.2022,310.1289,256.7788,320.2109,258.1785,330.293,257.2035,340.375,258.0338,350.457,257.005,360.5391,257.4315,370.6211,258.2416,380.7031,257.4513,390.7852,257.6053,400.8672,257.8386,410.9492,257.9162,421.0313,257.4961,431.1133,257.7872,441.1953,256.9276,451.2773,257.7844,461.3594,258.0482,471.4414,257.9445,481.5234,258.113,491.6055,257.0169,501.6875,256.8478,511.7695,256.8786,521.8516,257.4411,531.9336,257.3035,542.0156,258.1814,552.0977,257.3253,562.1797,257.1569,572.2617,257.7283,582.3438,256.8332,592.4258,256.9809,602.5078,258.149,612.5898,257.9357,622.6719,258.2345,632.7539,257.1782,642.8359,257.8192,652.918,258.0904,663,257.0276,673.082,257.4041,683.1641,257.626,693.2461,258.1518,703.3281,257.4958,713.4102,257.5,723.4922,257.5,723.6464,255.5,723.3076,253.5,723.2664,251.5,723.6601,249.5,723.2532,247.5,723.4922,248.009,723.4922,247.7066,713.4102,247.2321,703.3281,247.1462,693.2461,247.9588,683.1641,247.2007,673.082,248.0919,663,246.9473,652.918,248.1174,642.8359,247.9843,632.7539,247.745,622.6719,247.5472,612.5898,248.2266,602.5078,248.1136,592.4258,247.6693,582.3438,247.7682,572.2617,247.3697,562.1797,248.2165,552.0977,247.6549,542.0156,247.6726,531.9336,246.8916,521.8516,247.0948,511.7695,248.0307,501.6875,247.9298,491.6055,247.4571,481.5234,247.1778,471.4414,247.2811,461.3594,246.8138,451.2773,247.9147,441.1953,248.2396,431.1133,248.0264,421.0313,248.1949,410.9492,247.3633,400.8672,247.5872,390.7852,247.1124,380.7031,247.784,370.6211,247.7468,360.5391,248.0524,350.457,247.2703,340.375,247.3656,330.293,247.9435,320.2109,248.0673,310.1289,246.9875,300.0469,247.3061,289.9648,247.6493,279.8828,246.8892,269.8008,247.8534,259.7188,247.758,249.6367,247.3992,239.5547,247.6422,229.4727,248.2287,219.3906,247.1871,209.3086,247.815,199.2266,247.7856,189.1445,247.6158,179.0625,247.6409,168.9805,247.6135,158.8984,246.8758,148.8164,247.0992,138.7344,247.0385,128.6523,247.5,118.5703" style="stroke:#383838;stroke-width:1.0;"/><polygon fill="#FFFFFF" points="516.5,148.9219,516.5,148.9919,518.5,148.7838,520.5,148.9863,522.5,149.0551,524.5,148.6841,526.5,148.9219,526.4223,148.9219,526.0735,159,526.1165,169.0781,526.4318,179.1563,525.8086,189.2344,527.0536,199.3125,525.8697,209.3906,526.3022,219.4688,526.9319,229.5469,526.4142,239.625,526.5682,249.7031,526.4681,259.7813,526.6785,269.8594,526.7391,279.9375,527.0857,290.0156,527.1711,300.0938,527.1793,310.1719,526.7546,320.25,526.5,330.3281,526.5,330.4827,524.5,330.5622,522.5,330.0877,520.5,330.5543,518.5,330.2293,516.5,330.3281,517.0338,330.3281,516.005,320.25,516.4315,310.1719,517.2416,300.0938,516.4513,290.0156,516.6053,279.9375,516.8386,269.8594,516.9162,259.7813,516.4961,249.7031,516.7872,239.625,515.9276,229.5469,516.7844,219.4688,517.0482,209.3906,516.9445,199.3125,517.113,189.2344,516.0169,179.1563,515.8478,169.0781,515.8786,159,516.5,148.9219" style="stroke:#383838;stroke-width:1.0;"/><polygon fill="#FFFFFF" points="516.5,421.3828,516.5,421.4529,518.5,421.2447,520.5,421.4472,522.5,421.516,524.5,421.145,526.5,421.3828,526.4223,421.3828,526.0735,431.4479,526.1165,441.513,526.4318,451.5781,525.8086,461.6432,527.0536,471.7083,525.8697,481.7734,526.3022,491.8385,526.9319,501.9036,526.4142,511.9688,526.5682,522.0339,526.4681,532.099,526.6785,542.1641,526.7391,552.2292,527.0857,562.2943,527.1711,572.3594,527.1793,582.4245,526.7546,592.4896,526.9636,602.5547,527.2022,612.6198,525.7788,622.6849,527.1785,632.75,526.2035,642.8151,527.0338,652.8802,526.005,662.9453,526.4315,673.0104,527.2416,683.0755,526.5,693.1406,526.5,693.1244,524.5,693.1757,522.5,693.2535,520.5,693.2794,518.5,693.1393,516.5,693.1406,516.7872,693.1406,515.9276,683.0755,516.7844,673.0104,517.0482,662.9453,516.9445,652.8802,517.113,642.8151,516.0169,632.75,515.8478,622.6849,515.8786,612.6198,516.4411,602.5547,516.3035,592.4896,517.1814,582.4245,516.3253,572.3594,516.1569,562.2943,516.7283,552.2292,515.8332,542.1641,515.9809,532.099,517.149,522.0339,516.9357,511.9688,517.2345,501.9036,516.1782,491.8385,516.8192,481.7734,517.0904,471.7083,516.0276,461.6432,516.4041,451.5781,516.626,441.513,517.1518,431.4479,516.5,421.3828" style="stroke:#383838;stroke-width:1.0;"/><polygon fill="#FFFFFF" points="620,179.2734,620,179.3435,622,179.1353,624,179.3379,626,179.4067,628,179.0356,630,179.2734,629.9223,179.2734,629.5735,189.332,629.6165,199.3906,629.9318,209.4492,629.3086,219.5078,630.5536,229.5664,630,239.625,630,239.4149,628,239.5591,626,239.769,624,239.5964,622,239.6477,620,239.625,619.9681,239.625,620.1785,229.5664,620.2391,219.5078,620.5857,209.4492,620.6711,199.3906,620.6793,189.332,620,179.2734" style="stroke:#383838;stroke-width:1.0;"/><polygon fill="#FFFFFF" points="732.5,451.7344,732.5,451.8044,734.5,451.5963,736.5,451.7988,738.5,451.8676,740.5,451.4966,742.5,451.7344,742.4223,451.7344,742.0735,461.793,742.1165,471.8516,742.4318,481.9102,741.8086,491.9688,743.0536,502.0273,741.8697,512.0859,742.3022,522.1445,742.9319,532.2031,742.4142,542.2617,742.5682,552.3203,742.4681,562.3789,742.6785,572.4375,742.7391,582.4961,743.0857,592.5547,743.1711,602.6133,743.1793,612.6719,742.7546,622.7305,742.9636,632.7891,743.2022,642.8477,741.7788,652.9063,743.1785,662.9648,742.2035,673.0234,743.0338,683.082,742.5,693.1406,742.5,692.9756,740.5,693.1178,738.5,693.3878,736.5,693.1244,734.5,693.1757,732.5,693.1406,732.8386,693.1406,732.9162,683.082,732.4961,673.0234,732.7872,662.9648,731.9276,652.9063,732.7844,642.8477,733.0482,632.7891,732.9445,622.7305,733.113,612.6719,732.0169,602.6133,731.8478,592.5547,731.8786,582.4961,732.4411,572.4375,732.3035,562.3789,733.1814,552.3203,732.3253,542.2617,732.1569,532.2031,732.7283,522.1445,731.8332,512.0859,731.9809,502.0273,733.149,491.9688,732.9357,481.9102,733.2345,471.8516,732.1782,461.793,732.5,451.7344" style="stroke:#383838;stroke-width:1.0;"/><polygon fill="#FFFFFF" points="845.5,269.9766,845.5,270.0466,847.5,269.8385,849.5,270.041,851.5,270.1098,853.5,269.7388,855.5,269.9766,855.4223,269.9766,855.0735,280.0352,855.1165,290.0938,855.4318,300.1523,854.8086,310.2109,856.0536,320.2695,855.5,330.3281,855.5,330.118,853.5,330.2622,851.5,330.4721,849.5,330.2995,847.5,330.3509,845.5,330.3281,845.4681,330.3281,845.6785,320.2695,845.7391,310.2109,846.0857,300.1523,846.1711,290.0938,846.1793,280.0352,845.5,269.9766" style="stroke:#383838;stroke-width:1.0;"/><polygon fill="#FFFFFF" points="966.5,209.625,966.5,209.6951,968.5,209.4869,970.5,209.6894,972.5,209.7582,974.5,209.3872,976.5,209.625,976.4741,209.625,976.3578,215.625,976.3722,221.625,976.4773,227.625,976.2695,233.625,976.5,239.625,976.5,239.8095,974.5,239.4149,972.5,239.5591,970.5,239.769,968.5,239.5964,966.5,239.625,966.5227,239.625,966.4894,233.625,966.5595,227.625,966.5797,221.625,966.6952,215.625,966.5,209.625" style="stroke:#383838;stroke-width:1.0;"/><polygon fill="#FFFFFF" points="966.5,482.0859,966.5,482.156,968.5,481.9478,970.5,482.1504,972.5,482.2192,974.5,481.8481,976.5,482.0859,976.4741,482.0859,976.3578,488.0859,976.3722,494.0859,976.4773,500.0859,976.2695,506.0859,976.5,512.0859,976.5,512.2705,974.5,511.8758,972.5,512.02,970.5,512.2299,968.5,512.0573,966.5,512.0859,966.5227,512.0859,966.4894,506.0859,966.5595,500.0859,966.5797,494.0859,966.6952,488.0859,966.5,482.0859" style="stroke:#383838;stroke-width:1.0;"/><polygon fill="#FFFFFF" points="1066,602.7891,1066,602.8591,1068,602.651,1070,602.8535,1072,602.9223,1074,602.5513,1076,602.7891,1075.9741,602.7891,1075.8578,608.7891,1075.8722,614.7891,1075.9773,620.7891,1075.7695,626.7891,1076,632.7891,1076,632.9736,1074,632.579,1072,632.7231,1070,632.933,1068,632.7605,1066,632.7891,1066.0227,632.7891,1065.9894,626.7891,1066.0595,620.7891,1066.0797,614.7891,1066.1952,608.7891,1066,602.7891" style="stroke:#383838;stroke-width:1.0;"/><polygon fill="#FFFFFF" points="1250,542.4375,1250,542.5076,1252,542.2994,1254,542.5019,1256,542.5707,1258,542.1997,1260,542.4375,1259.9741,542.4375,1259.8578,548.4375,1259.8722,554.4375,1259.9773,560.4375,1259.7695,566.4375,1260,572.4375,1260,572.622,1258,572.2274,1256,572.3716,1254,572.5815,1252,572.4089,1250,572.4375,1250.0227,572.4375,1249.9894,566.4375,1250.0595,560.4375,1250.0797,554.4375,1250.1952,548.4375,1250,542.4375" style="stroke:#383838;stroke-width:1.0;"/><polygon fill="#FFFFFF" points="1250,663.1406,1250,663.2107,1252,663.0025,1254,663.2051,1256,663.2739,1258,662.9028,1260,663.1406,1259.9741,663.1406,1259.8578,669.1406,1259.8722,675.1406,1259.9773,681.1406,1259.7695,687.1406,1260,693.1406,1260,693.3252,1258,692.9305,1256,693.0747,1254,693.2846,1252,693.112,1250,693.1406,1250.0227,693.1406,1249.9894,687.1406,1250.0595,681.1406,1250.0797,675.1406,1250.1952,669.1406,1250,663.1406" style="stroke:#383838;stroke-width:1.0;"/><polygon fill="#FFFFFF" points="1376,300.3281,1376,300.3982,1378,300.19,1380,300.3926,1382,300.4614,1384,300.0903,1386,300.3281,1385.9741,300.3281,1385.8578,306.3281,1385.8722,312.3281,1385.9773,318.3281,1385.7695,324.3281,1386,330.3281,1386,330.5127,1384,330.118,1382,330.2622,1380,330.4721,1378,330.2995,1376,330.3281,1376.0227,330.3281,1375.9894,324.3281,1376.0595,318.3281,1376.0797,312.3281,1376.1952,306.3281,1376,300.3281" style="stroke:#383838;stroke-width:1.0;"/><polygon fill="#383838" points="235.5,114.5703,235.526,114.6354,237.4487,115.2421,239.5239,116.2301,241.5495,117.094,243.4117,117.5495,245.5,118.5703,245.4904,118.5463,243.4472,119.2383,241.4525,120.0516,239.4916,120.9492,237.4144,121.5563,235.5,122.5703,235.6305,122.7008,236.1514,121.6218,237.0534,120.9237,238.0018,120.2721,238.6798,119.3501,239.5,118.5703,239.5161,118.5864,238.6925,117.7628,237.9421,117.0124,237.1564,116.2267,236.438,115.5084,235.5,114.5703" style="stroke:#383838;stroke-width:1.0;"/><path d="M27.5,118.5703 L27.5,118.8506 L37.6905,118.0179 L47.881,118.828 L58.0714,119.1032 L68.2619,117.6191 L78.4524,118.4667 L88.6429,118.0017 L98.8333,118.059 L109.0238,118.4794 L119.2143,117.6485 L129.4048,119.3085 L139.5952,117.7299 L149.7857,118.3066 L159.9762,119.1462 L170.1667,118.4559 L180.3571,118.6613 L190.5476,118.5277 L200.7381,118.8083 L210.9286,118.8892 L221.119,119.3512 L231.3095,119.4651 L241.5,118.5703 " fill="none" style="stroke:#383838;stroke-width:1.0;stroke-dasharray:2.0,2.0;"/><text fill="#000000" font-family="FG Virgil" font-size="13" lengthAdjust="spacing" textLength="91" x="34.5" y="113.7139">Add fruit to Cart</text><polygon fill="#383838" points="504.5,144.9219,504.526,144.9869,506.4487,145.5936,508.5239,146.5817,510.5495,147.4456,512.4117,147.9011,514.5,148.9219,514.4904,148.8978,512.4472,149.5899,510.4525,150.4032,508.4916,151.3008,506.4144,151.9079,504.5,152.9219,504.6305,153.0524,505.1514,151.9733,506.0534,151.2753,507.0018,150.6237,507.6798,149.7017,508.5,148.9219,508.5161,148.938,507.6925,148.1143,506.9421,147.364,506.1564,146.5782,505.438,145.8599,504.5,144.9219" style="stroke:#383838;stroke-width:1.0;"/><path d="M257.5,148.9219 L257.5,149.2021 L267.62,148.3694 L277.74,149.1796 L287.86,149.4548 L297.98,147.9707 L308.1,148.8183 L318.22,148.3532 L328.34,148.4105 L338.46,148.831 L348.58,148 L358.7,149.6601 L368.82,148.0815 L378.94,148.6582 L389.06,149.4978 L399.18,148.8075 L409.3,149.0129 L419.42,148.8793 L429.54,149.1599 L439.66,149.2407 L449.78,149.7028 L459.9,149.8166 L470.02,149.8276 L480.14,149.2614 L490.26,149.54 L500.38,149.8582 L510.5,148.9219 " fill="none" style="stroke:#383838;stroke-width:1.0;"/><text fill="#000000" font-family="FG Virgil" font-size="13" lengthAdjust="spacing" textLength="139" x="264.5" y="144.0654">viewFruits(Model model)</text><polygon fill="#383838" points="608,175.2734,608.026,175.3385,609.9487,175.9452,612.0239,176.9333,614.0495,177.7971,615.9117,178.2526,618,179.2734,617.9904,179.2494,615.9472,179.9414,613.9525,180.7547,611.9916,181.6523,609.9144,182.2595,608,183.2734,608.1305,183.4039,608.6514,182.3249,609.5534,181.6268,610.5018,180.9752,611.1798,180.0532,612,179.2734,612.0161,179.2895,611.1925,178.4659,610.4421,177.7155,609.6564,176.9298,608.938,176.2115,608,175.2734" style="stroke:#383838;stroke-width:1.0;"/><path d="M526.5,179.2734 L526.5,179.5537 L536.2222,178.721 L545.9444,179.5312 L555.6667,179.8063 L565.3889,178.3222 L575.1111,179.1698 L584.8333,178.7048 L594.5556,178.7621 L604.2778,179.1826 L614,179.2734 " fill="none" style="stroke:#383838;stroke-width:1.0;"/><text fill="#000000" font-family="FG Virgil" font-size="13" lengthAdjust="spacing" textLength="74" x="533.5" y="174.417">getAllFruits()</text><polygon fill="#383838" points="954.5,205.625,954.526,205.69,956.4487,206.2968,958.5239,207.2848,960.5495,208.1487,962.4117,208.6042,964.5,209.625,964.4904,209.6009,962.4472,210.293,960.4525,211.1063,958.4916,212.0039,956.4144,212.611,954.5,213.625,954.6305,213.7555,955.1514,212.6764,956.0534,211.9784,957.0018,211.3268,957.6798,210.4048,958.5,209.625,958.5161,209.6411,957.6925,208.8175,956.9421,208.0671,956.1564,207.2814,955.438,206.563,954.5,205.625" style="stroke:#383838;stroke-width:1.0;"/><path d="M630,209.625 L630,209.9052 L640.0152,209.0726 L650.0303,209.8827 L660.0455,210.1579 L670.0606,208.6738 L680.0758,209.5214 L690.0909,209.0563 L700.1061,209.1137 L710.1212,209.5341 L720.1364,208.7032 L730.1515,210.3632 L740.1667,208.7846 L750.1818,209.3613 L760.197,210.2009 L770.2121,209.5106 L780.2273,209.716 L790.2424,209.5824 L800.2576,209.863 L810.2727,209.9438 L820.2879,210.4059 L830.303,210.5197 L840.3182,210.5307 L850.3333,209.9645 L860.3485,210.2431 L870.3636,210.5613 L880.3788,208.6634 L890.3939,210.5297 L900.4091,209.2297 L910.4242,210.3367 L920.4394,208.965 L930.4545,209.5337 L940.4697,210.6138 L950.4848,209.56 L960.5,209.625 " fill="none" style="stroke:#383838;stroke-width:1.0;"/><text fill="#000000" font-family="FG Virgil" font-size="13" lengthAdjust="spacing" textLength="43" x="637" y="204.7686">findAll()</text><polygon fill="#383838" points="833.5,265.9766,833.526,266.0416,835.4487,266.6483,837.5239,267.6364,839.5495,268.5003,841.4117,268.9558,843.5,269.9766,843.4904,269.9525,841.4472,270.6446,839.4525,271.4579,837.4916,272.3555,835.4144,272.9626,833.5,273.9766,833.6305,274.1071,834.1514,273.028,835.0534,272.3299,836.0018,271.6784,836.6798,270.7563,837.5,269.9766,837.5161,269.9926,836.6925,269.169,835.9421,268.4186,835.1564,267.6329,834.438,266.9146,833.5,265.9766" style="stroke:#383838;stroke-width:1.0;"/><path d="M526.5,269.9766 L526.5,270.2568 L536.5968,269.4241 L546.6935,270.2343 L556.7903,270.5095 L566.8871,269.0254 L576.9839,269.8729 L587.0806,269.4079 L597.1774,269.4652 L607.2742,269.8857 L617.371,269.0547 L627.4677,270.7148 L637.5645,269.1362 L647.6613,269.7129 L657.7581,270.5525 L667.8548,269.8622 L677.9516,270.0675 L688.0484,269.934 L698.1452,270.2146 L708.2419,270.2954 L718.3387,270.7575 L728.4355,270.8713 L738.5323,270.8822 L748.629,270.3161 L758.7258,270.5947 L768.8226,270.9129 L778.9194,269.015 L789.0161,270.8812 L799.1129,269.5812 L809.2097,270.6883 L819.3065,269.3165 L829.4032,269.8852 L839.5,269.9766 " fill="none" style="stroke:#383838;stroke-width:1.0;"/><text fill="#000000" font-family="FG Virgil" font-size="13" lengthAdjust="spacing" textLength="103" x="533.5" y="265.1201">getAllCategories()</text><polygon fill="#383838" points="1364,296.3281,1364.026,296.3932,1365.9487,296.9999,1368.0239,297.9879,1370.0495,298.8518,1371.9117,299.3073,1374,300.3281,1373.9904,300.3041,1371.9472,300.9961,1369.9525,301.8094,1367.9916,302.707,1365.9144,303.3142,1364,304.3281,1364.1305,304.4586,1364.6514,303.3796,1365.5534,302.6815,1366.5018,302.0299,1367.1798,301.1079,1368,300.3281,1368.0161,300.3442,1367.1925,299.5206,1366.4421,298.7702,1365.6564,297.9845,1364.938,297.2662,1364,296.3281" style="stroke:#383838;stroke-width:1.0;"/><path d="M855.5,300.3281 L855.5,300.6084 L865.5882,299.7757 L875.6765,300.5858 L885.7647,300.861 L895.8529,299.3769 L905.9412,300.2245 L916.0294,299.7595 L926.1176,299.8168 L936.2059,300.2372 L946.2941,299.4063 L956.3824,301.0663 L966.4706,299.4878 L976.5588,300.0644 L986.6471,300.9041 L996.7353,300.2138 L1006.8235,300.4191 L1016.9118,300.2855 L1027,300.5662 L1037.0882,300.647 L1047.1765,301.109 L1057.2647,301.2229 L1067.3529,301.2338 L1077.4412,300.6676 L1087.5294,300.9462 L1097.6176,301.2644 L1107.7059,299.3665 L1117.7941,301.2328 L1127.8824,299.9328 L1137.9706,301.0399 L1148.0588,299.6681 L1158.1471,300.2368 L1168.2353,301.3169 L1178.3235,300.2631 L1188.4118,300.4685 L1198.5,300.7796 L1208.5882,300.8831 L1218.6765,300.3229 L1228.7647,300.7111 L1238.8529,299.5649 L1248.9412,300.7073 L1259.0294,301.0591 L1269.1176,300.9208 L1279.2059,301.1455 L1289.2941,299.684 L1299.3824,299.4585 L1309.4706,299.4996 L1319.5588,300.2496 L1329.6471,300.0661 L1339.7353,301.2367 L1349.8235,300.0952 L1359.9118,299.8707 L1370,300.3281 " fill="none" style="stroke:#383838;stroke-width:1.0;"/><text fill="#000000" font-family="FG Virgil" font-size="13" lengthAdjust="spacing" textLength="43" x="862.5" y="295.4717">findAll()</text><polygon fill="#383838" points="38.5,356.6797,38.526,356.7447,36.4487,357.3515,34.5239,358.3395,32.5495,359.2034,30.4117,359.6589,28.5,360.6797,28.4904,360.6556,30.4472,361.3477,32.4525,362.161,34.4916,363.0586,36.4144,363.6657,38.5,364.6797,38.6305,364.8102,37.5514,363.7311,36.8534,363.0331,36.2018,362.3815,35.2798,361.4595,34.5,360.6797,34.5161,360.6958,35.2925,359.8722,36.1421,359.1218,36.9564,358.3361,37.838,357.6177,38.5,356.6797" style="stroke:#383838;stroke-width:1.0;"/><path d="M32.5,360.6797 L32.5,360.9599 L42.6905,360.1273 L52.881,360.9374 L63.0714,361.2126 L73.2619,359.7285 L83.4524,360.5761 L93.6429,360.111 L103.8333,360.1684 L114.0238,360.5888 L124.2143,359.7579 L134.4048,361.4179 L144.5952,359.8393 L154.7857,360.416 L164.9762,361.2556 L175.1667,360.5653 L185.3571,360.7707 L195.5476,360.6371 L205.7381,360.9177 L215.9286,360.9985 L226.119,361.4606 L236.3095,361.5744 L246.5,360.6797 " fill="none" style="stroke:#383838;stroke-width:1.0;stroke-dasharray:2.0,2.0;"/><text fill="#000000" font-family="FG Virgil" font-size="13" lengthAdjust="spacing" textLength="93" x="44.5" y="355.8232">Shows all Fruits</text><polygon fill="#383838" points="235.5,387.0313,235.526,387.0963,237.4487,387.703,239.5239,388.6911,241.5495,389.5549,243.4117,390.0105,245.5,391.0313,245.4904,391.0072,243.4472,391.6993,241.4525,392.5126,239.4916,393.4102,237.4144,394.0173,235.5,395.0313,235.6305,395.1617,236.1514,394.0827,237.0534,393.3846,238.0018,392.7331,238.6798,391.811,239.5,391.0313,239.5161,391.0473,238.6925,390.2237,237.9421,389.4733,237.1564,388.6876,236.438,387.9693,235.5,387.0313" style="stroke:#383838;stroke-width:1.0;"/><path d="M27.5,391.0313 L27.5,391.3115 L37.6905,390.4788 L47.881,391.289 L58.0714,391.5642 L68.2619,390.0801 L78.4524,390.9276 L88.6429,390.4626 L98.8333,390.5199 L109.0238,390.9404 L119.2143,390.1094 L129.4048,391.7694 L139.5952,390.1909 L149.7857,390.7676 L159.9762,391.6072 L170.1667,390.9169 L180.3571,391.1222 L190.5476,390.9887 L200.7381,391.2693 L210.9286,391.3501 L221.119,391.8122 L231.3095,391.926 L241.5,391.0313 " fill="none" style="stroke:#383838;stroke-width:1.0;stroke-dasharray:2.0,2.0;"/><text fill="#000000" font-family="FG Virgil" font-size="13" lengthAdjust="spacing" textLength="169" x="34.5" y="386.1748">Presses button to add to cart</text><polygon fill="#383838" points="504.5,417.3828,504.526,417.4479,506.4487,418.0546,508.5239,419.0426,510.5495,419.9065,512.4117,420.362,514.5,421.3828,514.4904,421.3588,512.4472,422.0508,510.4525,422.8641,508.4916,423.7617,506.4144,424.3688,504.5,425.3828,504.6305,425.5133,505.1514,424.4343,506.0534,423.7362,507.0018,423.0846,507.6798,422.1626,508.5,421.3828,508.5161,421.3989,507.6925,420.5753,506.9421,419.8249,506.1564,419.0392,505.438,418.3209,504.5,417.3828" style="stroke:#383838;stroke-width:1.0;"/><path d="M257.5,421.3828 L257.5,421.6631 L267.62,420.8304 L277.74,421.6405 L287.86,421.9157 L297.98,420.4316 L308.1,421.2792 L318.22,420.8142 L328.34,420.8715 L338.46,421.2919 L348.58,420.461 L358.7,422.121 L368.82,420.5424 L378.94,421.1191 L389.06,421.9587 L399.18,421.2684 L409.3,421.4738 L419.42,421.3402 L429.54,421.6208 L439.66,421.7017 L449.78,422.1637 L459.9,422.2776 L470.02,422.2885 L480.14,421.7223 L490.26,422.0009 L500.38,422.3191 L510.5,421.3828 " fill="none" style="stroke:#383838;stroke-width:1.0;"/><text fill="#000000" font-family="FG Virgil" font-size="13" lengthAdjust="spacing" textLength="240" x="264.5" y="416.5264">addFruitsToCart(String id, String quantity)</text><polygon fill="#383838" points="720.5,447.7344,720.526,447.7994,722.4487,448.4061,724.5239,449.3942,726.5495,450.2581,728.4117,450.7136,730.5,451.7344,730.4904,451.7103,728.4472,452.4024,726.4525,453.2157,724.4916,454.1133,722.4144,454.7204,720.5,455.7344,720.6305,455.8649,721.1514,454.7858,722.0534,454.0878,723.0018,453.4362,723.6798,452.5142,724.5,451.7344,724.5161,451.7505,723.6925,450.9268,722.9421,450.1765,722.1564,449.3907,721.438,448.6724,720.5,447.7344" style="stroke:#383838;stroke-width:1.0;"/><path d="M526.5,451.7344 L526.5,452.0146 L536.5,451.1819 L546.5,451.9921 L556.5,452.2673 L566.5,450.7832 L576.5,451.6308 L586.5,451.1657 L596.5,451.223 L606.5,451.6435 L616.5,450.8125 L626.5,452.4726 L636.5,450.894 L646.5,451.4707 L656.5,452.3103 L666.5,451.62 L676.5,451.8254 L686.5,451.6918 L696.5,451.9724 L706.5,452.0532 L716.5,452.5153 L726.5,451.7344 " fill="none" style="stroke:#383838;stroke-width:1.0;"/><text fill="#000000" font-family="FG Virgil" font-size="13" lengthAdjust="spacing" textLength="187" x="533.5" y="446.8779">addToCart(String id, int quantity)</text><polygon fill="#383838" points="954.5,478.0859,954.526,478.151,956.4487,478.7577,958.5239,479.7458,960.5495,480.6096,962.4117,481.0651,964.5,482.0859,964.4904,482.0619,962.4472,482.7539,960.4525,483.5672,958.4916,484.4648,956.4144,485.072,954.5,486.0859,954.6305,486.2164,955.1514,485.1374,956.0534,484.4393,957.0018,483.7877,957.6798,482.8657,958.5,482.0859,958.5161,482.102,957.6925,481.2784,956.9421,480.528,956.1564,479.7423,955.438,479.024,954.5,478.0859" style="stroke:#383838;stroke-width:1.0;"/><path d="M742.5,482.0859 L742.5,482.3662 L752.4091,481.5335 L762.3182,482.3437 L772.2273,482.6188 L782.1364,481.1347 L792.0455,481.9823 L801.9545,481.5173 L811.8636,481.5746 L821.7727,481.9951 L831.6818,481.1641 L841.5909,482.8241 L851.5,481.2456 L861.4091,481.8222 L871.3182,482.6619 L881.2273,481.9716 L891.1364,482.1769 L901.0455,482.0433 L910.9545,482.324 L920.8636,482.4048 L930.7727,482.8669 L940.6818,482.9807 L950.5909,482.9916 L960.5,482.0859 " fill="none" style="stroke:#383838;stroke-width:1.0;"/><text fill="#000000" font-family="FG Virgil" font-size="13" lengthAdjust="spacing" textLength="131" x="749.5" y="477.2295">fruit=findById(String id)</text><polygon fill="#383838" points="1238,538.4375,1238.026,538.5025,1239.9487,539.1093,1242.0239,540.0973,1244.0495,540.9612,1245.9117,541.4167,1248,542.4375,1247.9904,542.4134,1245.9472,543.1055,1243.9525,543.9188,1241.9916,544.8164,1239.9144,545.4235,1238,546.4375,1238.1305,546.568,1238.6514,545.4889,1239.5534,544.7909,1240.5018,544.1393,1241.1798,543.2173,1242,542.4375,1242.0161,542.4536,1241.1925,541.63,1240.4421,540.8796,1239.6564,540.0939,1238.938,539.3755,1238,538.4375" style="stroke:#383838;stroke-width:1.0;"/><path d="M742.5,542.4375 L742.5,542.7177 L752.53,541.8851 L762.56,542.6952 L772.59,542.9704 L782.62,541.4863 L792.65,542.3339 L802.68,541.8688 L812.71,541.9262 L822.74,542.3466 L832.77,541.5157 L842.8,543.1757 L852.83,541.5971 L862.86,542.1738 L872.89,543.0134 L882.92,542.3231 L892.95,542.5285 L902.98,542.3949 L913.01,542.6755 L923.04,542.7563 L933.07,543.2184 L943.1,543.3322 L953.13,543.3432 L963.16,542.777 L973.19,543.0556 L983.22,543.3738 L993.25,541.4759 L1003.28,543.3422 L1013.31,542.0422 L1023.34,543.1492 L1033.37,541.7775 L1043.4,542.3462 L1053.43,543.4263 L1063.46,542.3725 L1073.49,542.5779 L1083.52,542.889 L1093.55,542.9925 L1103.58,542.4323 L1113.61,542.8205 L1123.64,541.6743 L1133.67,542.8167 L1143.7,543.1684 L1153.73,543.0302 L1163.76,543.2549 L1173.79,541.7934 L1183.82,541.5679 L1193.85,541.609 L1203.88,542.359 L1213.91,542.1755 L1223.94,543.346 L1233.97,542.2046 L1244,542.4375 " fill="none" style="stroke:#383838;stroke-width:1.0;"/><text fill="#000000" font-family="FG Virgil" font-size="13" lengthAdjust="spacing" textLength="285" x="749.5" y="537.5811">item=findUserFruitAndCart(String username, fruit)</text><polygon fill="#383838" points="1054,598.7891,1054.026,598.8541,1055.9487,599.4608,1058.0239,600.4489,1060.0495,601.3128,1061.9117,601.7683,1064,602.7891,1063.9904,602.765,1061.9472,603.4571,1059.9525,604.2704,1057.9916,605.168,1055.9144,605.7751,1054,606.7891,1054.1305,606.9196,1054.6514,605.8405,1055.5534,605.1424,1056.5018,604.4909,1057.1798,603.5688,1058,602.7891,1058.0161,602.8051,1057.1925,601.9815,1056.4421,601.2311,1055.6564,600.4454,1054.938,599.7271,1054,598.7891" style="stroke:#383838;stroke-width:1.0;"/><path d="M742.5,602.7891 L742.5,603.0693 L752.4219,602.2366 L762.3438,603.0468 L772.2656,603.322 L782.1875,601.8379 L792.1094,602.6854 L802.0313,602.2204 L811.9531,602.2777 L821.875,602.6982 L831.7969,601.8672 L841.7188,603.5273 L851.6406,601.9487 L861.5625,602.5254 L871.4844,603.365 L881.4063,602.6747 L891.3281,602.88 L901.25,602.7465 L911.1719,603.0271 L921.0938,603.1079 L931.0156,603.57 L940.9375,603.6838 L950.8594,603.6947 L960.7813,603.1286 L970.7031,603.4072 L980.625,603.7254 L990.5469,601.8275 L1000.4688,603.6937 L1010.3906,602.3937 L1020.3125,603.5008 L1030.2344,602.129 L1040.1563,602.6977 L1050.0781,603.7779 L1060,602.7891 " fill="none" style="stroke:#383838;stroke-width:1.0;"/><text fill="#000000" font-family="FG Virgil" font-size="13" lengthAdjust="spacing" textLength="161" x="749.5" y="597.9326">addSeveralFruit(int quantity)</text><polygon fill="#383838" points="1238,659.1406,1238.026,659.2057,1239.9487,659.8124,1242.0239,660.8004,1244.0495,661.6643,1245.9117,662.1198,1248,663.1406,1247.9904,663.1166,1245.9472,663.8086,1243.9525,664.6219,1241.9916,665.5195,1239.9144,666.1267,1238,667.1406,1238.1305,667.2711,1238.6514,666.1921,1239.5534,665.494,1240.5018,664.8424,1241.1798,663.9204,1242,663.1406,1242.0161,663.1567,1241.1925,662.3331,1240.4421,661.5827,1239.6564,660.797,1238.938,660.0787,1238,659.1406" style="stroke:#383838;stroke-width:1.0;"/><path d="M742.5,663.1406 L742.5,663.4209 L752.53,662.5882 L762.56,663.3983 L772.59,663.6735 L782.62,662.1894 L792.65,663.037 L802.68,662.572 L812.71,662.6293 L822.74,663.0497 L832.77,662.2188 L842.8,663.8788 L852.83,662.3003 L862.86,662.8769 L872.89,663.7166 L882.92,663.0263 L892.95,663.2316 L902.98,663.098 L913.01,663.3787 L923.04,663.4595 L933.07,663.9215 L943.1,664.0354 L953.13,664.0463 L963.16,663.4801 L973.19,663.7587 L983.22,664.0769 L993.25,662.179 L1003.28,664.0453 L1013.31,662.7453 L1023.34,663.8524 L1033.37,662.4806 L1043.4,663.0493 L1053.43,664.1294 L1063.46,663.0756 L1073.49,663.281 L1083.52,663.5921 L1093.55,663.6956 L1103.58,663.1354 L1113.61,663.5236 L1123.64,662.3774 L1133.67,663.5198 L1143.7,663.8716 L1153.73,663.7333 L1163.76,663.958 L1173.79,662.4965 L1183.82,662.271 L1193.85,662.3121 L1203.88,663.0621 L1213.91,662.8786 L1223.94,664.0492 L1233.97,662.9077 L1244,663.1406 " fill="none" style="stroke:#383838;stroke-width:1.0;"/><text fill="#000000" font-family="FG Virgil" font-size="13" lengthAdjust="spacing" textLength="59" x="749.5" y="658.2842">save(item)</text><polygon fill="#383838" points="33.5,719.4922,33.526,719.5572,31.4487,720.164,29.5239,721.152,27.5495,722.0159,25.4117,722.4714,23.5,723.4922,23.4904,723.4681,25.4472,724.1602,27.4525,724.9735,29.4916,725.8711,31.4144,726.4782,33.5,727.4922,33.6305,727.6227,32.5514,726.5436,31.8534,725.8456,31.2018,725.194,30.2798,724.272,29.5,723.4922,29.5161,723.5083,30.2925,722.6847,31.1421,721.9343,31.9564,721.1486,32.838,720.4302,33.5,719.4922" style="stroke:#383838;stroke-width:1.0;"/><path d="M27.5,723.4922 L27.5,723.7724 L37.6818,722.9398 L47.8636,723.7499 L58.0455,724.0251 L68.2273,722.541 L78.4091,723.3886 L88.5909,722.9235 L98.7727,722.9809 L108.9545,723.4013 L119.1364,722.5704 L129.3182,724.2304 L139.5,722.6518 L149.6818,723.2285 L159.8636,724.0681 L170.0455,723.3778 L180.2273,723.5832 L190.4091,723.4496 L200.5909,723.7302 L210.7727,723.811 L220.9545,724.2731 L231.1364,724.3869 L241.3182,724.3979 L251.5,723.4922 " fill="none" style="stroke:#383838;stroke-width:1.0;stroke-dasharray:2.0,2.0;"/><text fill="#000000" font-family="FG Virgil" font-size="13" lengthAdjust="spacing" textLength="196" x="39.5" y="718.6357">Fruit is added and Cart is updated</text><!--MD5=[605c9d0915f1af0dbe5efa2472af7935]
@startuml
skinparam handwritten true
skinparam monochrome true
skinparam packageStyle rect
skinparam defaultFontName FG Virgil
skinparam shadowing false

actor User as Actor
participant "fruits.jsp" as UI <<presentation>>
control FruitController as Controller <<application>>
participant FruitService as FS<<service>>
participant ItemService as IS<<service>>
participant CategoryService as CS<<service>>
database FruitRepository as FR <<repository>>
participant "item:Item" as Domain <<domain>>
participant "fruit:Fruit" as Fruit <<domain>>
database ItemRepository as IR <<repository>>
database CategoryRepository as CR <<repository>>

Actor - -> UI: Add fruit to Cart
activate Actor
activate UI
         UI -> Controller: viewFruits(Model model)
      activate Controller

       Controller ->FS : getAllFruits()
       activate FS
       FS -> FR : findAll()
       activate FR
       deactivate FR




       deactivate FS

        Controller ->CS : getAllCategories()
        activate CS
        CS -> CR: findAll()
        activate CR
        deactivate CR
        deactivate CS

       deactivate Controller
    UI - -> Actor: Shows all Fruits
    Actor - -> UI: Presses button to add to cart

   UI -> Controller: addFruitsToCart(String id, String quantity)
 activate Controller

        Controller -> IS : addToCart(String id, int quantity)
        activate IS

        IS -> FR :fruit=findById(String id)
        activate FR
        deactivate FR
        IS -> IR : item=findUserFruitAndCart(String username, fruit)
        activate IR
        deactivate IR
       IS -> Domain :  addSeveralFruit(int quantity)
       activate Domain
       deactivate Domain
       IS -> IR : save(item)
       activate IR
       deactivate IR
       deactivate IS
       deactivate Controller

 UI - -> Actor: Fruit is added and Cart is updated
deactivate UI
deactivate Actor
@enduml

PlantUML version 1.2021.11(Sat Oct 02 15:26:11 CEST 2021)
(GPL source distribution)
Java Runtime: OpenJDK Runtime Environment
JVM: OpenJDK 64-Bit Server VM
Default Encoding: Cp1252
Language: pt
Country: PT
--></g></svg>