<?xml version="1.0" encoding="UTF-8" standalone="no"?><svg xmlns="http://www.w3.org/2000/svg" xmlns:xlink="http://www.w3.org/1999/xlink" contentScriptType="application/ecmascript" contentStyleType="text/css" height="738px" preserveAspectRatio="none" style="width:1382px;height:738px;background:#FFFFFF;" version="1.1" viewBox="0 0 1382 738" width="1382px" zoomAndPan="magnify"><defs/><g><polygon fill="#FFFFFF" points="17.5,118.5703,17.5,118.6404,19.5,118.4322,21.5,118.6347,23.5,118.7035,25.5,118.3325,27.5,118.5703,27.4223,118.5703,27.0735,128.653,27.1165,138.7358,27.4318,148.8185,26.8086,158.9012,28.0536,168.9839,26.8697,179.0666,27.3022,189.1494,27.9319,199.2321,27.4142,209.3148,27.5682,219.3975,27.4681,229.4802,27.6785,239.563,27.7391,249.6457,28.0857,259.7284,28.1711,269.8111,28.1793,279.8938,27.7546,289.9766,27.9636,300.0593,28.2022,310.142,26.7788,320.2247,28.1785,330.3074,27.2035,340.3902,28.0338,350.4729,27.005,360.5556,27.4315,370.6383,28.2416,380.721,27.4513,390.8038,27.6053,400.8865,27.8386,410.9692,27.9162,421.0519,27.4961,431.1347,27.7872,441.2174,26.9276,451.3001,27.7844,461.3828,28.0482,471.4655,27.9445,481.5483,28.113,491.631,27.0169,501.7137,26.8478,511.7964,26.8786,521.8791,27.4411,531.9619,27.3035,542.0446,28.1814,552.1273,27.3253,562.21,27.1569,572.2927,27.7283,582.3755,26.8332,592.4582,26.9809,602.5409,28.149,612.6236,27.9357,622.7063,27.5,632.7891,27.5,633.0339,25.5,632.6818,23.5,632.8955,21.5,632.9859,19.5,632.6316,17.5,632.7891,17.4041,632.7891,17.626,622.7063,18.1518,612.6236,17.4958,602.5409,17.9626,592.4582,16.9462,582.3755,16.8227,572.2927,18.0036,562.21,16.7831,552.1273,18.009,542.0446,17.7066,531.9619,17.2321,521.8791,17.1462,511.7964,17.9588,501.7137,17.2007,491.631,18.0919,481.5483,16.9473,471.4655,18.1174,461.3828,17.9843,451.3001,17.745,441.2174,17.5472,431.1347,18.2266,421.0519,18.1136,410.9692,17.6693,400.8865,17.7682,390.8038,17.3697,380.721,18.2165,370.6383,17.6549,360.5556,17.6726,350.4729,16.8916,340.3902,17.0948,330.3074,18.0307,320.2247,17.9298,310.142,17.4571,300.0593,17.1778,289.9766,17.2811,279.8938,16.8138,269.8111,17.9147,259.7284,18.2396,249.6457,18.0264,239.563,18.1949,229.4802,17.3633,219.3975,17.5872,209.3148,17.1124,199.2321,17.784,189.1494,17.7468,179.0666,18.0524,168.9839,17.2703,158.9012,17.3656,148.8185,17.9435,138.7358,18.0673,128.653,17.5,118.5703" style="stroke:#383838;stroke-width:1.0;"/><polygon fill="#FFFFFF" points="341.5,118.5703,341.5,118.6404,343.5,118.4322,345.5,118.6347,347.5,118.7035,349.5,118.3325,351.5,118.5703,351.4223,118.5703,351.0735,128.653,351.1165,138.7358,351.4318,148.8185,350.8086,158.9012,352.0536,168.9839,350.8697,179.0666,351.3022,189.1494,351.9319,199.2321,351.4142,209.3148,351.5682,219.3975,351.4681,229.4802,351.6785,239.563,351.7391,249.6457,352.0857,259.7284,352.1711,269.8111,352.1793,279.8938,351.7546,289.9766,351.9636,300.0593,352.2022,310.142,350.7788,320.2247,352.1785,330.3074,351.2035,340.3902,352.0338,350.4729,351.005,360.5556,351.4315,370.6383,352.2416,380.721,351.4513,390.8038,351.6053,400.8865,351.8386,410.9692,351.9162,421.0519,351.4961,431.1347,351.7872,441.2174,350.9276,451.3001,351.7844,461.3828,352.0482,471.4655,351.9445,481.5483,352.113,491.631,351.0169,501.7137,350.8478,511.7964,350.8786,521.8791,351.4411,531.9619,351.3035,542.0446,352.1814,552.1273,351.3253,562.21,351.1569,572.2927,351.7283,582.3755,350.8332,592.4582,350.9809,602.5409,352.149,612.6236,351.9357,622.7063,351.5,632.7891,351.5,633.0339,349.5,632.6818,347.5,632.8955,345.5,632.9859,343.5,632.6316,341.5,632.7891,341.4041,632.7891,341.626,622.7063,342.1518,612.6236,341.4958,602.5409,341.9626,592.4582,340.9462,582.3755,340.8227,572.2927,342.0036,562.21,340.7831,552.1273,342.009,542.0446,341.7066,531.9619,341.2321,521.8791,341.1462,511.7964,341.9588,501.7137,341.2007,491.631,342.0919,481.5483,340.9473,471.4655,342.1174,461.3828,341.9843,451.3001,341.745,441.2174,341.5472,431.1347,342.2266,421.0519,342.1136,410.9692,341.6693,400.8865,341.7682,390.8038,341.3697,380.721,342.2165,370.6383,341.6549,360.5556,341.6726,350.4729,340.8916,340.3902,341.0948,330.3074,342.0307,320.2247,341.9298,310.142,341.4571,300.0593,341.1778,289.9766,341.2811,279.8938,340.8138,269.8111,341.9147,259.7284,342.2396,249.6457,342.0264,239.563,342.1949,229.4802,341.3633,219.3975,341.5872,209.3148,341.1124,199.2321,341.784,189.1494,341.7468,179.0666,342.0524,168.9839,341.2703,158.9012,341.3656,148.8185,341.9435,138.7358,342.0673,128.653,341.5,118.5703" style="stroke:#383838;stroke-width:1.0;"/><polygon fill="#FFFFFF" points="610.5,148.9219,610.5,148.9919,612.5,148.7838,614.5,148.9863,616.5,149.0551,618.5,148.6841,620.5,148.9219,620.4223,148.9219,620.0735,159,620.1165,169.0781,620.4318,179.1563,619.8086,189.2344,621.0536,199.3125,619.8697,209.3906,620.3022,219.4688,620.9319,229.5469,620.5,239.625,620.5,239.5964,618.5,239.6477,616.5,239.6144,614.5,239.6845,612.5,239.7047,610.5,239.625,611.0857,239.625,611.1711,229.5469,611.1793,219.4688,610.7546,209.3906,610.9636,199.3125,611.2022,189.2344,609.7788,179.1563,611.1785,169.0781,610.2035,159,610.5,148.9219" style="stroke:#383838;stroke-width:1.0;"/><polygon fill="#FFFFFF" points="610.5,330.6797,610.5,330.7497,612.5,330.5416,614.5,330.7441,616.5,330.8129,618.5,330.4419,620.5,330.6797,620.4223,330.6797,620.0735,340.7448,620.1165,350.8099,620.4318,360.875,619.8086,370.9401,621.0536,381.0052,619.8697,391.0703,620.3022,401.1354,620.9319,411.2005,620.4142,421.2656,620.5682,431.3307,620.4681,441.3958,620.6785,451.4609,620.7391,461.526,621.0857,471.5911,621.1711,481.6563,621.1793,491.7214,620.7546,501.7865,620.9636,511.8516,621.2022,521.9167,619.7788,531.9818,621.1785,542.0469,620.2035,552.112,621.0338,562.1771,620.005,572.2422,620.4315,582.3073,621.2416,592.3724,620.5,602.4375,620.5,602.4213,618.5,602.4726,616.5,602.5504,614.5,602.5762,612.5,602.4362,610.5,602.4375,610.7872,602.4375,609.9276,592.3724,610.7844,582.3073,611.0482,572.2422,610.9445,562.1771,611.113,552.112,610.0169,542.0469,609.8478,531.9818,609.8786,521.9167,610.4411,511.8516,610.3035,501.7865,611.1814,491.7214,610.3253,481.6563,610.1569,471.5911,610.7283,461.526,609.8332,451.4609,609.9809,441.3958,611.149,431.3307,610.9357,421.2656,611.2345,411.2005,610.1782,401.1354,610.8192,391.0703,611.0904,381.0052,610.0276,370.9401,610.4041,360.875,610.626,350.8099,611.1518,340.7448,610.5,330.6797" style="stroke:#383838;stroke-width:1.0;"/><polygon fill="#FFFFFF" points="784.5,179.2734,784.5,179.3435,786.5,179.1353,788.5,179.3379,790.5,179.4067,792.5,179.0356,794.5,179.2734,794.4223,179.2734,794.0735,189.332,794.1165,199.3906,794.4318,209.4492,793.8086,219.5078,795.0536,229.5664,794.5,239.625,794.5,239.4149,792.5,239.5591,790.5,239.769,788.5,239.5964,786.5,239.6477,784.5,239.625,784.4681,239.625,784.6785,229.5664,784.7391,219.5078,785.0857,209.4492,785.1711,199.3906,785.1793,189.332,784.5,179.2734" style="stroke:#383838;stroke-width:1.0;"/><polygon fill="#FFFFFF" points="883,361.0313,883,361.1013,885,360.8931,887,361.0957,889,361.1645,891,360.7935,893,361.0313,892.9223,361.0313,892.5735,371.0898,892.6165,381.1484,892.9318,391.207,892.3086,401.2656,893.5536,411.3242,892.3697,421.3828,892.8022,431.4414,893.4319,441.5,892.9142,451.5586,893.0682,461.6172,892.9681,471.6758,893.1785,481.7344,893.2391,491.793,893.5857,501.8516,893.6711,511.9102,893.6793,521.9688,893.2546,532.0273,893.4636,542.0859,893.7022,552.1445,892.2788,562.2031,893.6785,572.2617,892.7035,582.3203,893.5338,592.3789,893,602.4375,893,602.2725,891,602.4147,889,602.6847,887,602.4213,885,602.4726,883,602.4375,883.3386,602.4375,883.4162,592.3789,882.9961,582.3203,883.2872,572.2617,882.4276,562.2031,883.2844,552.1445,883.5482,542.0859,883.4445,532.0273,883.613,521.9688,882.5169,511.9102,882.3478,501.8516,882.3786,491.793,882.9411,481.7344,882.8035,471.6758,883.6814,461.6172,882.8253,451.5586,882.6569,441.5,883.2283,431.4414,882.3332,421.3828,882.4809,411.3242,883.649,401.2656,883.4357,391.207,883.7345,381.1484,882.6782,371.0898,883,361.0313" style="stroke:#383838;stroke-width:1.0;"/><polygon fill="#FFFFFF" points="1043,209.625,1043,209.6951,1045,209.4869,1047,209.6894,1049,209.7582,1051,209.3872,1053,209.625,1052.9741,209.625,1052.8578,215.625,1052.8722,221.625,1052.9773,227.625,1052.7695,233.625,1053,239.625,1053,239.8095,1051,239.4149,1049,239.5591,1047,239.769,1045,239.5964,1043,239.625,1043.0227,239.625,1042.9894,233.625,1043.0595,227.625,1043.0797,221.625,1043.1952,215.625,1043,209.625" style="stroke:#383838;stroke-width:1.0;"/><polygon fill="#FFFFFF" points="1043,391.3828,1043,391.4529,1045,391.2447,1047,391.4472,1049,391.516,1051,391.145,1053,391.3828,1052.9741,391.3828,1052.8578,397.3828,1052.8722,403.3828,1052.9773,409.3828,1052.7695,415.3828,1053,421.3828,1053,421.5674,1051,421.1727,1049,421.3169,1047,421.5268,1045,421.3542,1043,421.3828,1043.0227,421.3828,1042.9894,415.3828,1043.0595,409.3828,1043.0797,403.3828,1043.1952,397.3828,1043,391.3828" style="stroke:#383838;stroke-width:1.0;"/><polygon fill="#FFFFFF" points="1142.5,512.0859,1142.5,512.156,1144.5,511.9478,1146.5,512.1504,1148.5,512.2192,1150.5,511.8481,1152.5,512.0859,1152.4741,512.0859,1152.3578,518.0859,1152.3722,524.0859,1152.4773,530.0859,1152.2695,536.0859,1152.5,542.0859,1152.5,542.2705,1150.5,541.8758,1148.5,542.02,1146.5,542.2299,1144.5,542.0573,1142.5,542.0859,1142.5227,542.0859,1142.4894,536.0859,1142.5595,530.0859,1142.5797,524.0859,1142.6952,518.0859,1142.5,512.0859" style="stroke:#383838;stroke-width:1.0;"/><polygon fill="#FFFFFF" points="1326.5,451.7344,1326.5,451.8044,1328.5,451.5963,1330.5,451.7988,1332.5,451.8676,1334.5,451.4966,1336.5,451.7344,1336.4741,451.7344,1336.3578,457.7344,1336.3722,463.7344,1336.4773,469.7344,1336.2695,475.7344,1336.5,481.7344,1336.5,481.9189,1334.5,481.5243,1332.5,481.6685,1330.5,481.8784,1328.5,481.7058,1326.5,481.7344,1326.5227,481.7344,1326.4894,475.7344,1326.5595,469.7344,1326.5797,463.7344,1326.6952,457.7344,1326.5,451.7344" style="stroke:#383838;stroke-width:1.0;"/><polygon fill="#FFFFFF" points="1326.5,572.4375,1326.5,572.5076,1328.5,572.2994,1330.5,572.5019,1332.5,572.5707,1334.5,572.1997,1336.5,572.4375,1336.4741,572.4375,1336.3578,578.4375,1336.3722,584.4375,1336.4773,590.4375,1336.2695,596.4375,1336.5,602.4375,1336.5,602.622,1334.5,602.2274,1332.5,602.3716,1330.5,602.5815,1328.5,602.4089,1326.5,602.4375,1326.5227,602.4375,1326.4894,596.4375,1326.5595,590.4375,1326.5797,584.4375,1326.6952,578.4375,1326.5,572.4375" style="stroke:#383838;stroke-width:1.0;"/><path d="M22,86.2188 L22.2802,86.2188 L21.4476,96.3004 L22.2577,106.382 L22.5329,116.4636 L21.0488,126.5452 L21.8964,136.6268 L21.4313,146.7084 L21.4887,156.79 L21.9091,166.8717 L21.0782,176.9533 L22.7382,187.0349 L21.1596,197.1165 L21.7363,207.1981 L22.5759,217.2797 L21.8856,227.3613 L22.091,237.4429 L21.9574,247.5246 L22.238,257.6062 L22.3188,267.6878 L22.7809,277.7694 L22.8947,287.851 L22.9057,297.9326 L22.3395,308.0142 L22.6181,318.0958 L22.9363,328.1775 L21.0384,338.2591 L22.9047,348.3407 L21.6047,358.4223 L22.7117,368.5039 L21.34,378.5855 L21.9087,388.6671 L22.9888,398.7487 L21.935,408.8304 L22.1404,418.912 L22.4515,428.9936 L22.555,439.0752 L21.9948,449.1568 L22.383,459.2384 L21.2368,469.32 L22.3792,479.4016 L22.7309,489.4833 L22.5927,499.5649 L22.8174,509.6465 L21.3559,519.7281 L21.1304,529.8097 L21.1715,539.8913 L21.9215,549.9729 L21.738,560.0545 L22.9085,570.1362 L21.7671,580.2178 L21.5426,590.2994 L22.3044,600.381 L21.1109,610.4626 L21.3078,620.5442 L22.8653,630.6258 L22.5809,640.7074 L22,650.7891 " fill="none" style="stroke:#383838;stroke-width:1.0;stroke-dasharray:5.0,5.0;"/><path d="M346,86.2188 L346.2802,86.2188 L345.4476,96.3004 L346.2577,106.382 L346.5329,116.4636 L345.0488,126.5452 L345.8964,136.6268 L345.4313,146.7084 L345.4887,156.79 L345.9091,166.8717 L345.0782,176.9533 L346.7382,187.0349 L345.1596,197.1165 L345.7363,207.1981 L346.5759,217.2797 L345.8856,227.3613 L346.091,237.4429 L345.9574,247.5246 L346.238,257.6062 L346.3188,267.6878 L346.7809,277.7694 L346.8947,287.851 L346.9057,297.9326 L346.3395,308.0142 L346.6181,318.0958 L346.9363,328.1775 L345.0384,338.2591 L346.9047,348.3407 L345.6047,358.4223 L346.7117,368.5039 L345.34,378.5855 L345.9087,388.6671 L346.9888,398.7487 L345.935,408.8304 L346.1404,418.912 L346.4515,428.9936 L346.555,439.0752 L345.9948,449.1568 L346.383,459.2384 L345.2368,469.32 L346.3792,479.4016 L346.7309,489.4833 L346.5927,499.5649 L346.8174,509.6465 L345.3559,519.7281 L345.1304,529.8097 L345.1715,539.8913 L345.9215,549.9729 L345.738,560.0545 L346.9085,570.1362 L345.7671,580.2178 L345.5426,590.2994 L346.3044,600.381 L345.1109,610.4626 L345.3078,620.5442 L346.8653,630.6258 L346.5809,640.7074 L346,650.7891 " fill="none" style="stroke:#383838;stroke-width:1.0;stroke-dasharray:5.0,5.0;"/><path d="M615,86.2188 L615.2802,86.2188 L614.4476,96.3004 L615.2577,106.382 L615.5329,116.4636 L614.0488,126.5452 L614.8964,136.6268 L614.4313,146.7084 L614.4887,156.79 L614.9091,166.8717 L614.0782,176.9533 L615.7382,187.0349 L614.1596,197.1165 L614.7363,207.1981 L615.5759,217.2797 L614.8856,227.3613 L615.091,237.4429 L614.9574,247.5246 L615.238,257.6062 L615.3188,267.6878 L615.7809,277.7694 L615.8947,287.851 L615.9057,297.9326 L615.3395,308.0142 L615.6181,318.0958 L615.9363,328.1775 L614.0384,338.2591 L615.9047,348.3407 L614.6047,358.4223 L615.7117,368.5039 L614.34,378.5855 L614.9087,388.6671 L615.9888,398.7487 L614.935,408.8304 L615.1404,418.912 L615.4515,428.9936 L615.555,439.0752 L614.9948,449.1568 L615.383,459.2384 L614.2368,469.32 L615.3792,479.4016 L615.7309,489.4833 L615.5927,499.5649 L615.8174,509.6465 L614.3559,519.7281 L614.1304,529.8097 L614.1715,539.8913 L614.9215,549.9729 L614.738,560.0545 L615.9085,570.1362 L614.7671,580.2178 L614.5426,590.2994 L615.3044,600.381 L614.1109,610.4626 L614.3078,620.5442 L615.8653,630.6258 L615.5809,640.7074 L615,650.7891 " fill="none" style="stroke:#383838;stroke-width:1.0;stroke-dasharray:5.0,5.0;"/><path d="M789.5,86.2188 L789.7802,86.2188 L788.9476,96.3004 L789.7577,106.382 L790.0329,116.4636 L788.5488,126.5452 L789.3964,136.6268 L788.9313,146.7084 L788.9887,156.79 L789.4091,166.8717 L788.5782,176.9533 L790.2382,187.0349 L788.6596,197.1165 L789.2363,207.1981 L790.0759,217.2797 L789.3856,227.3613 L789.591,237.4429 L789.4574,247.5246 L789.738,257.6062 L789.8188,267.6878 L790.2809,277.7694 L790.3947,287.851 L790.4057,297.9326 L789.8395,308.0142 L790.1181,318.0958 L790.4363,328.1775 L788.5384,338.2591 L790.4047,348.3407 L789.1047,358.4223 L790.2117,368.5039 L788.84,378.5855 L789.4087,388.6671 L790.4888,398.7487 L789.435,408.8304 L789.6404,418.912 L789.9515,428.9936 L790.055,439.0752 L789.4948,449.1568 L789.883,459.2384 L788.7368,469.32 L789.8792,479.4016 L790.2309,489.4833 L790.0927,499.5649 L790.3174,509.6465 L788.8559,519.7281 L788.6304,529.8097 L788.6715,539.8913 L789.4215,549.9729 L789.238,560.0545 L790.4085,570.1362 L789.2671,580.2178 L789.0426,590.2994 L789.8044,600.381 L788.6109,610.4626 L788.8078,620.5442 L790.3653,630.6258 L790.0809,640.7074 L789.5,650.7891 " fill="none" style="stroke:#383838;stroke-width:1.0;stroke-dasharray:5.0,5.0;"/><path d="M887.5,86.2188 L887.7802,86.2188 L886.9476,96.3004 L887.7577,106.382 L888.0329,116.4636 L886.5488,126.5452 L887.3964,136.6268 L886.9313,146.7084 L886.9887,156.79 L887.4091,166.8717 L886.5782,176.9533 L888.2382,187.0349 L886.6596,197.1165 L887.2363,207.1981 L888.0759,217.2797 L887.3856,227.3613 L887.591,237.4429 L887.4574,247.5246 L887.738,257.6062 L887.8188,267.6878 L888.2809,277.7694 L888.3947,287.851 L888.4057,297.9326 L887.8395,308.0142 L888.1181,318.0958 L888.4363,328.1775 L886.5384,338.2591 L888.4047,348.3407 L887.1047,358.4223 L888.2117,368.5039 L886.84,378.5855 L887.4087,388.6671 L888.4888,398.7487 L887.435,408.8304 L887.6404,418.912 L887.9515,428.9936 L888.055,439.0752 L887.4948,449.1568 L887.883,459.2384 L886.7368,469.32 L887.8792,479.4016 L888.2309,489.4833 L888.0927,499.5649 L888.3174,509.6465 L886.8559,519.7281 L886.6304,529.8097 L886.6715,539.8913 L887.4215,549.9729 L887.238,560.0545 L888.4085,570.1362 L887.2671,580.2178 L887.0426,590.2994 L887.8044,600.381 L886.6109,610.4626 L886.8078,620.5442 L888.3653,630.6258 L888.0809,640.7074 L887.5,650.7891 " fill="none" style="stroke:#383838;stroke-width:1.0;stroke-dasharray:5.0,5.0;"/><path d="M1047.5,86.2188 L1047.7802,86.2188 L1046.9476,96.3004 L1047.7577,106.382 L1048.0329,116.4636 L1046.5488,126.5452 L1047.3964,136.6268 L1046.9313,146.7084 L1046.9887,156.79 L1047.4091,166.8717 L1046.5782,176.9533 L1048.2382,187.0349 L1046.6596,197.1165 L1047.2363,207.1981 L1048.0759,217.2797 L1047.3856,227.3613 L1047.591,237.4429 L1047.4574,247.5246 L1047.738,257.6062 L1047.8188,267.6878 L1048.2809,277.7694 L1048.3947,287.851 L1048.4057,297.9326 L1047.8395,308.0142 L1048.1181,318.0958 L1048.4363,328.1775 L1046.5384,338.2591 L1048.4047,348.3407 L1047.1047,358.4223 L1048.2117,368.5039 L1046.84,378.5855 L1047.4087,388.6671 L1048.4888,398.7487 L1047.435,408.8304 L1047.6404,418.912 L1047.9515,428.9936 L1048.055,439.0752 L1047.4948,449.1568 L1047.883,459.2384 L1046.7368,469.32 L1047.8792,479.4016 L1048.2309,489.4833 L1048.0927,499.5649 L1048.3174,509.6465 L1046.8559,519.7281 L1046.6304,529.8097 L1046.6715,539.8913 L1047.4215,549.9729 L1047.238,560.0545 L1048.4085,570.1362 L1047.2671,580.2178 L1047.0426,590.2994 L1047.8044,600.381 L1046.6109,610.4626 L1046.8078,620.5442 L1048.3653,630.6258 L1048.0809,640.7074 L1047.5,650.7891 " fill="none" style="stroke:#383838;stroke-width:1.0;stroke-dasharray:5.0,5.0;"/><path d="M1147.5,86.2188 L1147.7802,86.2188 L1146.9476,96.3004 L1147.7577,106.382 L1148.0329,116.4636 L1146.5488,126.5452 L1147.3964,136.6268 L1146.9313,146.7084 L1146.9887,156.79 L1147.4091,166.8717 L1146.5782,176.9533 L1148.2382,187.0349 L1146.6596,197.1165 L1147.2363,207.1981 L1148.0759,217.2797 L1147.3856,227.3613 L1147.591,237.4429 L1147.4574,247.5246 L1147.738,257.6062 L1147.8188,267.6878 L1148.2809,277.7694 L1148.3947,287.851 L1148.4057,297.9326 L1147.8395,308.0142 L1148.1181,318.0958 L1148.4363,328.1775 L1146.5384,338.2591 L1148.4047,348.3407 L1147.1047,358.4223 L1148.2117,368.5039 L1146.84,378.5855 L1147.4087,388.6671 L1148.4888,398.7487 L1147.435,408.8304 L1147.6404,418.912 L1147.9515,428.9936 L1148.055,439.0752 L1147.4948,449.1568 L1147.883,459.2384 L1146.7368,469.32 L1147.8792,479.4016 L1148.2309,489.4833 L1148.0927,499.5649 L1148.3174,509.6465 L1146.8559,519.7281 L1146.6304,529.8097 L1146.6715,539.8913 L1147.4215,549.9729 L1147.238,560.0545 L1148.4085,570.1362 L1147.2671,580.2178 L1147.0426,590.2994 L1147.8044,600.381 L1146.6109,610.4626 L1146.8078,620.5442 L1148.3653,630.6258 L1148.0809,640.7074 L1147.5,650.7891 " fill="none" style="stroke:#383838;stroke-width:1.0;stroke-dasharray:5.0,5.0;"/><path d="M1233.5,86.2188 L1233.7802,86.2188 L1232.9476,96.3004 L1233.7577,106.382 L1234.0329,116.4636 L1232.5488,126.5452 L1233.3964,136.6268 L1232.9313,146.7084 L1232.9887,156.79 L1233.4091,166.8717 L1232.5782,176.9533 L1234.2382,187.0349 L1232.6596,197.1165 L1233.2363,207.1981 L1234.0759,217.2797 L1233.3856,227.3613 L1233.591,237.4429 L1233.4574,247.5246 L1233.738,257.6062 L1233.8188,267.6878 L1234.2809,277.7694 L1234.3947,287.851 L1234.4057,297.9326 L1233.8395,308.0142 L1234.1181,318.0958 L1234.4363,328.1775 L1232.5384,338.2591 L1234.4047,348.3407 L1233.1047,358.4223 L1234.2117,368.5039 L1232.84,378.5855 L1233.4087,388.6671 L1234.4888,398.7487 L1233.435,408.8304 L1233.6404,418.912 L1233.9515,428.9936 L1234.055,439.0752 L1233.4948,449.1568 L1233.883,459.2384 L1232.7368,469.32 L1233.8792,479.4016 L1234.2309,489.4833 L1234.0927,499.5649 L1234.3174,509.6465 L1232.8559,519.7281 L1232.6304,529.8097 L1232.6715,539.8913 L1233.4215,549.9729 L1233.238,560.0545 L1234.4085,570.1362 L1233.2671,580.2178 L1233.0426,590.2994 L1233.8044,600.381 L1232.6109,610.4626 L1232.8078,620.5442 L1234.3653,630.6258 L1234.0809,640.7074 L1233.5,650.7891 " fill="none" style="stroke:#383838;stroke-width:1.0;stroke-dasharray:5.0,5.0;"/><path d="M1331.5,86.2188 L1331.7802,86.2188 L1330.9476,96.3004 L1331.7577,106.382 L1332.0329,116.4636 L1330.5488,126.5452 L1331.3964,136.6268 L1330.9313,146.7084 L1330.9887,156.79 L1331.4091,166.8717 L1330.5782,176.9533 L1332.2382,187.0349 L1330.6596,197.1165 L1331.2363,207.1981 L1332.0759,217.2797 L1331.3856,227.3613 L1331.591,237.4429 L1331.4574,247.5246 L1331.738,257.6062 L1331.8188,267.6878 L1332.2809,277.7694 L1332.3947,287.851 L1332.4057,297.9326 L1331.8395,308.0142 L1332.1181,318.0958 L1332.4363,328.1775 L1330.5384,338.2591 L1332.4047,348.3407 L1331.1047,358.4223 L1332.2117,368.5039 L1330.84,378.5855 L1331.4087,388.6671 L1332.4888,398.7487 L1331.435,408.8304 L1331.6404,418.912 L1331.9515,428.9936 L1332.055,439.0752 L1331.4948,449.1568 L1331.883,459.2384 L1330.7368,469.32 L1331.8792,479.4016 L1332.2309,489.4833 L1332.0927,499.5649 L1332.3174,509.6465 L1330.8559,519.7281 L1330.6304,529.8097 L1330.6715,539.8913 L1331.4215,549.9729 L1331.238,560.0545 L1332.4085,570.1362 L1331.2671,580.2178 L1331.0426,590.2994 L1331.8044,600.381 L1330.6109,610.4626 L1330.8078,620.5442 L1332.3653,630.6258 L1332.0809,640.7074 L1331.5,650.7891 " fill="none" style="stroke:#383838;stroke-width:1.0;stroke-dasharray:5.0,5.0;"/><text fill="#000000" font-family="FG Virgil" font-size="14" lengthAdjust="spacing" textLength="29" x="5" y="83.1426">User</text><polygon fill="#F8F8F8" points="30.5442,17.5553,29.3715,19.1576,27.9845,21.5044,26.0008,23.086,23.9163,23.9509,22.2542,24.026,20.118,22.9443,18.1023,22.2377,16.5724,20.803,15.7699,19.1605,15.2939,17.8527,14.8277,16.1444,14.0709,14.6744,14.6525,13.2392,15.162,11.667,17.074,10.4235,18.4192,8.8102,20.0843,8.2744,22.0637,7.813,24.6021,8.0872,25.9924,8.7429,27.6089,9.0401,29.5743,11.0537,30.2595,13.1795,30.5571,14.63,30.22,17.0202" style="stroke:#383838;stroke-width:2.0;"/><path d="M22.5,23.6094 L22.6868,23.6094 L22.1317,29.0094 L22.6718,34.4094 L22.8553,39.8094 L21.8659,45.2094 L22.5,50.6094 M9.5,31.6094 L9.5,31.5403 L14.7,31.2303 L19.9,31.2685 L25.1,31.5488 L30.3,30.9948 L35.5,31.6094 M22.5,50.6094 L22.8719,50.9317 L19.4766,53.2425 L17.1672,56.4942 L14.9901,59.8608 L12.0424,62.5594 L9.5,65.6094 M22.5,50.6094 L22.5458,50.6491 L25.0785,53.5908 L27.8199,56.7133 L30.4606,59.7486 L33.2934,62.9503 L35.5,65.6094 " fill="none" style="stroke:#383838;stroke-width:2.0;"/><text fill="#000000" font-family="FG Virgil" font-size="14" lengthAdjust="spacing" textLength="29" x="5" y="664.3223">User</text><polygon fill="#F8F8F8" points="30.5442,679.3444,29.3715,680.9467,27.9845,683.2935,26.0008,684.8751,23.9163,685.74,22.2542,685.815,20.118,684.7334,18.1023,684.0267,16.5724,682.592,15.7699,680.9495,15.2939,679.6417,14.8277,677.9335,14.0709,676.4635,14.6525,675.0283,15.162,673.4561,17.074,672.2126,18.4192,670.5992,20.0843,670.0635,22.0637,669.6021,24.6021,669.8762,25.9924,670.5319,27.6089,670.8291,29.5743,672.8428,30.2595,674.9686,30.5571,676.4191,30.22,678.8093" style="stroke:#383838;stroke-width:2.0;"/><path d="M22.5,685.3984 L22.6868,685.3984 L22.1317,690.7984 L22.6718,696.1984 L22.8553,701.5984 L21.8659,706.9984 L22.5,712.3984 M9.5,693.3984 L9.5,693.3294 L14.7,693.0193 L19.9,693.0575 L25.1,693.3379 L30.3,692.7839 L35.5,693.3984 M22.5,712.3984 L22.8719,712.7207 L19.4766,715.0315 L17.1672,718.2833 L14.9901,721.6499 L12.0424,724.3485 L9.5,727.3984 M22.5,712.3984 L22.5458,712.4382 L25.0785,715.3798 L27.8199,718.5024 L30.4606,721.5377 L33.2934,724.7394 L35.5,727.3984 " fill="none" style="stroke:#383838;stroke-width:2.0;"/><polygon fill="#F8F8F8" points="292,36,292,36.2102,301.9091,35.5857,311.8182,36.1933,321.7273,36.3997,331.6364,35.2866,341.5455,35.9223,351.4545,35.5735,361.3636,35.6165,371.2727,35.9318,381.1818,35.3086,391.0909,36.5536,401,36,400.3697,36,400.8022,45.8438,401.4319,55.6875,400.9142,65.5313,401.0682,75.375,401,85.2188,401,85.1868,391.0909,85.3973,381.1818,85.4579,371.2727,85.8044,361.3636,85.8898,351.4545,85.898,341.5455,85.4734,331.6364,85.6823,321.7273,85.921,311.8182,84.4976,301.9091,85.8973,292,85.2188,291.7035,85.2188,292.5338,75.375,291.505,65.5313,291.9315,55.6875,292.7416,45.8438,292,36" style="stroke:#383838;stroke-width:1.5;"/><text fill="#000000" font-family="FG Virgil" font-size="14" font-style="italic" lengthAdjust="spacing" textLength="95" x="299" y="57.5332">«presentation»</text><text fill="#000000" font-family="FG Virgil" font-size="14" lengthAdjust="spacing" textLength="53" x="320" y="75.1426">fruits.jsp</text><polygon fill="#F8F8F8" points="292,649.7891,292,649.9992,301.9091,649.3747,311.8182,649.9823,321.7273,650.1887,331.6364,649.0757,341.5455,649.7113,351.4545,649.3626,361.3636,649.4056,371.2727,649.7209,381.1818,649.0977,391.0909,650.3427,401,649.7891,400.3697,649.7891,400.8022,659.6328,401.4319,669.4766,400.9142,679.3203,401.0682,689.1641,401,699.0078,401,698.9759,391.0909,699.1863,381.1818,699.2469,371.2727,699.5935,361.3636,699.6789,351.4545,699.6871,341.5455,699.2624,331.6364,699.4714,321.7273,699.71,311.8182,698.2866,301.9091,699.6863,292,699.0078,291.7035,699.0078,292.5338,689.1641,291.505,679.3203,291.9315,669.4766,292.7416,659.6328,292,649.7891" style="stroke:#383838;stroke-width:1.5;"/><text fill="#000000" font-family="FG Virgil" font-size="14" font-style="italic" lengthAdjust="spacing" textLength="95" x="299" y="671.3223">«presentation»</text><text fill="#000000" font-family="FG Virgil" font-size="14" lengthAdjust="spacing" textLength="53" x="320" y="688.9316">fruits.jsp</text><text fill="#000000" font-family="FG Virgil" font-size="14" font-style="italic" lengthAdjust="spacing" textLength="84" x="570.5" y="65.5332">«application»</text><text fill="#000000" font-family="FG Virgil" font-size="14" lengthAdjust="spacing" textLength="91" x="567" y="83.1426">FruitController</text><polygon fill="#F8F8F8" points="627.5663,37.9189,625.8073,40.3223,623.7268,43.8426,620.7512,46.215,617.6244,47.5123,615.1313,47.6249,611.9269,46.0024,608.9035,44.9425,606.6086,42.7904,605.4048,40.3267,604.6909,38.3649,603.9915,35.8026,602.8564,33.5976,603.7287,31.4447,604.4929,29.0864,607.3611,27.2212,609.3789,24.8012,611.8764,23.9976,614.8456,23.3055,618.6532,23.7167,620.7386,24.7002,623.1633,25.146,626.1115,28.1665,627.1392,31.3552,627.5857,33.5309,627.08,37.1162" style="stroke:#383838;stroke-width:2.0;"/><polygon fill="#383838" points="611.5,23,611.5449,23.0538,612.6116,21.8939,613.9412,21.0495,615.1853,20.1023,616.1478,18.8173,617.5,18,617.4759,17.9904,616.968,18.9472,616.5813,19.9525,616.2789,20.9916,615.686,21.9144,615.5,23,615.6713,23.0685,615.7049,23.922,616.2388,24.9755,616.8337,26.0535,617.0735,26.9894,617.5,28,617.5146,28.0175,616.2932,26.9918,615.1381,26.0457,613.951,25.0612,612.825,24.15,611.5,23" style="stroke:#383838;stroke-width:1.0;"/><text fill="#000000" font-family="FG Virgil" font-size="14" font-style="italic" lengthAdjust="spacing" textLength="84" x="570.5" y="664.3223">«application»</text><text fill="#000000" font-family="FG Virgil" font-size="14" lengthAdjust="spacing" textLength="91" x="567" y="681.9316">FruitController</text><polygon fill="#F8F8F8" points="627.5663,703.9267,625.8073,706.3301,623.7268,709.8504,620.7512,712.2228,617.6244,713.5201,615.1313,713.6327,611.9269,712.0102,608.9035,710.9503,606.6086,708.7982,605.4048,706.3345,604.6909,704.3728,603.9915,701.8104,602.8564,699.6054,603.7287,697.4525,604.4929,695.0942,607.3611,693.2291,609.3789,690.809,611.8764,690.0054,614.8456,689.3133,618.6532,689.7245,620.7386,690.708,623.1633,691.1538,626.1115,694.1743,627.1392,697.363,627.5857,699.5387,627.08,703.124" style="stroke:#383838;stroke-width:2.0;"/><polygon fill="#383838" points="611.5,689.0078,611.5449,689.0616,612.6116,687.9017,613.9412,687.0573,615.1853,686.1102,616.1478,684.8251,617.5,684.0078,617.4759,683.9982,616.968,684.955,616.5813,685.9603,616.2789,686.9994,615.686,687.9222,615.5,689.0078,615.6713,689.0764,615.7049,689.9298,616.2388,690.9833,616.8337,692.0613,617.0735,692.9972,617.5,694.0078,617.5146,694.0253,616.2932,692.9996,615.1381,692.0535,613.951,691.069,612.825,690.1578,611.5,689.0078" style="stroke:#383838;stroke-width:1.0;"/><polygon fill="#F8F8F8" points="744.5,36,744.5,36.2102,754.5,35.5857,764.5,36.1933,774.5,36.3997,784.5,35.2866,794.5,35.9223,804.5,35.5735,814.5,35.6165,824.5,35.9318,834.5,36,833.8086,36,835.0536,45.8438,833.8697,55.6875,834.3022,65.5313,834.9319,75.375,834.5,85.2188,834.5,85.133,824.5,85.287,814.5,85.1868,804.5,85.3973,794.5,85.4579,784.5,85.8044,774.5,85.8898,764.5,85.898,754.5,85.4734,744.5,85.2188,744.9636,85.2188,745.2022,75.375,743.7788,65.5313,745.1785,55.6875,744.2035,45.8438,744.5,36" style="stroke:#383838;stroke-width:1.5;"/><text fill="#000000" font-family="FG Virgil" font-size="14" font-style="italic" lengthAdjust="spacing" textLength="60" x="759.5" y="57.5332">«service»</text><text fill="#000000" font-family="FG Virgil" font-size="14" lengthAdjust="spacing" textLength="76" x="751.5" y="75.1426">FruitService</text><polygon fill="#F8F8F8" points="744.5,649.7891,744.5,649.9992,754.5,649.3747,764.5,649.9823,774.5,650.1887,784.5,649.0757,794.5,649.7113,804.5,649.3626,814.5,649.4056,824.5,649.7209,834.5,649.7891,833.8086,649.7891,835.0536,659.6328,833.8697,669.4766,834.3022,679.3203,834.9319,689.1641,834.5,699.0078,834.5,698.922,824.5,699.0761,814.5,698.9759,804.5,699.1863,794.5,699.2469,784.5,699.5935,774.5,699.6789,764.5,699.6871,754.5,699.2624,744.5,699.0078,744.9636,699.0078,745.2022,689.1641,743.7788,679.3203,745.1785,669.4766,744.2035,659.6328,744.5,649.7891" style="stroke:#383838;stroke-width:1.5;"/><text fill="#000000" font-family="FG Virgil" font-size="14" font-style="italic" lengthAdjust="spacing" textLength="60" x="759.5" y="671.3223">«service»</text><text fill="#000000" font-family="FG Virgil" font-size="14" lengthAdjust="spacing" textLength="76" x="751.5" y="688.9316">FruitService</text><polygon fill="#F8F8F8" points="844.5,36,844.5,36.2102,854.1667,35.5857,863.8333,36.1933,873.5,36.3997,883.1667,35.2866,892.8333,35.9223,902.5,35.5735,912.1667,35.6165,921.8333,35.9318,931.5,36,930.8086,36,932.0536,45.8438,930.8697,55.6875,931.3022,65.5313,931.9319,75.375,931.5,85.2188,931.5,85.133,921.8333,85.287,912.1667,85.1868,902.5,85.3973,892.8333,85.4579,883.1667,85.8044,873.5,85.8898,863.8333,85.898,854.1667,85.4734,844.5,85.2188,844.9636,85.2188,845.2022,75.375,843.7788,65.5313,845.1785,55.6875,844.2035,45.8438,844.5,36" style="stroke:#383838;stroke-width:1.5;"/><text fill="#000000" font-family="FG Virgil" font-size="14" font-style="italic" lengthAdjust="spacing" textLength="60" x="858" y="57.5332">«service»</text><text fill="#000000" font-family="FG Virgil" font-size="14" lengthAdjust="spacing" textLength="73" x="851.5" y="75.1426">ItemService</text><polygon fill="#F8F8F8" points="844.5,649.7891,844.5,649.9992,854.1667,649.3747,863.8333,649.9823,873.5,650.1887,883.1667,649.0757,892.8333,649.7113,902.5,649.3626,912.1667,649.4056,921.8333,649.7209,931.5,649.7891,930.8086,649.7891,932.0536,659.6328,930.8697,669.4766,931.3022,679.3203,931.9319,689.1641,931.5,699.0078,931.5,698.922,921.8333,699.0761,912.1667,698.9759,902.5,699.1863,892.8333,699.2469,883.1667,699.5935,873.5,699.6789,863.8333,699.6871,854.1667,699.2624,844.5,699.0078,844.9636,699.0078,845.2022,689.1641,843.7788,679.3203,845.1785,669.4766,844.2035,659.6328,844.5,649.7891" style="stroke:#383838;stroke-width:1.5;"/><text fill="#000000" font-family="FG Virgil" font-size="14" font-style="italic" lengthAdjust="spacing" textLength="60" x="858" y="671.3223">«service»</text><text fill="#000000" font-family="FG Virgil" font-size="14" lengthAdjust="spacing" textLength="73" x="851.5" y="688.9316">ItemService</text><text fill="#000000" font-family="FG Virgil" font-size="14" font-style="italic" lengthAdjust="spacing" textLength="79" x="1005.5" y="65.5332">«repository»</text><text fill="#000000" font-family="FG Virgil" font-size="14" lengthAdjust="spacing" textLength="97" x="996.5" y="83.1426">FruitRepository</text><path d="M1030,15 L1030,15 L1030.0651,15.067 L1031.6716,13.118 L1033.6599,11.5616 L1035.5238,9.8774 L1036.979,7.7727 L1039,6.25 L1038.9952,6.2158 L1040.7739,5.8122 L1042.5766,5.5812 L1044.3958,5.47 L1046.1577,4.9456 L1048,5 L1048,5 L1048.0339,5.2437 L1049.7615,4.9725 L1051.5879,5.4129 L1053.4264,5.9402 L1055.1948,5.9622 L1057,6.25 L1057.0211,6.2717 L1058.7901,7.9898 L1060.6553,9.8069 L1062.4741,11.5762 L1064.3815,13.4366 L1066,15 L1066.5965,15 L1066.6038,20.2 L1066.2263,25.4 L1066.4121,30.6 L1066.6242,35.8 L1066,41 L1066,41 L1065.7766,40.7702 L1064.4102,42.9662 L1062.3081,44.4055 L1060.7654,46.4201 L1058.6466,47.8423 L1057,49.75 L1056.9958,49.7198 L1055.2453,50.3265 L1053.397,50.2285 L1051.6064,50.5464 L1049.8207,50.8991 L1048,51 L1048,51 L1048.0254,51.1832 L1046.1998,50.7483 L1044.4176,50.6264 L1042.565,49.998 L1040.8174,50.1252 L1039,49.75 L1039.1698,49.9247 L1037.3377,48.1417 L1035.5899,46.4453 L1033.4503,44.3461 L1031.5979,42.5422 L1030,41 L1029.4476,41 L1029.9477,35.8 L1029.8253,30.6 L1030.6057,25.4 L1029.8447,20.2 L1030,15 " fill="#F8F8F8" style="stroke:#000000;stroke-width:1.5;"/><path d="M1030,15 L1030,15 L1030.0651,15.067 L1031.6716,16.618 L1033.6599,18.5616 L1035.5238,20.3774 L1036.979,21.7727 L1039,23.75 L1038.9952,23.7158 L1040.7739,23.8122 L1042.5766,24.0812 L1044.3958,24.47 L1046.1577,24.4456 L1048,25 L1048,25 L1048.0339,25.2437 L1049.7615,24.4725 L1051.5879,24.4129 L1053.4264,24.4402 L1055.1948,23.9622 L1057,23.75 L1057.0211,23.7717 L1058.7901,21.9898 L1060.6553,20.3069 L1062.4741,18.5762 L1064.3815,16.9366 L1066,15 " fill="none" style="stroke:#000000;stroke-width:1.5;"/><text fill="#000000" font-family="FG Virgil" font-size="14" font-style="italic" lengthAdjust="spacing" textLength="79" x="1005.5" y="664.3223">«repository»</text><text fill="#000000" font-family="FG Virgil" font-size="14" lengthAdjust="spacing" textLength="97" x="996.5" y="681.9316">FruitRepository</text><path d="M1030,695.0078 L1030,695.0078 L1030.0651,695.0748 L1031.6716,693.1258 L1033.6599,691.5694 L1035.5238,689.8852 L1036.979,687.7805 L1039,686.2578 L1038.9952,686.2236 L1040.7739,685.8201 L1042.5766,685.589 L1044.3958,685.4778 L1046.1577,684.9535 L1048,685.0078 L1048,685.0078 L1048.0339,685.2515 L1049.7615,684.9804 L1051.5879,685.4208 L1053.4264,685.948 L1055.1948,685.9701 L1057,686.2578 L1057.0211,686.2796 L1058.7901,687.9976 L1060.6553,689.8147 L1062.4741,691.584 L1064.3815,693.4445 L1066,695.0078 L1066.5965,695.0078 L1066.6038,700.2078 L1066.2263,705.4078 L1066.4121,710.6078 L1066.6242,715.8078 L1066,721.0078 L1066,721.0078 L1065.7766,720.778 L1064.4102,722.974 L1062.3081,724.4133 L1060.7654,726.4279 L1058.6466,727.8501 L1057,729.7578 L1056.9958,729.7277 L1055.2453,730.3343 L1053.397,730.2364 L1051.6064,730.5542 L1049.8207,730.9069 L1048,731.0078 L1048,731.0078 L1048.0254,731.191 L1046.1998,730.7561 L1044.4176,730.6342 L1042.565,730.0058 L1040.8174,730.133 L1039,729.7578 L1039.1698,729.9325 L1037.3377,728.1495 L1035.5899,726.4532 L1033.4503,724.3539 L1031.5979,722.55 L1030,721.0078 L1029.4476,721.0078 L1029.9477,715.8078 L1029.8253,710.6078 L1030.6057,705.4078 L1029.8447,700.2078 L1030,695.0078 " fill="#F8F8F8" style="stroke:#000000;stroke-width:1.5;"/><path d="M1030,695.0078 L1030,695.0078 L1030.0651,695.0748 L1031.6716,696.6258 L1033.6599,698.5694 L1035.5238,700.3852 L1036.979,701.7805 L1039,703.7578 L1038.9952,703.7236 L1040.7739,703.8201 L1042.5766,704.089 L1044.3958,704.4778 L1046.1577,704.4535 L1048,705.0078 L1048,705.0078 L1048.0339,705.2515 L1049.7615,704.4804 L1051.5879,704.4208 L1053.4264,704.448 L1055.1948,703.9701 L1057,703.7578 L1057.0211,703.7796 L1058.7901,701.9976 L1060.6553,700.3147 L1062.4741,698.584 L1064.3815,696.9445 L1066,695.0078 " fill="none" style="stroke:#000000;stroke-width:1.5;"/><polygon fill="#F8F8F8" points="1109.5,36,1109.5,36.2102,1119,35.5857,1128.5,36.1933,1138,36.3997,1147.5,35.2866,1157,35.9223,1166.5,35.5735,1176,35.6165,1185.5,36,1185.4318,36,1184.8086,45.8438,1186.0536,55.6875,1184.8697,65.5313,1185.3022,75.375,1185.5,85.2188,1185.5,85.6507,1176,85.133,1166.5,85.287,1157,85.1868,1147.5,85.3973,1138,85.4579,1128.5,85.8044,1119,85.8898,1109.5,85.2188,1110.1793,85.2188,1109.7546,75.375,1109.9636,65.5313,1110.2022,55.6875,1108.7788,45.8438,1109.5,36" style="stroke:#383838;stroke-width:1.5;"/><text fill="#000000" font-family="FG Virgil" font-size="14" font-style="italic" lengthAdjust="spacing" textLength="62" x="1116.5" y="57.5332">«domain»</text><text fill="#000000" font-family="FG Virgil" font-size="14" lengthAdjust="spacing" textLength="56" x="1119.5" y="75.1426">item:Item</text><polygon fill="#F8F8F8" points="1109.5,649.7891,1109.5,649.9992,1119,649.3747,1128.5,649.9823,1138,650.1887,1147.5,649.0757,1157,649.7113,1166.5,649.3626,1176,649.4056,1185.5,649.7891,1185.4318,649.7891,1184.8086,659.6328,1186.0536,669.4766,1184.8697,679.3203,1185.3022,689.1641,1185.5,699.0078,1185.5,699.4398,1176,698.922,1166.5,699.0761,1157,698.9759,1147.5,699.1863,1138,699.2469,1128.5,699.5935,1119,699.6789,1109.5,699.0078,1110.1793,699.0078,1109.7546,689.1641,1109.9636,679.3203,1110.2022,669.4766,1108.7788,659.6328,1109.5,649.7891" style="stroke:#383838;stroke-width:1.5;"/><text fill="#000000" font-family="FG Virgil" font-size="14" font-style="italic" lengthAdjust="spacing" textLength="62" x="1116.5" y="671.3223">«domain»</text><text fill="#000000" font-family="FG Virgil" font-size="14" lengthAdjust="spacing" textLength="56" x="1119.5" y="688.9316">item:Item</text><polygon fill="#F8F8F8" points="1195.5,36,1195.5,36.2102,1205,35.5857,1214.5,36.1933,1224,36.3997,1233.5,35.2866,1243,35.9223,1252.5,35.5735,1262,35.6165,1271.5,36,1271.4318,36,1270.8086,45.8438,1272.0536,55.6875,1270.8697,65.5313,1271.3022,75.375,1271.5,85.2188,1271.5,85.6507,1262,85.133,1252.5,85.287,1243,85.1868,1233.5,85.3973,1224,85.4579,1214.5,85.8044,1205,85.8898,1195.5,85.2188,1196.1793,85.2188,1195.7546,75.375,1195.9636,65.5313,1196.2022,55.6875,1194.7788,45.8438,1195.5,36" style="stroke:#383838;stroke-width:1.5;"/><text fill="#000000" font-family="FG Virgil" font-size="14" font-style="italic" lengthAdjust="spacing" textLength="62" x="1202.5" y="57.5332">«domain»</text><text fill="#000000" font-family="FG Virgil" font-size="14" lengthAdjust="spacing" textLength="57" x="1205" y="75.1426">fruit:Fruit</text><polygon fill="#F8F8F8" points="1195.5,649.7891,1195.5,649.9992,1205,649.3747,1214.5,649.9823,1224,650.1887,1233.5,649.0757,1243,649.7113,1252.5,649.3626,1262,649.4056,1271.5,649.7891,1271.4318,649.7891,1270.8086,659.6328,1272.0536,669.4766,1270.8697,679.3203,1271.3022,689.1641,1271.5,699.0078,1271.5,699.4398,1262,698.922,1252.5,699.0761,1243,698.9759,1233.5,699.1863,1224,699.2469,1214.5,699.5935,1205,699.6789,1195.5,699.0078,1196.1793,699.0078,1195.7546,689.1641,1195.9636,679.3203,1196.2022,669.4766,1194.7788,659.6328,1195.5,649.7891" style="stroke:#383838;stroke-width:1.5;"/><text fill="#000000" font-family="FG Virgil" font-size="14" font-style="italic" lengthAdjust="spacing" textLength="62" x="1202.5" y="671.3223">«domain»</text><text fill="#000000" font-family="FG Virgil" font-size="14" lengthAdjust="spacing" textLength="57" x="1205" y="688.9316">fruit:Fruit</text><text fill="#000000" font-family="FG Virgil" font-size="14" font-style="italic" lengthAdjust="spacing" textLength="79" x="1289" y="65.5332">«repository»</text><text fill="#000000" font-family="FG Virgil" font-size="14" lengthAdjust="spacing" textLength="94" x="1281.5" y="83.1426">ItemRepository</text><path d="M1313.5,15 L1313.5,15 L1313.5651,15.067 L1315.1716,13.118 L1317.1599,11.5616 L1319.0238,9.8774 L1320.479,7.7727 L1322.5,6.25 L1322.4952,6.2158 L1324.2739,5.8122 L1326.0766,5.5812 L1327.8958,5.47 L1329.6577,4.9456 L1331.5,5 L1331.5,5 L1331.5339,5.2437 L1333.2615,4.9725 L1335.0879,5.4129 L1336.9264,5.9402 L1338.6948,5.9622 L1340.5,6.25 L1340.5211,6.2717 L1342.2901,7.9898 L1344.1553,9.8069 L1345.9741,11.5762 L1347.8815,13.4366 L1349.5,15 L1350.0965,15 L1350.1038,20.2 L1349.7263,25.4 L1349.9121,30.6 L1350.1242,35.8 L1349.5,41 L1349.5,41 L1349.2766,40.7702 L1347.9102,42.9662 L1345.8081,44.4055 L1344.2654,46.4201 L1342.1466,47.8423 L1340.5,49.75 L1340.4958,49.7198 L1338.7453,50.3265 L1336.897,50.2285 L1335.1064,50.5464 L1333.3207,50.8991 L1331.5,51 L1331.5,51 L1331.5254,51.1832 L1329.6998,50.7483 L1327.9176,50.6264 L1326.065,49.998 L1324.3174,50.1252 L1322.5,49.75 L1322.6698,49.9247 L1320.8377,48.1417 L1319.0899,46.4453 L1316.9503,44.3461 L1315.0979,42.5422 L1313.5,41 L1312.9476,41 L1313.4477,35.8 L1313.3253,30.6 L1314.1057,25.4 L1313.3447,20.2 L1313.5,15 " fill="#F8F8F8" style="stroke:#000000;stroke-width:1.5;"/><path d="M1313.5,15 L1313.5,15 L1313.5651,15.067 L1315.1716,16.618 L1317.1599,18.5616 L1319.0238,20.3774 L1320.479,21.7727 L1322.5,23.75 L1322.4952,23.7158 L1324.2739,23.8122 L1326.0766,24.0812 L1327.8958,24.47 L1329.6577,24.4456 L1331.5,25 L1331.5,25 L1331.5339,25.2437 L1333.2615,24.4725 L1335.0879,24.4129 L1336.9264,24.4402 L1338.6948,23.9622 L1340.5,23.75 L1340.5211,23.7717 L1342.2901,21.9898 L1344.1553,20.3069 L1345.9741,18.5762 L1347.8815,16.9366 L1349.5,15 " fill="none" style="stroke:#000000;stroke-width:1.5;"/><text fill="#000000" font-family="FG Virgil" font-size="14" font-style="italic" lengthAdjust="spacing" textLength="79" x="1289" y="664.3223">«repository»</text><text fill="#000000" font-family="FG Virgil" font-size="14" lengthAdjust="spacing" textLength="94" x="1281.5" y="681.9316">ItemRepository</text><path d="M1313.5,695.0078 L1313.5,695.0078 L1313.5651,695.0748 L1315.1716,693.1258 L1317.1599,691.5694 L1319.0238,689.8852 L1320.479,687.7805 L1322.5,686.2578 L1322.4952,686.2236 L1324.2739,685.8201 L1326.0766,685.589 L1327.8958,685.4778 L1329.6577,684.9535 L1331.5,685.0078 L1331.5,685.0078 L1331.5339,685.2515 L1333.2615,684.9804 L1335.0879,685.4208 L1336.9264,685.948 L1338.6948,685.9701 L1340.5,686.2578 L1340.5211,686.2796 L1342.2901,687.9976 L1344.1553,689.8147 L1345.9741,691.584 L1347.8815,693.4445 L1349.5,695.0078 L1350.0965,695.0078 L1350.1038,700.2078 L1349.7263,705.4078 L1349.9121,710.6078 L1350.1242,715.8078 L1349.5,721.0078 L1349.5,721.0078 L1349.2766,720.778 L1347.9102,722.974 L1345.8081,724.4133 L1344.2654,726.4279 L1342.1466,727.8501 L1340.5,729.7578 L1340.4958,729.7277 L1338.7453,730.3343 L1336.897,730.2364 L1335.1064,730.5542 L1333.3207,730.9069 L1331.5,731.0078 L1331.5,731.0078 L1331.5254,731.191 L1329.6998,730.7561 L1327.9176,730.6342 L1326.065,730.0058 L1324.3174,730.133 L1322.5,729.7578 L1322.6698,729.9325 L1320.8377,728.1495 L1319.0899,726.4532 L1316.9503,724.3539 L1315.0979,722.55 L1313.5,721.0078 L1312.9476,721.0078 L1313.4477,715.8078 L1313.3253,710.6078 L1314.1057,705.4078 L1313.3447,700.2078 L1313.5,695.0078 " fill="#F8F8F8" style="stroke:#000000;stroke-width:1.5;"/><path d="M1313.5,695.0078 L1313.5,695.0078 L1313.5651,695.0748 L1315.1716,696.6258 L1317.1599,698.5694 L1319.0238,700.3852 L1320.479,701.7805 L1322.5,703.7578 L1322.4952,703.7236 L1324.2739,703.8201 L1326.0766,704.089 L1327.8958,704.4778 L1329.6577,704.4535 L1331.5,705.0078 L1331.5,705.0078 L1331.5339,705.2515 L1333.2615,704.4804 L1335.0879,704.4208 L1336.9264,704.448 L1338.6948,703.9701 L1340.5,703.7578 L1340.5211,703.7796 L1342.2901,701.9976 L1344.1553,700.3147 L1345.9741,698.584 L1347.8815,696.9445 L1349.5,695.0078 " fill="none" style="stroke:#000000;stroke-width:1.5;"/><polygon fill="#FFFFFF" points="17.5,118.5703,17.5,118.6404,19.5,118.4322,21.5,118.6347,23.5,118.7035,25.5,118.3325,27.5,118.5703,27.4223,118.5703,27.0735,128.653,27.1165,138.7358,27.4318,148.8185,26.8086,158.9012,28.0536,168.9839,26.8697,179.0666,27.3022,189.1494,27.9319,199.2321,27.4142,209.3148,27.5682,219.3975,27.4681,229.4802,27.6785,239.563,27.7391,249.6457,28.0857,259.7284,28.1711,269.8111,28.1793,279.8938,27.7546,289.9766,27.9636,300.0593,28.2022,310.142,26.7788,320.2247,28.1785,330.3074,27.2035,340.3902,28.0338,350.4729,27.005,360.5556,27.4315,370.6383,28.2416,380.721,27.4513,390.8038,27.6053,400.8865,27.8386,410.9692,27.9162,421.0519,27.4961,431.1347,27.7872,441.2174,26.9276,451.3001,27.7844,461.3828,28.0482,471.4655,27.9445,481.5483,28.113,491.631,27.0169,501.7137,26.8478,511.7964,26.8786,521.8791,27.4411,531.9619,27.3035,542.0446,28.1814,552.1273,27.3253,562.21,27.1569,572.2927,27.7283,582.3755,26.8332,592.4582,26.9809,602.5409,28.149,612.6236,27.9357,622.7063,27.5,632.7891,27.5,633.0339,25.5,632.6818,23.5,632.8955,21.5,632.9859,19.5,632.6316,17.5,632.7891,17.4041,632.7891,17.626,622.7063,18.1518,612.6236,17.4958,602.5409,17.9626,592.4582,16.9462,582.3755,16.8227,572.2927,18.0036,562.21,16.7831,552.1273,18.009,542.0446,17.7066,531.9619,17.2321,521.8791,17.1462,511.7964,17.9588,501.7137,17.2007,491.631,18.0919,481.5483,16.9473,471.4655,18.1174,461.3828,17.9843,451.3001,17.745,441.2174,17.5472,431.1347,18.2266,421.0519,18.1136,410.9692,17.6693,400.8865,17.7682,390.8038,17.3697,380.721,18.2165,370.6383,17.6549,360.5556,17.6726,350.4729,16.8916,340.3902,17.0948,330.3074,18.0307,320.2247,17.9298,310.142,17.4571,300.0593,17.1778,289.9766,17.2811,279.8938,16.8138,269.8111,17.9147,259.7284,18.2396,249.6457,18.0264,239.563,18.1949,229.4802,17.3633,219.3975,17.5872,209.3148,17.1124,199.2321,17.784,189.1494,17.7468,179.0666,18.0524,168.9839,17.2703,158.9012,17.3656,148.8185,17.9435,138.7358,18.0673,128.653,17.5,118.5703" style="stroke:#383838;stroke-width:1.0;"/><polygon fill="#FFFFFF" points="341.5,118.5703,341.5,118.6404,343.5,118.4322,345.5,118.6347,347.5,118.7035,349.5,118.3325,351.5,118.5703,351.4223,118.5703,351.0735,128.653,351.1165,138.7358,351.4318,148.8185,350.8086,158.9012,352.0536,168.9839,350.8697,179.0666,351.3022,189.1494,351.9319,199.2321,351.4142,209.3148,351.5682,219.3975,351.4681,229.4802,351.6785,239.563,351.7391,249.6457,352.0857,259.7284,352.1711,269.8111,352.1793,279.8938,351.7546,289.9766,351.9636,300.0593,352.2022,310.142,350.7788,320.2247,352.1785,330.3074,351.2035,340.3902,352.0338,350.4729,351.005,360.5556,351.4315,370.6383,352.2416,380.721,351.4513,390.8038,351.6053,400.8865,351.8386,410.9692,351.9162,421.0519,351.4961,431.1347,351.7872,441.2174,350.9276,451.3001,351.7844,461.3828,352.0482,471.4655,351.9445,481.5483,352.113,491.631,351.0169,501.7137,350.8478,511.7964,350.8786,521.8791,351.4411,531.9619,351.3035,542.0446,352.1814,552.1273,351.3253,562.21,351.1569,572.2927,351.7283,582.3755,350.8332,592.4582,350.9809,602.5409,352.149,612.6236,351.9357,622.7063,351.5,632.7891,351.5,633.0339,349.5,632.6818,347.5,632.8955,345.5,632.9859,343.5,632.6316,341.5,632.7891,341.4041,632.7891,341.626,622.7063,342.1518,612.6236,341.4958,602.5409,341.9626,592.4582,340.9462,582.3755,340.8227,572.2927,342.0036,562.21,340.7831,552.1273,342.009,542.0446,341.7066,531.9619,341.2321,521.8791,341.1462,511.7964,341.9588,501.7137,341.2007,491.631,342.0919,481.5483,340.9473,471.4655,342.1174,461.3828,341.9843,451.3001,341.745,441.2174,341.5472,431.1347,342.2266,421.0519,342.1136,410.9692,341.6693,400.8865,341.7682,390.8038,341.3697,380.721,342.2165,370.6383,341.6549,360.5556,341.6726,350.4729,340.8916,340.3902,341.0948,330.3074,342.0307,320.2247,341.9298,310.142,341.4571,300.0593,341.1778,289.9766,341.2811,279.8938,340.8138,269.8111,341.9147,259.7284,342.2396,249.6457,342.0264,239.563,342.1949,229.4802,341.3633,219.3975,341.5872,209.3148,341.1124,199.2321,341.784,189.1494,341.7468,179.0666,342.0524,168.9839,341.2703,158.9012,341.3656,148.8185,341.9435,138.7358,342.0673,128.653,341.5,118.5703" style="stroke:#383838;stroke-width:1.0;"/><polygon fill="#FFFFFF" points="610.5,148.9219,610.5,148.9919,612.5,148.7838,614.5,148.9863,616.5,149.0551,618.5,148.6841,620.5,148.9219,620.4223,148.9219,620.0735,159,620.1165,169.0781,620.4318,179.1563,619.8086,189.2344,621.0536,199.3125,619.8697,209.3906,620.3022,219.4688,620.9319,229.5469,620.5,239.625,620.5,239.5964,618.5,239.6477,616.5,239.6144,614.5,239.6845,612.5,239.7047,610.5,239.625,611.0857,239.625,611.1711,229.5469,611.1793,219.4688,610.7546,209.3906,610.9636,199.3125,611.2022,189.2344,609.7788,179.1563,611.1785,169.0781,610.2035,159,610.5,148.9219" style="stroke:#383838;stroke-width:1.0;"/><polygon fill="#FFFFFF" points="610.5,330.6797,610.5,330.7497,612.5,330.5416,614.5,330.7441,616.5,330.8129,618.5,330.4419,620.5,330.6797,620.4223,330.6797,620.0735,340.7448,620.1165,350.8099,620.4318,360.875,619.8086,370.9401,621.0536,381.0052,619.8697,391.0703,620.3022,401.1354,620.9319,411.2005,620.4142,421.2656,620.5682,431.3307,620.4681,441.3958,620.6785,451.4609,620.7391,461.526,621.0857,471.5911,621.1711,481.6563,621.1793,491.7214,620.7546,501.7865,620.9636,511.8516,621.2022,521.9167,619.7788,531.9818,621.1785,542.0469,620.2035,552.112,621.0338,562.1771,620.005,572.2422,620.4315,582.3073,621.2416,592.3724,620.5,602.4375,620.5,602.4213,618.5,602.4726,616.5,602.5504,614.5,602.5762,612.5,602.4362,610.5,602.4375,610.7872,602.4375,609.9276,592.3724,610.7844,582.3073,611.0482,572.2422,610.9445,562.1771,611.113,552.112,610.0169,542.0469,609.8478,531.9818,609.8786,521.9167,610.4411,511.8516,610.3035,501.7865,611.1814,491.7214,610.3253,481.6563,610.1569,471.5911,610.7283,461.526,609.8332,451.4609,609.9809,441.3958,611.149,431.3307,610.9357,421.2656,611.2345,411.2005,610.1782,401.1354,610.8192,391.0703,611.0904,381.0052,610.0276,370.9401,610.4041,360.875,610.626,350.8099,611.1518,340.7448,610.5,330.6797" style="stroke:#383838;stroke-width:1.0;"/><polygon fill="#FFFFFF" points="784.5,179.2734,784.5,179.3435,786.5,179.1353,788.5,179.3379,790.5,179.4067,792.5,179.0356,794.5,179.2734,794.4223,179.2734,794.0735,189.332,794.1165,199.3906,794.4318,209.4492,793.8086,219.5078,795.0536,229.5664,794.5,239.625,794.5,239.4149,792.5,239.5591,790.5,239.769,788.5,239.5964,786.5,239.6477,784.5,239.625,784.4681,239.625,784.6785,229.5664,784.7391,219.5078,785.0857,209.4492,785.1711,199.3906,785.1793,189.332,784.5,179.2734" style="stroke:#383838;stroke-width:1.0;"/><polygon fill="#FFFFFF" points="883,361.0313,883,361.1013,885,360.8931,887,361.0957,889,361.1645,891,360.7935,893,361.0313,892.9223,361.0313,892.5735,371.0898,892.6165,381.1484,892.9318,391.207,892.3086,401.2656,893.5536,411.3242,892.3697,421.3828,892.8022,431.4414,893.4319,441.5,892.9142,451.5586,893.0682,461.6172,892.9681,471.6758,893.1785,481.7344,893.2391,491.793,893.5857,501.8516,893.6711,511.9102,893.6793,521.9688,893.2546,532.0273,893.4636,542.0859,893.7022,552.1445,892.2788,562.2031,893.6785,572.2617,892.7035,582.3203,893.5338,592.3789,893,602.4375,893,602.2725,891,602.4147,889,602.6847,887,602.4213,885,602.4726,883,602.4375,883.3386,602.4375,883.4162,592.3789,882.9961,582.3203,883.2872,572.2617,882.4276,562.2031,883.2844,552.1445,883.5482,542.0859,883.4445,532.0273,883.613,521.9688,882.5169,511.9102,882.3478,501.8516,882.3786,491.793,882.9411,481.7344,882.8035,471.6758,883.6814,461.6172,882.8253,451.5586,882.6569,441.5,883.2283,431.4414,882.3332,421.3828,882.4809,411.3242,883.649,401.2656,883.4357,391.207,883.7345,381.1484,882.6782,371.0898,883,361.0313" style="stroke:#383838;stroke-width:1.0;"/><polygon fill="#FFFFFF" points="1043,209.625,1043,209.6951,1045,209.4869,1047,209.6894,1049,209.7582,1051,209.3872,1053,209.625,1052.9741,209.625,1052.8578,215.625,1052.8722,221.625,1052.9773,227.625,1052.7695,233.625,1053,239.625,1053,239.8095,1051,239.4149,1049,239.5591,1047,239.769,1045,239.5964,1043,239.625,1043.0227,239.625,1042.9894,233.625,1043.0595,227.625,1043.0797,221.625,1043.1952,215.625,1043,209.625" style="stroke:#383838;stroke-width:1.0;"/><polygon fill="#FFFFFF" points="1043,391.3828,1043,391.4529,1045,391.2447,1047,391.4472,1049,391.516,1051,391.145,1053,391.3828,1052.9741,391.3828,1052.8578,397.3828,1052.8722,403.3828,1052.9773,409.3828,1052.7695,415.3828,1053,421.3828,1053,421.5674,1051,421.1727,1049,421.3169,1047,421.5268,1045,421.3542,1043,421.3828,1043.0227,421.3828,1042.9894,415.3828,1043.0595,409.3828,1043.0797,403.3828,1043.1952,397.3828,1043,391.3828" style="stroke:#383838;stroke-width:1.0;"/><polygon fill="#FFFFFF" points="1142.5,512.0859,1142.5,512.156,1144.5,511.9478,1146.5,512.1504,1148.5,512.2192,1150.5,511.8481,1152.5,512.0859,1152.4741,512.0859,1152.3578,518.0859,1152.3722,524.0859,1152.4773,530.0859,1152.2695,536.0859,1152.5,542.0859,1152.5,542.2705,1150.5,541.8758,1148.5,542.02,1146.5,542.2299,1144.5,542.0573,1142.5,542.0859,1142.5227,542.0859,1142.4894,536.0859,1142.5595,530.0859,1142.5797,524.0859,1142.6952,518.0859,1142.5,512.0859" style="stroke:#383838;stroke-width:1.0;"/><polygon fill="#FFFFFF" points="1326.5,451.7344,1326.5,451.8044,1328.5,451.5963,1330.5,451.7988,1332.5,451.8676,1334.5,451.4966,1336.5,451.7344,1336.4741,451.7344,1336.3578,457.7344,1336.3722,463.7344,1336.4773,469.7344,1336.2695,475.7344,1336.5,481.7344,1336.5,481.9189,1334.5,481.5243,1332.5,481.6685,1330.5,481.8784,1328.5,481.7058,1326.5,481.7344,1326.5227,481.7344,1326.4894,475.7344,1326.5595,469.7344,1326.5797,463.7344,1326.6952,457.7344,1326.5,451.7344" style="stroke:#383838;stroke-width:1.0;"/><polygon fill="#FFFFFF" points="1326.5,572.4375,1326.5,572.5076,1328.5,572.2994,1330.5,572.5019,1332.5,572.5707,1334.5,572.1997,1336.5,572.4375,1336.4741,572.4375,1336.3578,578.4375,1336.3722,584.4375,1336.4773,590.4375,1336.2695,596.4375,1336.5,602.4375,1336.5,602.622,1334.5,602.2274,1332.5,602.3716,1330.5,602.5815,1328.5,602.4089,1326.5,602.4375,1326.5227,602.4375,1326.4894,596.4375,1326.5595,590.4375,1326.5797,584.4375,1326.6952,578.4375,1326.5,572.4375" style="stroke:#383838;stroke-width:1.0;"/><polygon fill="#383838" points="329.5,114.5703,329.526,114.6354,331.4487,115.2421,333.5239,116.2301,335.5495,117.094,337.4117,117.5495,339.5,118.5703,339.4904,118.5463,337.4472,119.2383,335.4525,120.0516,333.4916,120.9492,331.4144,121.5563,329.5,122.5703,329.6305,122.7008,330.1514,121.6218,331.0534,120.9237,332.0018,120.2721,332.6798,119.3501,333.5,118.5703,333.5161,118.5864,332.6925,117.7628,331.9421,117.0124,331.1564,116.2267,330.438,115.5084,329.5,114.5703" style="stroke:#383838;stroke-width:1.0;"/><path d="M27.5,118.5703 L27.5,118.8506 L37.4355,118.0179 L47.371,118.828 L57.3065,119.1032 L67.2419,117.6191 L77.1774,118.4667 L87.1129,118.0017 L97.0484,118.059 L106.9839,118.4794 L116.9194,117.6485 L126.8548,119.3085 L136.7903,117.7299 L146.7258,118.3066 L156.6613,119.1462 L166.5968,118.4559 L176.5323,118.6613 L186.4677,118.5277 L196.4032,118.8083 L206.3387,118.8892 L216.2742,119.3512 L226.2097,119.4651 L236.1452,119.476 L246.0806,118.9098 L256.0161,119.1884 L265.9516,119.5066 L275.8871,117.6087 L285.8226,119.475 L295.7581,118.175 L305.6935,119.2821 L315.629,117.9103 L325.5645,118.479 L335.5,118.5703 " fill="none" style="stroke:#383838;stroke-width:1.0;stroke-dasharray:2.0,2.0;"/><text fill="#000000" font-family="FG Virgil" font-size="13" lengthAdjust="spacing" textLength="91" x="34.5" y="113.7139">Add fruit to Cart</text><polygon fill="#383838" points="598.5,144.9219,598.526,144.9869,600.4487,145.5936,602.5239,146.5817,604.5495,147.4456,606.4117,147.9011,608.5,148.9219,608.4904,148.8978,606.4472,149.5899,604.4525,150.4032,602.4916,151.3008,600.4144,151.9079,598.5,152.9219,598.6305,153.0524,599.1514,151.9733,600.0534,151.2753,601.0018,150.6237,601.6798,149.7017,602.5,148.9219,602.5161,148.938,601.6925,148.1143,600.9421,147.364,600.1564,146.5782,599.438,145.8599,598.5,144.9219" style="stroke:#383838;stroke-width:1.0;"/><path d="M351.5,148.9219 L351.5,149.2021 L361.62,148.3694 L371.74,149.1796 L381.86,149.4548 L391.98,147.9707 L402.1,148.8183 L412.22,148.3532 L422.34,148.4105 L432.46,148.831 L442.58,148 L452.7,149.6601 L462.82,148.0815 L472.94,148.6582 L483.06,149.4978 L493.18,148.8075 L503.3,149.0129 L513.42,148.8793 L523.54,149.1599 L533.66,149.2407 L543.78,149.7028 L553.9,149.8166 L564.02,149.8276 L574.14,149.2614 L584.26,149.54 L594.38,149.8582 L604.5,148.9219 " fill="none" style="stroke:#383838;stroke-width:1.0;"/><text fill="#000000" font-family="FG Virgil" font-size="13" lengthAdjust="spacing" textLength="182" x="358.5" y="144.0654">getFruit(String id, Model model)</text><polygon fill="#383838" points="772.5,175.2734,772.526,175.3385,774.4487,175.9452,776.5239,176.9333,778.5495,177.7971,780.4117,178.2526,782.5,179.2734,782.4904,179.2494,780.4472,179.9414,778.4525,180.7547,776.4916,181.6523,774.4144,182.2595,772.5,183.2734,772.6305,183.4039,773.1514,182.3249,774.0534,181.6268,775.0018,180.9752,775.6798,180.0532,776.5,179.2734,776.5161,179.2895,775.6925,178.4659,774.9421,177.7155,774.1564,176.9298,773.438,176.2115,772.5,175.2734" style="stroke:#383838;stroke-width:1.0;"/><path d="M620.5,179.2734 L620.5,179.5537 L630.375,178.721 L640.25,179.5312 L650.125,179.8063 L660,178.3222 L669.875,179.1698 L679.75,178.7048 L689.625,178.7621 L699.5,179.1826 L709.375,178.3516 L719.25,180.0116 L729.125,178.4331 L739,179.0097 L748.875,179.8494 L758.75,179.1591 L768.625,179.3644 L778.5,179.2734 " fill="none" style="stroke:#383838;stroke-width:1.0;"/><text fill="#000000" font-family="FG Virgil" font-size="13" lengthAdjust="spacing" textLength="145" x="627.5" y="174.417">getASingleFruit(String id)</text><polygon fill="#383838" points="1031,205.625,1031.026,205.69,1032.9487,206.2968,1035.0239,207.2848,1037.0495,208.1487,1038.9117,208.6042,1041,209.625,1040.9904,209.6009,1038.9472,210.293,1036.9525,211.1063,1034.9916,212.0039,1032.9144,212.611,1031,213.625,1031.1305,213.7555,1031.6514,212.6764,1032.5534,211.9784,1033.5018,211.3268,1034.1798,210.4048,1035,209.625,1035.0161,209.6411,1034.1925,208.8175,1033.4421,208.0671,1032.6564,207.2814,1031.938,206.563,1031,205.625" style="stroke:#383838;stroke-width:1.0;"/><path d="M794.5,209.625 L794.5,209.9052 L804.6042,209.0726 L814.7083,209.8827 L824.8125,210.1579 L834.9167,208.6738 L845.0208,209.5214 L855.125,209.0563 L865.2292,209.1137 L875.3333,209.5341 L885.4375,208.7032 L895.5417,210.3632 L905.6458,208.7846 L915.75,209.3613 L925.8542,210.2009 L935.9583,209.5106 L946.0625,209.716 L956.1667,209.5824 L966.2708,209.863 L976.375,209.9438 L986.4792,210.4059 L996.5833,210.5197 L1006.6875,210.5307 L1016.7917,209.9645 L1026.8958,210.2431 L1037,209.625 " fill="none" style="stroke:#383838;stroke-width:1.0;"/><text fill="#000000" font-family="FG Virgil" font-size="13" lengthAdjust="spacing" textLength="102" x="801.5" y="204.7686">findById(String id)</text><polygon fill="#383838" points="38.5,265.9766,38.526,266.0416,36.4487,266.6483,34.5239,267.6364,32.5495,268.5003,30.4117,268.9558,28.5,269.9766,28.4904,269.9525,30.4472,270.6446,32.4525,271.4579,34.4916,272.3555,36.4144,272.9626,38.5,273.9766,38.6305,274.1071,37.5514,273.028,36.8534,272.3299,36.2018,271.6784,35.2798,270.7563,34.5,269.9766,34.5161,269.9926,35.2925,269.169,36.1421,268.4186,36.9564,267.6329,37.838,266.9146,38.5,265.9766" style="stroke:#383838;stroke-width:1.0;"/><path d="M32.5,269.9766 L32.5,270.2568 L42.4355,269.4241 L52.371,270.2343 L62.3065,270.5095 L72.2419,269.0254 L82.1774,269.8729 L92.1129,269.4079 L102.0484,269.4652 L111.9839,269.8857 L121.9194,269.0547 L131.8548,270.7148 L141.7903,269.1362 L151.7258,269.7129 L161.6613,270.5525 L171.5968,269.8622 L181.5323,270.0675 L191.4677,269.934 L201.4032,270.2146 L211.3387,270.2954 L221.2742,270.7575 L231.2097,270.8713 L241.1452,270.8822 L251.0806,270.3161 L261.0161,270.5947 L270.9516,270.9129 L280.8871,269.015 L290.8226,270.8812 L300.7581,269.5812 L310.6935,270.6883 L320.629,269.3165 L330.5645,269.8852 L340.5,269.9766 " fill="none" style="stroke:#383838;stroke-width:1.0;stroke-dasharray:2.0,2.0;"/><text fill="#000000" font-family="FG Virgil" font-size="13" lengthAdjust="spacing" textLength="113" x="44.5" y="265.1201">Shows detailed fruit</text><polygon fill="#383838" points="329.5,296.3281,329.526,296.3932,331.4487,296.9999,333.5239,297.9879,335.5495,298.8518,337.4117,299.3073,339.5,300.3281,339.4904,300.3041,337.4472,300.9961,335.4525,301.8094,333.4916,302.707,331.4144,303.3142,329.5,304.3281,329.6305,304.4586,330.1514,303.3796,331.0534,302.6815,332.0018,302.0299,332.6798,301.1079,333.5,300.3281,333.5161,300.3442,332.6925,299.5206,331.9421,298.7702,331.1564,297.9845,330.438,297.2662,329.5,296.3281" style="stroke:#383838;stroke-width:1.0;"/><path d="M27.5,300.3281 L27.5,300.6084 L37.4355,299.7757 L47.371,300.5858 L57.3065,300.861 L67.2419,299.3769 L77.1774,300.2245 L87.1129,299.7595 L97.0484,299.8168 L106.9839,300.2372 L116.9194,299.4063 L126.8548,301.0663 L136.7903,299.4878 L146.7258,300.0644 L156.6613,300.9041 L166.5968,300.2138 L176.5323,300.4191 L186.4677,300.2855 L196.4032,300.5662 L206.3387,300.647 L216.2742,301.109 L226.2097,301.2229 L236.1452,301.2338 L246.0806,300.6676 L256.0161,300.9462 L265.9516,301.2644 L275.8871,299.3665 L285.8226,301.2328 L295.7581,299.9328 L305.6935,301.0399 L315.629,299.6681 L325.5645,300.2368 L335.5,300.3281 " fill="none" style="stroke:#383838;stroke-width:1.0;stroke-dasharray:2.0,2.0;"/><text fill="#000000" font-family="FG Virgil" font-size="13" lengthAdjust="spacing" textLength="290" x="34.5" y="295.4717">Choses quantity and presses button to add to cart</text><polygon fill="#383838" points="598.5,326.6797,598.526,326.7447,600.4487,327.3515,602.5239,328.3395,604.5495,329.2034,606.4117,329.6589,608.5,330.6797,608.4904,330.6556,606.4472,331.3477,604.4525,332.161,602.4916,333.0586,600.4144,333.6657,598.5,334.6797,598.6305,334.8102,599.1514,333.7311,600.0534,333.0331,601.0018,332.3815,601.6798,331.4595,602.5,330.6797,602.5161,330.6958,601.6925,329.8722,600.9421,329.1218,600.1564,328.3361,599.438,327.6177,598.5,326.6797" style="stroke:#383838;stroke-width:1.0;"/><path d="M351.5,330.6797 L351.5,330.9599 L361.62,330.1273 L371.74,330.9374 L381.86,331.2126 L391.98,329.7285 L402.1,330.5761 L412.22,330.111 L422.34,330.1684 L432.46,330.5888 L442.58,329.7579 L452.7,331.4179 L462.82,329.8393 L472.94,330.416 L483.06,331.2556 L493.18,330.5653 L503.3,330.7707 L513.42,330.6371 L523.54,330.9177 L533.66,330.9985 L543.78,331.4606 L553.9,331.5744 L564.02,331.5854 L574.14,331.0192 L584.26,331.2978 L594.38,331.616 L604.5,330.6797 " fill="none" style="stroke:#383838;stroke-width:1.0;"/><text fill="#000000" font-family="FG Virgil" font-size="13" lengthAdjust="spacing" textLength="240" x="358.5" y="325.8232">addFruitsToCart(String id, String quantity)</text><polygon fill="#383838" points="871,357.0313,871.026,357.0963,872.9487,357.703,875.0239,358.6911,877.0495,359.5549,878.9117,360.0105,881,361.0313,880.9904,361.0072,878.9472,361.6993,876.9525,362.5126,874.9916,363.4102,872.9144,364.0173,871,365.0313,871.1305,365.1617,871.6514,364.0827,872.5534,363.3846,873.5018,362.7331,874.1798,361.811,875,361.0313,875.0161,361.0473,874.1925,360.2237,873.4421,359.4733,872.6564,358.6876,871.938,357.9693,871,357.0313" style="stroke:#383838;stroke-width:1.0;"/><path d="M620.5,361.0313 L620.5,361.3115 L630.3654,360.4788 L640.2308,361.289 L650.0962,361.5642 L659.9615,360.0801 L669.8269,360.9276 L679.6923,360.4626 L689.5577,360.5199 L699.4231,360.9404 L709.2885,360.1094 L719.1538,361.7694 L729.0192,360.1909 L738.8846,360.7676 L748.75,361.6072 L758.6154,360.9169 L768.4808,361.1222 L778.3462,360.9887 L788.2115,361.2693 L798.0769,361.3501 L807.9423,361.8122 L817.8077,361.926 L827.6731,361.9369 L837.5385,361.3708 L847.4038,361.6494 L857.2692,361.9676 L867.1346,360.0697 L877,361.0313 " fill="none" style="stroke:#383838;stroke-width:1.0;"/><text fill="#000000" font-family="FG Virgil" font-size="13" lengthAdjust="spacing" textLength="187" x="627.5" y="356.1748">addToCart(String id, int quantity)</text><polygon fill="#383838" points="1031,387.3828,1031.026,387.4479,1032.9487,388.0546,1035.0239,389.0426,1037.0495,389.9065,1038.9117,390.362,1041,391.3828,1040.9904,391.3588,1038.9472,392.0508,1036.9525,392.8641,1034.9916,393.7617,1032.9144,394.3688,1031,395.3828,1031.1305,395.5133,1031.6514,394.4343,1032.5534,393.7362,1033.5018,393.0846,1034.1798,392.1626,1035,391.3828,1035.0161,391.3989,1034.1925,390.5753,1033.4421,389.8249,1032.6564,389.0392,1031.938,388.3209,1031,387.3828" style="stroke:#383838;stroke-width:1.0;"/><path d="M893,391.3828 L893,391.6631 L903.2857,390.8304 L913.5714,391.6405 L923.8571,391.9157 L934.1429,390.4316 L944.4286,391.2792 L954.7143,390.8142 L965,390.8715 L975.2857,391.2919 L985.5714,390.461 L995.8571,392.121 L1006.1429,390.5424 L1016.4286,391.1191 L1026.7143,391.9587 L1037,391.3828 " fill="none" style="stroke:#383838;stroke-width:1.0;"/><text fill="#000000" font-family="FG Virgil" font-size="13" lengthAdjust="spacing" textLength="131" x="900" y="386.5264">fruit=findById(String id)</text><polygon fill="#383838" points="1314.5,447.7344,1314.526,447.7994,1316.4487,448.4061,1318.5239,449.3942,1320.5495,450.2581,1322.4117,450.7136,1324.5,451.7344,1324.4904,451.7103,1322.4472,452.4024,1320.4525,453.2157,1318.4916,454.1133,1316.4144,454.7204,1314.5,455.7344,1314.6305,455.8649,1315.1514,454.7858,1316.0534,454.0878,1317.0018,453.4362,1317.6798,452.5142,1318.5,451.7344,1318.5161,451.7505,1317.6925,450.9268,1316.9421,450.1765,1316.1564,449.3907,1315.438,448.6724,1314.5,447.7344" style="stroke:#383838;stroke-width:1.0;"/><path d="M893,451.7344 L893,452.0146 L902.9419,451.1819 L912.8837,451.9921 L922.8256,452.2673 L932.7674,450.7832 L942.7093,451.6308 L952.6512,451.1657 L962.593,451.223 L972.5349,451.6435 L982.4767,450.8125 L992.4186,452.4726 L1002.3605,450.894 L1012.3023,451.4707 L1022.2442,452.3103 L1032.186,451.62 L1042.1279,451.8254 L1052.0698,451.6918 L1062.0116,451.9724 L1071.9535,452.0532 L1081.8953,452.5153 L1091.8372,452.6291 L1101.7791,452.6401 L1111.7209,452.0739 L1121.6628,452.3525 L1131.6047,452.6707 L1141.5465,450.7728 L1151.4884,452.6391 L1161.4302,451.339 L1171.3721,452.4461 L1181.314,451.0743 L1191.2558,451.643 L1201.1977,452.7232 L1211.1395,451.6694 L1221.0814,451.8748 L1231.0233,452.1859 L1240.9651,452.2894 L1250.907,451.7292 L1260.8488,452.1173 L1270.7907,450.9712 L1280.7326,452.1136 L1290.6744,452.4653 L1300.6163,452.3271 L1310.5581,452.5517 L1320.5,451.7344 " fill="none" style="stroke:#383838;stroke-width:1.0;"/><text fill="#000000" font-family="FG Virgil" font-size="13" lengthAdjust="spacing" textLength="285" x="900" y="446.8779">item=findUserFruitAndCart(String username, fruit)</text><polygon fill="#383838" points="1130.5,508.0859,1130.526,508.151,1132.4487,508.7577,1134.5239,509.7458,1136.5495,510.6096,1138.4117,511.0651,1140.5,512.0859,1140.4904,512.0619,1138.4472,512.7539,1136.4525,513.5672,1134.4916,514.4648,1132.4144,515.072,1130.5,516.0859,1130.6305,516.2164,1131.1514,515.1374,1132.0534,514.4393,1133.0018,513.7877,1133.6798,512.8657,1134.5,512.0859,1134.5161,512.102,1133.6925,511.2784,1132.9421,510.528,1132.1564,509.7423,1131.438,509.024,1130.5,508.0859" style="stroke:#383838;stroke-width:1.0;"/><path d="M893,512.0859 L893,512.3662 L903.1458,511.5335 L913.2917,512.3437 L923.4375,512.6188 L933.5833,511.1347 L943.7292,511.9823 L953.875,511.5173 L964.0208,511.5746 L974.1667,511.9951 L984.3125,511.1641 L994.4583,512.8241 L1004.6042,511.2456 L1014.75,511.8222 L1024.8958,512.6619 L1035.0417,511.9716 L1045.1875,512.1769 L1055.3333,512.0433 L1065.4792,512.324 L1075.625,512.4048 L1085.7708,512.8669 L1095.9167,512.9807 L1106.0625,512.9916 L1116.2083,512.4254 L1126.3542,512.7041 L1136.5,512.0859 " fill="none" style="stroke:#383838;stroke-width:1.0;"/><text fill="#000000" font-family="FG Virgil" font-size="13" lengthAdjust="spacing" textLength="161" x="900" y="507.2295">addSeveralFruit(int quantity)</text><polygon fill="#383838" points="1314.5,568.4375,1314.526,568.5025,1316.4487,569.1093,1318.5239,570.0973,1320.5495,570.9612,1322.4117,571.4167,1324.5,572.4375,1324.4904,572.4134,1322.4472,573.1055,1320.4525,573.9188,1318.4916,574.8164,1316.4144,575.4235,1314.5,576.4375,1314.6305,576.568,1315.1514,575.4889,1316.0534,574.7909,1317.0018,574.1393,1317.6798,573.2173,1318.5,572.4375,1318.5161,572.4536,1317.6925,571.63,1316.9421,570.8796,1316.1564,570.0939,1315.438,569.3755,1314.5,568.4375" style="stroke:#383838;stroke-width:1.0;"/><path d="M893,572.4375 L893,572.7177 L902.9419,571.8851 L912.8837,572.6952 L922.8256,572.9704 L932.7674,571.4863 L942.7093,572.3339 L952.6512,571.8688 L962.593,571.9262 L972.5349,572.3466 L982.4767,571.5157 L992.4186,573.1757 L1002.3605,571.5971 L1012.3023,572.1738 L1022.2442,573.0134 L1032.186,572.3231 L1042.1279,572.5285 L1052.0698,572.3949 L1062.0116,572.6755 L1071.9535,572.7563 L1081.8953,573.2184 L1091.8372,573.3322 L1101.7791,573.3432 L1111.7209,572.777 L1121.6628,573.0556 L1131.6047,573.3738 L1141.5465,571.4759 L1151.4884,573.3422 L1161.4302,572.0422 L1171.3721,573.1492 L1181.314,571.7775 L1191.2558,572.3462 L1201.1977,573.4263 L1211.1395,572.3725 L1221.0814,572.5779 L1231.0233,572.889 L1240.9651,572.9925 L1250.907,572.4323 L1260.8488,572.8205 L1270.7907,571.6743 L1280.7326,572.8167 L1290.6744,573.1684 L1300.6163,573.0302 L1310.5581,573.2549 L1320.5,572.4375 " fill="none" style="stroke:#383838;stroke-width:1.0;"/><text fill="#000000" font-family="FG Virgil" font-size="13" lengthAdjust="spacing" textLength="59" x="900" y="567.5811">save(item)</text><polygon fill="#383838" points="33.5,628.7891,33.526,628.8541,31.4487,629.4608,29.5239,630.4489,27.5495,631.3128,25.4117,631.7683,23.5,632.7891,23.4904,632.765,25.4472,633.4571,27.4525,634.2704,29.4916,635.168,31.4144,635.7751,33.5,636.7891,33.6305,636.9196,32.5514,635.8405,31.8534,635.1424,31.2018,634.4909,30.2798,633.5688,29.5,632.7891,29.5161,632.8051,30.2925,631.9815,31.1421,631.2311,31.9564,630.4454,32.838,629.7271,33.5,628.7891" style="stroke:#383838;stroke-width:1.0;"/><path d="M27.5,632.7891 L27.5,633.0693 L37.4375,632.2366 L47.375,633.0468 L57.3125,633.322 L67.25,631.8379 L77.1875,632.6854 L87.125,632.2204 L97.0625,632.2777 L107,632.6982 L116.9375,631.8672 L126.875,633.5273 L136.8125,631.9487 L146.75,632.5254 L156.6875,633.365 L166.625,632.6747 L176.5625,632.88 L186.5,632.7465 L196.4375,633.0271 L206.375,633.1079 L216.3125,633.57 L226.25,633.6838 L236.1875,633.6947 L246.125,633.1286 L256.0625,633.4072 L266,633.7254 L275.9375,631.8275 L285.875,633.6937 L295.8125,632.3937 L305.75,633.5008 L315.6875,632.129 L325.625,632.6977 L335.5625,633.7779 L345.5,632.7891 " fill="none" style="stroke:#383838;stroke-width:1.0;stroke-dasharray:2.0,2.0;"/><text fill="#000000" font-family="FG Virgil" font-size="13" lengthAdjust="spacing" textLength="196" x="39.5" y="627.9326">Fruit is added and Cart is updated</text><!--MD5=[2c2966cc8d3c83f551b3cf1d4654c209]
@startuml
skinparam handwritten true
skinparam monochrome true
skinparam packageStyle rect
skinparam defaultFontName FG Virgil
skinparam shadowing false

actor User as Actor
participant "fruits.jsp" as UI <<presentation>>
control FruitController as Controller <<application>>
participant FruitService as FS<<service>>
participant ItemService as IS<<service>>
database FruitRepository as FR <<repository>>
participant "item:Item" as Domain <<domain>>
participant "fruit:Fruit" as Fruit <<domain>>
database ItemRepository as IR <<repository>>


Actor - -> UI: Add fruit to Cart
activate Actor
activate UI
         UI -> Controller: getFruit(String id, Model model)
      activate Controller

       Controller ->FS : getASingleFruit(String id)
       activate FS
       FS -> FR : findById(String id)
       activate FR
       deactivate FR
       deactivate FS
       deactivate Controller
    UI - -> Actor: Shows detailed fruit
    Actor - -> UI: Choses quantity and presses button to add to cart

   UI -> Controller: addFruitsToCart(String id, String quantity)
 activate Controller

        Controller -> IS : addToCart(String id, int quantity)
        activate IS

        IS -> FR :fruit=findById(String id)
        activate FR
        deactivate FR
        IS -> IR : item=findUserFruitAndCart(String username, fruit)
        activate IR
        deactivate IR
       IS -> Domain :  addSeveralFruit(int quantity)
       activate Domain
       deactivate Domain
       IS -> IR : save(item)
       activate IR
       deactivate IR
       deactivate IS
       deactivate Controller

 UI - -> Actor: Fruit is added and Cart is updated
deactivate UI
deactivate Actor
@enduml

PlantUML version 1.2021.11(Sat Oct 02 15:26:11 CEST 2021)
(GPL source distribution)
Java Runtime: OpenJDK Runtime Environment
JVM: OpenJDK 64-Bit Server VM
Default Encoding: Cp1252
Language: pt
Country: PT
--></g></svg>