<?xml version="1.0" encoding="UTF-8" standalone="no"?><svg xmlns="http://www.w3.org/2000/svg" xmlns:xlink="http://www.w3.org/1999/xlink" contentScriptType="application/ecmascript" contentStyleType="text/css" height="738px" preserveAspectRatio="none" style="width:1288px;height:738px;background:#FFFFFF;" version="1.1" viewBox="0 0 1288 738" width="1288px" zoomAndPan="magnify"><defs/><g><polygon fill="#FFFFFF" points="17.5,118.5703,17.5,118.6404,19.5,118.4322,21.5,118.6347,23.5,118.7035,25.5,118.3325,27.5,118.5703,27.4223,118.5703,27.0735,128.653,27.1165,138.7358,27.4318,148.8185,26.8086,158.9012,28.0536,168.9839,26.8697,179.0666,27.3022,189.1494,27.9319,199.2321,27.4142,209.3148,27.5682,219.3975,27.4681,229.4802,27.6785,239.563,27.7391,249.6457,28.0857,259.7284,28.1711,269.8111,28.1793,279.8938,27.7546,289.9766,27.9636,300.0593,28.2022,310.142,26.7788,320.2247,28.1785,330.3074,27.2035,340.3902,28.0338,350.4729,27.005,360.5556,27.4315,370.6383,28.2416,380.721,27.4513,390.8038,27.6053,400.8865,27.8386,410.9692,27.9162,421.0519,27.4961,431.1347,27.7872,441.2174,26.9276,451.3001,27.7844,461.3828,28.0482,471.4655,27.9445,481.5483,28.113,491.631,27.0169,501.7137,26.8478,511.7964,26.8786,521.8791,27.4411,531.9619,27.3035,542.0446,28.1814,552.1273,27.3253,562.21,27.1569,572.2927,27.7283,582.3755,26.8332,592.4582,26.9809,602.5409,28.149,612.6236,27.9357,622.7063,27.5,632.7891,27.5,633.0339,25.5,632.6818,23.5,632.8955,21.5,632.9859,19.5,632.6316,17.5,632.7891,17.4041,632.7891,17.626,622.7063,18.1518,612.6236,17.4958,602.5409,17.9626,592.4582,16.9462,582.3755,16.8227,572.2927,18.0036,562.21,16.7831,552.1273,18.009,542.0446,17.7066,531.9619,17.2321,521.8791,17.1462,511.7964,17.9588,501.7137,17.2007,491.631,18.0919,481.5483,16.9473,471.4655,18.1174,461.3828,17.9843,451.3001,17.745,441.2174,17.5472,431.1347,18.2266,421.0519,18.1136,410.9692,17.6693,400.8865,17.7682,390.8038,17.3697,380.721,18.2165,370.6383,17.6549,360.5556,17.6726,350.4729,16.8916,340.3902,17.0948,330.3074,18.0307,320.2247,17.9298,310.142,17.4571,300.0593,17.1778,289.9766,17.2811,279.8938,16.8138,269.8111,17.9147,259.7284,18.2396,249.6457,18.0264,239.563,18.1949,229.4802,17.3633,219.3975,17.5872,209.3148,17.1124,199.2321,17.784,189.1494,17.7468,179.0666,18.0524,168.9839,17.2703,158.9012,17.3656,148.8185,17.9435,138.7358,18.0673,128.653,17.5,118.5703" style="stroke:#383838;stroke-width:1.0;"/><polygon fill="#FFFFFF" points="247.5,118.5703,247.5,118.6404,249.5,118.4322,251.5,118.6347,253.5,118.7035,255.5,118.3325,257.5,118.5703,257.4223,118.5703,257.0735,128.653,257.1165,138.7358,257.4318,148.8185,256.8086,158.9012,258.0536,168.9839,256.8697,179.0666,257.3022,189.1494,257.9319,199.2321,257.4142,209.3148,257.5682,219.3975,257.4681,229.4802,257.6785,239.563,257.7391,249.6457,258.0857,259.7284,258.1711,269.8111,258.1793,279.8938,257.7546,289.9766,257.9636,300.0593,258.2022,310.142,256.7788,320.2247,258.1785,330.3074,257.2035,340.3902,258.0338,350.4729,257.005,360.5556,257.4315,370.6383,258.2416,380.721,257.4513,390.8038,257.6053,400.8865,257.8386,410.9692,257.9162,421.0519,257.4961,431.1347,257.7872,441.2174,256.9276,451.3001,257.7844,461.3828,258.0482,471.4655,257.9445,481.5483,258.113,491.631,257.0169,501.7137,256.8478,511.7964,256.8786,521.8791,257.4411,531.9619,257.3035,542.0446,258.1814,552.1273,257.3253,562.21,257.1569,572.2927,257.7283,582.3755,256.8332,592.4582,256.9809,602.5409,258.149,612.6236,257.9357,622.7063,257.5,632.7891,257.5,633.0339,255.5,632.6818,253.5,632.8955,251.5,632.9859,249.5,632.6316,247.5,632.7891,247.4041,632.7891,247.626,622.7063,248.1518,612.6236,247.4958,602.5409,247.9626,592.4582,246.9462,582.3755,246.8227,572.2927,248.0036,562.21,246.7831,552.1273,248.009,542.0446,247.7066,531.9619,247.2321,521.8791,247.1462,511.7964,247.9588,501.7137,247.2007,491.631,248.0919,481.5483,246.9473,471.4655,248.1174,461.3828,247.9843,451.3001,247.745,441.2174,247.5472,431.1347,248.2266,421.0519,248.1136,410.9692,247.6693,400.8865,247.7682,390.8038,247.3697,380.721,248.2165,370.6383,247.6549,360.5556,247.6726,350.4729,246.8916,340.3902,247.0948,330.3074,248.0307,320.2247,247.9298,310.142,247.4571,300.0593,247.1778,289.9766,247.2811,279.8938,246.8138,269.8111,247.9147,259.7284,248.2396,249.6457,248.0264,239.563,248.1949,229.4802,247.3633,219.3975,247.5872,209.3148,247.1124,199.2321,247.784,189.1494,247.7468,179.0666,248.0524,168.9839,247.2703,158.9012,247.3656,148.8185,247.9435,138.7358,248.0673,128.653,247.5,118.5703" style="stroke:#383838;stroke-width:1.0;"/><polygon fill="#FFFFFF" points="516.5,148.9219,516.5,148.9919,518.5,148.7838,520.5,148.9863,522.5,149.0551,524.5,148.6841,526.5,148.9219,526.4223,148.9219,526.0735,159,526.1165,169.0781,526.4318,179.1563,525.8086,189.2344,527.0536,199.3125,525.8697,209.3906,526.3022,219.4688,526.9319,229.5469,526.5,239.625,526.5,239.5964,524.5,239.6477,522.5,239.6144,520.5,239.6845,518.5,239.7047,516.5,239.625,517.0857,239.625,517.1711,229.5469,517.1793,219.4688,516.7546,209.3906,516.9636,199.3125,517.2022,189.2344,515.7788,179.1563,517.1785,169.0781,516.2035,159,516.5,148.9219" style="stroke:#383838;stroke-width:1.0;"/><polygon fill="#FFFFFF" points="516.5,330.6797,516.5,330.7497,518.5,330.5416,520.5,330.7441,522.5,330.8129,524.5,330.4419,526.5,330.6797,526.4223,330.6797,526.0735,340.7448,526.1165,350.8099,526.4318,360.875,525.8086,370.9401,527.0536,381.0052,525.8697,391.0703,526.3022,401.1354,526.9319,411.2005,526.4142,421.2656,526.5682,431.3307,526.4681,441.3958,526.6785,451.4609,526.7391,461.526,527.0857,471.5911,527.1711,481.6563,527.1793,491.7214,526.7546,501.7865,526.9636,511.8516,527.2022,521.9167,525.7788,531.9818,527.1785,542.0469,526.2035,552.112,527.0338,562.1771,526.005,572.2422,526.4315,582.3073,527.2416,592.3724,526.5,602.4375,526.5,602.4213,524.5,602.4726,522.5,602.5504,520.5,602.5762,518.5,602.4362,516.5,602.4375,516.7872,602.4375,515.9276,592.3724,516.7844,582.3073,517.0482,572.2422,516.9445,562.1771,517.113,552.112,516.0169,542.0469,515.8478,531.9818,515.8786,521.9167,516.4411,511.8516,516.3035,501.7865,517.1814,491.7214,516.3253,481.6563,516.1569,471.5911,516.7283,461.526,515.8332,451.4609,515.9809,441.3958,517.149,431.3307,516.9357,421.2656,517.2345,411.2005,516.1782,401.1354,516.8192,391.0703,517.0904,381.0052,516.0276,370.9401,516.4041,360.875,516.626,350.8099,517.1518,340.7448,516.5,330.6797" style="stroke:#383838;stroke-width:1.0;"/><polygon fill="#FFFFFF" points="690.5,179.2734,690.5,179.3435,692.5,179.1353,694.5,179.3379,696.5,179.4067,698.5,179.0356,700.5,179.2734,700.4223,179.2734,700.0735,189.332,700.1165,199.3906,700.4318,209.4492,699.8086,219.5078,701.0536,229.5664,700.5,239.625,700.5,239.4149,698.5,239.5591,696.5,239.769,694.5,239.5964,692.5,239.6477,690.5,239.625,690.4681,239.625,690.6785,229.5664,690.7391,219.5078,691.0857,209.4492,691.1711,199.3906,691.1793,189.332,690.5,179.2734" style="stroke:#383838;stroke-width:1.0;"/><polygon fill="#FFFFFF" points="789,361.0313,789,361.1013,791,360.8931,793,361.0957,795,361.1645,797,360.7935,799,361.0313,798.9223,361.0313,798.5735,371.0898,798.6165,381.1484,798.9318,391.207,798.3086,401.2656,799.5536,411.3242,798.3697,421.3828,798.8022,431.4414,799.4319,441.5,798.9142,451.5586,799.0682,461.6172,798.9681,471.6758,799.1785,481.7344,799.2391,491.793,799.5857,501.8516,799.6711,511.9102,799.6793,521.9688,799.2546,532.0273,799.4636,542.0859,799.7022,552.1445,798.2788,562.2031,799.6785,572.2617,798.7035,582.3203,799.5338,592.3789,799,602.4375,799,602.2725,797,602.4147,795,602.6847,793,602.4213,791,602.4726,789,602.4375,789.3386,602.4375,789.4162,592.3789,788.9961,582.3203,789.2872,572.2617,788.4276,562.2031,789.2844,552.1445,789.5482,542.0859,789.4445,532.0273,789.613,521.9688,788.5169,511.9102,788.3478,501.8516,788.3786,491.793,788.9411,481.7344,788.8035,471.6758,789.6814,461.6172,788.8253,451.5586,788.6569,441.5,789.2283,431.4414,788.3332,421.3828,788.4809,411.3242,789.649,401.2656,789.4357,391.207,789.7345,381.1484,788.6782,371.0898,789,361.0313" style="stroke:#383838;stroke-width:1.0;"/><polygon fill="#FFFFFF" points="949,209.625,949,209.6951,951,209.4869,953,209.6894,955,209.7582,957,209.3872,959,209.625,958.9741,209.625,958.8578,215.625,958.8722,221.625,958.9773,227.625,958.7695,233.625,959,239.625,959,239.8095,957,239.4149,955,239.5591,953,239.769,951,239.5964,949,239.625,949.0227,239.625,948.9894,233.625,949.0595,227.625,949.0797,221.625,949.1952,215.625,949,209.625" style="stroke:#383838;stroke-width:1.0;"/><polygon fill="#FFFFFF" points="949,391.3828,949,391.4529,951,391.2447,953,391.4472,955,391.516,957,391.145,959,391.3828,958.9741,391.3828,958.8578,397.3828,958.8722,403.3828,958.9773,409.3828,958.7695,415.3828,959,421.3828,959,421.5674,957,421.1727,955,421.3169,953,421.5268,951,421.3542,949,421.3828,949.0227,421.3828,948.9894,415.3828,949.0595,409.3828,949.0797,403.3828,949.1952,397.3828,949,391.3828" style="stroke:#383838;stroke-width:1.0;"/><polygon fill="#FFFFFF" points="1048.5,512.0859,1048.5,512.156,1050.5,511.9478,1052.5,512.1504,1054.5,512.2192,1056.5,511.8481,1058.5,512.0859,1058.4741,512.0859,1058.3578,518.0859,1058.3722,524.0859,1058.4773,530.0859,1058.2695,536.0859,1058.5,542.0859,1058.5,542.2705,1056.5,541.8758,1054.5,542.02,1052.5,542.2299,1050.5,542.0573,1048.5,542.0859,1048.5227,542.0859,1048.4894,536.0859,1048.5595,530.0859,1048.5797,524.0859,1048.6952,518.0859,1048.5,512.0859" style="stroke:#383838;stroke-width:1.0;"/><polygon fill="#FFFFFF" points="1232.5,451.7344,1232.5,451.8044,1234.5,451.5963,1236.5,451.7988,1238.5,451.8676,1240.5,451.4966,1242.5,451.7344,1242.4741,451.7344,1242.3578,457.7344,1242.3722,463.7344,1242.4773,469.7344,1242.2695,475.7344,1242.5,481.7344,1242.5,481.9189,1240.5,481.5243,1238.5,481.6685,1236.5,481.8784,1234.5,481.7058,1232.5,481.7344,1232.5227,481.7344,1232.4894,475.7344,1232.5595,469.7344,1232.5797,463.7344,1232.6952,457.7344,1232.5,451.7344" style="stroke:#383838;stroke-width:1.0;"/><polygon fill="#FFFFFF" points="1232.5,572.4375,1232.5,572.5076,1234.5,572.2994,1236.5,572.5019,1238.5,572.5707,1240.5,572.1997,1242.5,572.4375,1242.4741,572.4375,1242.3578,578.4375,1242.3722,584.4375,1242.4773,590.4375,1242.2695,596.4375,1242.5,602.4375,1242.5,602.622,1240.5,602.2274,1238.5,602.3716,1236.5,602.5815,1234.5,602.4089,1232.5,602.4375,1232.5227,602.4375,1232.4894,596.4375,1232.5595,590.4375,1232.5797,584.4375,1232.6952,578.4375,1232.5,572.4375" style="stroke:#383838;stroke-width:1.0;"/><path d="M22,86.2188 L22.2802,86.2188 L21.4476,96.3004 L22.2577,106.382 L22.5329,116.4636 L21.0488,126.5452 L21.8964,136.6268 L21.4313,146.7084 L21.4887,156.79 L21.9091,166.8717 L21.0782,176.9533 L22.7382,187.0349 L21.1596,197.1165 L21.7363,207.1981 L22.5759,217.2797 L21.8856,227.3613 L22.091,237.4429 L21.9574,247.5246 L22.238,257.6062 L22.3188,267.6878 L22.7809,277.7694 L22.8947,287.851 L22.9057,297.9326 L22.3395,308.0142 L22.6181,318.0958 L22.9363,328.1775 L21.0384,338.2591 L22.9047,348.3407 L21.6047,358.4223 L22.7117,368.5039 L21.34,378.5855 L21.9087,388.6671 L22.9888,398.7487 L21.935,408.8304 L22.1404,418.912 L22.4515,428.9936 L22.555,439.0752 L21.9948,449.1568 L22.383,459.2384 L21.2368,469.32 L22.3792,479.4016 L22.7309,489.4833 L22.5927,499.5649 L22.8174,509.6465 L21.3559,519.7281 L21.1304,529.8097 L21.1715,539.8913 L21.9215,549.9729 L21.738,560.0545 L22.9085,570.1362 L21.7671,580.2178 L21.5426,590.2994 L22.3044,600.381 L21.1109,610.4626 L21.3078,620.5442 L22.8653,630.6258 L22.5809,640.7074 L22,650.7891 " fill="none" style="stroke:#383838;stroke-width:1.0;stroke-dasharray:5.0,5.0;"/><path d="M252,86.2188 L252.2802,86.2188 L251.4476,96.3004 L252.2577,106.382 L252.5329,116.4636 L251.0488,126.5452 L251.8964,136.6268 L251.4313,146.7084 L251.4887,156.79 L251.9091,166.8717 L251.0782,176.9533 L252.7382,187.0349 L251.1596,197.1165 L251.7363,207.1981 L252.5759,217.2797 L251.8856,227.3613 L252.091,237.4429 L251.9574,247.5246 L252.238,257.6062 L252.3188,267.6878 L252.7809,277.7694 L252.8947,287.851 L252.9057,297.9326 L252.3395,308.0142 L252.6181,318.0958 L252.9363,328.1775 L251.0384,338.2591 L252.9047,348.3407 L251.6047,358.4223 L252.7117,368.5039 L251.34,378.5855 L251.9087,388.6671 L252.9888,398.7487 L251.935,408.8304 L252.1404,418.912 L252.4515,428.9936 L252.555,439.0752 L251.9948,449.1568 L252.383,459.2384 L251.2368,469.32 L252.3792,479.4016 L252.7309,489.4833 L252.5927,499.5649 L252.8174,509.6465 L251.3559,519.7281 L251.1304,529.8097 L251.1715,539.8913 L251.9215,549.9729 L251.738,560.0545 L252.9085,570.1362 L251.7671,580.2178 L251.5426,590.2994 L252.3044,600.381 L251.1109,610.4626 L251.3078,620.5442 L252.8653,630.6258 L252.5809,640.7074 L252,650.7891 " fill="none" style="stroke:#383838;stroke-width:1.0;stroke-dasharray:5.0,5.0;"/><path d="M521,86.2188 L521.2802,86.2188 L520.4476,96.3004 L521.2577,106.382 L521.5329,116.4636 L520.0488,126.5452 L520.8964,136.6268 L520.4313,146.7084 L520.4887,156.79 L520.9091,166.8717 L520.0782,176.9533 L521.7382,187.0349 L520.1596,197.1165 L520.7363,207.1981 L521.5759,217.2797 L520.8856,227.3613 L521.091,237.4429 L520.9574,247.5246 L521.238,257.6062 L521.3188,267.6878 L521.7809,277.7694 L521.8947,287.851 L521.9057,297.9326 L521.3395,308.0142 L521.6181,318.0958 L521.9363,328.1775 L520.0384,338.2591 L521.9047,348.3407 L520.6047,358.4223 L521.7117,368.5039 L520.34,378.5855 L520.9087,388.6671 L521.9888,398.7487 L520.935,408.8304 L521.1404,418.912 L521.4515,428.9936 L521.555,439.0752 L520.9948,449.1568 L521.383,459.2384 L520.2368,469.32 L521.3792,479.4016 L521.7309,489.4833 L521.5927,499.5649 L521.8174,509.6465 L520.3559,519.7281 L520.1304,529.8097 L520.1715,539.8913 L520.9215,549.9729 L520.738,560.0545 L521.9085,570.1362 L520.7671,580.2178 L520.5426,590.2994 L521.3044,600.381 L520.1109,610.4626 L520.3078,620.5442 L521.8653,630.6258 L521.5809,640.7074 L521,650.7891 " fill="none" style="stroke:#383838;stroke-width:1.0;stroke-dasharray:5.0,5.0;"/><path d="M695.5,86.2188 L695.7802,86.2188 L694.9476,96.3004 L695.7577,106.382 L696.0329,116.4636 L694.5488,126.5452 L695.3964,136.6268 L694.9313,146.7084 L694.9887,156.79 L695.4091,166.8717 L694.5782,176.9533 L696.2382,187.0349 L694.6596,197.1165 L695.2363,207.1981 L696.0759,217.2797 L695.3856,227.3613 L695.591,237.4429 L695.4574,247.5246 L695.738,257.6062 L695.8188,267.6878 L696.2809,277.7694 L696.3947,287.851 L696.4057,297.9326 L695.8395,308.0142 L696.1181,318.0958 L696.4363,328.1775 L694.5384,338.2591 L696.4047,348.3407 L695.1047,358.4223 L696.2117,368.5039 L694.84,378.5855 L695.4087,388.6671 L696.4888,398.7487 L695.435,408.8304 L695.6404,418.912 L695.9515,428.9936 L696.055,439.0752 L695.4948,449.1568 L695.883,459.2384 L694.7368,469.32 L695.8792,479.4016 L696.2309,489.4833 L696.0927,499.5649 L696.3174,509.6465 L694.8559,519.7281 L694.6304,529.8097 L694.6715,539.8913 L695.4215,549.9729 L695.238,560.0545 L696.4085,570.1362 L695.2671,580.2178 L695.0426,590.2994 L695.8044,600.381 L694.6109,610.4626 L694.8078,620.5442 L696.3653,630.6258 L696.0809,640.7074 L695.5,650.7891 " fill="none" style="stroke:#383838;stroke-width:1.0;stroke-dasharray:5.0,5.0;"/><path d="M793.5,86.2188 L793.7802,86.2188 L792.9476,96.3004 L793.7577,106.382 L794.0329,116.4636 L792.5488,126.5452 L793.3964,136.6268 L792.9313,146.7084 L792.9887,156.79 L793.4091,166.8717 L792.5782,176.9533 L794.2382,187.0349 L792.6596,197.1165 L793.2363,207.1981 L794.0759,217.2797 L793.3856,227.3613 L793.591,237.4429 L793.4574,247.5246 L793.738,257.6062 L793.8188,267.6878 L794.2809,277.7694 L794.3947,287.851 L794.4057,297.9326 L793.8395,308.0142 L794.1181,318.0958 L794.4363,328.1775 L792.5384,338.2591 L794.4047,348.3407 L793.1047,358.4223 L794.2117,368.5039 L792.84,378.5855 L793.4087,388.6671 L794.4888,398.7487 L793.435,408.8304 L793.6404,418.912 L793.9515,428.9936 L794.055,439.0752 L793.4948,449.1568 L793.883,459.2384 L792.7368,469.32 L793.8792,479.4016 L794.2309,489.4833 L794.0927,499.5649 L794.3174,509.6465 L792.8559,519.7281 L792.6304,529.8097 L792.6715,539.8913 L793.4215,549.9729 L793.238,560.0545 L794.4085,570.1362 L793.2671,580.2178 L793.0426,590.2994 L793.8044,600.381 L792.6109,610.4626 L792.8078,620.5442 L794.3653,630.6258 L794.0809,640.7074 L793.5,650.7891 " fill="none" style="stroke:#383838;stroke-width:1.0;stroke-dasharray:5.0,5.0;"/><path d="M953.5,86.2188 L953.7802,86.2188 L952.9476,96.3004 L953.7577,106.382 L954.0329,116.4636 L952.5488,126.5452 L953.3964,136.6268 L952.9313,146.7084 L952.9887,156.79 L953.4091,166.8717 L952.5782,176.9533 L954.2382,187.0349 L952.6596,197.1165 L953.2363,207.1981 L954.0759,217.2797 L953.3856,227.3613 L953.591,237.4429 L953.4574,247.5246 L953.738,257.6062 L953.8188,267.6878 L954.2809,277.7694 L954.3947,287.851 L954.4057,297.9326 L953.8395,308.0142 L954.1181,318.0958 L954.4363,328.1775 L952.5384,338.2591 L954.4047,348.3407 L953.1047,358.4223 L954.2117,368.5039 L952.84,378.5855 L953.4087,388.6671 L954.4888,398.7487 L953.435,408.8304 L953.6404,418.912 L953.9515,428.9936 L954.055,439.0752 L953.4948,449.1568 L953.883,459.2384 L952.7368,469.32 L953.8792,479.4016 L954.2309,489.4833 L954.0927,499.5649 L954.3174,509.6465 L952.8559,519.7281 L952.6304,529.8097 L952.6715,539.8913 L953.4215,549.9729 L953.238,560.0545 L954.4085,570.1362 L953.2671,580.2178 L953.0426,590.2994 L953.8044,600.381 L952.6109,610.4626 L952.8078,620.5442 L954.3653,630.6258 L954.0809,640.7074 L953.5,650.7891 " fill="none" style="stroke:#383838;stroke-width:1.0;stroke-dasharray:5.0,5.0;"/><path d="M1053.5,86.2188 L1053.7802,86.2188 L1052.9476,96.3004 L1053.7577,106.382 L1054.0329,116.4636 L1052.5488,126.5452 L1053.3964,136.6268 L1052.9313,146.7084 L1052.9887,156.79 L1053.4091,166.8717 L1052.5782,176.9533 L1054.2382,187.0349 L1052.6596,197.1165 L1053.2363,207.1981 L1054.0759,217.2797 L1053.3856,227.3613 L1053.591,237.4429 L1053.4574,247.5246 L1053.738,257.6062 L1053.8188,267.6878 L1054.2809,277.7694 L1054.3947,287.851 L1054.4057,297.9326 L1053.8395,308.0142 L1054.1181,318.0958 L1054.4363,328.1775 L1052.5384,338.2591 L1054.4047,348.3407 L1053.1047,358.4223 L1054.2117,368.5039 L1052.84,378.5855 L1053.4087,388.6671 L1054.4888,398.7487 L1053.435,408.8304 L1053.6404,418.912 L1053.9515,428.9936 L1054.055,439.0752 L1053.4948,449.1568 L1053.883,459.2384 L1052.7368,469.32 L1053.8792,479.4016 L1054.2309,489.4833 L1054.0927,499.5649 L1054.3174,509.6465 L1052.8559,519.7281 L1052.6304,529.8097 L1052.6715,539.8913 L1053.4215,549.9729 L1053.238,560.0545 L1054.4085,570.1362 L1053.2671,580.2178 L1053.0426,590.2994 L1053.8044,600.381 L1052.6109,610.4626 L1052.8078,620.5442 L1054.3653,630.6258 L1054.0809,640.7074 L1053.5,650.7891 " fill="none" style="stroke:#383838;stroke-width:1.0;stroke-dasharray:5.0,5.0;"/><path d="M1139.5,86.2188 L1139.7802,86.2188 L1138.9476,96.3004 L1139.7577,106.382 L1140.0329,116.4636 L1138.5488,126.5452 L1139.3964,136.6268 L1138.9313,146.7084 L1138.9887,156.79 L1139.4091,166.8717 L1138.5782,176.9533 L1140.2382,187.0349 L1138.6596,197.1165 L1139.2363,207.1981 L1140.0759,217.2797 L1139.3856,227.3613 L1139.591,237.4429 L1139.4574,247.5246 L1139.738,257.6062 L1139.8188,267.6878 L1140.2809,277.7694 L1140.3947,287.851 L1140.4057,297.9326 L1139.8395,308.0142 L1140.1181,318.0958 L1140.4363,328.1775 L1138.5384,338.2591 L1140.4047,348.3407 L1139.1047,358.4223 L1140.2117,368.5039 L1138.84,378.5855 L1139.4087,388.6671 L1140.4888,398.7487 L1139.435,408.8304 L1139.6404,418.912 L1139.9515,428.9936 L1140.055,439.0752 L1139.4948,449.1568 L1139.883,459.2384 L1138.7368,469.32 L1139.8792,479.4016 L1140.2309,489.4833 L1140.0927,499.5649 L1140.3174,509.6465 L1138.8559,519.7281 L1138.6304,529.8097 L1138.6715,539.8913 L1139.4215,549.9729 L1139.238,560.0545 L1140.4085,570.1362 L1139.2671,580.2178 L1139.0426,590.2994 L1139.8044,600.381 L1138.6109,610.4626 L1138.8078,620.5442 L1140.3653,630.6258 L1140.0809,640.7074 L1139.5,650.7891 " fill="none" style="stroke:#383838;stroke-width:1.0;stroke-dasharray:5.0,5.0;"/><path d="M1237.5,86.2188 L1237.7802,86.2188 L1236.9476,96.3004 L1237.7577,106.382 L1238.0329,116.4636 L1236.5488,126.5452 L1237.3964,136.6268 L1236.9313,146.7084 L1236.9887,156.79 L1237.4091,166.8717 L1236.5782,176.9533 L1238.2382,187.0349 L1236.6596,197.1165 L1237.2363,207.1981 L1238.0759,217.2797 L1237.3856,227.3613 L1237.591,237.4429 L1237.4574,247.5246 L1237.738,257.6062 L1237.8188,267.6878 L1238.2809,277.7694 L1238.3947,287.851 L1238.4057,297.9326 L1237.8395,308.0142 L1238.1181,318.0958 L1238.4363,328.1775 L1236.5384,338.2591 L1238.4047,348.3407 L1237.1047,358.4223 L1238.2117,368.5039 L1236.84,378.5855 L1237.4087,388.6671 L1238.4888,398.7487 L1237.435,408.8304 L1237.6404,418.912 L1237.9515,428.9936 L1238.055,439.0752 L1237.4948,449.1568 L1237.883,459.2384 L1236.7368,469.32 L1237.8792,479.4016 L1238.2309,489.4833 L1238.0927,499.5649 L1238.3174,509.6465 L1236.8559,519.7281 L1236.6304,529.8097 L1236.6715,539.8913 L1237.4215,549.9729 L1237.238,560.0545 L1238.4085,570.1362 L1237.2671,580.2178 L1237.0426,590.2994 L1237.8044,600.381 L1236.6109,610.4626 L1236.8078,620.5442 L1238.3653,630.6258 L1238.0809,640.7074 L1237.5,650.7891 " fill="none" style="stroke:#383838;stroke-width:1.0;stroke-dasharray:5.0,5.0;"/><text fill="#000000" font-family="FG Virgil" font-size="14" lengthAdjust="spacing" textLength="29" x="5" y="83.1426">User</text><polygon fill="#F8F8F8" points="30.5442,17.5553,29.3715,19.1576,27.9845,21.5044,26.0008,23.086,23.9163,23.9509,22.2542,24.026,20.118,22.9443,18.1023,22.2377,16.5724,20.803,15.7699,19.1605,15.2939,17.8527,14.8277,16.1444,14.0709,14.6744,14.6525,13.2392,15.162,11.667,17.074,10.4235,18.4192,8.8102,20.0843,8.2744,22.0637,7.813,24.6021,8.0872,25.9924,8.7429,27.6089,9.0401,29.5743,11.0537,30.2595,13.1795,30.5571,14.63,30.22,17.0202" style="stroke:#383838;stroke-width:2.0;"/><path d="M22.5,23.6094 L22.6868,23.6094 L22.1317,29.0094 L22.6718,34.4094 L22.8553,39.8094 L21.8659,45.2094 L22.5,50.6094 M9.5,31.6094 L9.5,31.5403 L14.7,31.2303 L19.9,31.2685 L25.1,31.5488 L30.3,30.9948 L35.5,31.6094 M22.5,50.6094 L22.8719,50.9317 L19.4766,53.2425 L17.1672,56.4942 L14.9901,59.8608 L12.0424,62.5594 L9.5,65.6094 M22.5,50.6094 L22.5458,50.6491 L25.0785,53.5908 L27.8199,56.7133 L30.4606,59.7486 L33.2934,62.9503 L35.5,65.6094 " fill="none" style="stroke:#383838;stroke-width:2.0;"/><text fill="#000000" font-family="FG Virgil" font-size="14" lengthAdjust="spacing" textLength="29" x="5" y="664.3223">User</text><polygon fill="#F8F8F8" points="30.5442,679.3444,29.3715,680.9467,27.9845,683.2935,26.0008,684.8751,23.9163,685.74,22.2542,685.815,20.118,684.7334,18.1023,684.0267,16.5724,682.592,15.7699,680.9495,15.2939,679.6417,14.8277,677.9335,14.0709,676.4635,14.6525,675.0283,15.162,673.4561,17.074,672.2126,18.4192,670.5992,20.0843,670.0635,22.0637,669.6021,24.6021,669.8762,25.9924,670.5319,27.6089,670.8291,29.5743,672.8428,30.2595,674.9686,30.5571,676.4191,30.22,678.8093" style="stroke:#383838;stroke-width:2.0;"/><path d="M22.5,685.3984 L22.6868,685.3984 L22.1317,690.7984 L22.6718,696.1984 L22.8553,701.5984 L21.8659,706.9984 L22.5,712.3984 M9.5,693.3984 L9.5,693.3294 L14.7,693.0193 L19.9,693.0575 L25.1,693.3379 L30.3,692.7839 L35.5,693.3984 M22.5,712.3984 L22.8719,712.7207 L19.4766,715.0315 L17.1672,718.2833 L14.9901,721.6499 L12.0424,724.3485 L9.5,727.3984 M22.5,712.3984 L22.5458,712.4382 L25.0785,715.3798 L27.8199,718.5024 L30.4606,721.5377 L33.2934,724.7394 L35.5,727.3984 " fill="none" style="stroke:#383838;stroke-width:2.0;"/><polygon fill="#F8F8F8" points="198,36,198,36.2102,207.9091,35.5857,217.8182,36.1933,227.7273,36.3997,237.6364,35.2866,247.5455,35.9223,257.4545,35.5735,267.3636,35.6165,277.2727,35.9318,287.1818,35.3086,297.0909,36.5536,307,36,306.3697,36,306.8022,45.8438,307.4319,55.6875,306.9142,65.5313,307.0682,75.375,307,85.2188,307,85.1868,297.0909,85.3973,287.1818,85.4579,277.2727,85.8044,267.3636,85.8898,257.4545,85.898,247.5455,85.4734,237.6364,85.6823,227.7273,85.921,217.8182,84.4976,207.9091,85.8973,198,85.2188,197.7035,85.2188,198.5338,75.375,197.505,65.5313,197.9315,55.6875,198.7416,45.8438,198,36" style="stroke:#383838;stroke-width:1.5;"/><text fill="#000000" font-family="FG Virgil" font-size="14" font-style="italic" lengthAdjust="spacing" textLength="95" x="205" y="57.5332">«presentation»</text><text fill="#000000" font-family="FG Virgil" font-size="14" lengthAdjust="spacing" textLength="53" x="226" y="75.1426">fruits.jsp</text><polygon fill="#F8F8F8" points="198,649.7891,198,649.9992,207.9091,649.3747,217.8182,649.9823,227.7273,650.1887,237.6364,649.0757,247.5455,649.7113,257.4545,649.3626,267.3636,649.4056,277.2727,649.7209,287.1818,649.0977,297.0909,650.3427,307,649.7891,306.3697,649.7891,306.8022,659.6328,307.4319,669.4766,306.9142,679.3203,307.0682,689.1641,307,699.0078,307,698.9759,297.0909,699.1863,287.1818,699.2469,277.2727,699.5935,267.3636,699.6789,257.4545,699.6871,247.5455,699.2624,237.6364,699.4714,227.7273,699.71,217.8182,698.2866,207.9091,699.6863,198,699.0078,197.7035,699.0078,198.5338,689.1641,197.505,679.3203,197.9315,669.4766,198.7416,659.6328,198,649.7891" style="stroke:#383838;stroke-width:1.5;"/><text fill="#000000" font-family="FG Virgil" font-size="14" font-style="italic" lengthAdjust="spacing" textLength="95" x="205" y="671.3223">«presentation»</text><text fill="#000000" font-family="FG Virgil" font-size="14" lengthAdjust="spacing" textLength="53" x="226" y="688.9316">fruits.jsp</text><text fill="#000000" font-family="FG Virgil" font-size="14" font-style="italic" lengthAdjust="spacing" textLength="84" x="476.5" y="65.5332">«application»</text><text fill="#000000" font-family="FG Virgil" font-size="14" lengthAdjust="spacing" textLength="91" x="473" y="83.1426">FruitController</text><polygon fill="#F8F8F8" points="533.5663,37.9189,531.8073,40.3223,529.7268,43.8426,526.7512,46.215,523.6244,47.5123,521.1313,47.6249,517.9269,46.0024,514.9035,44.9425,512.6086,42.7904,511.4048,40.3267,510.6909,38.3649,509.9915,35.8026,508.8564,33.5976,509.7287,31.4447,510.4929,29.0864,513.3611,27.2212,515.3789,24.8012,517.8764,23.9976,520.8456,23.3055,524.6532,23.7167,526.7386,24.7002,529.1633,25.146,532.1115,28.1665,533.1392,31.3552,533.5857,33.5309,533.08,37.1162" style="stroke:#383838;stroke-width:2.0;"/><polygon fill="#383838" points="517.5,23,517.5449,23.0538,518.6116,21.8939,519.9412,21.0495,521.1853,20.1023,522.1478,18.8173,523.5,18,523.4759,17.9904,522.968,18.9472,522.5813,19.9525,522.2789,20.9916,521.686,21.9144,521.5,23,521.6713,23.0685,521.7049,23.922,522.2388,24.9755,522.8337,26.0535,523.0735,26.9894,523.5,28,523.5146,28.0175,522.2932,26.9918,521.1381,26.0457,519.951,25.0612,518.825,24.15,517.5,23" style="stroke:#383838;stroke-width:1.0;"/><text fill="#000000" font-family="FG Virgil" font-size="14" font-style="italic" lengthAdjust="spacing" textLength="84" x="476.5" y="664.3223">«application»</text><text fill="#000000" font-family="FG Virgil" font-size="14" lengthAdjust="spacing" textLength="91" x="473" y="681.9316">FruitController</text><polygon fill="#F8F8F8" points="533.5663,703.9267,531.8073,706.3301,529.7268,709.8504,526.7512,712.2228,523.6244,713.5201,521.1313,713.6327,517.9269,712.0102,514.9035,710.9503,512.6086,708.7982,511.4048,706.3345,510.6909,704.3728,509.9915,701.8104,508.8564,699.6054,509.7287,697.4525,510.4929,695.0942,513.3611,693.2291,515.3789,690.809,517.8764,690.0054,520.8456,689.3133,524.6532,689.7245,526.7386,690.708,529.1633,691.1538,532.1115,694.1743,533.1392,697.363,533.5857,699.5387,533.08,703.124" style="stroke:#383838;stroke-width:2.0;"/><polygon fill="#383838" points="517.5,689.0078,517.5449,689.0616,518.6116,687.9017,519.9412,687.0573,521.1853,686.1102,522.1478,684.8251,523.5,684.0078,523.4759,683.9982,522.968,684.955,522.5813,685.9603,522.2789,686.9994,521.686,687.9222,521.5,689.0078,521.6713,689.0764,521.7049,689.9298,522.2388,690.9833,522.8337,692.0613,523.0735,692.9972,523.5,694.0078,523.5146,694.0253,522.2932,692.9996,521.1381,692.0535,519.951,691.069,518.825,690.1578,517.5,689.0078" style="stroke:#383838;stroke-width:1.0;"/><polygon fill="#F8F8F8" points="650.5,36,650.5,36.2102,660.5,35.5857,670.5,36.1933,680.5,36.3997,690.5,35.2866,700.5,35.9223,710.5,35.5735,720.5,35.6165,730.5,35.9318,740.5,36,739.8086,36,741.0536,45.8438,739.8697,55.6875,740.3022,65.5313,740.9319,75.375,740.5,85.2188,740.5,85.133,730.5,85.287,720.5,85.1868,710.5,85.3973,700.5,85.4579,690.5,85.8044,680.5,85.8898,670.5,85.898,660.5,85.4734,650.5,85.2188,650.9636,85.2188,651.2022,75.375,649.7788,65.5313,651.1785,55.6875,650.2035,45.8438,650.5,36" style="stroke:#383838;stroke-width:1.5;"/><text fill="#000000" font-family="FG Virgil" font-size="14" font-style="italic" lengthAdjust="spacing" textLength="60" x="665.5" y="57.5332">«service»</text><text fill="#000000" font-family="FG Virgil" font-size="14" lengthAdjust="spacing" textLength="76" x="657.5" y="75.1426">FruitService</text><polygon fill="#F8F8F8" points="650.5,649.7891,650.5,649.9992,660.5,649.3747,670.5,649.9823,680.5,650.1887,690.5,649.0757,700.5,649.7113,710.5,649.3626,720.5,649.4056,730.5,649.7209,740.5,649.7891,739.8086,649.7891,741.0536,659.6328,739.8697,669.4766,740.3022,679.3203,740.9319,689.1641,740.5,699.0078,740.5,698.922,730.5,699.0761,720.5,698.9759,710.5,699.1863,700.5,699.2469,690.5,699.5935,680.5,699.6789,670.5,699.6871,660.5,699.2624,650.5,699.0078,650.9636,699.0078,651.2022,689.1641,649.7788,679.3203,651.1785,669.4766,650.2035,659.6328,650.5,649.7891" style="stroke:#383838;stroke-width:1.5;"/><text fill="#000000" font-family="FG Virgil" font-size="14" font-style="italic" lengthAdjust="spacing" textLength="60" x="665.5" y="671.3223">«service»</text><text fill="#000000" font-family="FG Virgil" font-size="14" lengthAdjust="spacing" textLength="76" x="657.5" y="688.9316">FruitService</text><polygon fill="#F8F8F8" points="750.5,36,750.5,36.2102,760.1667,35.5857,769.8333,36.1933,779.5,36.3997,789.1667,35.2866,798.8333,35.9223,808.5,35.5735,818.1667,35.6165,827.8333,35.9318,837.5,36,836.8086,36,838.0536,45.8438,836.8697,55.6875,837.3022,65.5313,837.9319,75.375,837.5,85.2188,837.5,85.133,827.8333,85.287,818.1667,85.1868,808.5,85.3973,798.8333,85.4579,789.1667,85.8044,779.5,85.8898,769.8333,85.898,760.1667,85.4734,750.5,85.2188,750.9636,85.2188,751.2022,75.375,749.7788,65.5313,751.1785,55.6875,750.2035,45.8438,750.5,36" style="stroke:#383838;stroke-width:1.5;"/><text fill="#000000" font-family="FG Virgil" font-size="14" font-style="italic" lengthAdjust="spacing" textLength="60" x="764" y="57.5332">«service»</text><text fill="#000000" font-family="FG Virgil" font-size="14" lengthAdjust="spacing" textLength="73" x="757.5" y="75.1426">ItemService</text><polygon fill="#F8F8F8" points="750.5,649.7891,750.5,649.9992,760.1667,649.3747,769.8333,649.9823,779.5,650.1887,789.1667,649.0757,798.8333,649.7113,808.5,649.3626,818.1667,649.4056,827.8333,649.7209,837.5,649.7891,836.8086,649.7891,838.0536,659.6328,836.8697,669.4766,837.3022,679.3203,837.9319,689.1641,837.5,699.0078,837.5,698.922,827.8333,699.0761,818.1667,698.9759,808.5,699.1863,798.8333,699.2469,789.1667,699.5935,779.5,699.6789,769.8333,699.6871,760.1667,699.2624,750.5,699.0078,750.9636,699.0078,751.2022,689.1641,749.7788,679.3203,751.1785,669.4766,750.2035,659.6328,750.5,649.7891" style="stroke:#383838;stroke-width:1.5;"/><text fill="#000000" font-family="FG Virgil" font-size="14" font-style="italic" lengthAdjust="spacing" textLength="60" x="764" y="671.3223">«service»</text><text fill="#000000" font-family="FG Virgil" font-size="14" lengthAdjust="spacing" textLength="73" x="757.5" y="688.9316">ItemService</text><text fill="#000000" font-family="FG Virgil" font-size="14" font-style="italic" lengthAdjust="spacing" textLength="79" x="911.5" y="65.5332">«repository»</text><text fill="#000000" font-family="FG Virgil" font-size="14" lengthAdjust="spacing" textLength="97" x="902.5" y="83.1426">FruitRepository</text><path d="M936,15 L936,15 L936.0651,15.067 L937.6716,13.118 L939.6599,11.5616 L941.5238,9.8774 L942.979,7.7727 L945,6.25 L944.9952,6.2158 L946.7739,5.8122 L948.5766,5.5812 L950.3958,5.47 L952.1577,4.9456 L954,5 L954,5 L954.0339,5.2437 L955.7615,4.9725 L957.5879,5.4129 L959.4264,5.9402 L961.1948,5.9622 L963,6.25 L963.0211,6.2717 L964.7901,7.9898 L966.6553,9.8069 L968.4741,11.5762 L970.3815,13.4366 L972,15 L972.5965,15 L972.6038,20.2 L972.2263,25.4 L972.4121,30.6 L972.6242,35.8 L972,41 L972,41 L971.7766,40.7702 L970.4102,42.9662 L968.3081,44.4055 L966.7654,46.4201 L964.6466,47.8423 L963,49.75 L962.9958,49.7198 L961.2453,50.3265 L959.397,50.2285 L957.6064,50.5464 L955.8207,50.8991 L954,51 L954,51 L954.0254,51.1832 L952.1998,50.7483 L950.4176,50.6264 L948.565,49.998 L946.8174,50.1252 L945,49.75 L945.1698,49.9247 L943.3377,48.1417 L941.5899,46.4453 L939.4503,44.3461 L937.5979,42.5422 L936,41 L935.4476,41 L935.9477,35.8 L935.8253,30.6 L936.6057,25.4 L935.8447,20.2 L936,15 " fill="#F8F8F8" style="stroke:#000000;stroke-width:1.5;"/><path d="M936,15 L936,15 L936.0651,15.067 L937.6716,16.618 L939.6599,18.5616 L941.5238,20.3774 L942.979,21.7727 L945,23.75 L944.9952,23.7158 L946.7739,23.8122 L948.5766,24.0812 L950.3958,24.47 L952.1577,24.4456 L954,25 L954,25 L954.0339,25.2437 L955.7615,24.4725 L957.5879,24.4129 L959.4264,24.4402 L961.1948,23.9622 L963,23.75 L963.0211,23.7717 L964.7901,21.9898 L966.6553,20.3069 L968.4741,18.5762 L970.3815,16.9366 L972,15 " fill="none" style="stroke:#000000;stroke-width:1.5;"/><text fill="#000000" font-family="FG Virgil" font-size="14" font-style="italic" lengthAdjust="spacing" textLength="79" x="911.5" y="664.3223">«repository»</text><text fill="#000000" font-family="FG Virgil" font-size="14" lengthAdjust="spacing" textLength="97" x="902.5" y="681.9316">FruitRepository</text><path d="M936,695.0078 L936,695.0078 L936.0651,695.0748 L937.6716,693.1258 L939.6599,691.5694 L941.5238,689.8852 L942.979,687.7805 L945,686.2578 L944.9952,686.2236 L946.7739,685.8201 L948.5766,685.589 L950.3958,685.4778 L952.1577,684.9535 L954,685.0078 L954,685.0078 L954.0339,685.2515 L955.7615,684.9804 L957.5879,685.4208 L959.4264,685.948 L961.1948,685.9701 L963,686.2578 L963.0211,686.2796 L964.7901,687.9976 L966.6553,689.8147 L968.4741,691.584 L970.3815,693.4445 L972,695.0078 L972.5965,695.0078 L972.6038,700.2078 L972.2263,705.4078 L972.4121,710.6078 L972.6242,715.8078 L972,721.0078 L972,721.0078 L971.7766,720.778 L970.4102,722.974 L968.3081,724.4133 L966.7654,726.4279 L964.6466,727.8501 L963,729.7578 L962.9958,729.7277 L961.2453,730.3343 L959.397,730.2364 L957.6064,730.5542 L955.8207,730.9069 L954,731.0078 L954,731.0078 L954.0254,731.191 L952.1998,730.7561 L950.4176,730.6342 L948.565,730.0058 L946.8174,730.133 L945,729.7578 L945.1698,729.9325 L943.3377,728.1495 L941.5899,726.4532 L939.4503,724.3539 L937.5979,722.55 L936,721.0078 L935.4476,721.0078 L935.9477,715.8078 L935.8253,710.6078 L936.6057,705.4078 L935.8447,700.2078 L936,695.0078 " fill="#F8F8F8" style="stroke:#000000;stroke-width:1.5;"/><path d="M936,695.0078 L936,695.0078 L936.0651,695.0748 L937.6716,696.6258 L939.6599,698.5694 L941.5238,700.3852 L942.979,701.7805 L945,703.7578 L944.9952,703.7236 L946.7739,703.8201 L948.5766,704.089 L950.3958,704.4778 L952.1577,704.4535 L954,705.0078 L954,705.0078 L954.0339,705.2515 L955.7615,704.4804 L957.5879,704.4208 L959.4264,704.448 L961.1948,703.9701 L963,703.7578 L963.0211,703.7796 L964.7901,701.9976 L966.6553,700.3147 L968.4741,698.584 L970.3815,696.9445 L972,695.0078 " fill="none" style="stroke:#000000;stroke-width:1.5;"/><polygon fill="#F8F8F8" points="1015.5,36,1015.5,36.2102,1025,35.5857,1034.5,36.1933,1044,36.3997,1053.5,35.2866,1063,35.9223,1072.5,35.5735,1082,35.6165,1091.5,36,1091.4318,36,1090.8086,45.8438,1092.0536,55.6875,1090.8697,65.5313,1091.3022,75.375,1091.5,85.2188,1091.5,85.6507,1082,85.133,1072.5,85.287,1063,85.1868,1053.5,85.3973,1044,85.4579,1034.5,85.8044,1025,85.8898,1015.5,85.2188,1016.1793,85.2188,1015.7546,75.375,1015.9636,65.5313,1016.2022,55.6875,1014.7788,45.8438,1015.5,36" style="stroke:#383838;stroke-width:1.5;"/><text fill="#000000" font-family="FG Virgil" font-size="14" font-style="italic" lengthAdjust="spacing" textLength="62" x="1022.5" y="57.5332">«domain»</text><text fill="#000000" font-family="FG Virgil" font-size="14" lengthAdjust="spacing" textLength="56" x="1025.5" y="75.1426">item:Item</text><polygon fill="#F8F8F8" points="1015.5,649.7891,1015.5,649.9992,1025,649.3747,1034.5,649.9823,1044,650.1887,1053.5,649.0757,1063,649.7113,1072.5,649.3626,1082,649.4056,1091.5,649.7891,1091.4318,649.7891,1090.8086,659.6328,1092.0536,669.4766,1090.8697,679.3203,1091.3022,689.1641,1091.5,699.0078,1091.5,699.4398,1082,698.922,1072.5,699.0761,1063,698.9759,1053.5,699.1863,1044,699.2469,1034.5,699.5935,1025,699.6789,1015.5,699.0078,1016.1793,699.0078,1015.7546,689.1641,1015.9636,679.3203,1016.2022,669.4766,1014.7788,659.6328,1015.5,649.7891" style="stroke:#383838;stroke-width:1.5;"/><text fill="#000000" font-family="FG Virgil" font-size="14" font-style="italic" lengthAdjust="spacing" textLength="62" x="1022.5" y="671.3223">«domain»</text><text fill="#000000" font-family="FG Virgil" font-size="14" lengthAdjust="spacing" textLength="56" x="1025.5" y="688.9316">item:Item</text><polygon fill="#F8F8F8" points="1101.5,36,1101.5,36.2102,1111,35.5857,1120.5,36.1933,1130,36.3997,1139.5,35.2866,1149,35.9223,1158.5,35.5735,1168,35.6165,1177.5,36,1177.4318,36,1176.8086,45.8438,1178.0536,55.6875,1176.8697,65.5313,1177.3022,75.375,1177.5,85.2188,1177.5,85.6507,1168,85.133,1158.5,85.287,1149,85.1868,1139.5,85.3973,1130,85.4579,1120.5,85.8044,1111,85.8898,1101.5,85.2188,1102.1793,85.2188,1101.7546,75.375,1101.9636,65.5313,1102.2022,55.6875,1100.7788,45.8438,1101.5,36" style="stroke:#383838;stroke-width:1.5;"/><text fill="#000000" font-family="FG Virgil" font-size="14" font-style="italic" lengthAdjust="spacing" textLength="62" x="1108.5" y="57.5332">«domain»</text><text fill="#000000" font-family="FG Virgil" font-size="14" lengthAdjust="spacing" textLength="57" x="1111" y="75.1426">fruit:Fruit</text><polygon fill="#F8F8F8" points="1101.5,649.7891,1101.5,649.9992,1111,649.3747,1120.5,649.9823,1130,650.1887,1139.5,649.0757,1149,649.7113,1158.5,649.3626,1168,649.4056,1177.5,649.7891,1177.4318,649.7891,1176.8086,659.6328,1178.0536,669.4766,1176.8697,679.3203,1177.3022,689.1641,1177.5,699.0078,1177.5,699.4398,1168,698.922,1158.5,699.0761,1149,698.9759,1139.5,699.1863,1130,699.2469,1120.5,699.5935,1111,699.6789,1101.5,699.0078,1102.1793,699.0078,1101.7546,689.1641,1101.9636,679.3203,1102.2022,669.4766,1100.7788,659.6328,1101.5,649.7891" style="stroke:#383838;stroke-width:1.5;"/><text fill="#000000" font-family="FG Virgil" font-size="14" font-style="italic" lengthAdjust="spacing" textLength="62" x="1108.5" y="671.3223">«domain»</text><text fill="#000000" font-family="FG Virgil" font-size="14" lengthAdjust="spacing" textLength="57" x="1111" y="688.9316">fruit:Fruit</text><text fill="#000000" font-family="FG Virgil" font-size="14" font-style="italic" lengthAdjust="spacing" textLength="79" x="1195" y="65.5332">«repository»</text><text fill="#000000" font-family="FG Virgil" font-size="14" lengthAdjust="spacing" textLength="94" x="1187.5" y="83.1426">ItemRepository</text><path d="M1219.5,15 L1219.5,15 L1219.5651,15.067 L1221.1716,13.118 L1223.1599,11.5616 L1225.0238,9.8774 L1226.479,7.7727 L1228.5,6.25 L1228.4952,6.2158 L1230.2739,5.8122 L1232.0766,5.5812 L1233.8958,5.47 L1235.6577,4.9456 L1237.5,5 L1237.5,5 L1237.5339,5.2437 L1239.2615,4.9725 L1241.0879,5.4129 L1242.9264,5.9402 L1244.6948,5.9622 L1246.5,6.25 L1246.5211,6.2717 L1248.2901,7.9898 L1250.1553,9.8069 L1251.9741,11.5762 L1253.8815,13.4366 L1255.5,15 L1256.0965,15 L1256.1038,20.2 L1255.7263,25.4 L1255.9121,30.6 L1256.1242,35.8 L1255.5,41 L1255.5,41 L1255.2766,40.7702 L1253.9102,42.9662 L1251.8081,44.4055 L1250.2654,46.4201 L1248.1466,47.8423 L1246.5,49.75 L1246.4958,49.7198 L1244.7453,50.3265 L1242.897,50.2285 L1241.1064,50.5464 L1239.3207,50.8991 L1237.5,51 L1237.5,51 L1237.5254,51.1832 L1235.6998,50.7483 L1233.9176,50.6264 L1232.065,49.998 L1230.3174,50.1252 L1228.5,49.75 L1228.6698,49.9247 L1226.8377,48.1417 L1225.0899,46.4453 L1222.9503,44.3461 L1221.0979,42.5422 L1219.5,41 L1218.9476,41 L1219.4477,35.8 L1219.3253,30.6 L1220.1057,25.4 L1219.3447,20.2 L1219.5,15 " fill="#F8F8F8" style="stroke:#000000;stroke-width:1.5;"/><path d="M1219.5,15 L1219.5,15 L1219.5651,15.067 L1221.1716,16.618 L1223.1599,18.5616 L1225.0238,20.3774 L1226.479,21.7727 L1228.5,23.75 L1228.4952,23.7158 L1230.2739,23.8122 L1232.0766,24.0812 L1233.8958,24.47 L1235.6577,24.4456 L1237.5,25 L1237.5,25 L1237.5339,25.2437 L1239.2615,24.4725 L1241.0879,24.4129 L1242.9264,24.4402 L1244.6948,23.9622 L1246.5,23.75 L1246.5211,23.7717 L1248.2901,21.9898 L1250.1553,20.3069 L1251.9741,18.5762 L1253.8815,16.9366 L1255.5,15 " fill="none" style="stroke:#000000;stroke-width:1.5;"/><text fill="#000000" font-family="FG Virgil" font-size="14" font-style="italic" lengthAdjust="spacing" textLength="79" x="1195" y="664.3223">«repository»</text><text fill="#000000" font-family="FG Virgil" font-size="14" lengthAdjust="spacing" textLength="94" x="1187.5" y="681.9316">ItemRepository</text><path d="M1219.5,695.0078 L1219.5,695.0078 L1219.5651,695.0748 L1221.1716,693.1258 L1223.1599,691.5694 L1225.0238,689.8852 L1226.479,687.7805 L1228.5,686.2578 L1228.4952,686.2236 L1230.2739,685.8201 L1232.0766,685.589 L1233.8958,685.4778 L1235.6577,684.9535 L1237.5,685.0078 L1237.5,685.0078 L1237.5339,685.2515 L1239.2615,684.9804 L1241.0879,685.4208 L1242.9264,685.948 L1244.6948,685.9701 L1246.5,686.2578 L1246.5211,686.2796 L1248.2901,687.9976 L1250.1553,689.8147 L1251.9741,691.584 L1253.8815,693.4445 L1255.5,695.0078 L1256.0965,695.0078 L1256.1038,700.2078 L1255.7263,705.4078 L1255.9121,710.6078 L1256.1242,715.8078 L1255.5,721.0078 L1255.5,721.0078 L1255.2766,720.778 L1253.9102,722.974 L1251.8081,724.4133 L1250.2654,726.4279 L1248.1466,727.8501 L1246.5,729.7578 L1246.4958,729.7277 L1244.7453,730.3343 L1242.897,730.2364 L1241.1064,730.5542 L1239.3207,730.9069 L1237.5,731.0078 L1237.5,731.0078 L1237.5254,731.191 L1235.6998,730.7561 L1233.9176,730.6342 L1232.065,730.0058 L1230.3174,730.133 L1228.5,729.7578 L1228.6698,729.9325 L1226.8377,728.1495 L1225.0899,726.4532 L1222.9503,724.3539 L1221.0979,722.55 L1219.5,721.0078 L1218.9476,721.0078 L1219.4477,715.8078 L1219.3253,710.6078 L1220.1057,705.4078 L1219.3447,700.2078 L1219.5,695.0078 " fill="#F8F8F8" style="stroke:#000000;stroke-width:1.5;"/><path d="M1219.5,695.0078 L1219.5,695.0078 L1219.5651,695.0748 L1221.1716,696.6258 L1223.1599,698.5694 L1225.0238,700.3852 L1226.479,701.7805 L1228.5,703.7578 L1228.4952,703.7236 L1230.2739,703.8201 L1232.0766,704.089 L1233.8958,704.4778 L1235.6577,704.4535 L1237.5,705.0078 L1237.5,705.0078 L1237.5339,705.2515 L1239.2615,704.4804 L1241.0879,704.4208 L1242.9264,704.448 L1244.6948,703.9701 L1246.5,703.7578 L1246.5211,703.7796 L1248.2901,701.9976 L1250.1553,700.3147 L1251.9741,698.584 L1253.8815,696.9445 L1255.5,695.0078 " fill="none" style="stroke:#000000;stroke-width:1.5;"/><polygon fill="#FFFFFF" points="17.5,118.5703,17.5,118.6404,19.5,118.4322,21.5,118.6347,23.5,118.7035,25.5,118.3325,27.5,118.5703,27.4223,118.5703,27.0735,128.653,27.1165,138.7358,27.4318,148.8185,26.8086,158.9012,28.0536,168.9839,26.8697,179.0666,27.3022,189.1494,27.9319,199.2321,27.4142,209.3148,27.5682,219.3975,27.4681,229.4802,27.6785,239.563,27.7391,249.6457,28.0857,259.7284,28.1711,269.8111,28.1793,279.8938,27.7546,289.9766,27.9636,300.0593,28.2022,310.142,26.7788,320.2247,28.1785,330.3074,27.2035,340.3902,28.0338,350.4729,27.005,360.5556,27.4315,370.6383,28.2416,380.721,27.4513,390.8038,27.6053,400.8865,27.8386,410.9692,27.9162,421.0519,27.4961,431.1347,27.7872,441.2174,26.9276,451.3001,27.7844,461.3828,28.0482,471.4655,27.9445,481.5483,28.113,491.631,27.0169,501.7137,26.8478,511.7964,26.8786,521.8791,27.4411,531.9619,27.3035,542.0446,28.1814,552.1273,27.3253,562.21,27.1569,572.2927,27.7283,582.3755,26.8332,592.4582,26.9809,602.5409,28.149,612.6236,27.9357,622.7063,27.5,632.7891,27.5,633.0339,25.5,632.6818,23.5,632.8955,21.5,632.9859,19.5,632.6316,17.5,632.7891,17.4041,632.7891,17.626,622.7063,18.1518,612.6236,17.4958,602.5409,17.9626,592.4582,16.9462,582.3755,16.8227,572.2927,18.0036,562.21,16.7831,552.1273,18.009,542.0446,17.7066,531.9619,17.2321,521.8791,17.1462,511.7964,17.9588,501.7137,17.2007,491.631,18.0919,481.5483,16.9473,471.4655,18.1174,461.3828,17.9843,451.3001,17.745,441.2174,17.5472,431.1347,18.2266,421.0519,18.1136,410.9692,17.6693,400.8865,17.7682,390.8038,17.3697,380.721,18.2165,370.6383,17.6549,360.5556,17.6726,350.4729,16.8916,340.3902,17.0948,330.3074,18.0307,320.2247,17.9298,310.142,17.4571,300.0593,17.1778,289.9766,17.2811,279.8938,16.8138,269.8111,17.9147,259.7284,18.2396,249.6457,18.0264,239.563,18.1949,229.4802,17.3633,219.3975,17.5872,209.3148,17.1124,199.2321,17.784,189.1494,17.7468,179.0666,18.0524,168.9839,17.2703,158.9012,17.3656,148.8185,17.9435,138.7358,18.0673,128.653,17.5,118.5703" style="stroke:#383838;stroke-width:1.0;"/><polygon fill="#FFFFFF" points="247.5,118.5703,247.5,118.6404,249.5,118.4322,251.5,118.6347,253.5,118.7035,255.5,118.3325,257.5,118.5703,257.4223,118.5703,257.0735,128.653,257.1165,138.7358,257.4318,148.8185,256.8086,158.9012,258.0536,168.9839,256.8697,179.0666,257.3022,189.1494,257.9319,199.2321,257.4142,209.3148,257.5682,219.3975,257.4681,229.4802,257.6785,239.563,257.7391,249.6457,258.0857,259.7284,258.1711,269.8111,258.1793,279.8938,257.7546,289.9766,257.9636,300.0593,258.2022,310.142,256.7788,320.2247,258.1785,330.3074,257.2035,340.3902,258.0338,350.4729,257.005,360.5556,257.4315,370.6383,258.2416,380.721,257.4513,390.8038,257.6053,400.8865,257.8386,410.9692,257.9162,421.0519,257.4961,431.1347,257.7872,441.2174,256.9276,451.3001,257.7844,461.3828,258.0482,471.4655,257.9445,481.5483,258.113,491.631,257.0169,501.7137,256.8478,511.7964,256.8786,521.8791,257.4411,531.9619,257.3035,542.0446,258.1814,552.1273,257.3253,562.21,257.1569,572.2927,257.7283,582.3755,256.8332,592.4582,256.9809,602.5409,258.149,612.6236,257.9357,622.7063,257.5,632.7891,257.5,633.0339,255.5,632.6818,253.5,632.8955,251.5,632.9859,249.5,632.6316,247.5,632.7891,247.4041,632.7891,247.626,622.7063,248.1518,612.6236,247.4958,602.5409,247.9626,592.4582,246.9462,582.3755,246.8227,572.2927,248.0036,562.21,246.7831,552.1273,248.009,542.0446,247.7066,531.9619,247.2321,521.8791,247.1462,511.7964,247.9588,501.7137,247.2007,491.631,248.0919,481.5483,246.9473,471.4655,248.1174,461.3828,247.9843,451.3001,247.745,441.2174,247.5472,431.1347,248.2266,421.0519,248.1136,410.9692,247.6693,400.8865,247.7682,390.8038,247.3697,380.721,248.2165,370.6383,247.6549,360.5556,247.6726,350.4729,246.8916,340.3902,247.0948,330.3074,248.0307,320.2247,247.9298,310.142,247.4571,300.0593,247.1778,289.9766,247.2811,279.8938,246.8138,269.8111,247.9147,259.7284,248.2396,249.6457,248.0264,239.563,248.1949,229.4802,247.3633,219.3975,247.5872,209.3148,247.1124,199.2321,247.784,189.1494,247.7468,179.0666,248.0524,168.9839,247.2703,158.9012,247.3656,148.8185,247.9435,138.7358,248.0673,128.653,247.5,118.5703" style="stroke:#383838;stroke-width:1.0;"/><polygon fill="#FFFFFF" points="516.5,148.9219,516.5,148.9919,518.5,148.7838,520.5,148.9863,522.5,149.0551,524.5,148.6841,526.5,148.9219,526.4223,148.9219,526.0735,159,526.1165,169.0781,526.4318,179.1563,525.8086,189.2344,527.0536,199.3125,525.8697,209.3906,526.3022,219.4688,526.9319,229.5469,526.5,239.625,526.5,239.5964,524.5,239.6477,522.5,239.6144,520.5,239.6845,518.5,239.7047,516.5,239.625,517.0857,239.625,517.1711,229.5469,517.1793,219.4688,516.7546,209.3906,516.9636,199.3125,517.2022,189.2344,515.7788,179.1563,517.1785,169.0781,516.2035,159,516.5,148.9219" style="stroke:#383838;stroke-width:1.0;"/><polygon fill="#FFFFFF" points="516.5,330.6797,516.5,330.7497,518.5,330.5416,520.5,330.7441,522.5,330.8129,524.5,330.4419,526.5,330.6797,526.4223,330.6797,526.0735,340.7448,526.1165,350.8099,526.4318,360.875,525.8086,370.9401,527.0536,381.0052,525.8697,391.0703,526.3022,401.1354,526.9319,411.2005,526.4142,421.2656,526.5682,431.3307,526.4681,441.3958,526.6785,451.4609,526.7391,461.526,527.0857,471.5911,527.1711,481.6563,527.1793,491.7214,526.7546,501.7865,526.9636,511.8516,527.2022,521.9167,525.7788,531.9818,527.1785,542.0469,526.2035,552.112,527.0338,562.1771,526.005,572.2422,526.4315,582.3073,527.2416,592.3724,526.5,602.4375,526.5,602.4213,524.5,602.4726,522.5,602.5504,520.5,602.5762,518.5,602.4362,516.5,602.4375,516.7872,602.4375,515.9276,592.3724,516.7844,582.3073,517.0482,572.2422,516.9445,562.1771,517.113,552.112,516.0169,542.0469,515.8478,531.9818,515.8786,521.9167,516.4411,511.8516,516.3035,501.7865,517.1814,491.7214,516.3253,481.6563,516.1569,471.5911,516.7283,461.526,515.8332,451.4609,515.9809,441.3958,517.149,431.3307,516.9357,421.2656,517.2345,411.2005,516.1782,401.1354,516.8192,391.0703,517.0904,381.0052,516.0276,370.9401,516.4041,360.875,516.626,350.8099,517.1518,340.7448,516.5,330.6797" style="stroke:#383838;stroke-width:1.0;"/><polygon fill="#FFFFFF" points="690.5,179.2734,690.5,179.3435,692.5,179.1353,694.5,179.3379,696.5,179.4067,698.5,179.0356,700.5,179.2734,700.4223,179.2734,700.0735,189.332,700.1165,199.3906,700.4318,209.4492,699.8086,219.5078,701.0536,229.5664,700.5,239.625,700.5,239.4149,698.5,239.5591,696.5,239.769,694.5,239.5964,692.5,239.6477,690.5,239.625,690.4681,239.625,690.6785,229.5664,690.7391,219.5078,691.0857,209.4492,691.1711,199.3906,691.1793,189.332,690.5,179.2734" style="stroke:#383838;stroke-width:1.0;"/><polygon fill="#FFFFFF" points="789,361.0313,789,361.1013,791,360.8931,793,361.0957,795,361.1645,797,360.7935,799,361.0313,798.9223,361.0313,798.5735,371.0898,798.6165,381.1484,798.9318,391.207,798.3086,401.2656,799.5536,411.3242,798.3697,421.3828,798.8022,431.4414,799.4319,441.5,798.9142,451.5586,799.0682,461.6172,798.9681,471.6758,799.1785,481.7344,799.2391,491.793,799.5857,501.8516,799.6711,511.9102,799.6793,521.9688,799.2546,532.0273,799.4636,542.0859,799.7022,552.1445,798.2788,562.2031,799.6785,572.2617,798.7035,582.3203,799.5338,592.3789,799,602.4375,799,602.2725,797,602.4147,795,602.6847,793,602.4213,791,602.4726,789,602.4375,789.3386,602.4375,789.4162,592.3789,788.9961,582.3203,789.2872,572.2617,788.4276,562.2031,789.2844,552.1445,789.5482,542.0859,789.4445,532.0273,789.613,521.9688,788.5169,511.9102,788.3478,501.8516,788.3786,491.793,788.9411,481.7344,788.8035,471.6758,789.6814,461.6172,788.8253,451.5586,788.6569,441.5,789.2283,431.4414,788.3332,421.3828,788.4809,411.3242,789.649,401.2656,789.4357,391.207,789.7345,381.1484,788.6782,371.0898,789,361.0313" style="stroke:#383838;stroke-width:1.0;"/><polygon fill="#FFFFFF" points="949,209.625,949,209.6951,951,209.4869,953,209.6894,955,209.7582,957,209.3872,959,209.625,958.9741,209.625,958.8578,215.625,958.8722,221.625,958.9773,227.625,958.7695,233.625,959,239.625,959,239.8095,957,239.4149,955,239.5591,953,239.769,951,239.5964,949,239.625,949.0227,239.625,948.9894,233.625,949.0595,227.625,949.0797,221.625,949.1952,215.625,949,209.625" style="stroke:#383838;stroke-width:1.0;"/><polygon fill="#FFFFFF" points="949,391.3828,949,391.4529,951,391.2447,953,391.4472,955,391.516,957,391.145,959,391.3828,958.9741,391.3828,958.8578,397.3828,958.8722,403.3828,958.9773,409.3828,958.7695,415.3828,959,421.3828,959,421.5674,957,421.1727,955,421.3169,953,421.5268,951,421.3542,949,421.3828,949.0227,421.3828,948.9894,415.3828,949.0595,409.3828,949.0797,403.3828,949.1952,397.3828,949,391.3828" style="stroke:#383838;stroke-width:1.0;"/><polygon fill="#FFFFFF" points="1048.5,512.0859,1048.5,512.156,1050.5,511.9478,1052.5,512.1504,1054.5,512.2192,1056.5,511.8481,1058.5,512.0859,1058.4741,512.0859,1058.3578,518.0859,1058.3722,524.0859,1058.4773,530.0859,1058.2695,536.0859,1058.5,542.0859,1058.5,542.2705,1056.5,541.8758,1054.5,542.02,1052.5,542.2299,1050.5,542.0573,1048.5,542.0859,1048.5227,542.0859,1048.4894,536.0859,1048.5595,530.0859,1048.5797,524.0859,1048.6952,518.0859,1048.5,512.0859" style="stroke:#383838;stroke-width:1.0;"/><polygon fill="#FFFFFF" points="1232.5,451.7344,1232.5,451.8044,1234.5,451.5963,1236.5,451.7988,1238.5,451.8676,1240.5,451.4966,1242.5,451.7344,1242.4741,451.7344,1242.3578,457.7344,1242.3722,463.7344,1242.4773,469.7344,1242.2695,475.7344,1242.5,481.7344,1242.5,481.9189,1240.5,481.5243,1238.5,481.6685,1236.5,481.8784,1234.5,481.7058,1232.5,481.7344,1232.5227,481.7344,1232.4894,475.7344,1232.5595,469.7344,1232.5797,463.7344,1232.6952,457.7344,1232.5,451.7344" style="stroke:#383838;stroke-width:1.0;"/><polygon fill="#FFFFFF" points="1232.5,572.4375,1232.5,572.5076,1234.5,572.2994,1236.5,572.5019,1238.5,572.5707,1240.5,572.1997,1242.5,572.4375,1242.4741,572.4375,1242.3578,578.4375,1242.3722,584.4375,1242.4773,590.4375,1242.2695,596.4375,1242.5,602.4375,1242.5,602.622,1240.5,602.2274,1238.5,602.3716,1236.5,602.5815,1234.5,602.4089,1232.5,602.4375,1232.5227,602.4375,1232.4894,596.4375,1232.5595,590.4375,1232.5797,584.4375,1232.6952,578.4375,1232.5,572.4375" style="stroke:#383838;stroke-width:1.0;"/><polygon fill="#383838" points="235.5,114.5703,235.526,114.6354,237.4487,115.2421,239.5239,116.2301,241.5495,117.094,243.4117,117.5495,245.5,118.5703,245.4904,118.5463,243.4472,119.2383,241.4525,120.0516,239.4916,120.9492,237.4144,121.5563,235.5,122.5703,235.6305,122.7008,236.1514,121.6218,237.0534,120.9237,238.0018,120.2721,238.6798,119.3501,239.5,118.5703,239.5161,118.5864,238.6925,117.7628,237.9421,117.0124,237.1564,116.2267,236.438,115.5084,235.5,114.5703" style="stroke:#383838;stroke-width:1.0;"/><path d="M27.5,118.5703 L27.5,118.8506 L37.6905,118.0179 L47.881,118.828 L58.0714,119.1032 L68.2619,117.6191 L78.4524,118.4667 L88.6429,118.0017 L98.8333,118.059 L109.0238,118.4794 L119.2143,117.6485 L129.4048,119.3085 L139.5952,117.7299 L149.7857,118.3066 L159.9762,119.1462 L170.1667,118.4559 L180.3571,118.6613 L190.5476,118.5277 L200.7381,118.8083 L210.9286,118.8892 L221.119,119.3512 L231.3095,119.4651 L241.5,118.5703 " fill="none" style="stroke:#383838;stroke-width:1.0;stroke-dasharray:2.0,2.0;"/><text fill="#000000" font-family="FG Virgil" font-size="13" lengthAdjust="spacing" textLength="91" x="34.5" y="113.7139">Add fruit to Cart</text><polygon fill="#383838" points="504.5,144.9219,504.526,144.9869,506.4487,145.5936,508.5239,146.5817,510.5495,147.4456,512.4117,147.9011,514.5,148.9219,514.4904,148.8978,512.4472,149.5899,510.4525,150.4032,508.4916,151.3008,506.4144,151.9079,504.5,152.9219,504.6305,153.0524,505.1514,151.9733,506.0534,151.2753,507.0018,150.6237,507.6798,149.7017,508.5,148.9219,508.5161,148.938,507.6925,148.1143,506.9421,147.364,506.1564,146.5782,505.438,145.8599,504.5,144.9219" style="stroke:#383838;stroke-width:1.0;"/><path d="M257.5,148.9219 L257.5,149.2021 L267.62,148.3694 L277.74,149.1796 L287.86,149.4548 L297.98,147.9707 L308.1,148.8183 L318.22,148.3532 L328.34,148.4105 L338.46,148.831 L348.58,148 L358.7,149.6601 L368.82,148.0815 L378.94,148.6582 L389.06,149.4978 L399.18,148.8075 L409.3,149.0129 L419.42,148.8793 L429.54,149.1599 L439.66,149.2407 L449.78,149.7028 L459.9,149.8166 L470.02,149.8276 L480.14,149.2614 L490.26,149.54 L500.38,149.8582 L510.5,148.9219 " fill="none" style="stroke:#383838;stroke-width:1.0;"/><text fill="#000000" font-family="FG Virgil" font-size="13" lengthAdjust="spacing" textLength="182" x="264.5" y="144.0654">getFruit(String id, Model model)</text><polygon fill="#383838" points="678.5,175.2734,678.526,175.3385,680.4487,175.9452,682.5239,176.9333,684.5495,177.7971,686.4117,178.2526,688.5,179.2734,688.4904,179.2494,686.4472,179.9414,684.4525,180.7547,682.4916,181.6523,680.4144,182.2595,678.5,183.2734,678.6305,183.4039,679.1514,182.3249,680.0534,181.6268,681.0018,180.9752,681.6798,180.0532,682.5,179.2734,682.5161,179.2895,681.6925,178.4659,680.9421,177.7155,680.1564,176.9298,679.438,176.2115,678.5,175.2734" style="stroke:#383838;stroke-width:1.0;"/><path d="M526.5,179.2734 L526.5,179.5537 L536.375,178.721 L546.25,179.5312 L556.125,179.8063 L566,178.3222 L575.875,179.1698 L585.75,178.7048 L595.625,178.7621 L605.5,179.1826 L615.375,178.3516 L625.25,180.0116 L635.125,178.4331 L645,179.0097 L654.875,179.8494 L664.75,179.1591 L674.625,179.3644 L684.5,179.2734 " fill="none" style="stroke:#383838;stroke-width:1.0;"/><text fill="#000000" font-family="FG Virgil" font-size="13" lengthAdjust="spacing" textLength="145" x="533.5" y="174.417">getASingleFruit(String id)</text><polygon fill="#383838" points="937,205.625,937.026,205.69,938.9487,206.2968,941.0239,207.2848,943.0495,208.1487,944.9117,208.6042,947,209.625,946.9904,209.6009,944.9472,210.293,942.9525,211.1063,940.9916,212.0039,938.9144,212.611,937,213.625,937.1305,213.7555,937.6514,212.6764,938.5534,211.9784,939.5018,211.3268,940.1798,210.4048,941,209.625,941.0161,209.6411,940.1925,208.8175,939.4421,208.0671,938.6564,207.2814,937.938,206.563,937,205.625" style="stroke:#383838;stroke-width:1.0;"/><path d="M700.5,209.625 L700.5,209.9052 L710.6042,209.0726 L720.7083,209.8827 L730.8125,210.1579 L740.9167,208.6738 L751.0208,209.5214 L761.125,209.0563 L771.2292,209.1137 L781.3333,209.5341 L791.4375,208.7032 L801.5417,210.3632 L811.6458,208.7846 L821.75,209.3613 L831.8542,210.2009 L841.9583,209.5106 L852.0625,209.716 L862.1667,209.5824 L872.2708,209.863 L882.375,209.9438 L892.4792,210.4059 L902.5833,210.5197 L912.6875,210.5307 L922.7917,209.9645 L932.8958,210.2431 L943,209.625 " fill="none" style="stroke:#383838;stroke-width:1.0;"/><text fill="#000000" font-family="FG Virgil" font-size="13" lengthAdjust="spacing" textLength="102" x="707.5" y="204.7686">findById(String id)</text><polygon fill="#383838" points="38.5,265.9766,38.526,266.0416,36.4487,266.6483,34.5239,267.6364,32.5495,268.5003,30.4117,268.9558,28.5,269.9766,28.4904,269.9525,30.4472,270.6446,32.4525,271.4579,34.4916,272.3555,36.4144,272.9626,38.5,273.9766,38.6305,274.1071,37.5514,273.028,36.8534,272.3299,36.2018,271.6784,35.2798,270.7563,34.5,269.9766,34.5161,269.9926,35.2925,269.169,36.1421,268.4186,36.9564,267.6329,37.838,266.9146,38.5,265.9766" style="stroke:#383838;stroke-width:1.0;"/><path d="M32.5,269.9766 L32.5,270.2568 L42.6905,269.4241 L52.881,270.2343 L63.0714,270.5095 L73.2619,269.0254 L83.4524,269.8729 L93.6429,269.4079 L103.8333,269.4652 L114.0238,269.8857 L124.2143,269.0547 L134.4048,270.7148 L144.5952,269.1362 L154.7857,269.7129 L164.9762,270.5525 L175.1667,269.8622 L185.3571,270.0675 L195.5476,269.934 L205.7381,270.2146 L215.9286,270.2954 L226.119,270.7575 L236.3095,270.8713 L246.5,269.9766 " fill="none" style="stroke:#383838;stroke-width:1.0;stroke-dasharray:2.0,2.0;"/><text fill="#000000" font-family="FG Virgil" font-size="13" lengthAdjust="spacing" textLength="93" x="44.5" y="265.1201">Shows all Fruits</text><polygon fill="#383838" points="235.5,296.3281,235.526,296.3932,237.4487,296.9999,239.5239,297.9879,241.5495,298.8518,243.4117,299.3073,245.5,300.3281,245.4904,300.3041,243.4472,300.9961,241.4525,301.8094,239.4916,302.707,237.4144,303.3142,235.5,304.3281,235.6305,304.4586,236.1514,303.3796,237.0534,302.6815,238.0018,302.0299,238.6798,301.1079,239.5,300.3281,239.5161,300.3442,238.6925,299.5206,237.9421,298.7702,237.1564,297.9845,236.438,297.2662,235.5,296.3281" style="stroke:#383838;stroke-width:1.0;"/><path d="M27.5,300.3281 L27.5,300.6084 L37.6905,299.7757 L47.881,300.5858 L58.0714,300.861 L68.2619,299.3769 L78.4524,300.2245 L88.6429,299.7595 L98.8333,299.8168 L109.0238,300.2372 L119.2143,299.4063 L129.4048,301.0663 L139.5952,299.4878 L149.7857,300.0644 L159.9762,300.9041 L170.1667,300.2138 L180.3571,300.4191 L190.5476,300.2855 L200.7381,300.5662 L210.9286,300.647 L221.119,301.109 L231.3095,301.2229 L241.5,300.3281 " fill="none" style="stroke:#383838;stroke-width:1.0;stroke-dasharray:2.0,2.0;"/><text fill="#000000" font-family="FG Virgil" font-size="13" lengthAdjust="spacing" textLength="169" x="34.5" y="295.4717">Presses button to add to cart</text><polygon fill="#383838" points="504.5,326.6797,504.526,326.7447,506.4487,327.3515,508.5239,328.3395,510.5495,329.2034,512.4117,329.6589,514.5,330.6797,514.4904,330.6556,512.4472,331.3477,510.4525,332.161,508.4916,333.0586,506.4144,333.6657,504.5,334.6797,504.6305,334.8102,505.1514,333.7311,506.0534,333.0331,507.0018,332.3815,507.6798,331.4595,508.5,330.6797,508.5161,330.6958,507.6925,329.8722,506.9421,329.1218,506.1564,328.3361,505.438,327.6177,504.5,326.6797" style="stroke:#383838;stroke-width:1.0;"/><path d="M257.5,330.6797 L257.5,330.9599 L267.62,330.1273 L277.74,330.9374 L287.86,331.2126 L297.98,329.7285 L308.1,330.5761 L318.22,330.111 L328.34,330.1684 L338.46,330.5888 L348.58,329.7579 L358.7,331.4179 L368.82,329.8393 L378.94,330.416 L389.06,331.2556 L399.18,330.5653 L409.3,330.7707 L419.42,330.6371 L429.54,330.9177 L439.66,330.9985 L449.78,331.4606 L459.9,331.5744 L470.02,331.5854 L480.14,331.0192 L490.26,331.2978 L500.38,331.616 L510.5,330.6797 " fill="none" style="stroke:#383838;stroke-width:1.0;"/><text fill="#000000" font-family="FG Virgil" font-size="13" lengthAdjust="spacing" textLength="240" x="264.5" y="325.8232">addFruitsToCart(String id, String quantity)</text><polygon fill="#383838" points="777,357.0313,777.026,357.0963,778.9487,357.703,781.0239,358.6911,783.0495,359.5549,784.9117,360.0105,787,361.0313,786.9904,361.0072,784.9472,361.6993,782.9525,362.5126,780.9916,363.4102,778.9144,364.0173,777,365.0313,777.1305,365.1617,777.6514,364.0827,778.5534,363.3846,779.5018,362.7331,780.1798,361.811,781,361.0313,781.0161,361.0473,780.1925,360.2237,779.4421,359.4733,778.6564,358.6876,777.938,357.9693,777,357.0313" style="stroke:#383838;stroke-width:1.0;"/><path d="M526.5,361.0313 L526.5,361.3115 L536.3654,360.4788 L546.2308,361.289 L556.0962,361.5642 L565.9615,360.0801 L575.8269,360.9276 L585.6923,360.4626 L595.5577,360.5199 L605.4231,360.9404 L615.2885,360.1094 L625.1538,361.7694 L635.0192,360.1909 L644.8846,360.7676 L654.75,361.6072 L664.6154,360.9169 L674.4808,361.1222 L684.3462,360.9887 L694.2115,361.2693 L704.0769,361.3501 L713.9423,361.8122 L723.8077,361.926 L733.6731,361.9369 L743.5385,361.3708 L753.4038,361.6494 L763.2692,361.9676 L773.1346,360.0697 L783,361.0313 " fill="none" style="stroke:#383838;stroke-width:1.0;"/><text fill="#000000" font-family="FG Virgil" font-size="13" lengthAdjust="spacing" textLength="187" x="533.5" y="356.1748">addToCart(String id, int quantity)</text><polygon fill="#383838" points="937,387.3828,937.026,387.4479,938.9487,388.0546,941.0239,389.0426,943.0495,389.9065,944.9117,390.362,947,391.3828,946.9904,391.3588,944.9472,392.0508,942.9525,392.8641,940.9916,393.7617,938.9144,394.3688,937,395.3828,937.1305,395.5133,937.6514,394.4343,938.5534,393.7362,939.5018,393.0846,940.1798,392.1626,941,391.3828,941.0161,391.3989,940.1925,390.5753,939.4421,389.8249,938.6564,389.0392,937.938,388.3209,937,387.3828" style="stroke:#383838;stroke-width:1.0;"/><path d="M799,391.3828 L799,391.6631 L809.2857,390.8304 L819.5714,391.6405 L829.8571,391.9157 L840.1429,390.4316 L850.4286,391.2792 L860.7143,390.8142 L871,390.8715 L881.2857,391.2919 L891.5714,390.461 L901.8571,392.121 L912.1429,390.5424 L922.4286,391.1191 L932.7143,391.9587 L943,391.3828 " fill="none" style="stroke:#383838;stroke-width:1.0;"/><text fill="#000000" font-family="FG Virgil" font-size="13" lengthAdjust="spacing" textLength="131" x="806" y="386.5264">fruit=findById(String id)</text><polygon fill="#383838" points="1220.5,447.7344,1220.526,447.7994,1222.4487,448.4061,1224.5239,449.3942,1226.5495,450.2581,1228.4117,450.7136,1230.5,451.7344,1230.4904,451.7103,1228.4472,452.4024,1226.4525,453.2157,1224.4916,454.1133,1222.4144,454.7204,1220.5,455.7344,1220.6305,455.8649,1221.1514,454.7858,1222.0534,454.0878,1223.0018,453.4362,1223.6798,452.5142,1224.5,451.7344,1224.5161,451.7505,1223.6925,450.9268,1222.9421,450.1765,1222.1564,449.3907,1221.438,448.6724,1220.5,447.7344" style="stroke:#383838;stroke-width:1.0;"/><path d="M799,451.7344 L799,452.0146 L808.9419,451.1819 L818.8837,451.9921 L828.8256,452.2673 L838.7674,450.7832 L848.7093,451.6308 L858.6512,451.1657 L868.593,451.223 L878.5349,451.6435 L888.4767,450.8125 L898.4186,452.4726 L908.3605,450.894 L918.3023,451.4707 L928.2442,452.3103 L938.186,451.62 L948.1279,451.8254 L958.0698,451.6918 L968.0116,451.9724 L977.9535,452.0532 L987.8953,452.5153 L997.8372,452.6291 L1007.7791,452.6401 L1017.7209,452.0739 L1027.6628,452.3525 L1037.6047,452.6707 L1047.5465,450.7728 L1057.4884,452.6391 L1067.4302,451.339 L1077.3721,452.4461 L1087.314,451.0743 L1097.2558,451.643 L1107.1977,452.7232 L1117.1395,451.6694 L1127.0814,451.8748 L1137.0233,452.1859 L1146.9651,452.2894 L1156.907,451.7292 L1166.8488,452.1173 L1176.7907,450.9712 L1186.7326,452.1136 L1196.6744,452.4653 L1206.6163,452.3271 L1216.5581,452.5517 L1226.5,451.7344 " fill="none" style="stroke:#383838;stroke-width:1.0;"/><text fill="#000000" font-family="FG Virgil" font-size="13" lengthAdjust="spacing" textLength="285" x="806" y="446.8779">item=findUserFruitAndCart(String username, fruit)</text><polygon fill="#383838" points="1036.5,508.0859,1036.526,508.151,1038.4487,508.7577,1040.5239,509.7458,1042.5495,510.6096,1044.4117,511.0651,1046.5,512.0859,1046.4904,512.0619,1044.4472,512.7539,1042.4525,513.5672,1040.4916,514.4648,1038.4144,515.072,1036.5,516.0859,1036.6305,516.2164,1037.1514,515.1374,1038.0534,514.4393,1039.0018,513.7877,1039.6798,512.8657,1040.5,512.0859,1040.5161,512.102,1039.6925,511.2784,1038.9421,510.528,1038.1564,509.7423,1037.438,509.024,1036.5,508.0859" style="stroke:#383838;stroke-width:1.0;"/><path d="M799,512.0859 L799,512.3662 L809.1458,511.5335 L819.2917,512.3437 L829.4375,512.6188 L839.5833,511.1347 L849.7292,511.9823 L859.875,511.5173 L870.0208,511.5746 L880.1667,511.9951 L890.3125,511.1641 L900.4583,512.8241 L910.6042,511.2456 L920.75,511.8222 L930.8958,512.6619 L941.0417,511.9716 L951.1875,512.1769 L961.3333,512.0433 L971.4792,512.324 L981.625,512.4048 L991.7708,512.8669 L1001.9167,512.9807 L1012.0625,512.9916 L1022.2083,512.4254 L1032.3542,512.7041 L1042.5,512.0859 " fill="none" style="stroke:#383838;stroke-width:1.0;"/><text fill="#000000" font-family="FG Virgil" font-size="13" lengthAdjust="spacing" textLength="161" x="806" y="507.2295">addSeveralFruit(int quantity)</text><polygon fill="#383838" points="1220.5,568.4375,1220.526,568.5025,1222.4487,569.1093,1224.5239,570.0973,1226.5495,570.9612,1228.4117,571.4167,1230.5,572.4375,1230.4904,572.4134,1228.4472,573.1055,1226.4525,573.9188,1224.4916,574.8164,1222.4144,575.4235,1220.5,576.4375,1220.6305,576.568,1221.1514,575.4889,1222.0534,574.7909,1223.0018,574.1393,1223.6798,573.2173,1224.5,572.4375,1224.5161,572.4536,1223.6925,571.63,1222.9421,570.8796,1222.1564,570.0939,1221.438,569.3755,1220.5,568.4375" style="stroke:#383838;stroke-width:1.0;"/><path d="M799,572.4375 L799,572.7177 L808.9419,571.8851 L818.8837,572.6952 L828.8256,572.9704 L838.7674,571.4863 L848.7093,572.3339 L858.6512,571.8688 L868.593,571.9262 L878.5349,572.3466 L888.4767,571.5157 L898.4186,573.1757 L908.3605,571.5971 L918.3023,572.1738 L928.2442,573.0134 L938.186,572.3231 L948.1279,572.5285 L958.0698,572.3949 L968.0116,572.6755 L977.9535,572.7563 L987.8953,573.2184 L997.8372,573.3322 L1007.7791,573.3432 L1017.7209,572.777 L1027.6628,573.0556 L1037.6047,573.3738 L1047.5465,571.4759 L1057.4884,573.3422 L1067.4302,572.0422 L1077.3721,573.1492 L1087.314,571.7775 L1097.2558,572.3462 L1107.1977,573.4263 L1117.1395,572.3725 L1127.0814,572.5779 L1137.0233,572.889 L1146.9651,572.9925 L1156.907,572.4323 L1166.8488,572.8205 L1176.7907,571.6743 L1186.7326,572.8167 L1196.6744,573.1684 L1206.6163,573.0302 L1216.5581,573.2549 L1226.5,572.4375 " fill="none" style="stroke:#383838;stroke-width:1.0;"/><text fill="#000000" font-family="FG Virgil" font-size="13" lengthAdjust="spacing" textLength="59" x="806" y="567.5811">save(item)</text><polygon fill="#383838" points="33.5,628.7891,33.526,628.8541,31.4487,629.4608,29.5239,630.4489,27.5495,631.3128,25.4117,631.7683,23.5,632.7891,23.4904,632.765,25.4472,633.4571,27.4525,634.2704,29.4916,635.168,31.4144,635.7751,33.5,636.7891,33.6305,636.9196,32.5514,635.8405,31.8534,635.1424,31.2018,634.4909,30.2798,633.5688,29.5,632.7891,29.5161,632.8051,30.2925,631.9815,31.1421,631.2311,31.9564,630.4454,32.838,629.7271,33.5,628.7891" style="stroke:#383838;stroke-width:1.0;"/><path d="M27.5,632.7891 L27.5,633.0693 L37.6818,632.2366 L47.8636,633.0468 L58.0455,633.322 L68.2273,631.8379 L78.4091,632.6854 L88.5909,632.2204 L98.7727,632.2777 L108.9545,632.6982 L119.1364,631.8672 L129.3182,633.5273 L139.5,631.9487 L149.6818,632.5254 L159.8636,633.365 L170.0455,632.6747 L180.2273,632.88 L190.4091,632.7465 L200.5909,633.0271 L210.7727,633.1079 L220.9545,633.57 L231.1364,633.6838 L241.3182,633.6947 L251.5,632.7891 " fill="none" style="stroke:#383838;stroke-width:1.0;stroke-dasharray:2.0,2.0;"/><text fill="#000000" font-family="FG Virgil" font-size="13" lengthAdjust="spacing" textLength="196" x="39.5" y="627.9326">Fruit is added and Cart is updated</text><!--MD5=[bea6306e81e7ab0be090d8e225bbc0ed]
@startuml
skinparam handwritten true
skinparam monochrome true
skinparam packageStyle rect
skinparam defaultFontName FG Virgil
skinparam shadowing false

actor User as Actor
participant "fruits.jsp" as UI <<presentation>>
control FruitController as Controller <<application>>
participant FruitService as FS<<service>>
participant ItemService as IS<<service>>
database FruitRepository as FR <<repository>>
participant "item:Item" as Domain <<domain>>
participant "fruit:Fruit" as Fruit <<domain>>
database ItemRepository as IR <<repository>>


Actor - -> UI: Add fruit to Cart
activate Actor
activate UI
         UI -> Controller: getFruit(String id, Model model)
      activate Controller

       Controller ->FS : getASingleFruit(String id)
       activate FS
       FS -> FR : findById(String id)
       activate FR
       deactivate FR
       deactivate FS
       deactivate Controller
    UI - -> Actor: Shows all Fruits
    Actor - -> UI: Presses button to add to cart

   UI -> Controller: addFruitsToCart(String id, String quantity)
 activate Controller

        Controller -> IS : addToCart(String id, int quantity)
        activate IS

        IS -> FR :fruit=findById(String id)
        activate FR
        deactivate FR
        IS -> IR : item=findUserFruitAndCart(String username, fruit)
        activate IR
        deactivate IR
       IS -> Domain :  addSeveralFruit(int quantity)
       activate Domain
       deactivate Domain
       IS -> IR : save(item)
       activate IR
       deactivate IR
       deactivate IS
       deactivate Controller

 UI - -> Actor: Fruit is added and Cart is updated
deactivate UI
deactivate Actor
@enduml

PlantUML version 1.2021.11(Sat Oct 02 15:26:11 CEST 2021)
(GPL source distribution)
Java Runtime: OpenJDK Runtime Environment
JVM: OpenJDK 64-Bit Server VM
Default Encoding: Cp1252
Language: pt
Country: PT
--></g></svg>