<?xml version="1.0" encoding="UTF-8" standalone="no"?><svg xmlns="http://www.w3.org/2000/svg" xmlns:xlink="http://www.w3.org/1999/xlink" contentScriptType="application/ecmascript" contentStyleType="text/css" height="703px" preserveAspectRatio="none" style="width:933px;height:703px;background:#FFFFFF;" version="1.1" viewBox="0 0 933 703" width="933px" zoomAndPan="magnify"><defs/><g><polygon fill="#FFFFFF" points="240.5,118.5703,240.5,118.6404,242.5,118.4322,244.5,118.6347,246.5,118.7035,248.5,118.3325,250.5,118.5703,250.4223,118.5703,250.0735,128.5675,250.1165,138.5648,250.4318,148.562,249.8086,158.5592,251.0536,168.5565,249.8697,178.5537,250.3022,188.5509,250.9319,198.5482,250.4142,208.5454,250.5682,218.5426,250.4681,228.5399,250.6785,238.5371,250.7391,248.5343,251.0857,258.5316,251.1711,268.5288,251.1793,278.526,250.7546,288.5233,250.9636,298.5205,251.2022,308.5177,249.7788,318.515,251.1785,328.5122,250.2035,338.5094,251.0338,348.5067,250.005,358.5039,250.4315,368.5011,251.2416,378.4984,250.4513,388.4956,250.6053,398.4928,250.8386,408.4901,250.9162,418.4873,250.4961,428.4845,250.7872,438.4818,249.9276,448.479,250.7844,458.4762,251.0482,468.4735,250.9445,478.4707,251.113,488.4679,250.0169,498.4652,249.8478,508.4624,249.8786,518.4596,250.4411,528.4569,250.3035,538.4541,251.1814,548.4513,250.3253,558.4486,250.1569,568.4458,250.7283,578.443,249.8332,588.4403,250.5,598.4375,250.5,598.2645,248.5,598.6538,246.5,598.5827,244.5,598.6823,242.5,598.3302,240.5,598.4375,240.8192,598.4375,241.0904,588.4403,240.0276,578.443,240.4041,568.4458,240.626,558.4486,241.1518,548.4513,240.4958,538.4541,240.9626,528.4569,239.9462,518.4596,239.8227,508.4624,241.0036,498.4652,239.7831,488.4679,241.009,478.4707,240.7066,468.4735,240.2321,458.4762,240.1462,448.479,240.9588,438.4818,240.2007,428.4845,241.0919,418.4873,239.9473,408.4901,241.1174,398.4928,240.9843,388.4956,240.745,378.4984,240.5472,368.5011,241.2266,358.5039,241.1136,348.5067,240.6693,338.5094,240.7682,328.5122,240.3697,318.515,241.2165,308.5177,240.6549,298.5205,240.6726,288.5233,239.8916,278.526,240.0948,268.5288,241.0307,258.5316,240.9298,248.5343,240.4571,238.5371,240.1778,228.5399,240.2811,218.5426,239.8138,208.5454,240.9147,198.5482,241.2396,188.5509,241.0264,178.5537,241.1949,168.5565,240.3633,158.5592,240.5872,148.562,240.1124,138.5648,240.784,128.5675,240.5,118.5703" style="stroke:#383838;stroke-width:1.0;"/><polygon fill="#FFFFFF" points="417.5,148.9219,417.5,148.9919,419.5,148.7838,421.5,148.9863,423.5,149.0551,425.5,148.6841,427.5,148.9219,427.4223,148.9219,427.0735,158.9805,427.1165,169.0391,427.4318,179.0977,426.8086,189.1563,428.0536,199.2148,427.5,209.2734,427.5,209.0633,425.5,209.2075,423.5,209.4174,421.5,209.2448,419.5,209.2962,417.5,209.2734,417.4681,209.2734,417.6785,199.2148,417.7391,189.1563,418.0857,179.0977,418.1711,169.0391,418.1793,158.9805,417.5,148.9219" style="stroke:#383838;stroke-width:1.0;"/><polygon fill="#FFFFFF" points="417.5,343.6797,417.5,343.7497,419.5,343.5416,421.5,343.7441,423.5,343.8129,425.5,343.4419,427.5,343.6797,427.4223,343.6797,427.0735,353.7383,427.1165,363.7969,427.4318,373.8555,426.8086,383.9141,428.0536,393.9727,426.8697,404.0313,427.3022,414.0898,427.9319,424.1484,427.4142,434.207,427.5682,444.2656,427.4681,454.3242,427.5,464.3828,427.5,464.4423,425.5,464.4625,423.5,464.578,421.5,464.6065,419.5,464.6092,417.5,464.3828,417.7546,464.3828,417.9636,454.3242,418.2022,444.2656,416.7788,434.207,418.1785,424.1484,417.2035,414.0898,418.0338,404.0313,417.005,393.9727,417.4315,383.9141,418.2416,373.8555,417.4513,363.7969,417.6053,353.7383,417.5,343.6797" style="stroke:#383838;stroke-width:1.0;"/><polygon fill="#FFFFFF" points="666,434.3828,666,434.4529,668,434.2447,670,434.4472,672,434.516,674,434.145,676,434.3828,675.9741,434.3828,675.8578,440.3828,675.8722,446.3828,675.9773,452.3828,675.7695,458.3828,676,464.3828,676,464.5674,674,464.1727,672,464.3169,670,464.5268,668,464.3542,666,464.3828,666.0227,464.3828,665.9894,458.3828,666.0595,452.3828,666.0797,446.3828,666.1952,440.3828,666,434.3828" style="stroke:#383838;stroke-width:1.0;"/><polygon fill="#FFFFFF" points="765.5,179.2734,765.5,179.3435,767.5,179.1353,769.5,179.3379,771.5,179.4067,773.5,179.0356,775.5,179.2734,775.4741,179.2734,775.3578,185.2734,775.3722,191.2734,775.4773,197.2734,775.2695,203.2734,775.5,209.2734,775.5,209.458,773.5,209.0633,771.5,209.2075,769.5,209.4174,767.5,209.2448,765.5,209.2734,765.5227,209.2734,765.4894,203.2734,765.5595,197.2734,765.5797,191.2734,765.6952,185.2734,765.5,179.2734" style="stroke:#383838;stroke-width:1.0;"/><polygon fill="#FFFFFF" points="877,374.0313,877,374.1013,879,373.8931,881,374.0957,883,374.1645,885,373.7935,887,374.0313,886.9741,374.0313,886.8578,380.0313,886.8722,386.0313,886.9773,392.0313,886.7695,398.0313,887,404.0313,887,404.2158,885,403.8212,883,403.9653,881,404.1752,879,404.0027,877,404.0313,877.0227,404.0313,876.9894,398.0313,877.0595,392.0313,877.0797,386.0313,877.1952,380.0313,877,374.0313" style="stroke:#383838;stroke-width:1.0;"/><polygon fill="#FFFFFF" points="877,494.7344,877,494.8044,879,494.5963,881,494.7988,883,494.8676,885,494.4966,887,494.7344,886.9741,494.7344,886.8578,500.7344,886.8722,506.7344,886.9773,512.7344,886.7695,518.7344,887,524.7344,887,524.9189,885,524.5243,883,524.6685,881,524.8784,879,524.7058,877,524.7344,877.0227,524.7344,876.9894,518.7344,877.0595,512.7344,877.0797,506.7344,877.1952,500.7344,877,494.7344" style="stroke:#383838;stroke-width:1.0;"/><path d="M22,86.2188 L22.2802,86.2188 L21.4476,96.2229 L22.2577,106.227 L22.5329,116.2311 L21.0488,126.2353 L21.8964,136.2394 L21.4313,146.2435 L21.4887,156.2476 L21.9091,166.2518 L21.0782,176.2559 L22.7382,186.26 L21.1596,196.2642 L21.7363,206.2683 L22.5759,216.2724 L21.8856,226.2765 L22.091,236.2807 L21.9574,246.2848 L22.238,256.2889 L22.3188,266.293 L22.7809,276.2972 L22.8947,286.3013 L22.9057,296.3054 L22.3395,306.3096 L22.6181,316.3137 L22.9363,326.3178 L21.0384,336.3219 L22.9047,346.3261 L21.6047,356.3302 L22.7117,366.3343 L21.34,376.3384 L21.9087,386.3426 L22.9888,396.3467 L21.935,406.3508 L22.1404,416.355 L22.4515,426.3591 L22.555,436.3632 L21.9948,446.3673 L22.383,456.3715 L21.2368,466.3756 L22.3792,476.3797 L22.7309,486.3838 L22.5927,496.388 L22.8174,506.3921 L21.3559,516.3962 L21.1304,526.4004 L21.1715,536.4045 L21.9215,546.4086 L21.738,556.4127 L22.9085,566.4169 L21.7671,576.421 L21.5426,586.4251 L22.3044,596.4292 L21.1109,606.4334 L22,616.4375 " fill="none" style="stroke:#383838;stroke-width:1.0;stroke-dasharray:5.0,5.0;"/><path d="M245,86.2188 L245.2802,86.2188 L244.4476,96.2229 L245.2577,106.227 L245.5329,116.2311 L244.0488,126.2353 L244.8964,136.2394 L244.4313,146.2435 L244.4887,156.2476 L244.9091,166.2518 L244.0782,176.2559 L245.7382,186.26 L244.1596,196.2642 L244.7363,206.2683 L245.5759,216.2724 L244.8856,226.2765 L245.091,236.2807 L244.9574,246.2848 L245.238,256.2889 L245.3188,266.293 L245.7809,276.2972 L245.8947,286.3013 L245.9057,296.3054 L245.3395,306.3096 L245.6181,316.3137 L245.9363,326.3178 L244.0384,336.3219 L245.9047,346.3261 L244.6047,356.3302 L245.7117,366.3343 L244.34,376.3384 L244.9087,386.3426 L245.9888,396.3467 L244.935,406.3508 L245.1404,416.355 L245.4515,426.3591 L245.555,436.3632 L244.9948,446.3673 L245.383,456.3715 L244.2368,466.3756 L245.3792,476.3797 L245.7309,486.3838 L245.5927,496.388 L245.8174,506.3921 L244.3559,516.3962 L244.1304,526.4004 L244.1715,536.4045 L244.9215,546.4086 L244.738,556.4127 L245.9085,566.4169 L244.7671,576.421 L244.5426,586.4251 L245.3044,596.4292 L244.1109,606.4334 L245,616.4375 " fill="none" style="stroke:#383838;stroke-width:1.0;stroke-dasharray:5.0,5.0;"/><path d="M422,86.2188 L422.2802,86.2188 L421.4476,96.2229 L422.2577,106.227 L422.5329,116.2311 L421.0488,126.2353 L421.8964,136.2394 L421.4313,146.2435 L421.4887,156.2476 L421.9091,166.2518 L421.0782,176.2559 L422.7382,186.26 L421.1596,196.2642 L421.7363,206.2683 L422.5759,216.2724 L421.8856,226.2765 L422.091,236.2807 L421.9574,246.2848 L422.238,256.2889 L422.3188,266.293 L422.7809,276.2972 L422.8947,286.3013 L422.9057,296.3054 L422.3395,306.3096 L422.6181,316.3137 L422.9363,326.3178 L421.0384,336.3219 L422.9047,346.3261 L421.6047,356.3302 L422.7117,366.3343 L421.34,376.3384 L421.9087,386.3426 L422.9888,396.3467 L421.935,406.3508 L422.1404,416.355 L422.4515,426.3591 L422.555,436.3632 L421.9948,446.3673 L422.383,456.3715 L421.2368,466.3756 L422.3792,476.3797 L422.7309,486.3838 L422.5927,496.388 L422.8174,506.3921 L421.3559,516.3962 L421.1304,526.4004 L421.1715,536.4045 L421.9215,546.4086 L421.738,556.4127 L422.9085,566.4169 L421.7671,576.421 L421.5426,586.4251 L422.3044,596.4292 L421.1109,606.4334 L422,616.4375 " fill="none" style="stroke:#383838;stroke-width:1.0;stroke-dasharray:5.0,5.0;"/><path d="M570,86.2188 L570.2802,86.2188 L569.4476,96.2229 L570.2577,106.227 L570.5329,116.2311 L569.0488,126.2353 L569.8964,136.2394 L569.4313,146.2435 L569.4887,156.2476 L569.9091,166.2518 L569.0782,176.2559 L570.7382,186.26 L569.1596,196.2642 L569.7363,206.2683 L570.5759,216.2724 L569.8856,226.2765 L570.091,236.2807 L569.9574,246.2848 L570.238,256.2889 L570.3188,266.293 L570.7809,276.2972 L570.8947,286.3013 L570.9057,296.3054 L570.3395,306.3096 L570.6181,316.3137 L570.9363,326.3178 L569.0384,336.3219 L570.9047,346.3261 L569.6047,356.3302 L570.7117,366.3343 L569.34,376.3384 L569.9087,386.3426 L570.9888,396.3467 L569.935,406.3508 L570.1404,416.355 L570.4515,426.3591 L570.555,436.3632 L569.9948,446.3673 L570.383,456.3715 L569.2368,466.3756 L570.3792,476.3797 L570.7309,486.3838 L570.5927,496.388 L570.8174,506.3921 L569.3559,516.3962 L569.1304,526.4004 L569.1715,536.4045 L569.9215,546.4086 L569.738,556.4127 L570.9085,566.4169 L569.7671,576.421 L569.5426,586.4251 L570.3044,596.4292 L569.1109,606.4334 L570,616.4375 " fill="none" style="stroke:#383838;stroke-width:1.0;stroke-dasharray:5.0,5.0;"/><path d="M671,86.2188 L671.2802,86.2188 L670.4476,96.2229 L671.2577,106.227 L671.5329,116.2311 L670.0488,126.2353 L670.8964,136.2394 L670.4313,146.2435 L670.4887,156.2476 L670.9091,166.2518 L670.0782,176.2559 L671.7382,186.26 L670.1596,196.2642 L670.7363,206.2683 L671.5759,216.2724 L670.8856,226.2765 L671.091,236.2807 L670.9574,246.2848 L671.238,256.2889 L671.3188,266.293 L671.7809,276.2972 L671.8947,286.3013 L671.9057,296.3054 L671.3395,306.3096 L671.6181,316.3137 L671.9363,326.3178 L670.0384,336.3219 L671.9047,346.3261 L670.6047,356.3302 L671.7117,366.3343 L670.34,376.3384 L670.9087,386.3426 L671.9888,396.3467 L670.935,406.3508 L671.1404,416.355 L671.4515,426.3591 L671.555,436.3632 L670.9948,446.3673 L671.383,456.3715 L670.2368,466.3756 L671.3792,476.3797 L671.7309,486.3838 L671.5927,496.388 L671.8174,506.3921 L670.3559,516.3962 L670.1304,526.4004 L670.1715,536.4045 L670.9215,546.4086 L670.738,556.4127 L671.9085,566.4169 L670.7671,576.421 L670.5426,586.4251 L671.3044,596.4292 L670.1109,606.4334 L671,616.4375 " fill="none" style="stroke:#383838;stroke-width:1.0;stroke-dasharray:5.0,5.0;"/><path d="M770,86.2188 L770.2802,86.2188 L769.4476,96.2229 L770.2577,106.227 L770.5329,116.2311 L769.0488,126.2353 L769.8964,136.2394 L769.4313,146.2435 L769.4887,156.2476 L769.9091,166.2518 L769.0782,176.2559 L770.7382,186.26 L769.1596,196.2642 L769.7363,206.2683 L770.5759,216.2724 L769.8856,226.2765 L770.091,236.2807 L769.9574,246.2848 L770.238,256.2889 L770.3188,266.293 L770.7809,276.2972 L770.8947,286.3013 L770.9057,296.3054 L770.3395,306.3096 L770.6181,316.3137 L770.9363,326.3178 L769.0384,336.3219 L770.9047,346.3261 L769.6047,356.3302 L770.7117,366.3343 L769.34,376.3384 L769.9087,386.3426 L770.9888,396.3467 L769.935,406.3508 L770.1404,416.355 L770.4515,426.3591 L770.555,436.3632 L769.9948,446.3673 L770.383,456.3715 L769.2368,466.3756 L770.3792,476.3797 L770.7309,486.3838 L770.5927,496.388 L770.8174,506.3921 L769.3559,516.3962 L769.1304,526.4004 L769.1715,536.4045 L769.9215,546.4086 L769.738,556.4127 L770.9085,566.4169 L769.7671,576.421 L769.5426,586.4251 L770.3044,596.4292 L769.1109,606.4334 L770,616.4375 " fill="none" style="stroke:#383838;stroke-width:1.0;stroke-dasharray:5.0,5.0;"/><path d="M882,86.2188 L882.2802,86.2188 L881.4476,96.2229 L882.2577,106.227 L882.5329,116.2311 L881.0488,126.2353 L881.8964,136.2394 L881.4313,146.2435 L881.4887,156.2476 L881.9091,166.2518 L881.0782,176.2559 L882.7382,186.26 L881.1596,196.2642 L881.7363,206.2683 L882.5759,216.2724 L881.8856,226.2765 L882.091,236.2807 L881.9574,246.2848 L882.238,256.2889 L882.3188,266.293 L882.7809,276.2972 L882.8947,286.3013 L882.9057,296.3054 L882.3395,306.3096 L882.6181,316.3137 L882.9363,326.3178 L881.0384,336.3219 L882.9047,346.3261 L881.6047,356.3302 L882.7117,366.3343 L881.34,376.3384 L881.9087,386.3426 L882.9888,396.3467 L881.935,406.3508 L882.1404,416.355 L882.4515,426.3591 L882.555,436.3632 L881.9948,446.3673 L882.383,456.3715 L881.2368,466.3756 L882.3792,476.3797 L882.7309,486.3838 L882.5927,496.388 L882.8174,506.3921 L881.3559,516.3962 L881.1304,526.4004 L881.1715,536.4045 L881.9215,546.4086 L881.738,556.4127 L882.9085,566.4169 L881.7671,576.421 L881.5426,586.4251 L882.3044,596.4292 L881.1109,606.4334 L882,616.4375 " fill="none" style="stroke:#383838;stroke-width:1.0;stroke-dasharray:5.0,5.0;"/><text fill="#000000" font-family="FG Virgil" font-size="14" lengthAdjust="spacing" textLength="29" x="5" y="83.1426">User</text><polygon fill="#F8F8F8" points="30.5442,17.5553,29.3715,19.1576,27.9845,21.5044,26.0008,23.086,23.9163,23.9509,22.2542,24.026,20.118,22.9443,18.1023,22.2377,16.5724,20.803,15.7699,19.1605,15.2939,17.8527,14.8277,16.1444,14.0709,14.6744,14.6525,13.2392,15.162,11.667,17.074,10.4235,18.4192,8.8102,20.0843,8.2744,22.0637,7.813,24.6021,8.0872,25.9924,8.7429,27.6089,9.0401,29.5743,11.0537,30.2595,13.1795,30.5571,14.63,30.22,17.0202" style="stroke:#383838;stroke-width:2.0;"/><path d="M22.5,23.6094 L22.6868,23.6094 L22.1317,29.0094 L22.6718,34.4094 L22.8553,39.8094 L21.8659,45.2094 L22.5,50.6094 M9.5,31.6094 L9.5,31.5403 L14.7,31.2303 L19.9,31.2685 L25.1,31.5488 L30.3,30.9948 L35.5,31.6094 M22.5,50.6094 L22.8719,50.9317 L19.4766,53.2425 L17.1672,56.4942 L14.9901,59.8608 L12.0424,62.5594 L9.5,65.6094 M22.5,50.6094 L22.5458,50.6491 L25.0785,53.5908 L27.8199,56.7133 L30.4606,59.7486 L33.2934,62.9503 L35.5,65.6094 " fill="none" style="stroke:#383838;stroke-width:2.0;"/><text fill="#000000" font-family="FG Virgil" font-size="14" lengthAdjust="spacing" textLength="29" x="5" y="629.9707">User</text><polygon fill="#F8F8F8" points="30.5442,644.9928,29.3715,646.5951,27.9845,648.9419,26.0008,650.5235,23.9163,651.3884,22.2542,651.4635,20.118,650.3818,18.1023,649.6752,16.5724,648.2405,15.7699,646.598,15.2939,645.2902,14.8277,643.5819,14.0709,642.1119,14.6525,640.6767,15.162,639.1045,17.074,637.861,18.4192,636.2477,20.0843,635.7119,22.0637,635.2505,24.6021,635.5247,25.9924,636.1804,27.6089,636.4776,29.5743,638.4912,30.2595,640.617,30.5571,642.0675,30.22,644.4577" style="stroke:#383838;stroke-width:2.0;"/><path d="M22.5,651.0469 L22.6868,651.0469 L22.1317,656.4469 L22.6718,661.8469 L22.8553,667.2469 L21.8659,672.6469 L22.5,678.0469 M9.5,659.0469 L9.5,658.9778 L14.7,658.6678 L19.9,658.706 L25.1,658.9863 L30.3,658.4323 L35.5,659.0469 M22.5,678.0469 L22.8719,678.3692 L19.4766,680.68 L17.1672,683.9317 L14.9901,687.2983 L12.0424,689.9969 L9.5,693.0469 M22.5,678.0469 L22.5458,678.0866 L25.0785,681.0283 L27.8199,684.1508 L30.4606,687.1861 L33.2934,690.3878 L35.5,693.0469 " fill="none" style="stroke:#383838;stroke-width:2.0;"/><polygon fill="#F8F8F8" points="191,36,191,36.2102,200.9091,35.5857,210.8182,36.1933,220.7273,36.3997,230.6364,35.2866,240.5455,35.9223,250.4545,35.5735,260.3636,35.6165,270.2727,35.9318,280.1818,35.3086,290.0909,36.5536,300,36,299.3697,36,299.8022,45.8438,300.4319,55.6875,299.9142,65.5313,300.0682,75.375,300,85.2188,300,85.1868,290.0909,85.3973,280.1818,85.4579,270.2727,85.8044,260.3636,85.8898,250.4545,85.898,240.5455,85.4734,230.6364,85.6823,220.7273,85.921,210.8182,84.4976,200.9091,85.8973,191,85.2188,190.7035,85.2188,191.5338,75.375,190.505,65.5313,190.9315,55.6875,191.7416,45.8438,191,36" style="stroke:#383838;stroke-width:1.5;"/><text fill="#000000" font-family="FG Virgil" font-size="14" font-style="italic" lengthAdjust="spacing" textLength="95" x="198" y="57.5332">«presentation»</text><text fill="#000000" font-family="FG Virgil" font-size="14" lengthAdjust="spacing" textLength="28" x="231.5" y="75.1426">/fruit</text><polygon fill="#F8F8F8" points="191,615.4375,191,615.6477,200.9091,615.0232,210.8182,615.6308,220.7273,615.8372,230.6364,614.7241,240.5455,615.3598,250.4545,615.011,260.3636,615.054,270.2727,615.3693,280.1818,614.7461,290.0909,615.9911,300,615.4375,299.3697,615.4375,299.8022,625.2813,300.4319,635.125,299.9142,644.9688,300.0682,654.8125,300,664.6563,300,664.6243,290.0909,664.8348,280.1818,664.8954,270.2727,665.2419,260.3636,665.3273,250.4545,665.3355,240.5455,664.9109,230.6364,665.1198,220.7273,665.3585,210.8182,663.9351,200.9091,665.3348,191,664.6563,190.7035,664.6563,191.5338,654.8125,190.505,644.9688,190.9315,635.125,191.7416,625.2813,191,615.4375" style="stroke:#383838;stroke-width:1.5;"/><text fill="#000000" font-family="FG Virgil" font-size="14" font-style="italic" lengthAdjust="spacing" textLength="95" x="198" y="636.9707">«presentation»</text><text fill="#000000" font-family="FG Virgil" font-size="14" lengthAdjust="spacing" textLength="28" x="231.5" y="654.5801">/fruit</text><text fill="#000000" font-family="FG Virgil" font-size="14" font-style="italic" lengthAdjust="spacing" textLength="84" x="377.5" y="65.5332">«application»</text><text fill="#000000" font-family="FG Virgil" font-size="14" lengthAdjust="spacing" textLength="165" x="337" y="83.1426">AddFruitSpecificController</text><polygon fill="#F8F8F8" points="434.5663,37.9189,432.8073,40.3223,430.7268,43.8426,427.7512,46.215,424.6244,47.5123,422.1313,47.6249,418.9269,46.0024,415.9035,44.9425,413.6086,42.7904,412.4048,40.3267,411.6909,38.3649,410.9915,35.8026,409.8564,33.5976,410.7287,31.4447,411.4929,29.0864,414.3611,27.2212,416.3789,24.8012,418.8764,23.9976,421.8456,23.3055,425.6532,23.7167,427.7386,24.7002,430.1633,25.146,433.1115,28.1665,434.1392,31.3552,434.5857,33.5309,434.08,37.1162" style="stroke:#383838;stroke-width:2.0;"/><polygon fill="#383838" points="418.5,23,418.5449,23.0538,419.6116,21.8939,420.9412,21.0495,422.1853,20.1023,423.1478,18.8173,424.5,18,424.4759,17.9904,423.968,18.9472,423.5813,19.9525,423.2789,20.9916,422.686,21.9144,422.5,23,422.6713,23.0685,422.7049,23.922,423.2388,24.9755,423.8337,26.0535,424.0735,26.9894,424.5,28,424.5146,28.0175,423.2932,26.9918,422.1381,26.0457,420.951,25.0612,419.825,24.15,418.5,23" style="stroke:#383838;stroke-width:1.0;"/><text fill="#000000" font-family="FG Virgil" font-size="14" font-style="italic" lengthAdjust="spacing" textLength="84" x="377.5" y="629.9707">«application»</text><text fill="#000000" font-family="FG Virgil" font-size="14" lengthAdjust="spacing" textLength="165" x="337" y="647.5801">AddFruitSpecificController</text><polygon fill="#F8F8F8" points="434.5663,669.5751,432.8073,671.9786,430.7268,675.4988,427.7512,677.8712,424.6244,679.1686,422.1313,679.2811,418.9269,677.6587,415.9035,676.5987,413.6086,674.4466,412.4048,671.9829,411.6909,670.0212,410.9915,667.4588,409.8564,665.2539,410.7287,663.101,411.4929,660.7427,414.3611,658.8775,416.3789,656.4574,418.8764,655.6538,421.8456,654.9618,425.6532,655.3729,427.7386,656.3565,430.1633,656.8023,433.1115,659.8228,434.1392,663.0115,434.5857,665.1872,434.08,668.7725" style="stroke:#383838;stroke-width:2.0;"/><polygon fill="#383838" points="418.5,654.6563,418.5449,654.7101,419.6116,653.5502,420.9412,652.7057,422.1853,651.7586,423.1478,650.4736,424.5,649.6563,424.4759,649.6466,423.968,650.6035,423.5813,651.6088,423.2789,652.6478,422.686,653.5707,422.5,654.6563,422.6713,654.7248,422.7049,655.5782,423.2388,656.6318,423.8337,657.7097,424.0735,658.6456,424.5,659.6563,424.5146,659.6737,423.2932,658.6481,422.1381,657.702,420.951,656.7175,419.825,655.8062,418.5,654.6563" style="stroke:#383838;stroke-width:1.0;"/><polygon fill="#F8F8F8" points="518,36,518,36.2102,527.5455,35.5857,537.0909,36.1933,546.6364,36.3997,556.1818,35.2866,565.7273,35.9223,575.2727,35.5735,584.8182,35.6165,594.3636,35.9318,603.9091,35.3086,613.4545,36.5536,623,36,622.3697,36,622.8022,45.8438,623.4319,55.6875,622.9142,65.5313,623.0682,75.375,623,85.2188,623,85.1868,613.4545,85.3973,603.9091,85.4579,594.3636,85.8044,584.8182,85.8898,575.2727,85.898,565.7273,85.4734,556.1818,85.6823,546.6364,85.921,537.0909,84.4976,527.5455,85.8973,518,85.2188,517.7035,85.2188,518.5338,75.375,517.505,65.5313,517.9315,55.6875,518.7416,45.8438,518,36" style="stroke:#383838;stroke-width:1.5;"/><text fill="#000000" font-family="FG Virgil" font-size="14" font-style="italic" lengthAdjust="spacing" textLength="91" x="525" y="57.5332">«value object»</text><text fill="#000000" font-family="FG Virgil" font-size="14" lengthAdjust="spacing" textLength="79" x="531" y="75.1426">UserSession</text><polygon fill="#F8F8F8" points="518,615.4375,518,615.6477,527.5455,615.0232,537.0909,615.6308,546.6364,615.8372,556.1818,614.7241,565.7273,615.3598,575.2727,615.011,584.8182,615.054,594.3636,615.3693,603.9091,614.7461,613.4545,615.9911,623,615.4375,622.3697,615.4375,622.8022,625.2813,623.4319,635.125,622.9142,644.9688,623.0682,654.8125,623,664.6563,623,664.6243,613.4545,664.8348,603.9091,664.8954,594.3636,665.2419,584.8182,665.3273,575.2727,665.3355,565.7273,664.9109,556.1818,665.1198,546.6364,665.3585,537.0909,663.9351,527.5455,665.3348,518,664.6563,517.7035,664.6563,518.5338,654.8125,517.505,644.9688,517.9315,635.125,518.7416,625.2813,518,615.4375" style="stroke:#383838;stroke-width:1.5;"/><text fill="#000000" font-family="FG Virgil" font-size="14" font-style="italic" lengthAdjust="spacing" textLength="91" x="525" y="636.9707">«value object»</text><text fill="#000000" font-family="FG Virgil" font-size="14" lengthAdjust="spacing" textLength="79" x="531" y="654.5801">UserSession</text><polygon fill="#F8F8F8" points="633,36,633,36.2102,642.5,35.5857,652,36.1933,661.5,36.3997,671,35.2866,680.5,35.9223,690,35.5735,699.5,35.6165,709,36,708.9318,36,708.3086,45.8438,709.5536,55.6875,708.3697,65.5313,708.8022,75.375,709,85.2188,709,85.6507,699.5,85.133,690,85.287,680.5,85.1868,671,85.3973,661.5,85.4579,652,85.8044,642.5,85.8898,633,85.2188,633.6793,85.2188,633.2546,75.375,633.4636,65.5313,633.7022,55.6875,632.2788,45.8438,633,36" style="stroke:#383838;stroke-width:1.5;"/><text fill="#000000" font-family="FG Virgil" font-size="14" font-style="italic" lengthAdjust="spacing" textLength="62" x="640" y="57.5332">«domain»</text><text fill="#000000" font-family="FG Virgil" font-size="14" lengthAdjust="spacing" textLength="54" x="644" y="75.1426">kart:Kart</text><polygon fill="#F8F8F8" points="633,615.4375,633,615.6477,642.5,615.0232,652,615.6308,661.5,615.8372,671,614.7241,680.5,615.3598,690,615.011,699.5,615.054,709,615.4375,708.9318,615.4375,708.3086,625.2813,709.5536,635.125,708.3697,644.9688,708.8022,654.8125,709,664.6563,709,665.0882,699.5,664.5705,690,664.7245,680.5,664.6243,671,664.8348,661.5,664.8954,652,665.2419,642.5,665.3273,633,664.6563,633.6793,664.6563,633.2546,654.8125,633.4636,644.9688,633.7022,635.125,632.2788,625.2813,633,615.4375" style="stroke:#383838;stroke-width:1.5;"/><text fill="#000000" font-family="FG Virgil" font-size="14" font-style="italic" lengthAdjust="spacing" textLength="62" x="640" y="636.9707">«domain»</text><text fill="#000000" font-family="FG Virgil" font-size="14" lengthAdjust="spacing" textLength="54" x="644" y="654.5801">kart:Kart</text><text fill="#000000" font-family="FG Virgil" font-size="14" font-style="italic" lengthAdjust="spacing" textLength="79" x="728" y="65.5332">«repository»</text><text fill="#000000" font-family="FG Virgil" font-size="14" lengthAdjust="spacing" textLength="97" x="719" y="83.1426">FruitRepository</text><path d="M752.5,15 L752.5,15 L752.5651,15.067 L754.1716,13.118 L756.1599,11.5616 L758.0238,9.8774 L759.479,7.7727 L761.5,6.25 L761.4952,6.2158 L763.2739,5.8122 L765.0766,5.5812 L766.8958,5.47 L768.6577,4.9456 L770.5,5 L770.5,5 L770.5339,5.2437 L772.2615,4.9725 L774.0879,5.4129 L775.9264,5.9402 L777.6948,5.9622 L779.5,6.25 L779.5211,6.2717 L781.2901,7.9898 L783.1553,9.8069 L784.9741,11.5762 L786.8815,13.4366 L788.5,15 L789.0965,15 L789.1038,20.2 L788.7263,25.4 L788.9121,30.6 L789.1242,35.8 L788.5,41 L788.5,41 L788.2766,40.7702 L786.9102,42.9662 L784.8081,44.4055 L783.2654,46.4201 L781.1466,47.8423 L779.5,49.75 L779.4958,49.7198 L777.7453,50.3265 L775.897,50.2285 L774.1064,50.5464 L772.3207,50.8991 L770.5,51 L770.5,51 L770.5254,51.1832 L768.6998,50.7483 L766.9176,50.6264 L765.065,49.998 L763.3174,50.1252 L761.5,49.75 L761.6698,49.9247 L759.8377,48.1417 L758.0899,46.4453 L755.9503,44.3461 L754.0979,42.5422 L752.5,41 L751.9476,41 L752.4477,35.8 L752.3253,30.6 L753.1057,25.4 L752.3447,20.2 L752.5,15 " fill="#F8F8F8" style="stroke:#000000;stroke-width:1.5;"/><path d="M752.5,15 L752.5,15 L752.5651,15.067 L754.1716,16.618 L756.1599,18.5616 L758.0238,20.3774 L759.479,21.7727 L761.5,23.75 L761.4952,23.7158 L763.2739,23.8122 L765.0766,24.0812 L766.8958,24.47 L768.6577,24.4456 L770.5,25 L770.5,25 L770.5339,25.2437 L772.2615,24.4725 L774.0879,24.4129 L775.9264,24.4402 L777.6948,23.9622 L779.5,23.75 L779.5211,23.7717 L781.2901,21.9898 L783.1553,20.3069 L784.9741,18.5762 L786.8815,16.9366 L788.5,15 " fill="none" style="stroke:#000000;stroke-width:1.5;"/><text fill="#000000" font-family="FG Virgil" font-size="14" font-style="italic" lengthAdjust="spacing" textLength="79" x="728" y="629.9707">«repository»</text><text fill="#000000" font-family="FG Virgil" font-size="14" lengthAdjust="spacing" textLength="97" x="719" y="647.5801">FruitRepository</text><path d="M752.5,660.6563 L752.5,660.6563 L752.5651,660.7232 L754.1716,658.7742 L756.1599,657.2178 L758.0238,655.5336 L759.479,653.4289 L761.5,651.9063 L761.4952,651.872 L763.2739,651.4685 L765.0766,651.2374 L766.8958,651.1262 L768.6577,650.6019 L770.5,650.6563 L770.5,650.6563 L770.5339,650.9 L772.2615,650.6288 L774.0879,651.0692 L775.9264,651.5964 L777.6948,651.6185 L779.5,651.9063 L779.5211,651.928 L781.2901,653.6461 L783.1553,655.4631 L784.9741,657.2325 L786.8815,659.0929 L788.5,660.6563 L789.0965,660.6563 L789.1038,665.8563 L788.7263,671.0563 L788.9121,676.2563 L789.1242,681.4563 L788.5,686.6563 L788.5,686.6563 L788.2766,686.4264 L786.9102,688.6225 L784.8081,690.0618 L783.2654,692.0764 L781.1466,693.4985 L779.5,695.4063 L779.4958,695.3761 L777.7453,695.9827 L775.897,695.8848 L774.1064,696.2026 L772.3207,696.5553 L770.5,696.6563 L770.5,696.6563 L770.5254,696.8395 L768.6998,696.4045 L766.9176,696.2827 L765.065,695.6543 L763.3174,695.7814 L761.5,695.4063 L761.6698,695.5809 L759.8377,693.7979 L758.0899,692.1016 L755.9503,690.0023 L754.0979,688.1984 L752.5,686.6563 L751.9476,686.6563 L752.4477,681.4563 L752.3253,676.2563 L753.1057,671.0563 L752.3447,665.8563 L752.5,660.6563 " fill="#F8F8F8" style="stroke:#000000;stroke-width:1.5;"/><path d="M752.5,660.6563 L752.5,660.6563 L752.5651,660.7232 L754.1716,662.2742 L756.1599,664.2178 L758.0238,666.0336 L759.479,667.4289 L761.5,669.4063 L761.4952,669.372 L763.2739,669.4685 L765.0766,669.7374 L766.8958,670.1262 L768.6577,670.1019 L770.5,670.6563 L770.5,670.6563 L770.5339,670.9 L772.2615,670.1288 L774.0879,670.0692 L775.9264,670.0964 L777.6948,669.6185 L779.5,669.4063 L779.5211,669.428 L781.2901,667.6461 L783.1553,665.9631 L784.9741,664.2325 L786.8815,662.5929 L788.5,660.6563 " fill="none" style="stroke:#000000;stroke-width:1.5;"/><text fill="#000000" font-family="FG Virgil" font-size="14" font-style="italic" lengthAdjust="spacing" textLength="79" x="839.5" y="65.5332">«repository»</text><text fill="#000000" font-family="FG Virgil" font-size="14" lengthAdjust="spacing" textLength="94" x="832" y="83.1426">KartRepository</text><path d="M864,15 L864,15 L864.0651,15.067 L865.6716,13.118 L867.6599,11.5616 L869.5238,9.8774 L870.979,7.7727 L873,6.25 L872.9952,6.2158 L874.7739,5.8122 L876.5766,5.5812 L878.3958,5.47 L880.1577,4.9456 L882,5 L882,5 L882.0339,5.2437 L883.7615,4.9725 L885.5879,5.4129 L887.4264,5.9402 L889.1948,5.9622 L891,6.25 L891.0211,6.2717 L892.7901,7.9898 L894.6553,9.8069 L896.4741,11.5762 L898.3815,13.4366 L900,15 L900.5965,15 L900.6038,20.2 L900.2263,25.4 L900.4121,30.6 L900.6242,35.8 L900,41 L900,41 L899.7766,40.7702 L898.4102,42.9662 L896.3081,44.4055 L894.7654,46.4201 L892.6466,47.8423 L891,49.75 L890.9958,49.7198 L889.2453,50.3265 L887.397,50.2285 L885.6064,50.5464 L883.8207,50.8991 L882,51 L882,51 L882.0254,51.1832 L880.1998,50.7483 L878.4176,50.6264 L876.565,49.998 L874.8174,50.1252 L873,49.75 L873.1698,49.9247 L871.3377,48.1417 L869.5899,46.4453 L867.4503,44.3461 L865.5979,42.5422 L864,41 L863.4476,41 L863.9477,35.8 L863.8253,30.6 L864.6057,25.4 L863.8447,20.2 L864,15 " fill="#F8F8F8" style="stroke:#000000;stroke-width:1.5;"/><path d="M864,15 L864,15 L864.0651,15.067 L865.6716,16.618 L867.6599,18.5616 L869.5238,20.3774 L870.979,21.7727 L873,23.75 L872.9952,23.7158 L874.7739,23.8122 L876.5766,24.0812 L878.3958,24.47 L880.1577,24.4456 L882,25 L882,25 L882.0339,25.2437 L883.7615,24.4725 L885.5879,24.4129 L887.4264,24.4402 L889.1948,23.9622 L891,23.75 L891.0211,23.7717 L892.7901,21.9898 L894.6553,20.3069 L896.4741,18.5762 L898.3815,16.9366 L900,15 " fill="none" style="stroke:#000000;stroke-width:1.5;"/><text fill="#000000" font-family="FG Virgil" font-size="14" font-style="italic" lengthAdjust="spacing" textLength="79" x="839.5" y="629.9707">«repository»</text><text fill="#000000" font-family="FG Virgil" font-size="14" lengthAdjust="spacing" textLength="94" x="832" y="647.5801">KartRepository</text><path d="M864,660.6563 L864,660.6563 L864.0651,660.7232 L865.6716,658.7742 L867.6599,657.2178 L869.5238,655.5336 L870.979,653.4289 L873,651.9063 L872.9952,651.872 L874.7739,651.4685 L876.5766,651.2374 L878.3958,651.1262 L880.1577,650.6019 L882,650.6563 L882,650.6563 L882.0339,650.9 L883.7615,650.6288 L885.5879,651.0692 L887.4264,651.5964 L889.1948,651.6185 L891,651.9063 L891.0211,651.928 L892.7901,653.6461 L894.6553,655.4631 L896.4741,657.2325 L898.3815,659.0929 L900,660.6563 L900.5965,660.6563 L900.6038,665.8563 L900.2263,671.0563 L900.4121,676.2563 L900.6242,681.4563 L900,686.6563 L900,686.6563 L899.7766,686.4264 L898.4102,688.6225 L896.3081,690.0618 L894.7654,692.0764 L892.6466,693.4985 L891,695.4063 L890.9958,695.3761 L889.2453,695.9827 L887.397,695.8848 L885.6064,696.2026 L883.8207,696.5553 L882,696.6563 L882,696.6563 L882.0254,696.8395 L880.1998,696.4045 L878.4176,696.2827 L876.565,695.6543 L874.8174,695.7814 L873,695.4063 L873.1698,695.5809 L871.3377,693.7979 L869.5899,692.1016 L867.4503,690.0023 L865.5979,688.1984 L864,686.6563 L863.4476,686.6563 L863.9477,681.4563 L863.8253,676.2563 L864.6057,671.0563 L863.8447,665.8563 L864,660.6563 " fill="#F8F8F8" style="stroke:#000000;stroke-width:1.5;"/><path d="M864,660.6563 L864,660.6563 L864.0651,660.7232 L865.6716,662.2742 L867.6599,664.2178 L869.5238,666.0336 L870.979,667.4289 L873,669.4063 L872.9952,669.372 L874.7739,669.4685 L876.5766,669.7374 L878.3958,670.1262 L880.1577,670.1019 L882,670.6563 L882,670.6563 L882.0339,670.9 L883.7615,670.1288 L885.5879,670.0692 L887.4264,670.0964 L889.1948,669.6185 L891,669.4063 L891.0211,669.428 L892.7901,667.6461 L894.6553,665.9631 L896.4741,664.2325 L898.3815,662.5929 L900,660.6563 " fill="none" style="stroke:#000000;stroke-width:1.5;"/><polygon fill="#FFFFFF" points="240.5,118.5703,240.5,118.6404,242.5,118.4322,244.5,118.6347,246.5,118.7035,248.5,118.3325,250.5,118.5703,250.4223,118.5703,250.0735,128.5675,250.1165,138.5648,250.4318,148.562,249.8086,158.5592,251.0536,168.5565,249.8697,178.5537,250.3022,188.5509,250.9319,198.5482,250.4142,208.5454,250.5682,218.5426,250.4681,228.5399,250.6785,238.5371,250.7391,248.5343,251.0857,258.5316,251.1711,268.5288,251.1793,278.526,250.7546,288.5233,250.9636,298.5205,251.2022,308.5177,249.7788,318.515,251.1785,328.5122,250.2035,338.5094,251.0338,348.5067,250.005,358.5039,250.4315,368.5011,251.2416,378.4984,250.4513,388.4956,250.6053,398.4928,250.8386,408.4901,250.9162,418.4873,250.4961,428.4845,250.7872,438.4818,249.9276,448.479,250.7844,458.4762,251.0482,468.4735,250.9445,478.4707,251.113,488.4679,250.0169,498.4652,249.8478,508.4624,249.8786,518.4596,250.4411,528.4569,250.3035,538.4541,251.1814,548.4513,250.3253,558.4486,250.1569,568.4458,250.7283,578.443,249.8332,588.4403,250.5,598.4375,250.5,598.2645,248.5,598.6538,246.5,598.5827,244.5,598.6823,242.5,598.3302,240.5,598.4375,240.8192,598.4375,241.0904,588.4403,240.0276,578.443,240.4041,568.4458,240.626,558.4486,241.1518,548.4513,240.4958,538.4541,240.9626,528.4569,239.9462,518.4596,239.8227,508.4624,241.0036,498.4652,239.7831,488.4679,241.009,478.4707,240.7066,468.4735,240.2321,458.4762,240.1462,448.479,240.9588,438.4818,240.2007,428.4845,241.0919,418.4873,239.9473,408.4901,241.1174,398.4928,240.9843,388.4956,240.745,378.4984,240.5472,368.5011,241.2266,358.5039,241.1136,348.5067,240.6693,338.5094,240.7682,328.5122,240.3697,318.515,241.2165,308.5177,240.6549,298.5205,240.6726,288.5233,239.8916,278.526,240.0948,268.5288,241.0307,258.5316,240.9298,248.5343,240.4571,238.5371,240.1778,228.5399,240.2811,218.5426,239.8138,208.5454,240.9147,198.5482,241.2396,188.5509,241.0264,178.5537,241.1949,168.5565,240.3633,158.5592,240.5872,148.562,240.1124,138.5648,240.784,128.5675,240.5,118.5703" style="stroke:#383838;stroke-width:1.0;"/><polygon fill="#FFFFFF" points="417.5,148.9219,417.5,148.9919,419.5,148.7838,421.5,148.9863,423.5,149.0551,425.5,148.6841,427.5,148.9219,427.4223,148.9219,427.0735,158.9805,427.1165,169.0391,427.4318,179.0977,426.8086,189.1563,428.0536,199.2148,427.5,209.2734,427.5,209.0633,425.5,209.2075,423.5,209.4174,421.5,209.2448,419.5,209.2962,417.5,209.2734,417.4681,209.2734,417.6785,199.2148,417.7391,189.1563,418.0857,179.0977,418.1711,169.0391,418.1793,158.9805,417.5,148.9219" style="stroke:#383838;stroke-width:1.0;"/><polygon fill="#FFFFFF" points="417.5,343.6797,417.5,343.7497,419.5,343.5416,421.5,343.7441,423.5,343.8129,425.5,343.4419,427.5,343.6797,427.4223,343.6797,427.0735,353.7383,427.1165,363.7969,427.4318,373.8555,426.8086,383.9141,428.0536,393.9727,426.8697,404.0313,427.3022,414.0898,427.9319,424.1484,427.4142,434.207,427.5682,444.2656,427.4681,454.3242,427.5,464.3828,427.5,464.4423,425.5,464.4625,423.5,464.578,421.5,464.6065,419.5,464.6092,417.5,464.3828,417.7546,464.3828,417.9636,454.3242,418.2022,444.2656,416.7788,434.207,418.1785,424.1484,417.2035,414.0898,418.0338,404.0313,417.005,393.9727,417.4315,383.9141,418.2416,373.8555,417.4513,363.7969,417.6053,353.7383,417.5,343.6797" style="stroke:#383838;stroke-width:1.0;"/><polygon fill="#FFFFFF" points="666,434.3828,666,434.4529,668,434.2447,670,434.4472,672,434.516,674,434.145,676,434.3828,675.9741,434.3828,675.8578,440.3828,675.8722,446.3828,675.9773,452.3828,675.7695,458.3828,676,464.3828,676,464.5674,674,464.1727,672,464.3169,670,464.5268,668,464.3542,666,464.3828,666.0227,464.3828,665.9894,458.3828,666.0595,452.3828,666.0797,446.3828,666.1952,440.3828,666,434.3828" style="stroke:#383838;stroke-width:1.0;"/><polygon fill="#FFFFFF" points="765.5,179.2734,765.5,179.3435,767.5,179.1353,769.5,179.3379,771.5,179.4067,773.5,179.0356,775.5,179.2734,775.4741,179.2734,775.3578,185.2734,775.3722,191.2734,775.4773,197.2734,775.2695,203.2734,775.5,209.2734,775.5,209.458,773.5,209.0633,771.5,209.2075,769.5,209.4174,767.5,209.2448,765.5,209.2734,765.5227,209.2734,765.4894,203.2734,765.5595,197.2734,765.5797,191.2734,765.6952,185.2734,765.5,179.2734" style="stroke:#383838;stroke-width:1.0;"/><polygon fill="#FFFFFF" points="877,374.0313,877,374.1013,879,373.8931,881,374.0957,883,374.1645,885,373.7935,887,374.0313,886.9741,374.0313,886.8578,380.0313,886.8722,386.0313,886.9773,392.0313,886.7695,398.0313,887,404.0313,887,404.2158,885,403.8212,883,403.9653,881,404.1752,879,404.0027,877,404.0313,877.0227,404.0313,876.9894,398.0313,877.0595,392.0313,877.0797,386.0313,877.1952,380.0313,877,374.0313" style="stroke:#383838;stroke-width:1.0;"/><polygon fill="#FFFFFF" points="877,494.7344,877,494.8044,879,494.5963,881,494.7988,883,494.8676,885,494.4966,887,494.7344,886.9741,494.7344,886.8578,500.7344,886.8722,506.7344,886.9773,512.7344,886.7695,518.7344,887,524.7344,887,524.9189,885,524.5243,883,524.6685,881,524.8784,879,524.7058,877,524.7344,877.0227,524.7344,876.9894,518.7344,877.0595,512.7344,877.0797,506.7344,877.1952,500.7344,877,494.7344" style="stroke:#383838;stroke-width:1.0;"/><polygon fill="#383838" points="228.5,114.5703,228.526,114.6354,230.4487,115.2421,232.5239,116.2301,234.5495,117.094,236.4117,117.5495,238.5,118.5703,238.4904,118.5463,236.4472,119.2383,234.4525,120.0516,232.4916,120.9492,230.4144,121.5563,228.5,122.5703,228.6305,122.7008,229.1514,121.6218,230.0534,120.9237,231.0018,120.2721,231.6798,119.3501,232.5,118.5703,232.5161,118.5864,231.6925,117.7628,230.9421,117.0124,230.1564,116.2267,229.438,115.5084,228.5,114.5703" style="stroke:#383838;stroke-width:1.0;"/><path d="M22.5,118.5703 L22.5,118.8506 L32.5952,118.0179 L42.6905,118.828 L52.7857,119.1032 L62.881,117.6191 L72.9762,118.4667 L83.0714,118.0017 L93.1667,118.059 L103.2619,118.4794 L113.3571,117.6485 L123.4524,119.3085 L133.5476,117.7299 L143.6429,118.3066 L153.7381,119.1462 L163.8333,118.4559 L173.9286,118.6613 L184.0238,118.5277 L194.119,118.8083 L204.2143,118.8892 L214.3095,119.3512 L224.4048,119.4651 L234.5,118.5703 " fill="none" style="stroke:#383838;stroke-width:1.0;stroke-dasharray:2.0,2.0;"/><text fill="#000000" font-family="FG Virgil" font-size="13" lengthAdjust="spacing" textLength="89" x="29.5" y="113.7139">Add fruit to kart</text><polygon fill="#383838" points="405.5,144.9219,405.526,144.9869,407.4487,145.5936,409.5239,146.5817,411.5495,147.4456,413.4117,147.9011,415.5,148.9219,415.4904,148.8978,413.4472,149.5899,411.4525,150.4032,409.4916,151.3008,407.4144,151.9079,405.5,152.9219,405.6305,153.0524,406.1514,151.9733,407.0534,151.2753,408.0018,150.6237,408.6798,149.7017,409.5,148.9219,409.5161,148.938,408.6925,148.1143,407.9421,147.364,407.1564,146.5782,406.438,145.8599,405.5,144.9219" style="stroke:#383838;stroke-width:1.0;"/><path d="M250.5,148.9219 L250.5,149.2021 L260.5625,148.3694 L270.625,149.1796 L280.6875,149.4548 L290.75,147.9707 L300.8125,148.8183 L310.875,148.3532 L320.9375,148.4105 L331,148.831 L341.0625,148 L351.125,149.6601 L361.1875,148.0815 L371.25,148.6582 L381.3125,149.4978 L391.375,148.8075 L401.4375,149.0129 L411.5,148.9219 " fill="none" style="stroke:#383838;stroke-width:1.0;"/><text fill="#000000" font-family="FG Virgil" font-size="13" lengthAdjust="spacing" textLength="148" x="257.5" y="144.0654">getFruitById(String name)</text><polygon fill="#383838" points="753.5,175.2734,753.526,175.3385,755.4487,175.9452,757.5239,176.9333,759.5495,177.7971,761.4117,178.2526,763.5,179.2734,763.4904,179.2494,761.4472,179.9414,759.4525,180.7547,757.4916,181.6523,755.4144,182.2595,753.5,183.2734,753.6305,183.4039,754.1514,182.3249,755.0534,181.6268,756.0018,180.9752,756.6798,180.0532,757.5,179.2734,757.5161,179.2895,756.6925,178.4659,755.9421,177.7155,755.1564,176.9298,754.438,176.2115,753.5,175.2734" style="stroke:#383838;stroke-width:1.0;"/><path d="M427.5,179.2734 L427.5,179.5537 L437.5606,178.721 L447.6212,179.5312 L457.6818,179.8063 L467.7424,178.3222 L477.803,179.1698 L487.8636,178.7048 L497.9242,178.7621 L507.9848,179.1826 L518.0455,178.3516 L528.1061,180.0116 L538.1667,178.4331 L548.2273,179.0097 L558.2879,179.8494 L568.3485,179.1591 L578.4091,179.3644 L588.4697,179.2308 L598.5303,179.5115 L608.5909,179.5923 L618.6515,180.0544 L628.7121,180.1682 L638.7727,180.1791 L648.8333,179.6129 L658.8939,179.8916 L668.9545,180.2097 L679.0152,178.3119 L689.0758,180.1781 L699.1364,178.8781 L709.197,179.9852 L719.2576,178.6134 L729.3182,179.1821 L739.3788,180.2622 L749.4394,179.2085 L759.5,179.2734 " fill="none" style="stroke:#383838;stroke-width:1.0;"/><text fill="#000000" font-family="FG Virgil" font-size="13" lengthAdjust="spacing" textLength="148" x="434.5" y="174.417">getFruitById(String name)</text><path d="M250.5,239.625 L250.5,239.7184 L258.9,239.4409 L267.3,239.7109 L275.7,239.8026 L284.1,239.3079 L292.5,239.625 " fill="none" style="stroke:#383838;stroke-width:1.0;"/><path d="M292.5,239.625 L292.5934,239.625 L292.3159,242.225 L292.5859,244.825 L292.6776,247.425 L292.1829,250.025 L292.5,252.625 " fill="none" style="stroke:#383838;stroke-width:1.0;"/><path d="M251.5,252.625 L251.5,252.7184 L259.7,252.4409 L267.9,252.7109 L276.1,252.8026 L284.3,252.3079 L292.5,252.625 " fill="none" style="stroke:#383838;stroke-width:1.0;"/><polygon fill="#383838" points="261.5,248.625,261.526,248.69,259.4487,249.2968,257.5239,250.2848,255.5495,251.1487,253.4117,251.6042,251.5,252.625,251.4904,252.6009,253.4472,253.293,255.4525,254.1063,257.4916,255.0039,259.4144,255.611,261.5,256.625,261.6305,256.7555,260.5514,255.6764,259.8534,254.9784,259.2018,254.3268,258.2798,253.4048,257.5,252.625,257.5161,252.6411,258.2925,251.8175,259.1421,251.0671,259.9564,250.2814,260.838,249.563,261.5,248.625" style="stroke:#383838;stroke-width:1.0;"/><text fill="#000000" font-family="FG Virgil" font-size="13" lengthAdjust="spacing" textLength="38" x="257.5" y="234.7686">show()</text><polygon fill="#383838" points="33.5,278.9766,33.526,279.0416,31.4487,279.6483,29.5239,280.6364,27.5495,281.5003,25.4117,281.9558,23.5,282.9766,23.4904,282.9525,25.4472,283.6446,27.4525,284.4579,29.4916,285.3555,31.4144,285.9626,33.5,286.9766,33.6305,287.1071,32.5514,286.028,31.8534,285.3299,31.2018,284.6784,30.2798,283.7563,29.5,282.9766,29.5161,282.9926,30.2925,282.169,31.1421,281.4186,31.9564,280.6329,32.838,279.9146,33.5,278.9766" style="stroke:#383838;stroke-width:1.0;"/><path d="M27.5,282.9766 L27.5,283.2568 L37.5952,282.4241 L47.6905,283.2343 L57.7857,283.5095 L67.881,282.0254 L77.9762,282.8729 L88.0714,282.4079 L98.1667,282.4652 L108.2619,282.8857 L118.3571,282.0547 L128.4524,283.7148 L138.5476,282.1362 L148.6429,282.7129 L158.7381,283.5525 L168.8333,282.8622 L178.9286,283.0675 L189.0238,282.934 L199.119,283.2146 L209.2143,283.2954 L219.3095,283.7575 L229.4048,283.8713 L239.5,282.9766 " fill="none" style="stroke:#383838;stroke-width:1.0;stroke-dasharray:2.0,2.0;"/><text fill="#000000" font-family="FG Virgil" font-size="13" lengthAdjust="spacing" textLength="86" x="39.5" y="278.1201">Shows fruit tab</text><polygon fill="#383838" points="228.5,309.3281,228.526,309.3932,230.4487,309.9999,232.5239,310.9879,234.5495,311.8518,236.4117,312.3073,238.5,313.3281,238.4904,313.3041,236.4472,313.9961,234.4525,314.8094,232.4916,315.707,230.4144,316.3142,228.5,317.3281,228.6305,317.4586,229.1514,316.3796,230.0534,315.6815,231.0018,315.0299,231.6798,314.1079,232.5,313.3281,232.5161,313.3442,231.6925,312.5206,230.9421,311.7702,230.1564,310.9845,229.438,310.2662,228.5,309.3281" style="stroke:#383838;stroke-width:1.0;"/><path d="M22.5,313.3281 L22.5,313.6084 L32.5952,312.7757 L42.6905,313.5858 L52.7857,313.861 L62.881,312.3769 L72.9762,313.2245 L83.0714,312.7595 L93.1667,312.8168 L103.2619,313.2372 L113.3571,312.4063 L123.4524,314.0663 L133.5476,312.4878 L143.6429,313.0644 L153.7381,313.9041 L163.8333,313.2138 L173.9286,313.4191 L184.0238,313.2855 L194.119,313.5662 L204.2143,313.647 L214.3095,314.109 L224.4048,314.2229 L234.5,313.3281 " fill="none" style="stroke:#383838;stroke-width:1.0;stroke-dasharray:2.0,2.0;"/><text fill="#000000" font-family="FG Virgil" font-size="13" lengthAdjust="spacing" textLength="157" x="29.5" y="308.4717">Clicks button to add to kart</text><polygon fill="#383838" points="405.5,339.6797,405.526,339.7447,407.4487,340.3515,409.5239,341.3395,411.5495,342.2034,413.4117,342.6589,415.5,343.6797,415.4904,343.6556,413.4472,344.3477,411.4525,345.161,409.4916,346.0586,407.4144,346.6657,405.5,347.6797,405.6305,347.8102,406.1514,346.7311,407.0534,346.0331,408.0018,345.3815,408.6798,344.4595,409.5,343.6797,409.5161,343.6958,408.6925,342.8722,407.9421,342.1218,407.1564,341.3361,406.438,340.6177,405.5,339.6797" style="stroke:#383838;stroke-width:1.0;"/><path d="M250.5,343.6797 L250.5,343.9599 L260.5625,343.1273 L270.625,343.9374 L280.6875,344.2126 L290.75,342.7285 L300.8125,343.5761 L310.875,343.111 L320.9375,343.1684 L331,343.5888 L341.0625,342.7579 L351.125,344.4179 L361.1875,342.8393 L371.25,343.416 L381.3125,344.2556 L391.375,343.5653 L401.4375,343.7707 L411.5,343.6797 " fill="none" style="stroke:#383838;stroke-width:1.0;"/><text fill="#000000" font-family="FG Virgil" font-size="13" lengthAdjust="spacing" textLength="144" x="257.5" y="338.8232">addFruitToKart(Fruit fruit)</text><polygon fill="#383838" points="865,370.0313,865.026,370.0963,866.9487,370.703,869.0239,371.6911,871.0495,372.5549,872.9117,373.0105,875,374.0313,874.9904,374.0072,872.9472,374.6993,870.9525,375.5126,868.9916,376.4102,866.9144,377.0173,865,378.0313,865.1305,378.1617,865.6514,377.0827,866.5534,376.3846,867.5018,375.7331,868.1798,374.811,869,374.0313,869.0161,374.0473,868.1925,373.2237,867.4421,372.4733,866.6564,371.6876,865.938,370.9693,865,370.0313" style="stroke:#383838;stroke-width:1.0;"/><path d="M427.5,374.0313 L427.5,374.3115 L437.5795,373.4788 L447.6591,374.289 L457.7386,374.5642 L467.8182,373.0801 L477.8977,373.9276 L487.9773,373.4626 L498.0568,373.5199 L508.1364,373.9404 L518.2159,373.1094 L528.2955,374.7694 L538.375,373.1909 L548.4545,373.7676 L558.5341,374.6072 L568.6136,373.9169 L578.6932,374.1222 L588.7727,373.9887 L598.8523,374.2693 L608.9318,374.3501 L619.0114,374.8122 L629.0909,374.926 L639.1705,374.9369 L649.25,374.3708 L659.3295,374.6494 L669.4091,374.9676 L679.4886,373.0697 L689.5682,374.9359 L699.6477,373.6359 L709.7273,374.743 L719.8068,373.3712 L729.8864,373.9399 L739.9659,375.0201 L750.0455,373.9663 L760.125,374.1717 L770.2045,374.4828 L780.2841,374.5862 L790.3636,374.026 L800.4432,374.4142 L810.5227,373.268 L820.6023,374.4104 L830.6818,374.7622 L840.7614,374.624 L850.8409,374.8486 L860.9205,373.3871 L871,374.0313 " fill="none" style="stroke:#383838;stroke-width:1.0;"/><text fill="#000000" font-family="FG Virgil" font-size="13" lengthAdjust="spacing" textLength="176" x="434.5" y="369.1748">kart=getKartById(String token)</text><polygon fill="#383838" points="654,430.3828,654.026,430.4479,655.9487,431.0546,658.0239,432.0426,660.0495,432.9065,661.9117,433.362,664,434.3828,663.9904,434.3588,661.9472,435.0508,659.9525,435.8641,657.9916,436.7617,655.9144,437.3688,654,438.3828,654.1305,438.5133,654.6514,437.4343,655.5534,436.7362,656.5018,436.0846,657.1798,435.1626,658,434.3828,658.0161,434.3989,657.1925,433.5753,656.4421,432.8249,655.6564,432.0392,654.938,431.3209,654,430.3828" style="stroke:#383838;stroke-width:1.0;"/><path d="M427.5,434.3828 L427.5,434.6631 L437.6087,433.8304 L447.7174,434.6405 L457.8261,434.9157 L467.9348,433.4316 L478.0435,434.2792 L488.1522,433.8142 L498.2609,433.8715 L508.3696,434.2919 L518.4783,433.461 L528.587,435.121 L538.6957,433.5424 L548.8043,434.1191 L558.913,434.9587 L569.0217,434.2684 L579.1304,434.4738 L589.2391,434.3402 L599.3478,434.6208 L609.4565,434.7017 L619.5652,435.1637 L629.6739,435.2776 L639.7826,435.2885 L649.8913,434.7223 L660,434.3828 " fill="none" style="stroke:#383838;stroke-width:1.0;"/><text fill="#000000" font-family="FG Virgil" font-size="13" lengthAdjust="spacing" textLength="106" x="434.5" y="429.5264">addFruit(Fruit fruit)</text><polygon fill="#383838" points="865,490.7344,865.026,490.7994,866.9487,491.4061,869.0239,492.3942,871.0495,493.2581,872.9117,493.7136,875,494.7344,874.9904,494.7103,872.9472,495.4024,870.9525,496.2157,868.9916,497.1133,866.9144,497.7204,865,498.7344,865.1305,498.8649,865.6514,497.7858,866.5534,497.0878,867.5018,496.4362,868.1798,495.5142,869,494.7344,869.0161,494.7505,868.1925,493.9268,867.4421,493.1765,866.6564,492.3907,865.938,491.6724,865,490.7344" style="stroke:#383838;stroke-width:1.0;"/><path d="M250.5,494.7344 L250.5,495.0146 L260.5081,494.1819 L270.5161,494.9921 L280.5242,495.2673 L290.5323,493.7832 L300.5403,494.6308 L310.5484,494.1657 L320.5565,494.223 L330.5645,494.6435 L340.5726,493.8125 L350.5806,495.4726 L360.5887,493.894 L370.5968,494.4707 L380.6048,495.3103 L390.6129,494.62 L400.621,494.8254 L410.629,494.6918 L420.6371,494.9724 L430.6452,495.0532 L440.6532,495.5153 L450.6613,495.6291 L460.6694,495.6401 L470.6774,495.0739 L480.6855,495.3525 L490.6935,495.6707 L500.7016,493.7728 L510.7097,495.6391 L520.7177,494.339 L530.7258,495.4461 L540.7339,494.0743 L550.7419,494.643 L560.75,495.7232 L570.7581,494.6694 L580.7661,494.8748 L590.7742,495.1859 L600.7823,495.2894 L610.7903,494.7292 L620.7984,495.1173 L630.8065,493.9712 L640.8145,495.1136 L650.8226,495.4653 L660.8306,495.3271 L670.8387,495.5517 L680.8468,494.0903 L690.8548,493.8648 L700.8629,493.9058 L710.871,494.6559 L720.879,494.4723 L730.8871,495.6429 L740.8952,494.5015 L750.9032,494.277 L760.9113,495.0387 L770.9194,493.8453 L780.9274,494.0422 L790.9355,495.5996 L800.9435,495.3153 L810.9516,495.7137 L820.9597,494.3053 L830.9677,495.16 L840.9758,495.5216 L850.9839,494.1045 L860.9919,494.6066 L871,494.7344 " fill="none" style="stroke:#383838;stroke-width:1.0;"/><text fill="#000000" font-family="FG Virgil" font-size="13" lengthAdjust="spacing" textLength="56" x="257.5" y="489.8779">save(kart)</text><path d="M250.5,555.0859 L250.5,555.1794 L258.9,554.9018 L267.3,555.1718 L275.7,555.2636 L284.1,554.7689 L292.5,555.0859 " fill="none" style="stroke:#383838;stroke-width:1.0;"/><path d="M292.5,555.0859 L292.5934,555.0859 L292.3159,557.6859 L292.5859,560.2859 L292.6776,562.8859 L292.1829,565.4859 L292.5,568.0859 " fill="none" style="stroke:#383838;stroke-width:1.0;"/><path d="M251.5,568.0859 L251.5,568.1794 L259.7,567.9018 L267.9,568.1718 L276.1,568.2636 L284.3,567.7689 L292.5,568.0859 " fill="none" style="stroke:#383838;stroke-width:1.0;"/><polygon fill="#383838" points="261.5,564.0859,261.526,564.151,259.4487,564.7577,257.5239,565.7458,255.5495,566.6096,253.4117,567.0651,251.5,568.0859,251.4904,568.0619,253.4472,568.7539,255.4525,569.5672,257.4916,570.4648,259.4144,571.072,261.5,572.0859,261.6305,572.2164,260.5514,571.1374,259.8534,570.4393,259.2018,569.7877,258.2798,568.8657,257.5,568.0859,257.5161,568.102,258.2925,567.2784,259.1421,566.528,259.9564,565.7423,260.838,565.024,261.5,564.0859" style="stroke:#383838;stroke-width:1.0;"/><text fill="#000000" font-family="FG Virgil" font-size="13" lengthAdjust="spacing" textLength="38" x="257.5" y="550.2295">show()</text><polygon fill="#383838" points="33.5,594.4375,33.526,594.5025,31.4487,595.1093,29.5239,596.0973,27.5495,596.9612,25.4117,597.4167,23.5,598.4375,23.4904,598.4134,25.4472,599.1055,27.4525,599.9188,29.4916,600.8164,31.4144,601.4235,33.5,602.4375,33.6305,602.568,32.5514,601.4889,31.8534,600.7909,31.2018,600.1393,30.2798,599.2173,29.5,598.4375,29.5161,598.4536,30.2925,597.63,31.1421,596.8796,31.9564,596.0939,32.838,595.3755,33.5,594.4375" style="stroke:#383838;stroke-width:1.0;"/><path d="M27.5,598.4375 L27.5,598.7177 L37.3636,597.8851 L47.2273,598.6952 L57.0909,598.9704 L66.9545,597.4863 L76.8182,598.3339 L86.6818,597.8688 L96.5455,597.9262 L106.4091,598.3466 L116.2727,597.5157 L126.1364,599.1757 L136,597.5971 L145.8636,598.1738 L155.7273,599.0134 L165.5909,598.3231 L175.4545,598.5285 L185.3182,598.3949 L195.1818,598.6755 L205.0455,598.7563 L214.9091,599.2184 L224.7727,599.3322 L234.6364,599.3432 L244.5,598.4375 " fill="none" style="stroke:#383838;stroke-width:1.0;stroke-dasharray:2.0,2.0;"/><text fill="#000000" font-family="FG Virgil" font-size="13" lengthAdjust="spacing" textLength="194" x="39.5" y="593.5811">Fruit is added and kart is updated</text><!--MD5=[fac1d67eee624c85d417d5423631c5aa]
@startuml
skinparam handwritten true
skinparam monochrome true
skinparam packageStyle rect
skinparam defaultFontName FG Virgil
skinparam shadowing false

actor User as Actor
participant "/fruit" as UI <<presentation>>
control AddFruitSpecificController as Controller <<application>>
participant "UserSession" as UserSession <<value object>>
participant "kart:Kart" as Domain <<domain>>
database FruitRepository as FS <<repository>>
database KartRepository as KS <<repository>>


Actor - -> UI: Add fruit to kart
activate UI
         UI -> Controller: getFruitById(String name)
      activate Controller

       Controller->FS : getFruitById(String name)
       activate FS
       deactivate FS
       deactivate Controller
       UI -> UI : show()
    UI - -> Actor: Shows fruit tab
    Actor - -> UI: Clicks button to add to kart

   UI -> Controller: addFruitToKart(Fruit fruit)
 activate Controller
        Controller -> KS : kart=getKartById(String token)
        activate KS
        deactivate KS
       Controller -> Domain :  addFruit(Fruit fruit)
       activate Domain
       deactivate Domain
       deactivate Controller

UI -> KS : save(kart)
activate KS
deactivate KS


UI -> UI : show()
 UI - -> Actor: Fruit is added and kart is updated
deactivate UI
@enduml

PlantUML version 1.2021.11(Sat Oct 02 15:26:11 CEST 2021)
(GPL source distribution)
Java Runtime: OpenJDK Runtime Environment
JVM: Dynamic Code Evolution 64-Bit Server VM
Default Encoding: Cp1252
Language: pt
Country: PT
--></g></svg>