<?xml version="1.0" encoding="UTF-8" standalone="no"?><svg xmlns="http://www.w3.org/2000/svg" xmlns:xlink="http://www.w3.org/1999/xlink" contentScriptType="application/ecmascript" contentStyleType="text/css" height="413px" preserveAspectRatio="none" style="width:491px;height:413px;background:#FFFFFF;" version="1.1" viewBox="0 0 491 413" width="491px" zoomAndPan="magnify"><defs/><g><!--MD5=[df76e760f2062188d44f98c21a88999b]
class UI--><polygon fill="#F8F8F8" points="177.5,7,177.5,7.2102,187.5,6.5857,197.5,7.1933,207.5,7.3997,217.5,6.2866,227.5,6.9223,237.5,6.5735,247.5,6.6165,257.5,6.9318,267.5,6.3086,277.5,7.5536,287.5,7,286.8697,7,287.3022,16.3646,287.9319,25.7292,287.4142,35.0938,287.5682,44.4583,287.4681,53.8229,287.5,63.1875,287.5,63.366,277.5,63.4266,267.5,63.7732,257.5,63.8586,247.5,63.8668,237.5,63.4421,227.5,63.6511,217.5,63.8897,207.5,62.4663,197.5,63.866,187.5,62.891,177.5,63.1875,178.0338,63.1875,177.005,53.8229,177.4315,44.4583,178.2416,35.0938,177.4513,25.7292,177.6053,16.3646,177.5,7" style="stroke:#383838;stroke-width:1.5;"/><polygon fill="#C2C2C2" points="203.5608,29.7694,201.9484,31.9725,200.0412,35.1995,197.3136,37.3741,194.4474,38.5634,192.162,38.6666,189.2247,37.1793,186.4532,36.2077,184.3495,34.2349,183.2461,31.9765,182.5917,30.1783,181.9506,27.8295,180.91,25.8082,181.7096,23.8348,182.4102,21.673,185.0393,19.9632,186.889,17.7448,189.1784,17.0082,191.9001,16.3738,195.3904,16.7507,197.3021,17.6523,199.5247,18.0609,202.2272,20.8297,203.1693,23.7527,203.5786,25.7471,203.115,29.0336" style="stroke:#383838;stroke-width:1.0;"/><path d="M194.5,23.5938 Q194.7031,23.0938 194.9375,22.8438 Q195.1719,22.5938 195.4375,22.5938 Q195.9063,22.5938 196.2031,22.875 Q196.5,23.1563 196.5,23.8125 L196.5,25.375 Q196.5,26.0313 196.2188,26.3125 Q195.9375,26.5938 195.5,26.5938 Q195.1094,26.5938 194.8594,26.4219 Q194.6094,26.25 194.5,25.7969 Q194.4531,25.4844 194.2813,25.3125 Q193.9688,24.9844 193.4063,24.7969 Q192.8438,24.5938 192.2813,24.5938 Q191.5781,24.5938 190.9844,24.875 Q190.4063,25.1563 189.9531,25.7813 Q189.5,26.4063 189.5,27.2656 L189.5,28.1875 Q189.5,29.2188 190.3438,29.9063 Q191.1875,30.5938 192.6875,30.5938 Q193.5781,30.5938 194.2031,30.3906 Q194.5625,30.2813 194.9688,29.9219 Q195.2344,29.7188 195.375,29.6563 Q195.5156,29.5938 195.6875,29.5938 Q196.0156,29.5938 196.25,29.8594 Q196.5,30.1094 196.5,30.4688 Q196.5,30.8125 196.1563,31.2188 Q195.6563,31.8125 194.8594,32.1406 Q193.8125,32.5938 192.5313,32.5938 Q191.0313,32.5938 189.8281,32 Q188.8594,31.5313 188.1719,30.5156 Q187.5,29.5 187.5,28.2969 L187.5,27.2031 Q187.5,25.9531 188.0938,24.8594 Q188.7031,23.7656 189.75,23.1875 Q190.8125,22.5938 192,22.5938 Q192.7188,22.5938 193.3438,22.8438 Q193.9688,23.0938 194.5,23.5938 Z " fill="#000000"/><text fill="#000000" font-family="FG Virgil" font-size="12" font-style="italic" lengthAdjust="spacing" textLength="82" x="204.5" y="24.457">«presentation»</text><text fill="#000000" font-family="FG Virgil" font-size="12" lengthAdjust="spacing" textLength="12" x="239.5" y="39.5508">UI</text><path d="M178.5,47.1875 L178.5,47.4677 L188.3182,46.6351 L198.1364,47.4452 L207.9545,47.7204 L217.7727,46.2363 L227.5909,47.0839 L237.4091,46.6188 L247.2273,46.6762 L257.0455,47.0966 L266.8636,46.2657 L276.6818,47.9257 L286.5,47.1875 " fill="#F8F8F8" style="stroke:#383838;stroke-width:1.5;"/><path d="M178.5,55.1875 L178.5,55.4677 L188.3182,54.6351 L198.1364,55.4452 L207.9545,55.7204 L217.7727,54.2363 L227.5909,55.0839 L237.4091,54.6188 L247.2273,54.6762 L257.0455,55.0966 L266.8636,54.2657 L276.6818,55.9257 L286.5,55.1875 " fill="#F8F8F8" style="stroke:#383838;stroke-width:1.5;"/><!--MD5=[a9e1e204e332609497a1fdf08342dd0b]
class AddFruitGeneralController--><polygon fill="#F8F8F8" points="21,130,21,130.2102,30.7222,129.5857,40.4444,130.1933,50.1667,130.3997,59.8889,129.2866,69.6111,129.9223,79.3333,129.5735,89.0556,129.6165,98.7778,129.9318,108.5,129.3086,118.2222,130.5536,127.9444,129.3697,137.6667,129.8022,147.3889,130.4319,157.1111,129.9142,166.8333,130.0682,176.5556,129.9681,186.2778,130.1785,196,130,196.2391,130,196.5857,140.0033,196.6711,150.0067,196.6793,160.01,196.2546,170.0134,196.4636,180.0167,196.7022,190.0201,196,200.0234,196,199.3023,186.2778,200.7019,176.5556,199.7269,166.8333,200.5572,157.1111,199.5284,147.3889,199.9549,137.6667,200.765,127.9444,199.9747,118.2222,200.1287,108.5,200.3621,98.7778,200.4397,89.0556,200.0195,79.3333,200.3107,69.6111,199.451,59.8889,200.3078,50.1667,200.5716,40.4444,200.468,30.7222,200.6365,21,200.0234,20.5169,200.0234,20.3478,190.0201,20.3786,180.0167,20.9411,170.0134,20.8035,160.01,21.6814,150.0067,20.8253,140.0033,21,130" style="stroke:#383838;stroke-width:1.5;"/><polygon fill="#C2C2C2" points="47.0608,152.7694,45.4484,154.9725,43.5412,158.1995,40.8136,160.3741,37.9474,161.5634,35.662,161.6666,32.7247,160.1793,29.9532,159.2077,27.8495,157.2349,26.7461,154.9765,26.0917,153.1783,25.4506,150.8295,24.41,148.8082,25.2096,146.8348,25.9102,144.673,28.5393,142.9632,30.389,140.7448,32.6784,140.0082,35.4001,139.3738,38.8904,139.7507,40.8021,140.6523,43.0247,141.0609,45.7272,143.8297,46.6693,146.7527,47.0786,148.7471,46.615,152.0336" style="stroke:#383838;stroke-width:1.0;"/><path d="M38,146.5938 Q38.2031,146.0938 38.4375,145.8438 Q38.6719,145.5938 38.9375,145.5938 Q39.4063,145.5938 39.7031,145.875 Q40,146.1563 40,146.8125 L40,148.375 Q40,149.0313 39.7188,149.3125 Q39.4375,149.5938 39,149.5938 Q38.6094,149.5938 38.3594,149.4219 Q38.1094,149.25 38,148.7969 Q37.9531,148.4844 37.7813,148.3125 Q37.4688,147.9844 36.9063,147.7969 Q36.3438,147.5938 35.7813,147.5938 Q35.0781,147.5938 34.4844,147.875 Q33.9063,148.1563 33.4531,148.7813 Q33,149.4063 33,150.2656 L33,151.1875 Q33,152.2188 33.8438,152.9063 Q34.6875,153.5938 36.1875,153.5938 Q37.0781,153.5938 37.7031,153.3906 Q38.0625,153.2813 38.4688,152.9219 Q38.7344,152.7188 38.875,152.6563 Q39.0156,152.5938 39.1875,152.5938 Q39.5156,152.5938 39.75,152.8594 Q40,153.1094 40,153.4688 Q40,153.8125 39.6563,154.2188 Q39.1563,154.8125 38.3594,155.1406 Q37.3125,155.5938 36.0313,155.5938 Q34.5313,155.5938 33.3281,155 Q32.3594,154.5313 31.6719,153.5156 Q31,152.5 31,151.2969 L31,150.2031 Q31,148.9531 31.5938,147.8594 Q32.2031,146.7656 33.25,146.1875 Q34.3125,145.5938 35.5,145.5938 Q36.2188,145.5938 36.8438,145.8438 Q37.4688,146.0938 38,146.5938 Z " fill="#000000"/><text fill="#000000" font-family="FG Virgil" font-size="12" font-style="italic" lengthAdjust="spacing" textLength="74" x="84.5" y="147.457">«application»</text><text fill="#000000" font-family="FG Virgil" font-size="12" lengthAdjust="spacing" textLength="143" x="50" y="162.5508">AddFruitGeneralController</text><path d="M22,170.1875 L22,170.4677 L32.1765,169.6351 L42.3529,170.4452 L52.5294,170.7204 L62.7059,169.2363 L72.8824,170.0839 L83.0588,169.6188 L93.2353,169.6762 L103.4118,170.0966 L113.5882,169.2657 L123.7647,170.9257 L133.9412,169.3471 L144.1176,169.9238 L154.2941,170.7634 L164.4706,170.0731 L174.6471,170.2785 L184.8235,170.1449 L195,170.1875 " fill="#F8F8F8" style="stroke:#383838;stroke-width:1.5;"/><path d="M22,178.1875 L22,178.4677 L32.1765,177.6351 L42.3529,178.4452 L52.5294,178.7204 L62.7059,177.2363 L72.8824,178.0839 L83.0588,177.6188 L93.2353,177.6762 L103.4118,178.0966 L113.5882,177.2657 L123.7647,178.9257 L133.9412,177.3471 L144.1176,177.9238 L154.2941,178.7634 L164.4706,178.0731 L174.6471,178.2785 L184.8235,178.1449 L195,178.1875 " fill="#F8F8F8" style="stroke:#383838;stroke-width:1.5;"/><text fill="#000000" font-family="FG Virgil" font-size="11" lengthAdjust="spacing" textLength="122" x="27" y="193.6064">addFruitToKart(Fruit fruit)</text><!--MD5=[2daf9fe77484b422856c3143ba0211ea]
class AddFruitSpecificController--><polygon fill="#F8F8F8" points="231,123,231,123.2102,241.12,122.5857,251.24,123.1933,261.36,123.3997,271.48,122.2866,281.6,122.9223,291.72,122.5735,301.84,122.6165,311.96,122.9318,322.08,122.3086,332.2,123.5536,342.32,122.3697,352.44,122.8022,362.56,123.4319,372.68,122.9142,382.8,123.0682,392.92,122.9681,403.04,123.1785,413.16,123.2391,423.28,123.5857,433.4,123.6711,443.52,123.6793,453.64,123.2546,463.76,123.4636,473.88,123.7022,484,123,483.2788,123,484.6785,133.4824,483.7035,143.9648,484.5338,154.4473,483.505,164.9297,483.9315,175.4121,484.7416,185.8945,483.9513,196.377,484,206.8594,484,206.9647,473.88,207.198,463.76,207.2756,453.64,206.8555,443.52,207.1466,433.4,206.287,423.28,207.1438,413.16,207.4076,403.04,207.3039,392.92,207.4724,382.8,206.3763,372.68,206.2072,362.56,206.238,352.44,206.8005,342.32,206.6628,332.2,207.5408,322.08,206.6847,311.96,206.5163,301.84,207.0876,291.72,206.1925,281.6,206.3402,271.48,207.5083,261.36,207.295,251.24,207.5939,241.12,206.5376,231,206.8594,231.3192,206.8594,231.5904,196.377,230.5276,185.8945,230.9041,175.4121,231.126,164.9297,231.6518,154.4473,230.9958,143.9648,231.4626,133.4824,231,123" style="stroke:#383838;stroke-width:1.5;"/><polygon fill="#C2C2C2" points="293.3108,145.7694,291.6984,147.9725,289.7912,151.1995,287.0636,153.3741,284.1974,154.5634,281.912,154.6666,278.9747,153.1793,276.2032,152.2077,274.0995,150.2349,272.9961,147.9765,272.3417,146.1783,271.7006,143.8295,270.66,141.8082,271.4596,139.8348,272.1602,137.673,274.7893,135.9632,276.639,133.7448,278.9284,133.0082,281.6501,132.3738,285.1404,132.7507,287.0521,133.6523,289.2747,134.0609,291.9772,136.8297,292.9193,139.7527,293.3286,141.7471,292.865,145.0336" style="stroke:#383838;stroke-width:1.0;"/><path d="M284.25,139.5938 Q284.4531,139.0938 284.6875,138.8438 Q284.9219,138.5938 285.1875,138.5938 Q285.6563,138.5938 285.9531,138.875 Q286.25,139.1563 286.25,139.8125 L286.25,141.375 Q286.25,142.0313 285.9688,142.3125 Q285.6875,142.5938 285.25,142.5938 Q284.8594,142.5938 284.6094,142.4219 Q284.3594,142.25 284.25,141.7969 Q284.2031,141.4844 284.0313,141.3125 Q283.7188,140.9844 283.1563,140.7969 Q282.5938,140.5938 282.0313,140.5938 Q281.3281,140.5938 280.7344,140.875 Q280.1563,141.1563 279.7031,141.7813 Q279.25,142.4063 279.25,143.2656 L279.25,144.1875 Q279.25,145.2188 280.0938,145.9063 Q280.9375,146.5938 282.4375,146.5938 Q283.3281,146.5938 283.9531,146.3906 Q284.3125,146.2813 284.7188,145.9219 Q284.9844,145.7188 285.125,145.6563 Q285.2656,145.5938 285.4375,145.5938 Q285.7656,145.5938 286,145.8594 Q286.25,146.1094 286.25,146.4688 Q286.25,146.8125 285.9063,147.2188 Q285.4063,147.8125 284.6094,148.1406 Q283.5625,148.5938 282.2813,148.5938 Q280.7813,148.5938 279.5781,148 Q278.6094,147.5313 277.9219,146.5156 Q277.25,145.5 277.25,144.2969 L277.25,143.2031 Q277.25,141.9531 277.8438,140.8594 Q278.4531,139.7656 279.5,139.1875 Q280.5625,138.5938 281.75,138.5938 Q282.4688,138.5938 283.0938,138.8438 Q283.7188,139.0938 284.25,139.5938 Z " fill="#000000"/><text fill="#000000" font-family="FG Virgil" font-size="12" font-style="italic" lengthAdjust="spacing" textLength="74" x="336.75" y="140.457">«application»</text><text fill="#000000" font-family="FG Virgil" font-size="12" lengthAdjust="spacing" textLength="142" x="302.75" y="155.5508">AddFruitSpecificController</text><path d="M232,163.1875 L232,163.4677 L242.04,162.6351 L252.08,163.4452 L262.12,163.7204 L272.16,162.2363 L282.2,163.0839 L292.24,162.6188 L302.28,162.6762 L312.32,163.0966 L322.36,162.2657 L332.4,163.9257 L342.44,162.3471 L352.48,162.9238 L362.52,163.7634 L372.56,163.0731 L382.6,163.2785 L392.64,163.1449 L402.68,163.4255 L412.72,163.5063 L422.76,163.9684 L432.8,164.0822 L442.84,164.0932 L452.88,163.527 L462.92,163.8056 L472.96,164.1238 L483,163.1875 " fill="#F8F8F8" style="stroke:#383838;stroke-width:1.5;"/><path d="M232,171.1875 L232,171.4677 L242.04,170.6351 L252.08,171.4452 L262.12,171.7204 L272.16,170.2363 L282.2,171.0839 L292.24,170.6188 L302.28,170.6762 L312.32,171.0966 L322.36,170.2657 L332.4,171.9257 L342.44,170.3471 L352.48,170.9238 L362.52,171.7634 L372.56,171.0731 L382.6,171.2785 L392.64,171.1449 L402.68,171.4255 L412.72,171.5063 L422.76,171.9684 L432.8,172.0822 L442.84,172.0932 L452.88,171.527 L462.92,171.8056 L472.96,172.1238 L483,171.1875 " fill="#F8F8F8" style="stroke:#383838;stroke-width:1.5;"/><text fill="#000000" font-family="FG Virgil" font-size="11" lengthAdjust="spacing" textLength="122" x="237" y="186.6064">addFruitToKart(Fruit fruit)</text><text fill="#000000" font-family="FG Virgil" font-size="11" lengthAdjust="spacing" textLength="241" x="237" y="200.4424">addFruitToKartWithQuantity(Fruit fruit, int quantity)</text><!--MD5=[bd7c0f51142e63538c828e65dcd8abbc]
class Kart--><polygon fill="#F8F8F8" points="7,267,7,267.2102,16.7826,266.5857,26.5652,267.1933,36.3478,267.3997,46.1304,266.2866,55.913,266.9223,65.6957,266.5735,75.4783,266.6165,85.2609,266.9318,95.0435,266.3086,104.8261,267.5536,114.6087,266.3697,124.3913,266.8022,134.1739,267.4319,143.9565,266.9142,153.7391,267.0682,163.5217,266.9681,173.3043,267.1785,183.087,267.2391,192.8696,267.5857,202.6522,267.6711,212.4348,267.6793,222.2174,267.2546,232,267,232.4636,267,232.7022,276.9431,231.2788,286.8862,232.6785,296.8292,231.7035,306.7723,232.5338,316.7154,231.505,326.6585,231.9315,336.6016,232.7416,346.5446,231.9513,356.4877,232.1053,366.4308,232.3386,376.3739,232.4162,386.317,231.9961,396.26,232,406.2031,232,406.4903,222.2174,405.6307,212.4348,406.4875,202.6522,406.7513,192.8696,406.6477,183.087,406.8161,173.3043,405.72,163.5217,405.5509,153.7391,405.5817,143.9565,406.1442,134.1739,406.0066,124.3913,406.8845,114.6087,406.0284,104.8261,405.8601,95.0435,406.4314,85.2609,405.5363,75.4783,405.684,65.6957,406.8521,55.913,406.6388,46.1304,406.9376,36.3478,405.8813,26.5652,406.5223,16.7826,406.7935,7,406.2031,6.5276,406.2031,6.9041,396.26,7.126,386.317,7.6518,376.3739,6.9958,366.4308,7.4626,356.4877,6.4462,346.5446,6.3227,336.6016,7.5036,326.6585,6.2831,316.7154,7.509,306.7723,7.2066,296.8292,6.7321,286.8862,6.6462,276.9431,7,267" style="stroke:#383838;stroke-width:1.5;"/><polygon fill="#C2C2C2" points="103.8108,289.7694,102.1984,291.9725,100.2912,295.1995,97.5636,297.3741,94.6974,298.5634,92.412,298.6666,89.4747,297.1793,86.7032,296.2077,84.5995,294.2349,83.4961,291.9765,82.8417,290.1783,82.2006,287.8295,81.16,285.8082,81.9596,283.8348,82.6602,281.673,85.2893,279.9632,87.139,277.7448,89.4284,277.0082,92.1501,276.3738,95.6404,276.7507,97.5521,277.6523,99.7747,278.0609,102.4772,280.8297,103.4193,283.7527,103.8286,285.7471,103.365,289.0336" style="stroke:#383838;stroke-width:1.0;"/><path d="M94.75,283.5938 Q94.9531,283.0938 95.1875,282.8438 Q95.4219,282.5938 95.6875,282.5938 Q96.1563,282.5938 96.4531,282.875 Q96.75,283.1563 96.75,283.8125 L96.75,285.375 Q96.75,286.0313 96.4688,286.3125 Q96.1875,286.5938 95.75,286.5938 Q95.3594,286.5938 95.1094,286.4219 Q94.8594,286.25 94.75,285.7969 Q94.7031,285.4844 94.5313,285.3125 Q94.2188,284.9844 93.6563,284.7969 Q93.0938,284.5938 92.5313,284.5938 Q91.8281,284.5938 91.2344,284.875 Q90.6563,285.1563 90.2031,285.7813 Q89.75,286.4063 89.75,287.2656 L89.75,288.1875 Q89.75,289.2188 90.5938,289.9063 Q91.4375,290.5938 92.9375,290.5938 Q93.8281,290.5938 94.4531,290.3906 Q94.8125,290.2813 95.2188,289.9219 Q95.4844,289.7188 95.625,289.6563 Q95.7656,289.5938 95.9375,289.5938 Q96.2656,289.5938 96.5,289.8594 Q96.75,290.1094 96.75,290.4688 Q96.75,290.8125 96.4063,291.2188 Q95.9063,291.8125 95.1094,292.1406 Q94.0625,292.5938 92.7813,292.5938 Q91.2813,292.5938 90.0781,292 Q89.1094,291.5313 88.4219,290.5156 Q87.75,289.5 87.75,288.2969 L87.75,287.2031 Q87.75,285.9531 88.3438,284.8594 Q88.9531,283.7656 90,283.1875 Q91.0625,282.5938 92.25,282.5938 Q92.9688,282.5938 93.5938,282.8438 Q94.2188,283.0938 94.75,283.5938 Z " fill="#000000"/><text fill="#000000" font-family="FG Virgil" font-size="12" font-style="italic" lengthAdjust="spacing" textLength="49" x="111.25" y="284.457">«model»</text><text fill="#000000" font-family="FG Virgil" font-size="12" lengthAdjust="spacing" textLength="22" x="124.75" y="299.5508">Kart</text><path d="M8,307.1875 L8,307.4677 L18.1364,306.6351 L28.2727,307.4452 L38.4091,307.7204 L48.5455,306.2363 L58.6818,307.0839 L68.8182,306.6188 L78.9545,306.6762 L89.0909,307.0966 L99.2273,306.2657 L109.3636,307.9257 L119.5,306.3471 L129.6364,306.9238 L139.7727,307.7634 L149.9091,307.0731 L160.0455,307.2785 L170.1818,307.1449 L180.3182,307.4255 L190.4545,307.5063 L200.5909,307.9684 L210.7273,308.0822 L220.8636,308.0932 L231,307.1875 " fill="#F8F8F8" style="stroke:#383838;stroke-width:1.5;"/><polygon fill="none" points="15,315.1875,15,315.2576,16.2,315.0494,17.4,315.2519,18.6,315.3207,19.8,314.9497,21,315.1875,20.9741,315.1875,20.8578,316.3875,20.8722,317.5875,20.9773,318.7875,20.7695,319.9875,21,321.1875,21,321.372,19.8,320.9774,18.6,321.1216,17.4,321.3315,16.2,321.1589,15,321.1875,15.0227,321.1875,14.9894,319.9875,15.0595,318.7875,15.0797,317.5875,15.1952,316.3875,15,315.1875" style="stroke:#595959;stroke-width:1.0;"/><text fill="#000000" font-family="FG Virgil" font-size="11" lengthAdjust="spacing" textLength="57" x="27" y="322.6064">String token</text><polygon fill="none" points="15,329.0234,15,329.0935,16.2,328.8853,17.4,329.0879,18.6,329.1567,19.8,328.7856,21,329.0234,20.9741,329.0234,20.8578,330.2234,20.8722,331.4234,20.9773,332.6234,20.7695,333.8234,21,335.0234,21,335.208,19.8,334.8133,18.6,334.9575,17.4,335.1674,16.2,334.9948,15,335.0234,15.0227,335.0234,14.9894,333.8234,15.0595,332.6234,15.0797,331.4234,15.1952,330.2234,15,329.0234" style="stroke:#595959;stroke-width:1.0;"/><text fill="#000000" font-family="FG Virgil" font-size="11" lengthAdjust="spacing" textLength="34" x="27" y="336.4424">int total</text><polygon fill="none" points="15,342.8594,15,342.9294,16.2,342.7213,17.4,342.9238,18.6,342.9926,19.8,342.6216,21,342.8594,20.9741,342.8594,20.8578,344.0594,20.8722,345.2594,20.9773,346.4594,20.7695,347.6594,21,348.8594,21,349.0439,19.8,348.6493,18.6,348.7935,17.4,349.0034,16.2,348.8308,15,348.8594,15.0227,348.8594,14.9894,347.6594,15.0595,346.4594,15.0797,345.2594,15.1952,344.0594,15,342.8594" style="stroke:#595959;stroke-width:1.0;"/><text fill="#000000" font-family="FG Virgil" font-size="11" lengthAdjust="spacing" textLength="199" x="27" y="350.2783">TreeMap&lt;Int, ArrayList&lt;Fruit&gt;&gt; mapFruits</text><path d="M8,356.6953 L8,356.9756 L18.1364,356.1429 L28.2727,356.953 L38.4091,357.2282 L48.5455,355.7441 L58.6818,356.5917 L68.8182,356.1267 L78.9545,356.184 L89.0909,356.6044 L99.2273,355.7735 L109.3636,357.4335 L119.5,355.8549 L129.6364,356.4316 L139.7727,357.2712 L149.9091,356.5809 L160.0455,356.7863 L170.1818,356.6527 L180.3182,356.9333 L190.4545,357.0142 L200.5909,357.4762 L210.7273,357.5901 L220.8636,357.601 L231,356.6953 " fill="#F8F8F8" style="stroke:#383838;stroke-width:1.5;"/><text fill="#000000" font-family="FG Virgil" font-size="11" lengthAdjust="spacing" textLength="192" x="13" y="372.1143">Kart(String token, int quantity, Fruit fruit)</text><text fill="#000000" font-family="FG Virgil" font-size="11" lengthAdjust="spacing" textLength="90" x="13" y="385.9502">addFruit(Fruit fruit)</text><text fill="#000000" font-family="FG Virgil" font-size="11" lengthAdjust="spacing" textLength="209" x="13" y="399.7861">addFruitWithQuantity(Fruit fruit, int quantity)</text><!--MD5=[27776cfee14aa9c2427bbac39b588c9d]
class KartRepository--><polygon fill="#F8F8F8" points="289,294.5,289,294.7102,299.2727,294.0857,309.5455,294.6933,319.8182,294.8997,330.0909,293.7866,340.3636,294.4223,350.6364,294.0735,360.9091,294.1165,371.1818,294.4318,381.4545,293.8086,391.7273,295.0536,402,294.5,401.3697,294.5,401.8022,304.9824,402.4319,315.4648,401.9142,325.9473,402.0682,336.4297,401.9681,346.9121,402.1785,357.3945,402.2391,367.877,402,378.3594,402,378.9451,391.7273,379.0304,381.4545,379.0386,371.1818,378.614,360.9091,378.823,350.6364,379.0616,340.3636,377.6382,330.0909,379.0379,319.8182,378.0629,309.5455,378.8932,299.2727,377.8644,289,378.3594,288.9315,378.3594,289.7416,367.877,288.9513,357.3945,289.1053,346.9121,289.3386,336.4297,289.4162,325.9473,288.9961,315.4648,289.2872,304.9824,289,294.5" style="stroke:#383838;stroke-width:1.5;"/><polygon fill="#C2C2C2" points="315.0608,317.2694,313.4484,319.4725,311.5412,322.6995,308.8136,324.8741,305.9474,326.0634,303.662,326.1666,300.7247,324.6793,297.9532,323.7077,295.8495,321.7349,294.7461,319.4765,294.0917,317.6783,293.4506,315.3295,292.41,313.3082,293.2096,311.3348,293.9102,309.173,296.5393,307.4632,298.389,305.2448,300.6784,304.5082,303.4001,303.8738,306.8904,304.2507,308.8021,305.1523,311.0247,305.5609,313.7272,308.3297,314.6693,311.2527,315.0786,313.2471,314.615,316.5336" style="stroke:#383838;stroke-width:1.0;"/><path d="M306,311.0938 Q306.2031,310.5938 306.4375,310.3438 Q306.6719,310.0938 306.9375,310.0938 Q307.4063,310.0938 307.7031,310.375 Q308,310.6563 308,311.3125 L308,312.875 Q308,313.5313 307.7188,313.8125 Q307.4375,314.0938 307,314.0938 Q306.6094,314.0938 306.3594,313.9219 Q306.1094,313.75 306,313.2969 Q305.9531,312.9844 305.7813,312.8125 Q305.4688,312.4844 304.9063,312.2969 Q304.3438,312.0938 303.7813,312.0938 Q303.0781,312.0938 302.4844,312.375 Q301.9063,312.6563 301.4531,313.2813 Q301,313.9063 301,314.7656 L301,315.6875 Q301,316.7188 301.8438,317.4063 Q302.6875,318.0938 304.1875,318.0938 Q305.0781,318.0938 305.7031,317.8906 Q306.0625,317.7813 306.4688,317.4219 Q306.7344,317.2188 306.875,317.1563 Q307.0156,317.0938 307.1875,317.0938 Q307.5156,317.0938 307.75,317.3594 Q308,317.6094 308,317.9688 Q308,318.3125 307.6563,318.7188 Q307.1563,319.3125 306.3594,319.6406 Q305.3125,320.0938 304.0313,320.0938 Q302.5313,320.0938 301.3281,319.5 Q300.3594,319.0313 299.6719,318.0156 Q299,317 299,315.7969 L299,314.7031 Q299,313.4531 299.5938,312.3594 Q300.2031,311.2656 301.25,310.6875 Q302.3125,310.0938 303.5,310.0938 Q304.2188,310.0938 304.8438,310.3438 Q305.4688,310.5938 306,311.0938 Z " fill="#000000"/><text fill="#000000" font-family="FG Virgil" font-size="12" font-style="italic" lengthAdjust="spacing" textLength="68" x="324.5" y="311.957">«repository»</text><text fill="#000000" font-family="FG Virgil" font-size="12" lengthAdjust="spacing" textLength="81" x="318" y="327.0508">KartRepository</text><path d="M290,334.6875 L290,334.9677 L300.0909,334.1351 L310.1818,334.9452 L320.2727,335.2204 L330.3636,333.7363 L340.4545,334.5839 L350.5455,334.1188 L360.6364,334.1762 L370.7273,334.5966 L380.8182,333.7657 L390.9091,335.4257 L401,334.6875 " fill="#F8F8F8" style="stroke:#383838;stroke-width:1.5;"/><path d="M290,342.6875 L290,342.9677 L300.0909,342.1351 L310.1818,342.9452 L320.2727,343.2204 L330.3636,341.7363 L340.4545,342.5839 L350.5455,342.1188 L360.6364,342.1762 L370.7273,342.5966 L380.8182,341.7657 L390.9091,343.4257 L401,342.6875 " fill="#F8F8F8" style="stroke:#383838;stroke-width:1.5;"/><text fill="#000000" font-family="FG Virgil" font-size="11" lengthAdjust="spacing" textLength="101" x="295" y="358.1064">getById(String token)</text><text fill="#000000" font-family="FG Virgil" font-size="11" lengthAdjust="spacing" textLength="32" x="295" y="371.9424">save()</text><!--MD5=[4d3ed3980322e9f10d81c4864645bcd7]
link UI to AddFruitGeneralController--><path d="M206.2,63.15 L206.4013,63.345 L199.0532,69.7334 L192.8851,77.2649 L186.3328,84.4241 L178.5168,90.3593 L172.3756,97.9168 L165.2916,104.561 L158.5827,111.5687 L152.1347,118.829 L145.45,125.86 " fill="none" style="stroke:#383838;stroke-width:1.0;"/><polygon fill="#383838" points="141.85,129.57,141.8762,129.635,143.6252,128.7053,145.5278,128.1564,147.3803,127.4836,149.0684,126.4028,150.9842,125.8867,150.9838,125.8608,149.8507,125.7628,148.7197,125.7954,147.5901,125.9187,146.4556,125.7292,145.3281,125.9779,145.5126,125.9809,145.0997,124.8433,145.2257,123.7144,145.4173,122.5866,145.2265,121.4526,145.2368,120.3218,145.2582,120.3296,144.5495,122.1678,143.938,124.0415,143.2796,125.8981,142.7107,127.7875,141.85,129.57" style="stroke:#383838;stroke-width:1.0;"/><!--MD5=[7f54fd4c5c63a32ade9a938236a9aab3]
link UI to AddFruitSpecificController--><path d="M259.01,63.15 L259.2105,63.3458 L265.4423,69.7553 L272.8494,77.3126 L279.8738,84.4961 L285.6395,90.4504 L293.0734,98.0339 L299.5682,104.7002 L306.4367,111.7315 L313.63,119.08 " fill="none" style="stroke:#383838;stroke-width:1.0;"/><polygon fill="#383838" points="317.24,122.77,317.3057,122.7944,316.4257,120.8751,315.9308,119.0986,315.3105,117.2756,314.2778,115.2997,313.8159,113.5355,313.79,113.5352,313.6601,114.6651,313.6607,115.7965,313.7521,116.9291,313.5307,118.0579,313.7475,119.192,313.7497,119.3765,312.6137,118.9682,311.4841,119.0987,310.3554,119.2949,309.222,119.1086,308.091,119.1235,308.0995,119.1447,309.9169,119.8429,311.7727,120.6374,313.6099,121.3855,315.4825,122.2221,317.24,122.77" style="stroke:#383838;stroke-width:1.0;"/><!--MD5=[aa7b8b93daf6d782810731cb019c171d]
link AddFruitGeneralController to KartRepository--><path d="M156.18,200.1 L156.343,200.3279 L163.8724,205.3819 L172.3574,211.7721 L180.5313,217.7272 L187.6817,222.2513 L196.1885,228.672 L203.9317,234.025 L211.9788,239.8028 L220.2371,245.8761 L227.7675,250.9314 L236.7469,258.0129 L243.8424,262.4602 L252.1916,268.6605 L260.6938,275.0747 L268.306,280.2445 L276.4392,286.1428 L284.4,291.8 " fill="none" style="stroke:#383838;stroke-width:1.0;"/><polygon fill="#383838" points="288.72,294.89,288.7805,294.9254,287.6056,293.1204,286.7852,291.5228,285.8493,289.8577,284.5339,287.9704,283.7439,286.3907,283.7184,286.3865,283.7867,287.4841,283.9838,288.6029,284.2706,289.7364,284.2486,290.8192,284.6591,291.973,284.6889,292.1551,283.5086,291.9487,282.4155,292.274,281.333,292.6642,280.1886,292.6769,279.0767,292.8881,279.0814,292.9104,281.0032,293.2781,282.9461,293.7471,284.8789,294.1673,286.831,294.6808,288.72,294.89" style="stroke:#383838;stroke-width:1.0;"/><!--MD5=[9117c866fd33c056e5ab7b1dd5d464b8]
link AddFruitGeneralController to Kart--><path d="M110.73,200.3 L111.0097,200.3181 L110.8437,210.5142 L112.3172,220.8167 L113.2568,231.0845 L112.4408,241.2384 L113.9516,251.5433 L114.72,261.8 " fill="none" style="stroke:#383838;stroke-width:1.0;"/><polygon fill="#383838" points="115.05,266.93,115.1158,266.9542,115.6003,265.0336,116.4703,263.2548,117.2147,261.4299,117.5464,259.4531,118.4495,257.6864,118.43,257.6694,117.5969,258.4436,116.862,259.3039,116.1954,260.2241,115.2935,260.9381,114.7212,261.9408,114.8428,262.0796,113.7319,261.0372,112.976,260.3999,112.2635,259.8121,111.2989,258.9367,110.4668,258.2125,110.487,258.2231,111.374,259.9511,112.3528,261.7272,113.2873,263.4801,114.3062,265.2774,115.05,266.93" style="stroke:#383838;stroke-width:1.0;"/><!--MD5=[323d1d9f98f8f25f1618adf3f7cd5d22]
link AddFruitSpecificController to KartRepository--><path d="M354.6,207.03 L354.8795,207.0498 L353.3215,217.2622 L353.4021,227.5907 L352.9491,237.8814 L350.7412,248.0478 L350.8591,258.3789 L349.6678,268.6173 L348.9974,278.8926 L348.78,289.2 " fill="none" style="stroke:#383838;stroke-width:1.0;"/><polygon fill="#383838" points="348.42,294.26,348.4818,294.293,349.2247,292.4568,350.33,290.8138,351.3173,289.108,351.9164,287.1952,353.0528,285.5688,353.0359,285.5492,352.1046,286.2021,351.2589,286.9538,350.4726,287.774,349.4815,288.3578,348.7773,289.2728,348.9167,289.3936,347.8777,288.2801,347.2458,287.5194,346.6637,286.8017,345.7925,285.8336,345.0733,284.9972,345.0947,285.0049,345.7326,286.8461,346.4679,288.7225,347.1563,290.582,347.9343,292.4738,348.42,294.26" style="stroke:#383838;stroke-width:1.0;"/><!--MD5=[8c6e0607da074d02108875b149f8e84e]
link AddFruitSpecificController to Kart--><path d="M299.89,207.03 L300.0526,207.2583 L291.6195,212.242 L284.1395,218.5639 L276.3491,224.4501 L267.5382,228.9032 L260.0799,235.2556 L251.8601,240.5388 L243.9434,246.2475 L236.2373,252.252 L227.8052,257.2371 L220.39,263.65 " fill="none" style="stroke:#383838;stroke-width:1.0;"/><polygon fill="#383838" points="216.04,266.74,216.054,266.8087,217.9427,266.212,219.9133,266.0178,221.8573,265.6925,223.7135,264.9363,225.6912,264.7766,225.6869,264.7511,224.5519,264.4489,223.4385,264.2756,222.3402,264.1918,221.1901,263.7994,220.1125,263.8392,220.2945,263.8698,220.0928,262.6887,220.4225,261.5968,220.817,260.5159,220.8342,259.3716,221.0499,258.2606,221.0695,258.2721,220.0388,259.951,219.0972,261.6826,218.1126,263.3888,217.2101,265.1434,216.04,266.74" style="stroke:#383838;stroke-width:1.0;"/><!--MD5=[d12d43424baf4a587bf3ce731f02d180]
@startuml
skinparam handwritten true
skinparam monochrome true
skinparam packageStyle rect
skinparam defaultFontName FG Virgil
skinparam shadowing false

class  UI <<presentation>>
class  AddFruitGeneralController <<application>>
class  AddFruitSpecificController <<application>>
class Kart <<model>>{
-String token
-int total
-TreeMap<Int, ArrayList<Fruit>> mapFruits
}

class KartRepository<<repository>>


UI - -> AddFruitGeneralController
UI - -> AddFruitSpecificController

AddFruitGeneralController - -> KartRepository

AddFruitGeneralController - -> Kart

AddFruitSpecificController - -> KartRepository

AddFruitSpecificController - -> Kart

AddFruitGeneralController : addFruitToKart(Fruit fruit)

AddFruitSpecificController : addFruitToKart(Fruit fruit)
AddFruitSpecificController : addFruitToKartWithQuantity(Fruit fruit, int quantity)


KartRepository : getById(String token)
KartRepository : save()

Kart : Kart(String token, int quantity, Fruit fruit)
Kart : addFruit(Fruit fruit)
Kart : addFruitWithQuantity(Fruit fruit, int quantity)



@enduml

PlantUML version 1.2021.11(Sat Oct 02 15:26:11 CEST 2021)
(GPL source distribution)
Java Runtime: OpenJDK Runtime Environment
JVM: Dynamic Code Evolution 64-Bit Server VM
Default Encoding: Cp1252
Language: pt
Country: PT
--></g></svg>