<?xml version="1.0" encoding="UTF-8" standalone="no"?><svg xmlns="http://www.w3.org/2000/svg" xmlns:xlink="http://www.w3.org/1999/xlink" contentScriptType="application/ecmascript" contentStyleType="text/css" height="469px" preserveAspectRatio="none" style="width:855px;height:469px;background:#FFFFFF;" version="1.1" viewBox="0 0 855 469" width="855px" zoomAndPan="magnify"><defs/><g><!--MD5=[909e55ea2f847c61bce34c2bfff4f3e9]
class FruitController--><polygon fill="#F8F8F8" points="243,7,243,7.2102,252.7826,6.5857,262.5652,7.1933,272.3478,7.3997,282.1304,6.2866,291.913,6.9223,301.6957,6.5735,311.4783,6.6165,321.2609,6.9318,331.0435,6.3086,340.8261,7.5536,350.6087,6.3697,360.3913,6.8022,370.1739,7.4319,379.9565,6.9142,389.7391,7.0682,399.5217,6.9681,409.3043,7.1785,419.087,7.2391,428.8696,7.5857,438.6522,7.6711,448.4348,7.6793,458.2174,7.2546,468,7,468.4636,7,468.7022,16.7695,467.2788,26.5391,468.6785,36.3086,467.7035,46.0781,468.5338,55.8477,467.505,65.6172,467.9315,75.3867,468.7416,85.1563,467.9513,94.9258,468,104.6953,468,104.8006,458.2174,105.0339,448.4348,105.1115,438.6522,104.6914,428.8696,104.9825,419.087,104.1229,409.3043,104.9797,399.5217,105.2435,389.7391,105.1398,379.9565,105.3083,370.1739,104.2122,360.3913,104.0431,350.6087,104.0739,340.8261,104.6364,331.0435,104.4988,321.2609,105.3767,311.4783,104.5206,301.6957,104.3523,291.913,104.9236,282.1304,104.0285,272.3478,104.1762,262.5652,105.3443,252.7826,105.131,243,104.6953,243.7345,104.6953,242.6782,94.9258,243.3192,85.1563,243.5904,75.3867,242.5276,65.6172,242.9041,55.8477,243.126,46.0781,243.6518,36.3086,242.9958,26.5391,243.4626,16.7695,243,7" style="stroke:#383838;stroke-width:1.5;"/><polygon fill="#C2C2C2" points="323.3108,29.7694,321.6984,31.9725,319.7912,35.1995,317.0636,37.3741,314.1974,38.5634,311.912,38.6666,308.9747,37.1793,306.2032,36.2077,304.0995,34.2349,302.9961,31.9765,302.3417,30.1783,301.7006,27.8295,300.66,25.8082,301.4596,23.8348,302.1602,21.673,304.7893,19.9632,306.639,17.7448,308.9284,17.0082,311.6501,16.3738,315.1404,16.7507,317.0521,17.6523,319.2747,18.0609,321.9772,20.8297,322.9193,23.7527,323.3286,25.7471,322.865,29.0336" style="stroke:#383838;stroke-width:1.0;"/><path d="M314.25,23.5938 Q314.4531,23.0938 314.6875,22.8438 Q314.9219,22.5938 315.1875,22.5938 Q315.6563,22.5938 315.9531,22.875 Q316.25,23.1563 316.25,23.8125 L316.25,25.375 Q316.25,26.0313 315.9688,26.3125 Q315.6875,26.5938 315.25,26.5938 Q314.8594,26.5938 314.6094,26.4219 Q314.3594,26.25 314.25,25.7969 Q314.2031,25.4844 314.0313,25.3125 Q313.7188,24.9844 313.1563,24.7969 Q312.5938,24.5938 312.0313,24.5938 Q311.3281,24.5938 310.7344,24.875 Q310.1563,25.1563 309.7031,25.7813 Q309.25,26.4063 309.25,27.2656 L309.25,28.1875 Q309.25,29.2188 310.0938,29.9063 Q310.9375,30.5938 312.4375,30.5938 Q313.3281,30.5938 313.9531,30.3906 Q314.3125,30.2813 314.7188,29.9219 Q314.9844,29.7188 315.125,29.6563 Q315.2656,29.5938 315.4375,29.5938 Q315.7656,29.5938 316,29.8594 Q316.25,30.1094 316.25,30.4688 Q316.25,30.8125 315.9063,31.2188 Q315.4063,31.8125 314.6094,32.1406 Q313.5625,32.5938 312.2813,32.5938 Q310.7813,32.5938 309.5781,32 Q308.6094,31.5313 307.9219,30.5156 Q307.25,29.5 307.25,28.2969 L307.25,27.2031 Q307.25,25.9531 307.8438,24.8594 Q308.4531,23.7656 309.5,23.1875 Q310.5625,22.5938 311.75,22.5938 Q312.4688,22.5938 313.0938,22.8438 Q313.7188,23.0938 314.25,23.5938 Z " fill="#000000"/><text fill="#000000" font-family="FG Virgil" font-size="12" font-style="italic" lengthAdjust="spacing" textLength="74" x="334.75" y="24.457">«application»</text><text fill="#000000" font-family="FG Virgil" font-size="12" lengthAdjust="spacing" textLength="78" x="332.75" y="39.5508">FruitController</text><path d="M244,47.1875 L244,47.4677 L254.1364,46.6351 L264.2727,47.4452 L274.4091,47.7204 L284.5455,46.2363 L294.6818,47.0839 L304.8182,46.6188 L314.9545,46.6762 L325.0909,47.0966 L335.2273,46.2657 L345.3636,47.9257 L355.5,46.3471 L365.6364,46.9238 L375.7727,47.7634 L385.9091,47.0731 L396.0455,47.2785 L406.1818,47.1449 L416.3182,47.4255 L426.4545,47.5063 L436.5909,47.9684 L446.7273,48.0822 L456.8636,48.0932 L467,47.1875 " fill="#F8F8F8" style="stroke:#383838;stroke-width:1.5;"/><path d="M244,55.1875 L244,55.4677 L254.1364,54.6351 L264.2727,55.4452 L274.4091,55.7204 L284.5455,54.2363 L294.6818,55.0839 L304.8182,54.6188 L314.9545,54.6762 L325.0909,55.0966 L335.2273,54.2657 L345.3636,55.9257 L355.5,54.3471 L365.6364,54.9238 L375.7727,55.7634 L385.9091,55.0731 L396.0455,55.2785 L406.1818,55.1449 L416.3182,55.4255 L426.4545,55.5063 L436.5909,55.9684 L446.7273,56.0822 L456.8636,56.0932 L467,55.1875 " fill="#F8F8F8" style="stroke:#383838;stroke-width:1.5;"/><polygon fill="#A6A6A6" points="257.0166,66.9172,256.5768,67.5181,256.0567,68.3981,255.3128,68.9912,254.5311,69.3156,253.9078,69.3437,253.1067,68.9381,252.3509,68.6731,251.7771,68.1351,251.4762,67.5192,251.2977,67.0287,251.1229,66.3881,250.8391,65.8369,251.0572,65.2987,251.2482,64.7091,251.9653,64.2428,252.4697,63.6378,253.0941,63.4369,253.8364,63.2639,254.7883,63.3667,255.3097,63.6126,255.9158,63.724,256.6529,64.4791,256.9098,65.2763,257.0214,65.8202,256.895,66.7166" style="stroke:#545454;stroke-width:1.0;"/><text fill="#000000" font-family="FG Virgil" font-size="11" lengthAdjust="spacing" textLength="199" x="263" y="70.6064">addFruitsToCart(String id, String quantity)</text><polygon fill="#A6A6A6" points="257.0166,80.7532,256.5768,81.354,256.0567,82.2341,255.3128,82.8272,254.5311,83.1515,253.9078,83.1797,253.1067,82.774,252.3509,82.5091,251.7771,81.971,251.4762,81.3551,251.2977,80.8647,251.1229,80.2241,250.8391,79.6728,251.0572,79.1346,251.2482,78.545,251.9653,78.0787,252.4697,77.4737,253.0941,77.2728,253.8364,77.0998,254.7883,77.2026,255.3097,77.4485,255.9158,77.5599,256.6529,78.3151,256.9098,79.1122,257.0214,79.6562,256.895,80.5525" style="stroke:#545454;stroke-width:1.0;"/><text fill="#000000" font-family="FG Virgil" font-size="11" lengthAdjust="spacing" textLength="118" x="263" y="84.4424">viewFruits(Model model)</text><polygon fill="#A6A6A6" points="257.0166,94.5891,256.5768,95.19,256.0567,96.07,255.3128,96.6631,254.5311,96.9875,253.9078,97.0156,253.1067,96.61,252.3509,96.345,251.7771,95.807,251.4762,95.191,251.2977,94.7006,251.1229,94.06,250.8391,93.5088,251.0572,92.9706,251.2482,92.381,251.9653,91.9147,252.4697,91.3097,253.0941,91.1088,253.8364,90.9358,254.7883,91.0385,255.3097,91.2844,255.9158,91.3959,256.6529,92.151,256.9098,92.9482,257.0214,93.4921,256.895,94.3884" style="stroke:#545454;stroke-width:1.0;"/><text fill="#000000" font-family="FG Virgil" font-size="11" lengthAdjust="spacing" textLength="148" x="263" y="98.2783">getFruit(String id, Model model)</text><!--MD5=[44a1b4afaef76c16e6c9ec4990ad0c8d]
class Item--><polygon fill="#F8F8F8" points="157,309,157,309.2102,166.9583,308.5857,176.9167,309.1933,186.875,309.3997,196.8333,308.2866,206.7917,308.9223,216.75,308.5735,226.7083,308.6165,236.6667,308.9318,246.625,308.3086,256.5833,309.5536,266.5417,308.3697,276.5,308.8022,286.4583,309.4319,296.4167,308.9142,306.375,309.0682,316.3333,308.9681,326.2917,309.1785,336.25,309.2391,346.2083,309.5857,356.1667,309.6711,366.125,309.6793,376.0833,309.2546,386.0417,309.4636,396,309,396.7022,309,395.2788,319.2026,396.6785,329.4052,395.7035,339.6078,396.5338,349.8104,395.505,360.013,395.9315,370.2156,396.7416,380.4182,395.9513,390.6208,396.1053,400.8234,396.3386,411.026,396.4162,421.2286,395.9961,431.4313,396.2872,441.6339,395.4276,451.8365,396,462.0391,396,462.3234,386.0417,462.5873,376.0833,462.4836,366.125,462.6521,356.1667,461.556,346.2083,461.3869,336.25,461.4177,326.2917,461.9802,316.3333,461.8425,306.375,462.7205,296.4167,461.8644,286.4583,461.696,276.5,462.2673,266.5417,461.3722,256.5833,461.5199,246.625,462.688,236.6667,462.4747,226.7083,462.7736,216.75,461.7173,206.7917,462.3583,196.8333,462.6295,186.875,461.5667,176.9167,461.9432,166.9583,462.165,157,462.0391,157.6518,462.0391,156.9958,451.8365,157.4626,441.6339,156.4462,431.4313,156.3227,421.2286,157.5036,411.026,156.2831,400.8234,157.509,390.6208,157.2066,380.4182,156.7321,370.2156,156.6462,360.013,157.4588,349.8104,156.7007,339.6078,157.5919,329.4052,156.4473,319.2026,157,309" style="stroke:#383838;stroke-width:1.5;"/><polygon fill="#C2C2C2" points="260.8108,331.7694,259.1984,333.9725,257.2912,337.1995,254.5636,339.3741,251.6974,340.5634,249.412,340.6666,246.4747,339.1793,243.7032,338.2077,241.5995,336.2349,240.4961,333.9765,239.8417,332.1783,239.2006,329.8295,238.16,327.8082,238.9596,325.8348,239.6602,323.673,242.2893,321.9632,244.139,319.7448,246.4284,319.0082,249.1501,318.3738,252.6404,318.7507,254.5521,319.6523,256.7747,320.0609,259.4772,322.8297,260.4193,325.7527,260.8286,327.7471,260.365,331.0336" style="stroke:#383838;stroke-width:1.0;"/><path d="M251.75,325.5938 Q251.9531,325.0938 252.1875,324.8438 Q252.4219,324.5938 252.6875,324.5938 Q253.1563,324.5938 253.4531,324.875 Q253.75,325.1563 253.75,325.8125 L253.75,327.375 Q253.75,328.0313 253.4688,328.3125 Q253.1875,328.5938 252.75,328.5938 Q252.3594,328.5938 252.1094,328.4219 Q251.8594,328.25 251.75,327.7969 Q251.7031,327.4844 251.5313,327.3125 Q251.2188,326.9844 250.6563,326.7969 Q250.0938,326.5938 249.5313,326.5938 Q248.8281,326.5938 248.2344,326.875 Q247.6563,327.1563 247.2031,327.7813 Q246.75,328.4063 246.75,329.2656 L246.75,330.1875 Q246.75,331.2188 247.5938,331.9063 Q248.4375,332.5938 249.9375,332.5938 Q250.8281,332.5938 251.4531,332.3906 Q251.8125,332.2813 252.2188,331.9219 Q252.4844,331.7188 252.625,331.6563 Q252.7656,331.5938 252.9375,331.5938 Q253.2656,331.5938 253.5,331.8594 Q253.75,332.1094 253.75,332.4688 Q253.75,332.8125 253.4063,333.2188 Q252.9063,333.8125 252.1094,334.1406 Q251.0625,334.5938 249.7813,334.5938 Q248.2813,334.5938 247.0781,334 Q246.1094,333.5313 245.4219,332.5156 Q244.75,331.5 244.75,330.2969 L244.75,329.2031 Q244.75,327.9531 245.3438,326.8594 Q245.9531,325.7656 247,325.1875 Q248.0625,324.5938 249.25,324.5938 Q249.9688,324.5938 250.5938,324.8438 Q251.2188,325.0938 251.75,325.5938 Z " fill="#000000"/><text fill="#000000" font-family="FG Virgil" font-size="12" font-style="italic" lengthAdjust="spacing" textLength="49" x="268.25" y="326.457">«model»</text><text fill="#000000" font-family="FG Virgil" font-size="12" lengthAdjust="spacing" textLength="24" x="280.75" y="341.5508">Item</text><path d="M158,349.1875 L158,349.4677 L167.875,348.6351 L177.75,349.4452 L187.625,349.7204 L197.5,348.2363 L207.375,349.0839 L217.25,348.6188 L227.125,348.6762 L237,349.0966 L246.875,348.2657 L256.75,349.9257 L266.625,348.3471 L276.5,348.9238 L286.375,349.7634 L296.25,349.0731 L306.125,349.2785 L316,349.1449 L325.875,349.4255 L335.75,349.5063 L345.625,349.9684 L355.5,350.0822 L365.375,350.0932 L375.25,349.527 L385.125,349.8056 L395,349.1875 " fill="#F8F8F8" style="stroke:#383838;stroke-width:1.5;"/><polygon fill="none" points="165,357.1875,165,357.2576,166.2,357.0494,167.4,357.2519,168.6,357.3207,169.8,356.9497,171,357.1875,170.9741,357.1875,170.8578,358.3875,170.8722,359.5875,170.9773,360.7875,170.7695,361.9875,171,363.1875,171,363.372,169.8,362.9774,168.6,363.1216,167.4,363.3315,166.2,363.1589,165,363.1875,165.0227,363.1875,164.9894,361.9875,165.0595,360.7875,165.0797,359.5875,165.1952,358.3875,165,357.1875" style="stroke:#595959;stroke-width:1.0;"/><text fill="#000000" font-family="FG Virgil" font-size="11" lengthAdjust="spacing" textLength="35" x="177" y="364.6064">Long id</text><polygon fill="none" points="165,371.0234,165,371.0935,166.2,370.8853,167.4,371.0879,168.6,371.1567,169.8,370.7856,171,371.0234,170.9741,371.0234,170.8578,372.2234,170.8722,373.4234,170.9773,374.6234,170.7695,375.8234,171,377.0234,171,377.208,169.8,376.8133,168.6,376.9575,167.4,377.1674,166.2,376.9948,165,377.0234,165.0227,377.0234,164.9894,375.8234,165.0595,374.6234,165.0797,373.4234,165.1952,372.2234,165,371.0234" style="stroke:#595959;stroke-width:1.0;"/><text fill="#000000" font-family="FG Virgil" font-size="11" lengthAdjust="spacing" textLength="79" x="177" y="378.4424">String username</text><polygon fill="none" points="165,384.8594,165,384.9294,166.2,384.7213,167.4,384.9238,168.6,384.9926,169.8,384.6216,171,384.8594,170.9741,384.8594,170.8578,386.0594,170.8722,387.2594,170.9773,388.4594,170.7695,389.6594,171,390.8594,171,391.0439,169.8,390.6493,168.6,390.7935,167.4,391.0034,166.2,390.8308,165,390.8594,165.0227,390.8594,164.9894,389.6594,165.0595,388.4594,165.0797,387.2594,165.1952,386.0594,165,384.8594" style="stroke:#595959;stroke-width:1.0;"/><text fill="#000000" font-family="FG Virgil" font-size="11" lengthAdjust="spacing" textLength="43" x="177" y="392.2783">Fruit fruit</text><polygon fill="none" points="165,398.6953,165,398.7654,166.2,398.5572,167.4,398.7597,168.6,398.8285,169.8,398.4575,171,398.6953,170.9741,398.6953,170.8578,399.8953,170.8722,401.0953,170.9773,402.2953,170.7695,403.4953,171,404.6953,171,404.8799,169.8,404.4852,168.6,404.6294,167.4,404.8393,166.2,404.6667,165,404.6953,165.0227,404.6953,164.9894,403.4953,165.0595,402.2953,165.0797,401.0953,165.1952,399.8953,165,398.6953" style="stroke:#595959;stroke-width:1.0;"/><text fill="#000000" font-family="FG Virgil" font-size="11" lengthAdjust="spacing" textLength="52" x="177" y="406.1143">int quantity</text><path d="M158,412.5313 L158,412.8115 L167.875,411.9788 L177.75,412.789 L187.625,413.0642 L197.5,411.5801 L207.375,412.4276 L217.25,411.9626 L227.125,412.0199 L237,412.4404 L246.875,411.6094 L256.75,413.2694 L266.625,411.6909 L276.5,412.2676 L286.375,413.1072 L296.25,412.4169 L306.125,412.6222 L316,412.4887 L325.875,412.7693 L335.75,412.8501 L345.625,413.3122 L355.5,413.426 L365.375,413.4369 L375.25,412.8708 L385.125,413.1494 L395,412.5313 " fill="#F8F8F8" style="stroke:#383838;stroke-width:1.5;"/><polygon fill="#A6A6A6" points="171.0166,424.261,170.5768,424.8618,170.0567,425.7419,169.3128,426.335,168.5311,426.6593,167.9078,426.6875,167.1067,426.2819,166.3509,426.0169,165.7771,425.4788,165.4762,424.8629,165.2977,424.3725,165.1229,423.7319,164.8391,423.1807,165.0572,422.6424,165.2482,422.0529,165.9653,421.5866,166.4697,420.9815,167.0941,420.7806,167.8364,420.6076,168.7883,420.7104,169.3097,420.9563,169.9158,421.0678,170.6529,421.8229,170.9098,422.6201,171.0214,423.164,170.895,424.0603" style="stroke:#545454;stroke-width:1.0;"/><text fill="#000000" font-family="FG Virgil" font-size="11" lengthAdjust="spacing" textLength="213" x="177" y="427.9502">Item(String username, Fruit fruit, int quantity)</text><polygon fill="#808080" points="165,434.3672,165,434.4372,166.2,434.2291,167.4,434.4316,168.6,434.5004,169.8,434.1294,171,434.3672,170.9741,434.3672,170.8578,435.5672,170.8722,436.7672,170.9773,437.9672,170.7695,439.1672,171,440.3672,171,440.5517,169.8,440.1571,168.6,440.3013,167.4,440.5112,166.2,440.3386,165,440.3672,165.0227,440.3672,164.9894,439.1672,165.0595,437.9672,165.0797,436.7672,165.1952,435.5672,165,434.3672" style="stroke:#595959;stroke-width:1.0;"/><text fill="#000000" font-family="FG Virgil" font-size="11" lengthAdjust="spacing" textLength="27" x="177" y="441.7861">Item()</text><polygon fill="#A6A6A6" points="171.0166,451.9328,170.5768,452.5337,170.0567,453.4138,169.3128,454.0069,168.5311,454.3312,167.9078,454.3593,167.1067,453.9537,166.3509,453.6887,165.7771,453.1507,165.4762,452.5348,165.2977,452.0444,165.1229,451.4038,164.8391,450.8525,165.0572,450.3143,165.2482,449.7247,165.9653,449.2584,166.4697,448.6534,167.0941,448.4525,167.8364,448.2795,168.7883,448.3823,169.3097,448.6282,169.9158,448.7396,170.6529,449.4948,170.9098,450.2919,171.0214,450.8359,170.895,451.7322" style="stroke:#545454;stroke-width:1.0;"/><text fill="#000000" font-family="FG Virgil" font-size="11" lengthAdjust="spacing" textLength="136" x="177" y="455.6221">addSeveralFruit(int quantity)</text><!--MD5=[5b493bdb9565208e4feee82cc972c665]
class FruitService--><polygon fill="#F8F8F8" points="77.5,165,77.5,165.2102,87.2333,164.5857,96.9667,165.1933,106.7,165.3997,116.4333,164.2866,126.1667,164.9223,135.9,164.5735,145.6333,164.6165,155.3667,164.9318,165.1,164.3086,174.8333,165.5536,184.5667,164.3697,194.3,164.8022,204.0333,165.4319,213.7667,164.9142,223.5,165,223.5682,165,223.4681,175.4824,223.6785,185.9648,223.7391,196.4473,224.0857,206.9297,224.1711,217.4121,224.1793,227.8945,223.7546,238.377,223.5,248.8594,223.5,249.323,213.7667,249.5616,204.0333,248.1382,194.3,249.5379,184.5667,248.5629,174.8333,249.3932,165.1,248.3644,155.3667,248.7909,145.6333,249.601,135.9,248.8106,126.1667,248.9647,116.4333,249.198,106.7,249.2756,96.9667,248.8555,87.2333,249.1466,77.5,248.8594,76.9276,248.8594,77.7844,238.377,78.0482,227.8945,77.9445,217.4121,78.113,206.9297,77.0169,196.4473,76.8478,185.9648,76.8786,175.4824,77.5,165" style="stroke:#383838;stroke-width:1.5;"/><polygon fill="#C2C2C2" points="126.0608,187.7694,124.4484,189.9725,122.5412,193.1995,119.8136,195.3741,116.9474,196.5634,114.662,196.6666,111.7247,195.1793,108.9532,194.2077,106.8495,192.2349,105.7461,189.9765,105.0917,188.1783,104.4506,185.8295,103.41,183.8082,104.2096,181.8348,104.9102,179.673,107.5393,177.9632,109.389,175.7448,111.6784,175.0082,114.4001,174.3738,117.8904,174.7507,119.8021,175.6523,122.0247,176.0609,124.7272,178.8297,125.6693,181.7527,126.0786,183.7471,125.615,187.0336" style="stroke:#383838;stroke-width:1.0;"/><path d="M117,181.5938 Q117.2031,181.0938 117.4375,180.8438 Q117.6719,180.5938 117.9375,180.5938 Q118.4063,180.5938 118.7031,180.875 Q119,181.1563 119,181.8125 L119,183.375 Q119,184.0313 118.7188,184.3125 Q118.4375,184.5938 118,184.5938 Q117.6094,184.5938 117.3594,184.4219 Q117.1094,184.25 117,183.7969 Q116.9531,183.4844 116.7813,183.3125 Q116.4688,182.9844 115.9063,182.7969 Q115.3438,182.5938 114.7813,182.5938 Q114.0781,182.5938 113.4844,182.875 Q112.9063,183.1563 112.4531,183.7813 Q112,184.4063 112,185.2656 L112,186.1875 Q112,187.2188 112.8438,187.9063 Q113.6875,188.5938 115.1875,188.5938 Q116.0781,188.5938 116.7031,188.3906 Q117.0625,188.2813 117.4688,187.9219 Q117.7344,187.7188 117.875,187.6563 Q118.0156,187.5938 118.1875,187.5938 Q118.5156,187.5938 118.75,187.8594 Q119,188.1094 119,188.4688 Q119,188.8125 118.6563,189.2188 Q118.1563,189.8125 117.3594,190.1406 Q116.3125,190.5938 115.0313,190.5938 Q113.5313,190.5938 112.3281,190 Q111.3594,189.5313 110.6719,188.5156 Q110,187.5 110,186.2969 L110,185.2031 Q110,183.9531 110.5938,182.8594 Q111.2031,181.7656 112.25,181.1875 Q113.3125,180.5938 114.5,180.5938 Q115.2188,180.5938 115.8438,180.8438 Q116.4688,181.0938 117,181.5938 Z " fill="#000000"/><text fill="#000000" font-family="FG Virgil" font-size="12" font-style="italic" lengthAdjust="spacing" textLength="53" x="139.5" y="182.457">«service»</text><text fill="#000000" font-family="FG Virgil" font-size="12" lengthAdjust="spacing" textLength="64" x="134" y="197.5508">FruitService</text><path d="M78.5,205.1875 L78.5,205.4677 L88.7857,204.6351 L99.0714,205.4452 L109.3571,205.7204 L119.6429,204.2363 L129.9286,205.0839 L140.2143,204.6188 L150.5,204.6762 L160.7857,205.0966 L171.0714,204.2657 L181.3571,205.9257 L191.6429,204.3471 L201.9286,204.9238 L212.2143,205.7634 L222.5,205.1875 " fill="#F8F8F8" style="stroke:#383838;stroke-width:1.5;"/><path d="M78.5,213.1875 L78.5,213.4677 L88.7857,212.6351 L99.0714,213.4452 L109.3571,213.7204 L119.6429,212.2363 L129.9286,213.0839 L140.2143,212.6188 L150.5,212.6762 L160.7857,213.0966 L171.0714,212.2657 L181.3571,213.9257 L191.6429,212.3471 L201.9286,212.9238 L212.2143,213.7634 L222.5,213.1875 " fill="#F8F8F8" style="stroke:#383838;stroke-width:1.5;"/><polygon fill="#A6A6A6" points="91.5166,224.9172,91.0768,225.5181,90.5567,226.3981,89.8128,226.9912,89.0311,227.3156,88.4078,227.3437,87.6067,226.9381,86.8509,226.6731,86.2771,226.1351,85.9762,225.5192,85.7977,225.0287,85.6229,224.3881,85.3391,223.8369,85.5572,223.2987,85.7482,222.7091,86.4653,222.2428,86.9697,221.6378,87.5941,221.4369,88.3364,221.2639,89.2883,221.3667,89.8097,221.6126,90.4158,221.724,91.1529,222.4791,91.4098,223.2763,91.5214,223.8202,91.395,224.7166" style="stroke:#545454;stroke-width:1.0;"/><text fill="#000000" font-family="FG Virgil" font-size="11" lengthAdjust="spacing" textLength="62" x="97.5" y="228.6064">getAllFruits()</text><polygon fill="#A6A6A6" points="91.5166,238.7532,91.0768,239.354,90.5567,240.2341,89.8128,240.8272,89.0311,241.1515,88.4078,241.1797,87.6067,240.774,86.8509,240.5091,86.2771,239.971,85.9762,239.3551,85.7977,238.8647,85.6229,238.2241,85.3391,237.6728,85.5572,237.1346,85.7482,236.545,86.4653,236.0787,86.9697,235.4737,87.5941,235.2728,88.3364,235.0998,89.2883,235.2026,89.8097,235.4485,90.4158,235.5599,91.1529,236.3151,91.4098,237.1122,91.5214,237.6562,91.395,238.5525" style="stroke:#545454;stroke-width:1.0;"/><text fill="#000000" font-family="FG Virgil" font-size="11" lengthAdjust="spacing" textLength="120" x="97.5" y="242.4424">getASingleFruit(String id)</text><!--MD5=[5ee510b617988fb328de72a9e1ecfcf9]
class ItemService--><polygon fill="#F8F8F8" points="265,172,265,172.2102,275.0556,171.5857,285.1111,172.1933,295.1667,172.3997,305.2222,171.2866,315.2778,171.9223,325.3333,171.5735,335.3889,171.6165,345.4444,171.9318,355.5,171.3086,365.5556,172.5536,375.6111,171.3697,385.6667,171.8022,395.7222,172.4319,405.7778,171.9142,415.8333,172.0682,425.8889,171.9681,435.9444,172.1785,446,172,446.2391,172,446.5857,182.0033,446.6711,192.0067,446.6793,202.01,446.2546,212.0134,446.4636,222.0167,446.7022,232.0201,446,242.0234,446,241.3023,435.9444,242.7019,425.8889,241.7269,415.8333,242.5572,405.7778,241.5284,395.7222,241.9549,385.6667,242.765,375.6111,241.9747,365.5556,242.1287,355.5,242.3621,345.4444,242.4397,335.3889,242.0195,325.3333,242.3107,315.2778,241.451,305.2222,242.3078,295.1667,242.5716,285.1111,242.468,275.0556,242.6365,265,242.0234,264.5169,242.0234,264.3478,232.0201,264.3786,222.0167,264.9411,212.0134,264.8035,202.01,265.6814,192.0067,264.8253,182.0033,265,172" style="stroke:#383838;stroke-width:1.5;"/><polygon fill="#C2C2C2" points="330.3108,194.7694,328.6984,196.9725,326.7912,200.1995,324.0636,202.3741,321.1974,203.5634,318.912,203.6666,315.9747,202.1793,313.2032,201.2077,311.0995,199.2349,309.9961,196.9765,309.3417,195.1783,308.7006,192.8295,307.66,190.8082,308.4596,188.8348,309.1602,186.673,311.7893,184.9632,313.639,182.7448,315.9284,182.0082,318.6501,181.3738,322.1404,181.7507,324.0521,182.6523,326.2747,183.0609,328.9772,185.8297,329.9193,188.7527,330.3286,190.7471,329.865,194.0336" style="stroke:#383838;stroke-width:1.0;"/><path d="M321.25,188.5938 Q321.4531,188.0938 321.6875,187.8438 Q321.9219,187.5938 322.1875,187.5938 Q322.6563,187.5938 322.9531,187.875 Q323.25,188.1563 323.25,188.8125 L323.25,190.375 Q323.25,191.0313 322.9688,191.3125 Q322.6875,191.5938 322.25,191.5938 Q321.8594,191.5938 321.6094,191.4219 Q321.3594,191.25 321.25,190.7969 Q321.2031,190.4844 321.0313,190.3125 Q320.7188,189.9844 320.1563,189.7969 Q319.5938,189.5938 319.0313,189.5938 Q318.3281,189.5938 317.7344,189.875 Q317.1563,190.1563 316.7031,190.7813 Q316.25,191.4063 316.25,192.2656 L316.25,193.1875 Q316.25,194.2188 317.0938,194.9063 Q317.9375,195.5938 319.4375,195.5938 Q320.3281,195.5938 320.9531,195.3906 Q321.3125,195.2813 321.7188,194.9219 Q321.9844,194.7188 322.125,194.6563 Q322.2656,194.5938 322.4375,194.5938 Q322.7656,194.5938 323,194.8594 Q323.25,195.1094 323.25,195.4688 Q323.25,195.8125 322.9063,196.2188 Q322.4063,196.8125 321.6094,197.1406 Q320.5625,197.5938 319.2813,197.5938 Q317.7813,197.5938 316.5781,197 Q315.6094,196.5313 314.9219,195.5156 Q314.25,194.5 314.25,193.2969 L314.25,192.2031 Q314.25,190.9531 314.8438,189.8594 Q315.4531,188.7656 316.5,188.1875 Q317.5625,187.5938 318.75,187.5938 Q319.4688,187.5938 320.0938,187.8438 Q320.7188,188.0938 321.25,188.5938 Z " fill="#000000"/><text fill="#000000" font-family="FG Virgil" font-size="12" font-style="italic" lengthAdjust="spacing" textLength="53" x="345.25" y="189.457">«service»</text><text fill="#000000" font-family="FG Virgil" font-size="12" lengthAdjust="spacing" textLength="64" x="339.75" y="204.5508">ItemService</text><path d="M266,212.1875 L266,212.4677 L275.9444,211.6351 L285.8889,212.4452 L295.8333,212.7204 L305.7778,211.2363 L315.7222,212.0839 L325.6667,211.6188 L335.6111,211.6762 L345.5556,212.0966 L355.5,211.2657 L365.4444,212.9257 L375.3889,211.3471 L385.3333,211.9238 L395.2778,212.7634 L405.2222,212.0731 L415.1667,212.2785 L425.1111,212.1449 L435.0556,212.4255 L445,212.1875 " fill="#F8F8F8" style="stroke:#383838;stroke-width:1.5;"/><path d="M266,220.1875 L266,220.4677 L275.9444,219.6351 L285.8889,220.4452 L295.8333,220.7204 L305.7778,219.2363 L315.7222,220.0839 L325.6667,219.6188 L335.6111,219.6762 L345.5556,220.0966 L355.5,219.2657 L365.4444,220.9257 L375.3889,219.3471 L385.3333,219.9238 L395.2778,220.7634 L405.2222,220.0731 L415.1667,220.2785 L425.1111,220.1449 L435.0556,220.4255 L445,220.1875 " fill="#F8F8F8" style="stroke:#383838;stroke-width:1.5;"/><polygon fill="#A6A6A6" points="279.0166,231.9172,278.5768,232.5181,278.0567,233.3981,277.3128,233.9912,276.5311,234.3156,275.9078,234.3437,275.1067,233.9381,274.3509,233.6731,273.7771,233.1351,273.4762,232.5192,273.2977,232.0287,273.1229,231.3881,272.8391,230.8369,273.0572,230.2987,273.2482,229.7091,273.9653,229.2428,274.4697,228.6378,275.0941,228.4369,275.8364,228.2639,276.7883,228.3667,277.3097,228.6126,277.9158,228.724,278.6529,229.4791,278.9098,230.2763,279.0214,230.8202,278.895,231.7166" style="stroke:#545454;stroke-width:1.0;"/><text fill="#000000" font-family="FG Virgil" font-size="11" lengthAdjust="spacing" textLength="155" x="285" y="235.6064">addToCart(String id, int quantity)</text><!--MD5=[18e00b38c5644b2e127bdcf6e6ccd320]
class CategoryService--><polygon fill="#F8F8F8" points="638,172,638,172.2102,648.0833,171.5857,658.1667,172.1933,668.25,172.3997,678.3333,171.2866,688.4167,171.9223,698.5,171.5735,708.5833,171.6165,718.6667,171.9318,728.75,171.3086,738.8333,172.5536,748.9167,171.3697,759,172,758.8022,172,759.4319,182.0033,758.9142,192.0067,759.0682,202.01,758.9681,212.0134,759.1785,222.0167,759.2391,232.0201,759,242.0234,759,242.6091,748.9167,242.6945,738.8333,242.7027,728.75,242.2781,718.6667,242.487,708.5833,242.7257,698.5,241.3023,688.4167,242.7019,678.3333,241.7269,668.25,242.5572,658.1667,241.5284,648.0833,241.9549,638,242.0234,638.7416,242.0234,637.9513,232.0201,638.1053,222.0167,638.3386,212.0134,638.4162,202.01,637.9961,192.0067,638.2872,182.0033,638,172" style="stroke:#383838;stroke-width:1.5;"/><polygon fill="#C2C2C2" points="664.0608,194.7694,662.4484,196.9725,660.5412,200.1995,657.8136,202.3741,654.9474,203.5634,652.662,203.6666,649.7247,202.1793,646.9532,201.2077,644.8495,199.2349,643.7461,196.9765,643.0917,195.1783,642.4506,192.8295,641.41,190.8082,642.2096,188.8348,642.9102,186.673,645.5393,184.9632,647.389,182.7448,649.6784,182.0082,652.4001,181.3738,655.8904,181.7507,657.8021,182.6523,660.0247,183.0609,662.7272,185.8297,663.6693,188.7527,664.0786,190.7471,663.615,194.0336" style="stroke:#383838;stroke-width:1.0;"/><path d="M655,188.5938 Q655.2031,188.0938 655.4375,187.8438 Q655.6719,187.5938 655.9375,187.5938 Q656.4063,187.5938 656.7031,187.875 Q657,188.1563 657,188.8125 L657,190.375 Q657,191.0313 656.7188,191.3125 Q656.4375,191.5938 656,191.5938 Q655.6094,191.5938 655.3594,191.4219 Q655.1094,191.25 655,190.7969 Q654.9531,190.4844 654.7813,190.3125 Q654.4688,189.9844 653.9063,189.7969 Q653.3438,189.5938 652.7813,189.5938 Q652.0781,189.5938 651.4844,189.875 Q650.9063,190.1563 650.4531,190.7813 Q650,191.4063 650,192.2656 L650,193.1875 Q650,194.2188 650.8438,194.9063 Q651.6875,195.5938 653.1875,195.5938 Q654.0781,195.5938 654.7031,195.3906 Q655.0625,195.2813 655.4688,194.9219 Q655.7344,194.7188 655.875,194.6563 Q656.0156,194.5938 656.1875,194.5938 Q656.5156,194.5938 656.75,194.8594 Q657,195.1094 657,195.4688 Q657,195.8125 656.6563,196.2188 Q656.1563,196.8125 655.3594,197.1406 Q654.3125,197.5938 653.0313,197.5938 Q651.5313,197.5938 650.3281,197 Q649.3594,196.5313 648.6719,195.5156 Q648,194.5 648,193.2969 L648,192.2031 Q648,190.9531 648.5938,189.8594 Q649.2031,188.7656 650.25,188.1875 Q651.3125,187.5938 652.5,187.5938 Q653.2188,187.5938 653.8438,187.8438 Q654.4688,188.0938 655,188.5938 Z " fill="#000000"/><text fill="#000000" font-family="FG Virgil" font-size="12" font-style="italic" lengthAdjust="spacing" textLength="53" x="685" y="189.457">«service»</text><text fill="#000000" font-family="FG Virgil" font-size="12" lengthAdjust="spacing" textLength="89" x="667" y="204.5508">CategoryService</text><path d="M639,212.1875 L639,212.4677 L648.9167,211.6351 L658.8333,212.4452 L668.75,212.7204 L678.6667,211.2363 L688.5833,212.0839 L698.5,211.6188 L708.4167,211.6762 L718.3333,212.0966 L728.25,211.2657 L738.1667,212.9257 L748.0833,211.3471 L758,212.1875 " fill="#F8F8F8" style="stroke:#383838;stroke-width:1.5;"/><path d="M639,220.1875 L639,220.4677 L648.9167,219.6351 L658.8333,220.4452 L668.75,220.7204 L678.6667,219.2363 L688.5833,220.0839 L698.5,219.6188 L708.4167,219.6762 L718.3333,220.0966 L728.25,219.2657 L738.1667,220.9257 L748.0833,219.3471 L758,220.1875 " fill="#F8F8F8" style="stroke:#383838;stroke-width:1.5;"/><polygon fill="#A6A6A6" points="652.0166,231.9172,651.5768,232.5181,651.0567,233.3981,650.3128,233.9912,649.5311,234.3156,648.9078,234.3437,648.1067,233.9381,647.3509,233.6731,646.7771,233.1351,646.4762,232.5192,646.2977,232.0287,646.1229,231.3881,645.8391,230.8369,646.0572,230.2987,646.2482,229.7091,646.9653,229.2428,647.4697,228.6378,648.0941,228.4369,648.8364,228.2639,649.7883,228.3667,650.3097,228.6126,650.9158,228.724,651.6529,229.4791,651.9098,230.2763,652.0214,230.8202,651.895,231.7166" style="stroke:#545454;stroke-width:1.0;"/><text fill="#000000" font-family="FG Virgil" font-size="11" lengthAdjust="spacing" textLength="87" x="658" y="235.6064">getAllCategories()</text><!--MD5=[ce1398305a9b40be4cd6d90fd229e3b0]
class ItemRepository--><polygon fill="#F8F8F8" points="431.5,343.5,431.5,343.7102,441.5,343.0857,451.5,343.6933,461.5,343.8997,471.5,342.7866,481.5,343.4223,491.5,343.0735,501.5,343.1165,511.5,343.4318,521.5,342.8086,531.5,344.0536,541.5,342.8697,551.5,343.3022,561.5,343.9319,571.5,343.4142,581.5,343.5682,591.5,343.4681,601.5,343.6785,611.5,343.7391,621.5,344.0857,631.5,344.1711,641.5,344.1793,651.5,343.7546,661.5,343.9636,671.5,343.5,672.2022,343.5,670.7788,353.9824,672.1785,364.4648,671.2035,374.9473,672.0338,385.4297,671.005,395.9121,671.4315,406.3945,672.2416,416.877,671.5,427.3594,671.5,427.3106,661.5,427.4647,651.5,427.698,641.5,427.7756,631.5,427.3555,621.5,427.6466,611.5,426.787,601.5,427.6438,591.5,427.9076,581.5,427.8039,571.5,427.9724,561.5,426.8763,551.5,426.7072,541.5,426.738,531.5,427.3005,521.5,427.1628,511.5,428.0408,501.5,427.1847,491.5,427.0163,481.5,427.5876,471.5,426.6925,461.5,426.8402,451.5,428.0083,441.5,427.795,431.5,427.3594,432.2345,427.3594,431.1782,416.877,431.8192,406.3945,432.0904,395.9121,431.0276,385.4297,431.4041,374.9473,431.626,364.4648,432.1518,353.9824,431.5,343.5" style="stroke:#383838;stroke-width:1.5;"/><polygon fill="#B1B1B1" points="516.3108,366.2694,514.6984,368.4725,512.7912,371.6995,510.0636,373.8741,507.1974,375.0634,504.912,375.1666,501.9747,373.6793,499.2032,372.7077,497.0995,370.7349,495.9961,368.4765,495.3417,366.6783,494.7006,364.3295,493.66,362.3082,494.4596,360.3348,495.1602,358.173,497.7893,356.4632,499.639,354.2448,501.9284,353.5082,504.6501,352.8738,508.1404,353.2507,510.0521,354.1523,512.2747,354.5609,514.9772,357.3297,515.9193,360.2527,516.3286,362.2471,515.865,365.5336" style="stroke:#383838;stroke-width:1.0;"/><path d="M506.25,360.5938 L506.25,366.5938 L508.25,366.5938 L508.7344,366.5938 L509.25,367.2188 L509.25,367.5938 L509.25,367.9688 L508.7344,368.5938 L508.25,368.5938 L502.25,368.5938 L501.7656,368.5938 L501.25,367.9688 L501.25,367.5938 L501.25,367.2188 L501.7656,366.5938 L502.25,366.5938 L504.25,366.5938 L504.25,360.5938 L502.25,360.5938 L501.7656,360.5938 L501.25,359.9688 L501.25,359.5938 L501.25,359.2188 L501.7656,358.5938 L502.25,358.5938 L508.25,358.5938 L508.7344,358.5938 L509.25,359.2188 L509.25,359.5938 L509.25,359.9688 L508.7344,360.5938 L508.25,360.5938 L506.25,360.5938 Z " fill="#000000"/><text fill="#000000" font-family="FG Virgil" font-size="12" font-style="italic" lengthAdjust="spacing" textLength="68" x="533.75" y="360.957">«repository»</text><text fill="#000000" font-family="FG Virgil" font-size="12" font-style="italic" lengthAdjust="spacing" textLength="84" x="525.75" y="376.0508">ItemRepository</text><path d="M432.5,383.6875 L432.5,383.9677 L442.4167,383.1351 L452.3333,383.9452 L462.25,384.2204 L472.1667,382.7363 L482.0833,383.5839 L492,383.1188 L501.9167,383.1762 L511.8333,383.5966 L521.75,382.7657 L531.6667,384.4257 L541.5833,382.8471 L551.5,383.4238 L561.4167,384.2634 L571.3333,383.5731 L581.25,383.7785 L591.1667,383.6449 L601.0833,383.9255 L611,384.0063 L620.9167,384.4684 L630.8333,384.5822 L640.75,384.5932 L650.6667,384.027 L660.5833,384.3056 L670.5,383.6875 " fill="#F8F8F8" style="stroke:#383838;stroke-width:1.5;"/><path d="M432.5,391.6875 L432.5,391.9677 L442.4167,391.1351 L452.3333,391.9452 L462.25,392.2204 L472.1667,390.7363 L482.0833,391.5839 L492,391.1188 L501.9167,391.1762 L511.8333,391.5966 L521.75,390.7657 L531.6667,392.4257 L541.5833,390.8471 L551.5,391.4238 L561.4167,392.2634 L571.3333,391.5731 L581.25,391.7785 L591.1667,391.6449 L601.0833,391.9255 L611,392.0063 L620.9167,392.4684 L630.8333,392.5822 L640.75,392.5932 L650.6667,392.027 L660.5833,392.3056 L670.5,391.6875 " fill="#F8F8F8" style="stroke:#383838;stroke-width:1.5;"/><polygon fill="#A6A6A6" points="445.5166,403.4172,445.0768,404.0181,444.5567,404.8981,443.8128,405.4912,443.0311,405.8156,442.4078,405.8437,441.6067,405.4381,440.8509,405.1731,440.2771,404.6351,439.9762,404.0192,439.7977,403.5287,439.6229,402.8881,439.3391,402.3369,439.5572,401.7987,439.7482,401.2091,440.4653,400.7428,440.9697,400.1378,441.5941,399.9369,442.3364,399.7639,443.2883,399.8667,443.8097,400.1126,444.4158,400.224,445.1529,400.9791,445.4098,401.7763,445.5214,402.3202,445.395,403.2166" style="stroke:#545454;stroke-width:1.0;"/><text fill="#000000" font-family="FG Virgil" font-size="11" lengthAdjust="spacing" textLength="214" x="451.5" y="407.1064">findUserFruitAndCart(String username, fruit)</text><polygon fill="#A6A6A6" points="445.5166,417.2532,445.0768,417.854,444.5567,418.7341,443.8128,419.3272,443.0311,419.6515,442.4078,419.6797,441.6067,419.274,440.8509,419.0091,440.2771,418.471,439.9762,417.8551,439.7977,417.3647,439.6229,416.7241,439.3391,416.1728,439.5572,415.6346,439.7482,415.045,440.4653,414.5787,440.9697,413.9737,441.5941,413.7728,442.3364,413.5998,443.2883,413.7026,443.8097,413.9485,444.4158,414.0599,445.1529,414.8151,445.4098,415.6122,445.5214,416.1562,445.395,417.0525" style="stroke:#545454;stroke-width:1.0;"/><text fill="#000000" font-family="FG Virgil" font-size="11" lengthAdjust="spacing" textLength="51" x="451.5" y="420.9424">save(item)</text><!--MD5=[363fcc7dc4c18932535731d896893647]
class FruitRepository--><polygon fill="#F8F8F8" points="7,343.5,7,343.7102,16.5833,343.0857,26.1667,343.6933,35.75,343.8997,45.3333,342.7866,54.9167,343.4223,64.5,343.0735,74.0833,343.1165,83.6667,343.4318,93.25,342.8086,102.8333,344.0536,112.4167,342.8697,122,343.5,121.8022,343.5,122.4319,353.9824,121.9142,364.4648,122.0682,374.9473,121.9681,385.4297,122.1785,395.9121,122.2391,406.3945,122.5857,416.877,122,427.3594,122,428.0304,112.4167,428.0386,102.8333,427.614,93.25,427.823,83.6667,428.0616,74.0833,426.6382,64.5,428.0379,54.9167,427.0629,45.3333,427.8932,35.75,426.8644,26.1667,427.2909,16.5833,428.101,7,427.3594,6.9513,427.3594,7.1053,416.877,7.3386,406.3945,7.4162,395.9121,6.9961,385.4297,7.2872,374.9473,6.4276,364.4648,7.2844,353.9824,7,343.5" style="stroke:#383838;stroke-width:1.5;"/><polygon fill="#B1B1B1" points="33.0608,366.2694,31.4484,368.4725,29.5412,371.6995,26.8136,373.8741,23.9474,375.0634,21.662,375.1666,18.7247,373.6793,15.9532,372.7077,13.8495,370.7349,12.7461,368.4765,12.0917,366.6783,11.4506,364.3295,10.41,362.3082,11.2096,360.3348,11.9102,358.173,14.5393,356.4632,16.389,354.2448,18.6784,353.5082,21.4001,352.8738,24.8904,353.2507,26.8021,354.1523,29.0247,354.5609,31.7272,357.3297,32.6693,360.2527,33.0786,362.2471,32.615,365.5336" style="stroke:#383838;stroke-width:1.0;"/><path d="M23,360.5938 L23,366.5938 L25,366.5938 L25.4844,366.5938 L26,367.2188 L26,367.5938 L26,367.9688 L25.4844,368.5938 L25,368.5938 L19,368.5938 L18.5156,368.5938 L18,367.9688 L18,367.5938 L18,367.2188 L18.5156,366.5938 L19,366.5938 L21,366.5938 L21,360.5938 L19,360.5938 L18.5156,360.5938 L18,359.9688 L18,359.5938 L18,359.2188 L18.5156,358.5938 L19,358.5938 L25,358.5938 L25.4844,358.5938 L26,359.2188 L26,359.5938 L26,359.9688 L25.4844,360.5938 L25,360.5938 L23,360.5938 Z " fill="#000000"/><text fill="#000000" font-family="FG Virgil" font-size="12" font-style="italic" lengthAdjust="spacing" textLength="68" x="43.5" y="360.957">«repository»</text><text fill="#000000" font-family="FG Virgil" font-size="12" font-style="italic" lengthAdjust="spacing" textLength="83" x="36" y="376.0508">FruitRepository</text><path d="M8,383.6875 L8,383.9677 L18.2727,383.1351 L28.5455,383.9452 L38.8182,384.2204 L49.0909,382.7363 L59.3636,383.5839 L69.6364,383.1188 L79.9091,383.1762 L90.1818,383.5966 L100.4545,382.7657 L110.7273,384.4257 L121,383.6875 " fill="#F8F8F8" style="stroke:#383838;stroke-width:1.5;"/><path d="M8,391.6875 L8,391.9677 L18.2727,391.1351 L28.5455,391.9452 L38.8182,392.2204 L49.0909,390.7363 L59.3636,391.5839 L69.6364,391.1188 L79.9091,391.1762 L90.1818,391.5966 L100.4545,390.7657 L110.7273,392.4257 L121,391.6875 " fill="#F8F8F8" style="stroke:#383838;stroke-width:1.5;"/><polygon fill="#A6A6A6" points="21.0166,403.4172,20.5768,404.0181,20.0567,404.8981,19.3128,405.4912,18.5311,405.8156,17.9078,405.8437,17.1067,405.4381,16.3509,405.1731,15.7771,404.6351,15.4762,404.0192,15.2977,403.5287,15.1229,402.8881,14.8391,402.3369,15.0572,401.7987,15.2482,401.2091,15.9653,400.7428,16.4697,400.1378,17.0941,399.9369,17.8364,399.7639,18.7883,399.8667,19.3097,400.1126,19.9158,400.224,20.6529,400.9791,20.9098,401.7763,21.0214,402.3202,20.895,403.2166" style="stroke:#545454;stroke-width:1.0;"/><text fill="#000000" font-family="FG Virgil" font-size="11" lengthAdjust="spacing" textLength="86" x="27" y="407.1064">findById(String id)</text><polygon fill="#A6A6A6" points="21.0166,417.2532,20.5768,417.854,20.0567,418.7341,19.3128,419.3272,18.5311,419.6515,17.9078,419.6797,17.1067,419.274,16.3509,419.0091,15.7771,418.471,15.4762,417.8551,15.2977,417.3647,15.1229,416.7241,14.8391,416.1728,15.0572,415.6346,15.2482,415.045,15.9653,414.5787,16.4697,413.9737,17.0941,413.7728,17.8364,413.5998,18.7883,413.7026,19.3097,413.9485,19.9158,414.0599,20.6529,414.8151,20.9098,415.6122,21.0214,416.1562,20.895,417.0525" style="stroke:#545454;stroke-width:1.0;"/><text fill="#000000" font-family="FG Virgil" font-size="11" lengthAdjust="spacing" textLength="38" x="27" y="420.9424">findAll()</text><!--MD5=[b3c2230271250b561f28a9e8cd979a92]
class CategoryRepository--><polygon fill="#F8F8F8" points="707,350.5,707,350.7102,717.0714,350.0857,727.1429,350.6933,737.2143,350.8997,747.2857,349.7866,757.3571,350.4223,767.4286,350.0735,777.5,350.1165,787.5714,350.4318,797.6429,349.8086,807.7143,351.0536,817.7857,349.8697,827.8571,350.3022,837.9286,350.9319,848,350.5,847.9142,350.5,848.0682,360.5033,847.9681,370.5067,848.1785,380.51,848.2391,390.5134,848.5857,400.5167,848.6711,410.5201,848,420.5234,848,421.2027,837.9286,420.7781,827.8571,420.987,817.7857,421.2257,807.7143,419.8023,797.6429,421.2019,787.5714,420.2269,777.5,421.0572,767.4286,420.0284,757.3571,420.4549,747.2857,421.265,737.2143,420.4747,727.1429,420.6287,717.0714,420.8621,707,420.5234,707.4162,420.5234,706.9961,410.5201,707.2872,400.5167,706.4276,390.5134,707.2844,380.51,707.5482,370.5067,707.4445,360.5033,707,350.5" style="stroke:#383838;stroke-width:1.5;"/><polygon fill="#B1B1B1" points="733.0608,373.2694,731.4484,375.4725,729.5412,378.6995,726.8136,380.8741,723.9474,382.0634,721.662,382.1666,718.7247,380.6793,715.9532,379.7077,713.8495,377.7349,712.7461,375.4765,712.0917,373.6783,711.4506,371.3295,710.41,369.3082,711.2096,367.3348,711.9102,365.173,714.5393,363.4632,716.389,361.2448,718.6784,360.5082,721.4001,359.8738,724.8904,360.2507,726.8021,361.1523,729.0247,361.5609,731.7272,364.3297,732.6693,367.2527,733.0786,369.2471,732.615,372.5336" style="stroke:#383838;stroke-width:1.0;"/><path d="M723,367.5938 L723,373.5938 L725,373.5938 L725.4844,373.5938 L726,374.2188 L726,374.5938 L726,374.9688 L725.4844,375.5938 L725,375.5938 L719,375.5938 L718.5156,375.5938 L718,374.9688 L718,374.5938 L718,374.2188 L718.5156,373.5938 L719,373.5938 L721,373.5938 L721,367.5938 L719,367.5938 L718.5156,367.5938 L718,366.9688 L718,366.5938 L718,366.2188 L718.5156,365.5938 L719,365.5938 L725,365.5938 L725.4844,365.5938 L726,366.2188 L726,366.5938 L726,366.9688 L725.4844,367.5938 L725,367.5938 L723,367.5938 Z " fill="#000000"/><text fill="#000000" font-family="FG Virgil" font-size="12" font-style="italic" lengthAdjust="spacing" textLength="68" x="756.5" y="367.957">«repository»</text><text fill="#000000" font-family="FG Virgil" font-size="12" font-style="italic" lengthAdjust="spacing" textLength="109" x="736" y="383.0508">CategoryRepository</text><path d="M708,390.6875 L708,390.9677 L717.9286,390.1351 L727.8571,390.9452 L737.7857,391.2204 L747.7143,389.7363 L757.6429,390.5839 L767.5714,390.1188 L777.5,390.1762 L787.4286,390.5966 L797.3571,389.7657 L807.2857,391.4257 L817.2143,389.8471 L827.1429,390.4238 L837.0714,391.2634 L847,390.6875 " fill="#F8F8F8" style="stroke:#383838;stroke-width:1.5;"/><path d="M708,398.6875 L708,398.9677 L717.9286,398.1351 L727.8571,398.9452 L737.7857,399.2204 L747.7143,397.7363 L757.6429,398.5839 L767.5714,398.1188 L777.5,398.1762 L787.4286,398.5966 L797.3571,397.7657 L807.2857,399.4257 L817.2143,397.8471 L827.1429,398.4238 L837.0714,399.2634 L847,398.6875 " fill="#F8F8F8" style="stroke:#383838;stroke-width:1.5;"/><polygon fill="#A6A6A6" points="721.0166,410.4172,720.5768,411.0181,720.0567,411.8981,719.3128,412.4912,718.5311,412.8156,717.9078,412.8437,717.1067,412.4381,716.3509,412.1731,715.7771,411.6351,715.4762,411.0192,715.2977,410.5287,715.1229,409.8881,714.8391,409.3369,715.0572,408.7987,715.2482,408.2091,715.9653,407.7428,716.4697,407.1378,717.0941,406.9369,717.8364,406.7639,718.7883,406.8667,719.3097,407.1126,719.9158,407.224,720.6529,407.9791,720.9098,408.7763,721.0214,409.3202,720.895,410.2166" style="stroke:#545454;stroke-width:1.0;"/><text fill="#000000" font-family="FG Virgil" font-size="11" lengthAdjust="spacing" textLength="38" x="727" y="414.1064">findAll()</text><!--MD5=[ec61b86b9c404d0d61f3e40520ce3cec]
link FruitController to FruitService--><path d="M289.23,105.17 L289.3948,105.3967 L281.0962,110.3991 L273.7635,116.7305 L266.1163,122.6291 L257.4347,127.1046 L250.1241,133.4662 L242.0417,138.766 L234.2664,144.4884 L226.7046,150.5045 L218.407,155.5083 L211.14,161.93 " fill="none" style="stroke:#383838;stroke-width:1.0;"/><polygon fill="#383838" points="206.91,165,206.9247,165.0685,208.8072,164.4524,210.7757,164.2379,212.7162,163.8927,214.5646,163.1174,216.5404,162.9374,216.5364,162.9118,215.4007,162.6209,214.2854,162.4591,213.1841,162.387,212.0342,162.0058,210.9524,162.0574,211.1347,162.0861,210.9209,160.9072,211.2393,159.812,211.6226,158.727,211.6281,157.5826,211.8324,156.4694,211.8521,156.4808,210.8387,158.1702,209.915,159.9114,208.948,161.6276,208.0636,163.3915,206.91,165" style="stroke:#383838;stroke-width:1.0;"/><!--MD5=[c188a390799f03ab952e715f9f842012]
link FruitController to ItemService--><path d="M355.5,105.38 L355.7802,105.38 L354.9476,115.5433 L355.7577,125.7067 L356.0329,135.87 L354.5488,146.0333 L355.3964,156.1967 L355.5,166.36 " fill="none" style="stroke:#383838;stroke-width:1.0;"/><polygon fill="#383838" points="355.5,171.54,355.564,171.5685,356.1738,169.6839,357.1589,167.9662,358.0217,166.1941,358.4827,164.2434,359.5,162.54,359.4817,162.5217,358.5995,163.2395,357.8096,164.0496,357.0839,164.9239,356.137,165.577,355.5,166.54,355.6305,166.6705,354.5514,165.5914,353.8534,164.8934,353.2018,164.2418,352.2798,163.3198,351.5,162.54,351.5208,162.5492,352.2903,164.3357,353.1544,166.1642,353.9728,167.9724,354.8784,169.8193,355.5,171.54" style="stroke:#383838;stroke-width:1.0;"/><!--MD5=[18f3bc325d90bbf68f1a1b0322f8d99e]
link FruitController to CategoryService--><path d="M466.39,105.17 L466.5017,105.427 L475.4343,108.6878 L485.0216,113.4553 L494.3957,117.7321 L503.0688,120.3953 L512.6709,125.1972 L521.7501,128.7951 L531.0374,132.8721 L540.4693,137.2822 L549.4027,140.5445 L559.3286,146.0915 L567.9641,148.6681 L577.4583,153.2215 L587.0572,158.016 L596.0467,161.4073 L605.3929,165.6201 L614.6041,169.522 L623.9804,173.8039 L633.15,177.61 " fill="none" style="stroke:#383838;stroke-width:1.0;"/><polygon fill="#383838" points="637.93,179.69,637.9816,179.7374,636.4945,178.1471,635.3096,176.8349,634.0263,175.4321,632.4194,173.7314,631.2605,172.4431,631.2364,172.4335,631.5446,173.4428,631.9741,174.5001,632.4881,175.5908,632.7112,176.5664,633.3417,177.7032,633.4096,177.8748,632.2124,177.924,631.2134,178.4743,630.2386,179.0858,629.1231,179.3415,628.0816,179.7843,628.0818,179.8071,630.0512,179.7548,632.0215,179.8061,633.9914,179.8074,635.9622,179.9041,637.93,179.69" style="stroke:#383838;stroke-width:1.0;"/><!--MD5=[90d63f748c71100616ec0fe33e0d1edc]
link ItemService to Item--><path d="M340.27,242.03 L340.5258,242.1445 L335.7872,250.6929 L332.5481,259.9124 L328.8207,268.9134 L323.4875,277.1957 L320.2826,286.4305 L315.8795,295.1291 L312.42,304.25 " fill="none" style="stroke:#383838;stroke-width:1.0;"/><polygon fill="#383838" points="310.33,308.91,310.3768,308.9622,311.7041,307.4919,313.3056,306.3274,314.8179,305.0634,316.0364,303.4719,317.6615,302.3336,317.6523,302.3094,316.5537,302.6036,315.5015,303.0197,314.4817,303.5207,313.3505,303.7293,312.3753,304.3475,312.5477,304.4132,311.7762,303.2154,311.5082,302.2095,311.3015,301.227,310.7375,300.1083,310.3615,299.0612,310.3842,299.0613,310.3445,301.0309,310.4084,303.0009,310.4223,304.9707,310.5315,306.9409,310.33,308.91" style="stroke:#383838;stroke-width:1.0;"/><!--MD5=[7e4438329ece6063ad1b900a89a2875b]
link ItemService to ItemRepository--><path d="M393.29,242.03 L393.4775,242.2383 L400.157,248.1362 L407.9358,255.2548 L415.3566,261.976 L421.6002,267.3898 L429.404,274.5363 L436.3295,280.7074 L443.6045,287.2667 L451.1225,294.0958 L457.8031,299.995 L466.1506,307.7452 L472.331,313.0888 L479.9535,320.0341 L487.7521,327.1746 L494.5268,333.1783 L501.84,339.78 " fill="none" style="stroke:#383838;stroke-width:1.0;"/><polygon fill="#383838" points="505.9,343.44,505.964,343.4686,504.9711,341.5849,504.3533,339.8687,503.6134,338.098,502.4718,336.148,501.8862,334.4461,501.8603,334.4448,501.8037,335.5685,501.8775,336.699,502.0419,337.8344,501.8939,338.9533,502.1835,340.0952,502.1932,340.2795,501.0427,339.9448,499.9205,340.1483,498.8017,340.4174,497.6628,340.3045,496.5345,340.3925,496.5415,340.4141,498.4043,340.9919,500.2991,341.6681,502.1785,342.2968,504.0873,343.0161,505.9,343.44" style="stroke:#383838;stroke-width:1.0;"/><!--MD5=[5fe5f66f58242069288beef9fde9411a]
link CategoryService to CategoryRepository--><path d="M713.73,242.03 L713.9858,242.1445 L717.4321,251.2025 L722.378,260.9316 L726.8355,270.4422 L729.6873,279.2341 L734.6672,288.9786 L738.4491,298.1868 L742.7078,307.6084 L747.298,317.1783 L750.7459,326.2371 L756.4674,336.3134 L760,345.41 " fill="none" style="stroke:#383838;stroke-width:1.0;"/><polygon fill="#383838" points="762.18,350.27,762.2501,350.2702,762.0356,348.2998,762.2318,346.3307,762.2943,344.3611,761.917,342.3902,762.1485,340.4212,762.1243,340.412,761.6129,341.4278,761.2236,342.4902,760.919,343.5849,760.3221,344.5682,760.1347,345.7075,760.2004,345.8799,759.0027,345.1084,757.9967,344.8403,757.0142,344.6337,755.8955,344.0697,754.8485,343.6936,754.8636,343.7106,756.3077,345.001,757.8208,346.3685,759.3006,347.6988,760.8441,349.1001,762.18,350.27" style="stroke:#383838;stroke-width:1.0;"/><!--MD5=[001cb0a6dc57f5a8c1a703fa3f4ad4a7]
link FruitService to FruitRepository--><path d="M130.34,249.38 L130.5919,249.5027 L125.4934,258.066 L121.8717,267.3489 L117.7691,276.3974 L112.0849,284.6754 L108.4969,293.9746 L103.7288,302.6989 L99.4303,311.652 L95.4583,320.7642 L90.3613,329.3282 L86.84,338.66 " fill="none" style="stroke:#383838;stroke-width:1.0;"/><polygon fill="#383838" points="84.54,343.38,84.5852,343.4336,85.957,342.0048,87.5936,340.8901,89.144,339.6731,90.4109,338.1198,92.0702,337.032,92.0617,337.0076,90.9545,337.2678,89.8901,337.6514,88.8553,338.1208,87.7183,338.2946,86.7245,338.8825,86.8989,338.9428,86.1559,337.7446,85.9221,336.7226,85.7503,335.7222,85.2172,334.5966,84.8741,333.5368,84.8968,333.5376,84.7966,335.5051,84.7999,337.4761,84.7533,339.4454,84.8019,341.418,84.54,343.38" style="stroke:#383838;stroke-width:1.0;"/><!--MD5=[456113da8a62bce363eaa3de169d4ef1]
@startuml
skinparam handwritten true
skinparam monochrome true
skinparam packageStyle rect
skinparam defaultFontName FG Virgil
skinparam shadowing false


class  FruitController <<application>>{
+addFruitsToCart(String id, String quantity)
+viewFruits(Model model)
+getFruit(String id, Model model)
}

class Item <<model>>{
-Long id
-String username
-Fruit fruit
-int quantity
+Item(String username, Fruit fruit, int quantity)
-Item()
+addSeveralFruit(int quantity)



}
class FruitService<<service>>{
+getAllFruits()
+getASingleFruit(String id)

}
class ItemService<<service>>{
+addToCart(String id, int quantity)

}
class CategoryService<<service>>{
+getAllCategories()


}
interface ItemRepository<<repository>>{
+findUserFruitAndCart(String username, fruit)
+save(item)
}
interface FruitRepository<<repository>>{
+findById(String id)
+findAll()
}
interface CategoryRepository<<repository>>{
+findAll()
}




FruitController - -> FruitService
FruitController - -> ItemService
FruitController - -> CategoryService

ItemService - -> Item
ItemService - -> ItemRepository

CategoryService - -> CategoryRepository

FruitService - -> FruitRepository



@enduml

PlantUML version 1.2021.11(Sat Oct 02 15:26:11 CEST 2021)
(GPL source distribution)
Java Runtime: OpenJDK Runtime Environment
JVM: OpenJDK 64-Bit Server VM
Default Encoding: Cp1252
Language: pt
Country: PT
--></g></svg>