<?xml version="1.0" encoding="UTF-8" standalone="no"?><svg xmlns="http://www.w3.org/2000/svg" xmlns:xlink="http://www.w3.org/1999/xlink" contentScriptType="application/ecmascript" contentStyleType="text/css" height="703px" preserveAspectRatio="none" style="width:1195px;height:703px;background:#FFFFFF;" version="1.1" viewBox="0 0 1195 703" width="1195px" zoomAndPan="magnify"><defs/><g><polygon fill="#FFFFFF" points="324.5,118.5703,324.5,118.6404,326.5,118.4322,328.5,118.6347,330.5,118.7035,332.5,118.3325,334.5,118.5703,334.4223,118.5703,334.0735,128.5675,334.1165,138.5648,334.4318,148.562,333.8086,158.5592,335.0536,168.5565,333.8697,178.5537,334.3022,188.5509,334.9319,198.5482,334.4142,208.5454,334.5682,218.5426,334.4681,228.5399,334.6785,238.5371,334.7391,248.5343,335.0857,258.5316,335.1711,268.5288,335.1793,278.526,334.7546,288.5233,334.9636,298.5205,335.2022,308.5177,333.7788,318.515,335.1785,328.5122,334.2035,338.5094,335.0338,348.5067,334.005,358.5039,334.4315,368.5011,335.2416,378.4984,334.4513,388.4956,334.6053,398.4928,334.8386,408.4901,334.9162,418.4873,334.4961,428.4845,334.7872,438.4818,333.9276,448.479,334.7844,458.4762,335.0482,468.4735,334.9445,478.4707,335.113,488.4679,334.0169,498.4652,333.8478,508.4624,333.8786,518.4596,334.4411,528.4569,334.3035,538.4541,335.1814,548.4513,334.3253,558.4486,334.1569,568.4458,334.7283,578.443,333.8332,588.4403,334.5,598.4375,334.5,598.2645,332.5,598.6538,330.5,598.5827,328.5,598.6823,326.5,598.3302,324.5,598.4375,324.8192,598.4375,325.0904,588.4403,324.0276,578.443,324.4041,568.4458,324.626,558.4486,325.1518,548.4513,324.4958,538.4541,324.9626,528.4569,323.9462,518.4596,323.8227,508.4624,325.0036,498.4652,323.7831,488.4679,325.009,478.4707,324.7066,468.4735,324.2321,458.4762,324.1462,448.479,324.9588,438.4818,324.2007,428.4845,325.0919,418.4873,323.9473,408.4901,325.1174,398.4928,324.9843,388.4956,324.745,378.4984,324.5472,368.5011,325.2266,358.5039,325.1136,348.5067,324.6693,338.5094,324.7682,328.5122,324.3697,318.515,325.2165,308.5177,324.6549,298.5205,324.6726,288.5233,323.8916,278.526,324.0948,268.5288,325.0307,258.5316,324.9298,248.5343,324.4571,238.5371,324.1778,228.5399,324.2811,218.5426,323.8138,208.5454,324.9147,198.5482,325.2396,188.5509,325.0264,178.5537,325.1949,168.5565,324.3633,158.5592,324.5872,148.562,324.1124,138.5648,324.784,128.5675,324.5,118.5703" style="stroke:#383838;stroke-width:1.0;"/><polygon fill="#FFFFFF" points="645.5,148.9219,645.5,148.9919,647.5,148.7838,649.5,148.9863,651.5,149.0551,653.5,148.6841,655.5,148.9219,655.4223,148.9219,655.0735,158.9805,655.1165,169.0391,655.4318,179.0977,654.8086,189.1563,656.0536,199.2148,655.5,209.2734,655.5,209.0633,653.5,209.2075,651.5,209.4174,649.5,209.2448,647.5,209.2962,645.5,209.2734,645.4681,209.2734,645.6785,199.2148,645.7391,189.1563,646.0857,179.0977,646.1711,169.0391,646.1793,158.9805,645.5,148.9219" style="stroke:#383838;stroke-width:1.0;"/><polygon fill="#FFFFFF" points="645.5,343.6797,645.5,343.7497,647.5,343.5416,649.5,343.7441,651.5,343.8129,653.5,343.4419,655.5,343.6797,655.4223,343.6797,655.0735,353.7383,655.1165,363.7969,655.4318,373.8555,654.8086,383.9141,656.0536,393.9727,654.8697,404.0313,655.3022,414.0898,655.9319,424.1484,655.4142,434.207,655.5682,444.2656,655.4681,454.3242,655.5,464.3828,655.5,464.4423,653.5,464.4625,651.5,464.578,649.5,464.6065,647.5,464.6092,645.5,464.3828,645.7546,464.3828,645.9636,454.3242,646.2022,444.2656,644.7788,434.207,646.1785,424.1484,645.2035,414.0898,646.0338,404.0313,645.005,393.9727,645.4315,383.9141,646.2416,373.8555,645.4513,363.7969,645.6053,353.7383,645.5,343.6797" style="stroke:#383838;stroke-width:1.0;"/><polygon fill="#FFFFFF" points="928.5,434.3828,928.5,434.4529,930.5,434.2447,932.5,434.4472,934.5,434.516,936.5,434.145,938.5,434.3828,938.4741,434.3828,938.3578,440.3828,938.3722,446.3828,938.4773,452.3828,938.2695,458.3828,938.5,464.3828,938.5,464.5674,936.5,464.1727,934.5,464.3169,932.5,464.5268,930.5,464.3542,928.5,464.3828,928.5227,464.3828,928.4894,458.3828,928.5595,452.3828,928.5797,446.3828,928.6952,440.3828,928.5,434.3828" style="stroke:#383838;stroke-width:1.0;"/><polygon fill="#FFFFFF" points="1028,179.2734,1028,179.3435,1030,179.1353,1032,179.3379,1034,179.4067,1036,179.0356,1038,179.2734,1037.9741,179.2734,1037.8578,185.2734,1037.8722,191.2734,1037.9773,197.2734,1037.7695,203.2734,1038,209.2734,1038,209.458,1036,209.0633,1034,209.2075,1032,209.4174,1030,209.2448,1028,209.2734,1028.0227,209.2734,1027.9894,203.2734,1028.0595,197.2734,1028.0797,191.2734,1028.1952,185.2734,1028,179.2734" style="stroke:#383838;stroke-width:1.0;"/><polygon fill="#FFFFFF" points="1139.5,374.0313,1139.5,374.1013,1141.5,373.8931,1143.5,374.0957,1145.5,374.1645,1147.5,373.7935,1149.5,374.0313,1149.4741,374.0313,1149.3578,380.0313,1149.3722,386.0313,1149.4773,392.0313,1149.2695,398.0313,1149.5,404.0313,1149.5,404.2158,1147.5,403.8212,1145.5,403.9653,1143.5,404.1752,1141.5,404.0027,1139.5,404.0313,1139.5227,404.0313,1139.4894,398.0313,1139.5595,392.0313,1139.5797,386.0313,1139.6952,380.0313,1139.5,374.0313" style="stroke:#383838;stroke-width:1.0;"/><polygon fill="#FFFFFF" points="1139.5,494.7344,1139.5,494.8044,1141.5,494.5963,1143.5,494.7988,1145.5,494.8676,1147.5,494.4966,1149.5,494.7344,1149.4741,494.7344,1149.3578,500.7344,1149.3722,506.7344,1149.4773,512.7344,1149.2695,518.7344,1149.5,524.7344,1149.5,524.9189,1147.5,524.5243,1145.5,524.6685,1143.5,524.8784,1141.5,524.7058,1139.5,524.7344,1139.5227,524.7344,1139.4894,518.7344,1139.5595,512.7344,1139.5797,506.7344,1139.6952,500.7344,1139.5,494.7344" style="stroke:#383838;stroke-width:1.0;"/><path d="M22,86.2188 L22.2802,86.2188 L21.4476,96.2229 L22.2577,106.227 L22.5329,116.2311 L21.0488,126.2353 L21.8964,136.2394 L21.4313,146.2435 L21.4887,156.2476 L21.9091,166.2518 L21.0782,176.2559 L22.7382,186.26 L21.1596,196.2642 L21.7363,206.2683 L22.5759,216.2724 L21.8856,226.2765 L22.091,236.2807 L21.9574,246.2848 L22.238,256.2889 L22.3188,266.293 L22.7809,276.2972 L22.8947,286.3013 L22.9057,296.3054 L22.3395,306.3096 L22.6181,316.3137 L22.9363,326.3178 L21.0384,336.3219 L22.9047,346.3261 L21.6047,356.3302 L22.7117,366.3343 L21.34,376.3384 L21.9087,386.3426 L22.9888,396.3467 L21.935,406.3508 L22.1404,416.355 L22.4515,426.3591 L22.555,436.3632 L21.9948,446.3673 L22.383,456.3715 L21.2368,466.3756 L22.3792,476.3797 L22.7309,486.3838 L22.5927,496.388 L22.8174,506.3921 L21.3559,516.3962 L21.1304,526.4004 L21.1715,536.4045 L21.9215,546.4086 L21.738,556.4127 L22.9085,566.4169 L21.7671,576.421 L21.5426,586.4251 L22.3044,596.4292 L21.1109,606.4334 L22,616.4375 " fill="none" style="stroke:#383838;stroke-width:1.0;stroke-dasharray:5.0,5.0;"/><path d="M329,86.2188 L329.2802,86.2188 L328.4476,96.2229 L329.2577,106.227 L329.5329,116.2311 L328.0488,126.2353 L328.8964,136.2394 L328.4313,146.2435 L328.4887,156.2476 L328.9091,166.2518 L328.0782,176.2559 L329.7382,186.26 L328.1596,196.2642 L328.7363,206.2683 L329.5759,216.2724 L328.8856,226.2765 L329.091,236.2807 L328.9574,246.2848 L329.238,256.2889 L329.3188,266.293 L329.7809,276.2972 L329.8947,286.3013 L329.9057,296.3054 L329.3395,306.3096 L329.6181,316.3137 L329.9363,326.3178 L328.0384,336.3219 L329.9047,346.3261 L328.6047,356.3302 L329.7117,366.3343 L328.34,376.3384 L328.9087,386.3426 L329.9888,396.3467 L328.935,406.3508 L329.1404,416.355 L329.4515,426.3591 L329.555,436.3632 L328.9948,446.3673 L329.383,456.3715 L328.2368,466.3756 L329.3792,476.3797 L329.7309,486.3838 L329.5927,496.388 L329.8174,506.3921 L328.3559,516.3962 L328.1304,526.4004 L328.1715,536.4045 L328.9215,546.4086 L328.738,556.4127 L329.9085,566.4169 L328.7671,576.421 L328.5426,586.4251 L329.3044,596.4292 L328.1109,606.4334 L329,616.4375 " fill="none" style="stroke:#383838;stroke-width:1.0;stroke-dasharray:5.0,5.0;"/><path d="M650,86.2188 L650.2802,86.2188 L649.4476,96.2229 L650.2577,106.227 L650.5329,116.2311 L649.0488,126.2353 L649.8964,136.2394 L649.4313,146.2435 L649.4887,156.2476 L649.9091,166.2518 L649.0782,176.2559 L650.7382,186.26 L649.1596,196.2642 L649.7363,206.2683 L650.5759,216.2724 L649.8856,226.2765 L650.091,236.2807 L649.9574,246.2848 L650.238,256.2889 L650.3188,266.293 L650.7809,276.2972 L650.8947,286.3013 L650.9057,296.3054 L650.3395,306.3096 L650.6181,316.3137 L650.9363,326.3178 L649.0384,336.3219 L650.9047,346.3261 L649.6047,356.3302 L650.7117,366.3343 L649.34,376.3384 L649.9087,386.3426 L650.9888,396.3467 L649.935,406.3508 L650.1404,416.355 L650.4515,426.3591 L650.555,436.3632 L649.9948,446.3673 L650.383,456.3715 L649.2368,466.3756 L650.3792,476.3797 L650.7309,486.3838 L650.5927,496.388 L650.8174,506.3921 L649.3559,516.3962 L649.1304,526.4004 L649.1715,536.4045 L649.9215,546.4086 L649.738,556.4127 L650.9085,566.4169 L649.7671,576.421 L649.5426,586.4251 L650.3044,596.4292 L649.1109,606.4334 L650,616.4375 " fill="none" style="stroke:#383838;stroke-width:1.0;stroke-dasharray:5.0,5.0;"/><path d="M798,86.2188 L798.2802,86.2188 L797.4476,96.2229 L798.2577,106.227 L798.5329,116.2311 L797.0488,126.2353 L797.8964,136.2394 L797.4313,146.2435 L797.4887,156.2476 L797.9091,166.2518 L797.0782,176.2559 L798.7382,186.26 L797.1596,196.2642 L797.7363,206.2683 L798.5759,216.2724 L797.8856,226.2765 L798.091,236.2807 L797.9574,246.2848 L798.238,256.2889 L798.3188,266.293 L798.7809,276.2972 L798.8947,286.3013 L798.9057,296.3054 L798.3395,306.3096 L798.6181,316.3137 L798.9363,326.3178 L797.0384,336.3219 L798.9047,346.3261 L797.6047,356.3302 L798.7117,366.3343 L797.34,376.3384 L797.9087,386.3426 L798.9888,396.3467 L797.935,406.3508 L798.1404,416.355 L798.4515,426.3591 L798.555,436.3632 L797.9948,446.3673 L798.383,456.3715 L797.2368,466.3756 L798.3792,476.3797 L798.7309,486.3838 L798.5927,496.388 L798.8174,506.3921 L797.3559,516.3962 L797.1304,526.4004 L797.1715,536.4045 L797.9215,546.4086 L797.738,556.4127 L798.9085,566.4169 L797.7671,576.421 L797.5426,586.4251 L798.3044,596.4292 L797.1109,606.4334 L798,616.4375 " fill="none" style="stroke:#383838;stroke-width:1.0;stroke-dasharray:5.0,5.0;"/><path d="M933.5,86.2188 L933.7802,86.2188 L932.9476,96.2229 L933.7577,106.227 L934.0329,116.2311 L932.5488,126.2353 L933.3964,136.2394 L932.9313,146.2435 L932.9887,156.2476 L933.4091,166.2518 L932.5782,176.2559 L934.2382,186.26 L932.6596,196.2642 L933.2363,206.2683 L934.0759,216.2724 L933.3856,226.2765 L933.591,236.2807 L933.4574,246.2848 L933.738,256.2889 L933.8188,266.293 L934.2809,276.2972 L934.3947,286.3013 L934.4057,296.3054 L933.8395,306.3096 L934.1181,316.3137 L934.4363,326.3178 L932.5384,336.3219 L934.4047,346.3261 L933.1047,356.3302 L934.2117,366.3343 L932.84,376.3384 L933.4087,386.3426 L934.4888,396.3467 L933.435,406.3508 L933.6404,416.355 L933.9515,426.3591 L934.055,436.3632 L933.4948,446.3673 L933.883,456.3715 L932.7368,466.3756 L933.8792,476.3797 L934.2309,486.3838 L934.0927,496.388 L934.3174,506.3921 L932.8559,516.3962 L932.6304,526.4004 L932.6715,536.4045 L933.4215,546.4086 L933.238,556.4127 L934.4085,566.4169 L933.2671,576.421 L933.0426,586.4251 L933.8044,596.4292 L932.6109,606.4334 L933.5,616.4375 " fill="none" style="stroke:#383838;stroke-width:1.0;stroke-dasharray:5.0,5.0;"/><path d="M1032.5,86.2188 L1032.7802,86.2188 L1031.9476,96.2229 L1032.7577,106.227 L1033.0329,116.2311 L1031.5488,126.2353 L1032.3964,136.2394 L1031.9313,146.2435 L1031.9887,156.2476 L1032.4091,166.2518 L1031.5782,176.2559 L1033.2382,186.26 L1031.6596,196.2642 L1032.2363,206.2683 L1033.0759,216.2724 L1032.3856,226.2765 L1032.591,236.2807 L1032.4574,246.2848 L1032.738,256.2889 L1032.8188,266.293 L1033.2809,276.2972 L1033.3947,286.3013 L1033.4057,296.3054 L1032.8395,306.3096 L1033.1181,316.3137 L1033.4363,326.3178 L1031.5384,336.3219 L1033.4047,346.3261 L1032.1047,356.3302 L1033.2117,366.3343 L1031.84,376.3384 L1032.4087,386.3426 L1033.4888,396.3467 L1032.435,406.3508 L1032.6404,416.355 L1032.9515,426.3591 L1033.055,436.3632 L1032.4948,446.3673 L1032.883,456.3715 L1031.7368,466.3756 L1032.8792,476.3797 L1033.2309,486.3838 L1033.0927,496.388 L1033.3174,506.3921 L1031.8559,516.3962 L1031.6304,526.4004 L1031.6715,536.4045 L1032.4215,546.4086 L1032.238,556.4127 L1033.4085,566.4169 L1032.2671,576.421 L1032.0426,586.4251 L1032.8044,596.4292 L1031.6109,606.4334 L1032.5,616.4375 " fill="none" style="stroke:#383838;stroke-width:1.0;stroke-dasharray:5.0,5.0;"/><path d="M1144.5,86.2188 L1144.7802,86.2188 L1143.9476,96.2229 L1144.7577,106.227 L1145.0329,116.2311 L1143.5488,126.2353 L1144.3964,136.2394 L1143.9313,146.2435 L1143.9887,156.2476 L1144.4091,166.2518 L1143.5782,176.2559 L1145.2382,186.26 L1143.6596,196.2642 L1144.2363,206.2683 L1145.0759,216.2724 L1144.3856,226.2765 L1144.591,236.2807 L1144.4574,246.2848 L1144.738,256.2889 L1144.8188,266.293 L1145.2809,276.2972 L1145.3947,286.3013 L1145.4057,296.3054 L1144.8395,306.3096 L1145.1181,316.3137 L1145.4363,326.3178 L1143.5384,336.3219 L1145.4047,346.3261 L1144.1047,356.3302 L1145.2117,366.3343 L1143.84,376.3384 L1144.4087,386.3426 L1145.4888,396.3467 L1144.435,406.3508 L1144.6404,416.355 L1144.9515,426.3591 L1145.055,436.3632 L1144.4948,446.3673 L1144.883,456.3715 L1143.7368,466.3756 L1144.8792,476.3797 L1145.2309,486.3838 L1145.0927,496.388 L1145.3174,506.3921 L1143.8559,516.3962 L1143.6304,526.4004 L1143.6715,536.4045 L1144.4215,546.4086 L1144.238,556.4127 L1145.4085,566.4169 L1144.2671,576.421 L1144.0426,586.4251 L1144.8044,596.4292 L1143.6109,606.4334 L1144.5,616.4375 " fill="none" style="stroke:#383838;stroke-width:1.0;stroke-dasharray:5.0,5.0;"/><text fill="#000000" font-family="FG Virgil" font-size="14" lengthAdjust="spacing" textLength="29" x="5" y="83.1426">User</text><polygon fill="#F8F8F8" points="30.5442,17.5553,29.3715,19.1576,27.9845,21.5044,26.0008,23.086,23.9163,23.9509,22.2542,24.026,20.118,22.9443,18.1023,22.2377,16.5724,20.803,15.7699,19.1605,15.2939,17.8527,14.8277,16.1444,14.0709,14.6744,14.6525,13.2392,15.162,11.667,17.074,10.4235,18.4192,8.8102,20.0843,8.2744,22.0637,7.813,24.6021,8.0872,25.9924,8.7429,27.6089,9.0401,29.5743,11.0537,30.2595,13.1795,30.5571,14.63,30.22,17.0202" style="stroke:#383838;stroke-width:2.0;"/><path d="M22.5,23.6094 L22.6868,23.6094 L22.1317,29.0094 L22.6718,34.4094 L22.8553,39.8094 L21.8659,45.2094 L22.5,50.6094 M9.5,31.6094 L9.5,31.5403 L14.7,31.2303 L19.9,31.2685 L25.1,31.5488 L30.3,30.9948 L35.5,31.6094 M22.5,50.6094 L22.8719,50.9317 L19.4766,53.2425 L17.1672,56.4942 L14.9901,59.8608 L12.0424,62.5594 L9.5,65.6094 M22.5,50.6094 L22.5458,50.6491 L25.0785,53.5908 L27.8199,56.7133 L30.4606,59.7486 L33.2934,62.9503 L35.5,65.6094 " fill="none" style="stroke:#383838;stroke-width:2.0;"/><text fill="#000000" font-family="FG Virgil" font-size="14" lengthAdjust="spacing" textLength="29" x="5" y="629.9707">User</text><polygon fill="#F8F8F8" points="30.5442,644.9928,29.3715,646.5951,27.9845,648.9419,26.0008,650.5235,23.9163,651.3884,22.2542,651.4635,20.118,650.3818,18.1023,649.6752,16.5724,648.2405,15.7699,646.598,15.2939,645.2902,14.8277,643.5819,14.0709,642.1119,14.6525,640.6767,15.162,639.1045,17.074,637.861,18.4192,636.2477,20.0843,635.7119,22.0637,635.2505,24.6021,635.5247,25.9924,636.1804,27.6089,636.4776,29.5743,638.4912,30.2595,640.617,30.5571,642.0675,30.22,644.4577" style="stroke:#383838;stroke-width:2.0;"/><path d="M22.5,651.0469 L22.6868,651.0469 L22.1317,656.4469 L22.6718,661.8469 L22.8553,667.2469 L21.8659,672.6469 L22.5,678.0469 M9.5,659.0469 L9.5,658.9778 L14.7,658.6678 L19.9,658.706 L25.1,658.9863 L30.3,658.4323 L35.5,659.0469 M22.5,678.0469 L22.8719,678.3692 L19.4766,680.68 L17.1672,683.9317 L14.9901,687.2983 L12.0424,689.9969 L9.5,693.0469 M22.5,678.0469 L22.5458,678.0866 L25.0785,681.0283 L27.8199,684.1508 L30.4606,687.1861 L33.2934,690.3878 L35.5,693.0469 " fill="none" style="stroke:#383838;stroke-width:2.0;"/><polygon fill="#F8F8F8" points="275,36,275,36.2102,284.9091,35.5857,294.8182,36.1933,304.7273,36.3997,314.6364,35.2866,324.5455,35.9223,334.4545,35.5735,344.3636,35.6165,354.2727,35.9318,364.1818,35.3086,374.0909,36.5536,384,36,383.3697,36,383.8022,45.8438,384.4319,55.6875,383.9142,65.5313,384.0682,75.375,384,85.2188,384,85.1868,374.0909,85.3973,364.1818,85.4579,354.2727,85.8044,344.3636,85.8898,334.4545,85.898,324.5455,85.4734,314.6364,85.6823,304.7273,85.921,294.8182,84.4976,284.9091,85.8973,275,85.2188,274.7035,85.2188,275.5338,75.375,274.505,65.5313,274.9315,55.6875,275.7416,45.8438,275,36" style="stroke:#383838;stroke-width:1.5;"/><text fill="#000000" font-family="FG Virgil" font-size="14" font-style="italic" lengthAdjust="spacing" textLength="95" x="282" y="57.5332">«presentation»</text><text fill="#000000" font-family="FG Virgil" font-size="14" lengthAdjust="spacing" textLength="28" x="315.5" y="75.1426">/fruit</text><polygon fill="#F8F8F8" points="275,615.4375,275,615.6477,284.9091,615.0232,294.8182,615.6308,304.7273,615.8372,314.6364,614.7241,324.5455,615.3598,334.4545,615.011,344.3636,615.054,354.2727,615.3693,364.1818,614.7461,374.0909,615.9911,384,615.4375,383.3697,615.4375,383.8022,625.2813,384.4319,635.125,383.9142,644.9688,384.0682,654.8125,384,664.6563,384,664.6243,374.0909,664.8348,364.1818,664.8954,354.2727,665.2419,344.3636,665.3273,334.4545,665.3355,324.5455,664.9109,314.6364,665.1198,304.7273,665.3585,294.8182,663.9351,284.9091,665.3348,275,664.6563,274.7035,664.6563,275.5338,654.8125,274.505,644.9688,274.9315,635.125,275.7416,625.2813,275,615.4375" style="stroke:#383838;stroke-width:1.5;"/><text fill="#000000" font-family="FG Virgil" font-size="14" font-style="italic" lengthAdjust="spacing" textLength="95" x="282" y="636.9707">«presentation»</text><text fill="#000000" font-family="FG Virgil" font-size="14" lengthAdjust="spacing" textLength="28" x="315.5" y="654.5801">/fruit</text><text fill="#000000" font-family="FG Virgil" font-size="14" font-style="italic" lengthAdjust="spacing" textLength="84" x="605.5" y="65.5332">«application»</text><text fill="#000000" font-family="FG Virgil" font-size="14" lengthAdjust="spacing" textLength="165" x="565" y="83.1426">AddFruitSpecificController</text><polygon fill="#F8F8F8" points="662.5663,37.9189,660.8073,40.3223,658.7268,43.8426,655.7512,46.215,652.6244,47.5123,650.1313,47.6249,646.9269,46.0024,643.9035,44.9425,641.6086,42.7904,640.4048,40.3267,639.6909,38.3649,638.9915,35.8026,637.8564,33.5976,638.7287,31.4447,639.4929,29.0864,642.3611,27.2212,644.3789,24.8012,646.8764,23.9976,649.8456,23.3055,653.6532,23.7167,655.7386,24.7002,658.1633,25.146,661.1115,28.1665,662.1392,31.3552,662.5857,33.5309,662.08,37.1162" style="stroke:#383838;stroke-width:2.0;"/><polygon fill="#383838" points="646.5,23,646.5449,23.0538,647.6116,21.8939,648.9412,21.0495,650.1853,20.1023,651.1478,18.8173,652.5,18,652.4759,17.9904,651.968,18.9472,651.5813,19.9525,651.2789,20.9916,650.686,21.9144,650.5,23,650.6713,23.0685,650.7049,23.922,651.2388,24.9755,651.8337,26.0535,652.0735,26.9894,652.5,28,652.5146,28.0175,651.2932,26.9918,650.1381,26.0457,648.951,25.0612,647.825,24.15,646.5,23" style="stroke:#383838;stroke-width:1.0;"/><text fill="#000000" font-family="FG Virgil" font-size="14" font-style="italic" lengthAdjust="spacing" textLength="84" x="605.5" y="629.9707">«application»</text><text fill="#000000" font-family="FG Virgil" font-size="14" lengthAdjust="spacing" textLength="165" x="565" y="647.5801">AddFruitSpecificController</text><polygon fill="#F8F8F8" points="662.5663,669.5751,660.8073,671.9786,658.7268,675.4988,655.7512,677.8712,652.6244,679.1686,650.1313,679.2811,646.9269,677.6587,643.9035,676.5987,641.6086,674.4466,640.4048,671.9829,639.6909,670.0212,638.9915,667.4588,637.8564,665.2539,638.7287,663.101,639.4929,660.7427,642.3611,658.8775,644.3789,656.4574,646.8764,655.6538,649.8456,654.9618,653.6532,655.3729,655.7386,656.3565,658.1633,656.8023,661.1115,659.8228,662.1392,663.0115,662.5857,665.1872,662.08,668.7725" style="stroke:#383838;stroke-width:2.0;"/><polygon fill="#383838" points="646.5,654.6563,646.5449,654.7101,647.6116,653.5502,648.9412,652.7057,650.1853,651.7586,651.1478,650.4736,652.5,649.6563,652.4759,649.6466,651.968,650.6035,651.5813,651.6088,651.2789,652.6478,650.686,653.5707,650.5,654.6563,650.6713,654.7248,650.7049,655.5782,651.2388,656.6318,651.8337,657.7097,652.0735,658.6456,652.5,659.6563,652.5146,659.6737,651.2932,658.6481,650.1381,657.702,648.951,656.7175,647.825,655.8062,646.5,654.6563" style="stroke:#383838;stroke-width:1.0;"/><polygon fill="#F8F8F8" points="746,36,746,36.2102,755.5455,35.5857,765.0909,36.1933,774.6364,36.3997,784.1818,35.2866,793.7273,35.9223,803.2727,35.5735,812.8182,35.6165,822.3636,35.9318,831.9091,35.3086,841.4545,36.5536,851,36,850.3697,36,850.8022,45.8438,851.4319,55.6875,850.9142,65.5313,851.0682,75.375,851,85.2188,851,85.1868,841.4545,85.3973,831.9091,85.4579,822.3636,85.8044,812.8182,85.8898,803.2727,85.898,793.7273,85.4734,784.1818,85.6823,774.6364,85.921,765.0909,84.4976,755.5455,85.8973,746,85.2188,745.7035,85.2188,746.5338,75.375,745.505,65.5313,745.9315,55.6875,746.7416,45.8438,746,36" style="stroke:#383838;stroke-width:1.5;"/><text fill="#000000" font-family="FG Virgil" font-size="14" font-style="italic" lengthAdjust="spacing" textLength="91" x="753" y="57.5332">«value object»</text><text fill="#000000" font-family="FG Virgil" font-size="14" lengthAdjust="spacing" textLength="79" x="759" y="75.1426">UserSession</text><polygon fill="#F8F8F8" points="746,615.4375,746,615.6477,755.5455,615.0232,765.0909,615.6308,774.6364,615.8372,784.1818,614.7241,793.7273,615.3598,803.2727,615.011,812.8182,615.054,822.3636,615.3693,831.9091,614.7461,841.4545,615.9911,851,615.4375,850.3697,615.4375,850.8022,625.2813,851.4319,635.125,850.9142,644.9688,851.0682,654.8125,851,664.6563,851,664.6243,841.4545,664.8348,831.9091,664.8954,822.3636,665.2419,812.8182,665.3273,803.2727,665.3355,793.7273,664.9109,784.1818,665.1198,774.6364,665.3585,765.0909,663.9351,755.5455,665.3348,746,664.6563,745.7035,664.6563,746.5338,654.8125,745.505,644.9688,745.9315,635.125,746.7416,625.2813,746,615.4375" style="stroke:#383838;stroke-width:1.5;"/><text fill="#000000" font-family="FG Virgil" font-size="14" font-style="italic" lengthAdjust="spacing" textLength="91" x="753" y="636.9707">«value object»</text><text fill="#000000" font-family="FG Virgil" font-size="14" lengthAdjust="spacing" textLength="79" x="759" y="654.5801">UserSession</text><polygon fill="#F8F8F8" points="895.5,36,895.5,36.2102,905,35.5857,914.5,36.1933,924,36.3997,933.5,35.2866,943,35.9223,952.5,35.5735,962,35.6165,971.5,36,971.4318,36,970.8086,45.8438,972.0536,55.6875,970.8697,65.5313,971.3022,75.375,971.5,85.2188,971.5,85.6507,962,85.133,952.5,85.287,943,85.1868,933.5,85.3973,924,85.4579,914.5,85.8044,905,85.8898,895.5,85.2188,896.1793,85.2188,895.7546,75.375,895.9636,65.5313,896.2022,55.6875,894.7788,45.8438,895.5,36" style="stroke:#383838;stroke-width:1.5;"/><text fill="#000000" font-family="FG Virgil" font-size="14" font-style="italic" lengthAdjust="spacing" textLength="62" x="902.5" y="57.5332">«domain»</text><text fill="#000000" font-family="FG Virgil" font-size="14" lengthAdjust="spacing" textLength="54" x="906.5" y="75.1426">kart:Kart</text><polygon fill="#F8F8F8" points="895.5,615.4375,895.5,615.6477,905,615.0232,914.5,615.6308,924,615.8372,933.5,614.7241,943,615.3598,952.5,615.011,962,615.054,971.5,615.4375,971.4318,615.4375,970.8086,625.2813,972.0536,635.125,970.8697,644.9688,971.3022,654.8125,971.5,664.6563,971.5,665.0882,962,664.5705,952.5,664.7245,943,664.6243,933.5,664.8348,924,664.8954,914.5,665.2419,905,665.3273,895.5,664.6563,896.1793,664.6563,895.7546,654.8125,895.9636,644.9688,896.2022,635.125,894.7788,625.2813,895.5,615.4375" style="stroke:#383838;stroke-width:1.5;"/><text fill="#000000" font-family="FG Virgil" font-size="14" font-style="italic" lengthAdjust="spacing" textLength="62" x="902.5" y="636.9707">«domain»</text><text fill="#000000" font-family="FG Virgil" font-size="14" lengthAdjust="spacing" textLength="54" x="906.5" y="654.5801">kart:Kart</text><text fill="#000000" font-family="FG Virgil" font-size="14" font-style="italic" lengthAdjust="spacing" textLength="79" x="990.5" y="65.5332">«repository»</text><text fill="#000000" font-family="FG Virgil" font-size="14" lengthAdjust="spacing" textLength="97" x="981.5" y="83.1426">FruitRepository</text><path d="M1015,15 L1015,15 L1015.0651,15.067 L1016.6716,13.118 L1018.6599,11.5616 L1020.5238,9.8774 L1021.979,7.7727 L1024,6.25 L1023.9952,6.2158 L1025.7739,5.8122 L1027.5766,5.5812 L1029.3958,5.47 L1031.1577,4.9456 L1033,5 L1033,5 L1033.0339,5.2437 L1034.7615,4.9725 L1036.5879,5.4129 L1038.4264,5.9402 L1040.1948,5.9622 L1042,6.25 L1042.0211,6.2717 L1043.7901,7.9898 L1045.6553,9.8069 L1047.4741,11.5762 L1049.3815,13.4366 L1051,15 L1051.5965,15 L1051.6038,20.2 L1051.2263,25.4 L1051.4121,30.6 L1051.6242,35.8 L1051,41 L1051,41 L1050.7766,40.7702 L1049.4102,42.9662 L1047.3081,44.4055 L1045.7654,46.4201 L1043.6466,47.8423 L1042,49.75 L1041.9958,49.7198 L1040.2453,50.3265 L1038.397,50.2285 L1036.6064,50.5464 L1034.8207,50.8991 L1033,51 L1033,51 L1033.0254,51.1832 L1031.1998,50.7483 L1029.4176,50.6264 L1027.565,49.998 L1025.8174,50.1252 L1024,49.75 L1024.1698,49.9247 L1022.3377,48.1417 L1020.5899,46.4453 L1018.4503,44.3461 L1016.5979,42.5422 L1015,41 L1014.4476,41 L1014.9477,35.8 L1014.8253,30.6 L1015.6057,25.4 L1014.8447,20.2 L1015,15 " fill="#F8F8F8" style="stroke:#000000;stroke-width:1.5;"/><path d="M1015,15 L1015,15 L1015.0651,15.067 L1016.6716,16.618 L1018.6599,18.5616 L1020.5238,20.3774 L1021.979,21.7727 L1024,23.75 L1023.9952,23.7158 L1025.7739,23.8122 L1027.5766,24.0812 L1029.3958,24.47 L1031.1577,24.4456 L1033,25 L1033,25 L1033.0339,25.2437 L1034.7615,24.4725 L1036.5879,24.4129 L1038.4264,24.4402 L1040.1948,23.9622 L1042,23.75 L1042.0211,23.7717 L1043.7901,21.9898 L1045.6553,20.3069 L1047.4741,18.5762 L1049.3815,16.9366 L1051,15 " fill="none" style="stroke:#000000;stroke-width:1.5;"/><text fill="#000000" font-family="FG Virgil" font-size="14" font-style="italic" lengthAdjust="spacing" textLength="79" x="990.5" y="629.9707">«repository»</text><text fill="#000000" font-family="FG Virgil" font-size="14" lengthAdjust="spacing" textLength="97" x="981.5" y="647.5801">FruitRepository</text><path d="M1015,660.6563 L1015,660.6563 L1015.0651,660.7232 L1016.6716,658.7742 L1018.6599,657.2178 L1020.5238,655.5336 L1021.979,653.4289 L1024,651.9063 L1023.9952,651.872 L1025.7739,651.4685 L1027.5766,651.2374 L1029.3958,651.1262 L1031.1577,650.6019 L1033,650.6563 L1033,650.6563 L1033.0339,650.9 L1034.7615,650.6288 L1036.5879,651.0692 L1038.4264,651.5964 L1040.1948,651.6185 L1042,651.9063 L1042.0211,651.928 L1043.7901,653.6461 L1045.6553,655.4631 L1047.4741,657.2325 L1049.3815,659.0929 L1051,660.6563 L1051.5965,660.6563 L1051.6038,665.8563 L1051.2263,671.0563 L1051.4121,676.2563 L1051.6242,681.4563 L1051,686.6563 L1051,686.6563 L1050.7766,686.4264 L1049.4102,688.6225 L1047.3081,690.0618 L1045.7654,692.0764 L1043.6466,693.4985 L1042,695.4063 L1041.9958,695.3761 L1040.2453,695.9827 L1038.397,695.8848 L1036.6064,696.2026 L1034.8207,696.5553 L1033,696.6563 L1033,696.6563 L1033.0254,696.8395 L1031.1998,696.4045 L1029.4176,696.2827 L1027.565,695.6543 L1025.8174,695.7814 L1024,695.4063 L1024.1698,695.5809 L1022.3377,693.7979 L1020.5899,692.1016 L1018.4503,690.0023 L1016.5979,688.1984 L1015,686.6563 L1014.4476,686.6563 L1014.9477,681.4563 L1014.8253,676.2563 L1015.6057,671.0563 L1014.8447,665.8563 L1015,660.6563 " fill="#F8F8F8" style="stroke:#000000;stroke-width:1.5;"/><path d="M1015,660.6563 L1015,660.6563 L1015.0651,660.7232 L1016.6716,662.2742 L1018.6599,664.2178 L1020.5238,666.0336 L1021.979,667.4289 L1024,669.4063 L1023.9952,669.372 L1025.7739,669.4685 L1027.5766,669.7374 L1029.3958,670.1262 L1031.1577,670.1019 L1033,670.6563 L1033,670.6563 L1033.0339,670.9 L1034.7615,670.1288 L1036.5879,670.0692 L1038.4264,670.0964 L1040.1948,669.6185 L1042,669.4063 L1042.0211,669.428 L1043.7901,667.6461 L1045.6553,665.9631 L1047.4741,664.2325 L1049.3815,662.5929 L1051,660.6563 " fill="none" style="stroke:#000000;stroke-width:1.5;"/><text fill="#000000" font-family="FG Virgil" font-size="14" font-style="italic" lengthAdjust="spacing" textLength="79" x="1102" y="65.5332">«repository»</text><text fill="#000000" font-family="FG Virgil" font-size="14" lengthAdjust="spacing" textLength="94" x="1094.5" y="83.1426">KartRepository</text><path d="M1126.5,15 L1126.5,15 L1126.5651,15.067 L1128.1716,13.118 L1130.1599,11.5616 L1132.0238,9.8774 L1133.479,7.7727 L1135.5,6.25 L1135.4952,6.2158 L1137.2739,5.8122 L1139.0766,5.5812 L1140.8958,5.47 L1142.6577,4.9456 L1144.5,5 L1144.5,5 L1144.5339,5.2437 L1146.2615,4.9725 L1148.0879,5.4129 L1149.9264,5.9402 L1151.6948,5.9622 L1153.5,6.25 L1153.5211,6.2717 L1155.2901,7.9898 L1157.1553,9.8069 L1158.9741,11.5762 L1160.8815,13.4366 L1162.5,15 L1163.0965,15 L1163.1038,20.2 L1162.7263,25.4 L1162.9121,30.6 L1163.1242,35.8 L1162.5,41 L1162.5,41 L1162.2766,40.7702 L1160.9102,42.9662 L1158.8081,44.4055 L1157.2654,46.4201 L1155.1466,47.8423 L1153.5,49.75 L1153.4958,49.7198 L1151.7453,50.3265 L1149.897,50.2285 L1148.1064,50.5464 L1146.3207,50.8991 L1144.5,51 L1144.5,51 L1144.5254,51.1832 L1142.6998,50.7483 L1140.9176,50.6264 L1139.065,49.998 L1137.3174,50.1252 L1135.5,49.75 L1135.6698,49.9247 L1133.8377,48.1417 L1132.0899,46.4453 L1129.9503,44.3461 L1128.0979,42.5422 L1126.5,41 L1125.9476,41 L1126.4477,35.8 L1126.3253,30.6 L1127.1057,25.4 L1126.3447,20.2 L1126.5,15 " fill="#F8F8F8" style="stroke:#000000;stroke-width:1.5;"/><path d="M1126.5,15 L1126.5,15 L1126.5651,15.067 L1128.1716,16.618 L1130.1599,18.5616 L1132.0238,20.3774 L1133.479,21.7727 L1135.5,23.75 L1135.4952,23.7158 L1137.2739,23.8122 L1139.0766,24.0812 L1140.8958,24.47 L1142.6577,24.4456 L1144.5,25 L1144.5,25 L1144.5339,25.2437 L1146.2615,24.4725 L1148.0879,24.4129 L1149.9264,24.4402 L1151.6948,23.9622 L1153.5,23.75 L1153.5211,23.7717 L1155.2901,21.9898 L1157.1553,20.3069 L1158.9741,18.5762 L1160.8815,16.9366 L1162.5,15 " fill="none" style="stroke:#000000;stroke-width:1.5;"/><text fill="#000000" font-family="FG Virgil" font-size="14" font-style="italic" lengthAdjust="spacing" textLength="79" x="1102" y="629.9707">«repository»</text><text fill="#000000" font-family="FG Virgil" font-size="14" lengthAdjust="spacing" textLength="94" x="1094.5" y="647.5801">KartRepository</text><path d="M1126.5,660.6563 L1126.5,660.6563 L1126.5651,660.7232 L1128.1716,658.7742 L1130.1599,657.2178 L1132.0238,655.5336 L1133.479,653.4289 L1135.5,651.9063 L1135.4952,651.872 L1137.2739,651.4685 L1139.0766,651.2374 L1140.8958,651.1262 L1142.6577,650.6019 L1144.5,650.6563 L1144.5,650.6563 L1144.5339,650.9 L1146.2615,650.6288 L1148.0879,651.0692 L1149.9264,651.5964 L1151.6948,651.6185 L1153.5,651.9063 L1153.5211,651.928 L1155.2901,653.6461 L1157.1553,655.4631 L1158.9741,657.2325 L1160.8815,659.0929 L1162.5,660.6563 L1163.0965,660.6563 L1163.1038,665.8563 L1162.7263,671.0563 L1162.9121,676.2563 L1163.1242,681.4563 L1162.5,686.6563 L1162.5,686.6563 L1162.2766,686.4264 L1160.9102,688.6225 L1158.8081,690.0618 L1157.2654,692.0764 L1155.1466,693.4985 L1153.5,695.4063 L1153.4958,695.3761 L1151.7453,695.9827 L1149.897,695.8848 L1148.1064,696.2026 L1146.3207,696.5553 L1144.5,696.6563 L1144.5,696.6563 L1144.5254,696.8395 L1142.6998,696.4045 L1140.9176,696.2827 L1139.065,695.6543 L1137.3174,695.7814 L1135.5,695.4063 L1135.6698,695.5809 L1133.8377,693.7979 L1132.0899,692.1016 L1129.9503,690.0023 L1128.0979,688.1984 L1126.5,686.6563 L1125.9476,686.6563 L1126.4477,681.4563 L1126.3253,676.2563 L1127.1057,671.0563 L1126.3447,665.8563 L1126.5,660.6563 " fill="#F8F8F8" style="stroke:#000000;stroke-width:1.5;"/><path d="M1126.5,660.6563 L1126.5,660.6563 L1126.5651,660.7232 L1128.1716,662.2742 L1130.1599,664.2178 L1132.0238,666.0336 L1133.479,667.4289 L1135.5,669.4063 L1135.4952,669.372 L1137.2739,669.4685 L1139.0766,669.7374 L1140.8958,670.1262 L1142.6577,670.1019 L1144.5,670.6563 L1144.5,670.6563 L1144.5339,670.9 L1146.2615,670.1288 L1148.0879,670.0692 L1149.9264,670.0964 L1151.6948,669.6185 L1153.5,669.4063 L1153.5211,669.428 L1155.2901,667.6461 L1157.1553,665.9631 L1158.9741,664.2325 L1160.8815,662.5929 L1162.5,660.6563 " fill="none" style="stroke:#000000;stroke-width:1.5;"/><polygon fill="#FFFFFF" points="324.5,118.5703,324.5,118.6404,326.5,118.4322,328.5,118.6347,330.5,118.7035,332.5,118.3325,334.5,118.5703,334.4223,118.5703,334.0735,128.5675,334.1165,138.5648,334.4318,148.562,333.8086,158.5592,335.0536,168.5565,333.8697,178.5537,334.3022,188.5509,334.9319,198.5482,334.4142,208.5454,334.5682,218.5426,334.4681,228.5399,334.6785,238.5371,334.7391,248.5343,335.0857,258.5316,335.1711,268.5288,335.1793,278.526,334.7546,288.5233,334.9636,298.5205,335.2022,308.5177,333.7788,318.515,335.1785,328.5122,334.2035,338.5094,335.0338,348.5067,334.005,358.5039,334.4315,368.5011,335.2416,378.4984,334.4513,388.4956,334.6053,398.4928,334.8386,408.4901,334.9162,418.4873,334.4961,428.4845,334.7872,438.4818,333.9276,448.479,334.7844,458.4762,335.0482,468.4735,334.9445,478.4707,335.113,488.4679,334.0169,498.4652,333.8478,508.4624,333.8786,518.4596,334.4411,528.4569,334.3035,538.4541,335.1814,548.4513,334.3253,558.4486,334.1569,568.4458,334.7283,578.443,333.8332,588.4403,334.5,598.4375,334.5,598.2645,332.5,598.6538,330.5,598.5827,328.5,598.6823,326.5,598.3302,324.5,598.4375,324.8192,598.4375,325.0904,588.4403,324.0276,578.443,324.4041,568.4458,324.626,558.4486,325.1518,548.4513,324.4958,538.4541,324.9626,528.4569,323.9462,518.4596,323.8227,508.4624,325.0036,498.4652,323.7831,488.4679,325.009,478.4707,324.7066,468.4735,324.2321,458.4762,324.1462,448.479,324.9588,438.4818,324.2007,428.4845,325.0919,418.4873,323.9473,408.4901,325.1174,398.4928,324.9843,388.4956,324.745,378.4984,324.5472,368.5011,325.2266,358.5039,325.1136,348.5067,324.6693,338.5094,324.7682,328.5122,324.3697,318.515,325.2165,308.5177,324.6549,298.5205,324.6726,288.5233,323.8916,278.526,324.0948,268.5288,325.0307,258.5316,324.9298,248.5343,324.4571,238.5371,324.1778,228.5399,324.2811,218.5426,323.8138,208.5454,324.9147,198.5482,325.2396,188.5509,325.0264,178.5537,325.1949,168.5565,324.3633,158.5592,324.5872,148.562,324.1124,138.5648,324.784,128.5675,324.5,118.5703" style="stroke:#383838;stroke-width:1.0;"/><polygon fill="#FFFFFF" points="645.5,148.9219,645.5,148.9919,647.5,148.7838,649.5,148.9863,651.5,149.0551,653.5,148.6841,655.5,148.9219,655.4223,148.9219,655.0735,158.9805,655.1165,169.0391,655.4318,179.0977,654.8086,189.1563,656.0536,199.2148,655.5,209.2734,655.5,209.0633,653.5,209.2075,651.5,209.4174,649.5,209.2448,647.5,209.2962,645.5,209.2734,645.4681,209.2734,645.6785,199.2148,645.7391,189.1563,646.0857,179.0977,646.1711,169.0391,646.1793,158.9805,645.5,148.9219" style="stroke:#383838;stroke-width:1.0;"/><polygon fill="#FFFFFF" points="645.5,343.6797,645.5,343.7497,647.5,343.5416,649.5,343.7441,651.5,343.8129,653.5,343.4419,655.5,343.6797,655.4223,343.6797,655.0735,353.7383,655.1165,363.7969,655.4318,373.8555,654.8086,383.9141,656.0536,393.9727,654.8697,404.0313,655.3022,414.0898,655.9319,424.1484,655.4142,434.207,655.5682,444.2656,655.4681,454.3242,655.5,464.3828,655.5,464.4423,653.5,464.4625,651.5,464.578,649.5,464.6065,647.5,464.6092,645.5,464.3828,645.7546,464.3828,645.9636,454.3242,646.2022,444.2656,644.7788,434.207,646.1785,424.1484,645.2035,414.0898,646.0338,404.0313,645.005,393.9727,645.4315,383.9141,646.2416,373.8555,645.4513,363.7969,645.6053,353.7383,645.5,343.6797" style="stroke:#383838;stroke-width:1.0;"/><polygon fill="#FFFFFF" points="928.5,434.3828,928.5,434.4529,930.5,434.2447,932.5,434.4472,934.5,434.516,936.5,434.145,938.5,434.3828,938.4741,434.3828,938.3578,440.3828,938.3722,446.3828,938.4773,452.3828,938.2695,458.3828,938.5,464.3828,938.5,464.5674,936.5,464.1727,934.5,464.3169,932.5,464.5268,930.5,464.3542,928.5,464.3828,928.5227,464.3828,928.4894,458.3828,928.5595,452.3828,928.5797,446.3828,928.6952,440.3828,928.5,434.3828" style="stroke:#383838;stroke-width:1.0;"/><polygon fill="#FFFFFF" points="1028,179.2734,1028,179.3435,1030,179.1353,1032,179.3379,1034,179.4067,1036,179.0356,1038,179.2734,1037.9741,179.2734,1037.8578,185.2734,1037.8722,191.2734,1037.9773,197.2734,1037.7695,203.2734,1038,209.2734,1038,209.458,1036,209.0633,1034,209.2075,1032,209.4174,1030,209.2448,1028,209.2734,1028.0227,209.2734,1027.9894,203.2734,1028.0595,197.2734,1028.0797,191.2734,1028.1952,185.2734,1028,179.2734" style="stroke:#383838;stroke-width:1.0;"/><polygon fill="#FFFFFF" points="1139.5,374.0313,1139.5,374.1013,1141.5,373.8931,1143.5,374.0957,1145.5,374.1645,1147.5,373.7935,1149.5,374.0313,1149.4741,374.0313,1149.3578,380.0313,1149.3722,386.0313,1149.4773,392.0313,1149.2695,398.0313,1149.5,404.0313,1149.5,404.2158,1147.5,403.8212,1145.5,403.9653,1143.5,404.1752,1141.5,404.0027,1139.5,404.0313,1139.5227,404.0313,1139.4894,398.0313,1139.5595,392.0313,1139.5797,386.0313,1139.6952,380.0313,1139.5,374.0313" style="stroke:#383838;stroke-width:1.0;"/><polygon fill="#FFFFFF" points="1139.5,494.7344,1139.5,494.8044,1141.5,494.5963,1143.5,494.7988,1145.5,494.8676,1147.5,494.4966,1149.5,494.7344,1149.4741,494.7344,1149.3578,500.7344,1149.3722,506.7344,1149.4773,512.7344,1149.2695,518.7344,1149.5,524.7344,1149.5,524.9189,1147.5,524.5243,1145.5,524.6685,1143.5,524.8784,1141.5,524.7058,1139.5,524.7344,1139.5227,524.7344,1139.4894,518.7344,1139.5595,512.7344,1139.5797,506.7344,1139.6952,500.7344,1139.5,494.7344" style="stroke:#383838;stroke-width:1.0;"/><polygon fill="#383838" points="312.5,114.5703,312.526,114.6354,314.4487,115.2421,316.5239,116.2301,318.5495,117.094,320.4117,117.5495,322.5,118.5703,322.4904,118.5463,320.4472,119.2383,318.4525,120.0516,316.4916,120.9492,314.4144,121.5563,312.5,122.5703,312.6305,122.7008,313.1514,121.6218,314.0534,120.9237,315.0018,120.2721,315.6798,119.3501,316.5,118.5703,316.5161,118.5864,315.6925,117.7628,314.9421,117.0124,314.1564,116.2267,313.438,115.5084,312.5,114.5703" style="stroke:#383838;stroke-width:1.0;"/><path d="M22.5,118.5703 L22.5,118.8506 L32.3667,118.0179 L42.2333,118.828 L52.1,119.1032 L61.9667,117.6191 L71.8333,118.4667 L81.7,118.0017 L91.5667,118.059 L101.4333,118.4794 L111.3,117.6485 L121.1667,119.3085 L131.0333,117.7299 L140.9,118.3066 L150.7667,119.1462 L160.6333,118.4559 L170.5,118.6613 L180.3667,118.5277 L190.2333,118.8083 L200.1,118.8892 L209.9667,119.3512 L219.8333,119.4651 L229.7,119.476 L239.5667,118.9098 L249.4333,119.1884 L259.3,119.5066 L269.1667,117.6087 L279.0333,119.475 L288.9,118.175 L298.7667,119.2821 L308.6333,117.9103 L318.5,118.5703 " fill="none" style="stroke:#383838;stroke-width:1.0;stroke-dasharray:2.0,2.0;"/><text fill="#000000" font-family="FG Virgil" font-size="13" lengthAdjust="spacing" textLength="89" x="29.5" y="113.7139">Add fruit to kart</text><polygon fill="#383838" points="633.5,144.9219,633.526,144.9869,635.4487,145.5936,637.5239,146.5817,639.5495,147.4456,641.4117,147.9011,643.5,148.9219,643.4904,148.8978,641.4472,149.5899,639.4525,150.4032,637.4916,151.3008,635.4144,151.9079,633.5,152.9219,633.6305,153.0524,634.1514,151.9733,635.0534,151.2753,636.0018,150.6237,636.6798,149.7017,637.5,148.9219,637.5161,148.938,636.6925,148.1143,635.9421,147.364,635.1564,146.5782,634.438,145.8599,633.5,144.9219" style="stroke:#383838;stroke-width:1.0;"/><path d="M334.5,148.9219 L334.5,149.2021 L344.3387,148.3694 L354.1774,149.1796 L364.0161,149.4548 L373.8548,147.9707 L383.6935,148.8183 L393.5323,148.3532 L403.371,148.4105 L413.2097,148.831 L423.0484,148 L432.8871,149.6601 L442.7258,148.0815 L452.5645,148.6582 L462.4032,149.4978 L472.2419,148.8075 L482.0806,149.0129 L491.9194,148.8793 L501.7581,149.1599 L511.5968,149.2407 L521.4355,149.7028 L531.2742,149.8166 L541.1129,149.8276 L550.9516,149.2614 L560.7903,149.54 L570.629,149.8582 L580.4677,147.9603 L590.3065,149.8266 L600.1452,148.5265 L609.9839,149.6336 L619.8226,148.2618 L629.6613,148.8305 L639.5,148.9219 " fill="none" style="stroke:#383838;stroke-width:1.0;"/><text fill="#000000" font-family="FG Virgil" font-size="13" lengthAdjust="spacing" textLength="148" x="341.5" y="144.0654">getFruitById(String name)</text><polygon fill="#383838" points="1016,175.2734,1016.026,175.3385,1017.9487,175.9452,1020.0239,176.9333,1022.0495,177.7971,1023.9117,178.2526,1026,179.2734,1025.9904,179.2494,1023.9472,179.9414,1021.9525,180.7547,1019.9916,181.6523,1017.9144,182.2595,1016,183.2734,1016.1305,183.4039,1016.6514,182.3249,1017.5534,181.6268,1018.5018,180.9752,1019.1798,180.0532,1020,179.2734,1020.0161,179.2895,1019.1925,178.4659,1018.4421,177.7155,1017.6564,176.9298,1016.938,176.2115,1016,175.2734" style="stroke:#383838;stroke-width:1.0;"/><path d="M655.5,179.2734 L655.5,179.5537 L665.4054,178.721 L675.3108,179.5312 L685.2162,179.8063 L695.1216,178.3222 L705.027,179.1698 L714.9324,178.7048 L724.8378,178.7621 L734.7432,179.1826 L744.6486,178.3516 L754.5541,180.0116 L764.4595,178.4331 L774.3649,179.0097 L784.2703,179.8494 L794.1757,179.1591 L804.0811,179.3644 L813.9865,179.2308 L823.8919,179.5115 L833.7973,179.5923 L843.7027,180.0544 L853.6081,180.1682 L863.5135,180.1791 L873.4189,179.6129 L883.3243,179.8916 L893.2297,180.2097 L903.1351,178.3119 L913.0405,180.1781 L922.9459,178.8781 L932.8514,179.9852 L942.7568,178.6134 L952.6622,179.1821 L962.5676,180.2622 L972.473,179.2085 L982.3784,179.4138 L992.2838,179.7249 L1002.1892,179.8284 L1012.0946,179.2682 L1022,179.2734 " fill="none" style="stroke:#383838;stroke-width:1.0;"/><text fill="#000000" font-family="FG Virgil" font-size="13" lengthAdjust="spacing" textLength="148" x="662.5" y="174.417">getFruitById(String name)</text><path d="M334.5,239.625 L334.5,239.7184 L342.9,239.4409 L351.3,239.7109 L359.7,239.8026 L368.1,239.3079 L376.5,239.625 " fill="none" style="stroke:#383838;stroke-width:1.0;"/><path d="M376.5,239.625 L376.5934,239.625 L376.3159,242.225 L376.5859,244.825 L376.6776,247.425 L376.1829,250.025 L376.5,252.625 " fill="none" style="stroke:#383838;stroke-width:1.0;"/><path d="M335.5,252.625 L335.5,252.7184 L343.7,252.4409 L351.9,252.7109 L360.1,252.8026 L368.3,252.3079 L376.5,252.625 " fill="none" style="stroke:#383838;stroke-width:1.0;"/><polygon fill="#383838" points="345.5,248.625,345.526,248.69,343.4487,249.2968,341.5239,250.2848,339.5495,251.1487,337.4117,251.6042,335.5,252.625,335.4904,252.6009,337.4472,253.293,339.4525,254.1063,341.4916,255.0039,343.4144,255.611,345.5,256.625,345.6305,256.7555,344.5514,255.6764,343.8534,254.9784,343.2018,254.3268,342.2798,253.4048,341.5,252.625,341.5161,252.6411,342.2925,251.8175,343.1421,251.0671,343.9564,250.2814,344.838,249.563,345.5,248.625" style="stroke:#383838;stroke-width:1.0;"/><text fill="#000000" font-family="FG Virgil" font-size="13" lengthAdjust="spacing" textLength="38" x="341.5" y="234.7686">show()</text><polygon fill="#383838" points="33.5,278.9766,33.526,279.0416,31.4487,279.6483,29.5239,280.6364,27.5495,281.5003,25.4117,281.9558,23.5,282.9766,23.4904,282.9525,25.4472,283.6446,27.4525,284.4579,29.4916,285.3555,31.4144,285.9626,33.5,286.9766,33.6305,287.1071,32.5514,286.028,31.8534,285.3299,31.2018,284.6784,30.2798,283.7563,29.5,282.9766,29.5161,282.9926,30.2925,282.169,31.1421,281.4186,31.9564,280.6329,32.838,279.9146,33.5,278.9766" style="stroke:#383838;stroke-width:1.0;"/><path d="M27.5,282.9766 L27.5,283.2568 L37.3667,282.4241 L47.2333,283.2343 L57.1,283.5095 L66.9667,282.0254 L76.8333,282.8729 L86.7,282.4079 L96.5667,282.4652 L106.4333,282.8857 L116.3,282.0547 L126.1667,283.7148 L136.0333,282.1362 L145.9,282.7129 L155.7667,283.5525 L165.6333,282.8622 L175.5,283.0675 L185.3667,282.934 L195.2333,283.2146 L205.1,283.2954 L214.9667,283.7575 L224.8333,283.8713 L234.7,283.8822 L244.5667,283.3161 L254.4333,283.5947 L264.3,283.9129 L274.1667,282.015 L284.0333,283.8812 L293.9,282.5812 L303.7667,283.6883 L313.6333,282.3165 L323.5,282.9766 " fill="none" style="stroke:#383838;stroke-width:1.0;stroke-dasharray:2.0,2.0;"/><text fill="#000000" font-family="FG Virgil" font-size="13" lengthAdjust="spacing" textLength="86" x="39.5" y="278.1201">Shows fruit tab</text><polygon fill="#383838" points="312.5,309.3281,312.526,309.3932,314.4487,309.9999,316.5239,310.9879,318.5495,311.8518,320.4117,312.3073,322.5,313.3281,322.4904,313.3041,320.4472,313.9961,318.4525,314.8094,316.4916,315.707,314.4144,316.3142,312.5,317.3281,312.6305,317.4586,313.1514,316.3796,314.0534,315.6815,315.0018,315.0299,315.6798,314.1079,316.5,313.3281,316.5161,313.3442,315.6925,312.5206,314.9421,311.7702,314.1564,310.9845,313.438,310.2662,312.5,309.3281" style="stroke:#383838;stroke-width:1.0;"/><path d="M22.5,313.3281 L22.5,313.6084 L32.3667,312.7757 L42.2333,313.5858 L52.1,313.861 L61.9667,312.3769 L71.8333,313.2245 L81.7,312.7595 L91.5667,312.8168 L101.4333,313.2372 L111.3,312.4063 L121.1667,314.0663 L131.0333,312.4878 L140.9,313.0644 L150.7667,313.9041 L160.6333,313.2138 L170.5,313.4191 L180.3667,313.2855 L190.2333,313.5662 L200.1,313.647 L209.9667,314.109 L219.8333,314.2229 L229.7,314.2338 L239.5667,313.6676 L249.4333,313.9462 L259.3,314.2644 L269.1667,312.3665 L279.0333,314.2328 L288.9,312.9328 L298.7667,314.0399 L308.6333,312.6681 L318.5,313.3281 " fill="none" style="stroke:#383838;stroke-width:1.0;stroke-dasharray:2.0,2.0;"/><text fill="#000000" font-family="FG Virgil" font-size="13" lengthAdjust="spacing" textLength="278" x="29.5" y="308.4717">Choses quantity and clicks button to add to kart</text><polygon fill="#383838" points="633.5,339.6797,633.526,339.7447,635.4487,340.3515,637.5239,341.3395,639.5495,342.2034,641.4117,342.6589,643.5,343.6797,643.4904,343.6556,641.4472,344.3477,639.4525,345.161,637.4916,346.0586,635.4144,346.6657,633.5,347.6797,633.6305,347.8102,634.1514,346.7311,635.0534,346.0331,636.0018,345.3815,636.6798,344.4595,637.5,343.6797,637.5161,343.6958,636.6925,342.8722,635.9421,342.1218,635.1564,341.3361,634.438,340.6177,633.5,339.6797" style="stroke:#383838;stroke-width:1.0;"/><path d="M334.5,343.6797 L334.5,343.9599 L344.3387,343.1273 L354.1774,343.9374 L364.0161,344.2126 L373.8548,342.7285 L383.6935,343.5761 L393.5323,343.111 L403.371,343.1684 L413.2097,343.5888 L423.0484,342.7579 L432.8871,344.4179 L442.7258,342.8393 L452.5645,343.416 L462.4032,344.2556 L472.2419,343.5653 L482.0806,343.7707 L491.9194,343.6371 L501.7581,343.9177 L511.5968,343.9985 L521.4355,344.4606 L531.2742,344.5744 L541.1129,344.5854 L550.9516,344.0192 L560.7903,344.2978 L570.629,344.616 L580.4677,342.7181 L590.3065,344.5844 L600.1452,343.2843 L609.9839,344.3914 L619.8226,343.0197 L629.6613,343.5884 L639.5,343.6797 " fill="none" style="stroke:#383838;stroke-width:1.0;"/><text fill="#000000" font-family="FG Virgil" font-size="13" lengthAdjust="spacing" textLength="292" x="341.5" y="338.8232">addFruitToKartWithQuantity(Fruit fruit, int quantity)</text><polygon fill="#383838" points="1127.5,370.0313,1127.526,370.0963,1129.4487,370.703,1131.5239,371.6911,1133.5495,372.5549,1135.4117,373.0105,1137.5,374.0313,1137.4904,374.0072,1135.4472,374.6993,1133.4525,375.5126,1131.4916,376.4102,1129.4144,377.0173,1127.5,378.0313,1127.6305,378.1617,1128.1514,377.0827,1129.0534,376.3846,1130.0018,375.7331,1130.6798,374.811,1131.5,374.0313,1131.5161,374.0473,1130.6925,373.2237,1129.9421,372.4733,1129.1564,371.6876,1128.438,370.9693,1127.5,370.0313" style="stroke:#383838;stroke-width:1.0;"/><path d="M655.5,374.0313 L655.5,374.3115 L665.4583,373.4788 L675.4167,374.289 L685.375,374.5642 L695.3333,373.0801 L705.2917,373.9276 L715.25,373.4626 L725.2083,373.5199 L735.1667,373.9404 L745.125,373.1094 L755.0833,374.7694 L765.0417,373.1909 L775,373.7676 L784.9583,374.6072 L794.9167,373.9169 L804.875,374.1222 L814.8333,373.9887 L824.7917,374.2693 L834.75,374.3501 L844.7083,374.8122 L854.6667,374.926 L864.625,374.9369 L874.5833,374.3708 L884.5417,374.6494 L894.5,374.9676 L904.4583,373.0697 L914.4167,374.9359 L924.375,373.6359 L934.3333,374.743 L944.2917,373.3712 L954.25,373.9399 L964.2083,375.0201 L974.1667,373.9663 L984.125,374.1717 L994.0833,374.4828 L1004.0417,374.5862 L1014,374.026 L1023.9583,374.4142 L1033.9167,373.268 L1043.875,374.4104 L1053.8333,374.7622 L1063.7917,374.624 L1073.75,374.8486 L1083.7083,373.3871 L1093.6667,373.1617 L1103.625,373.2027 L1113.5833,373.9527 L1123.5417,373.7692 L1133.5,374.0313 " fill="none" style="stroke:#383838;stroke-width:1.0;"/><text fill="#000000" font-family="FG Virgil" font-size="13" lengthAdjust="spacing" textLength="176" x="662.5" y="369.1748">kart=getKartById(String token)</text><polygon fill="#383838" points="916.5,430.3828,916.526,430.4479,918.4487,431.0546,920.5239,432.0426,922.5495,432.9065,924.4117,433.362,926.5,434.3828,926.4904,434.3588,924.4472,435.0508,922.4525,435.8641,920.4916,436.7617,918.4144,437.3688,916.5,438.3828,916.6305,438.5133,917.1514,437.4343,918.0534,436.7362,919.0018,436.0846,919.6798,435.1626,920.5,434.3828,920.5161,434.3989,919.6925,433.5753,918.9421,432.8249,918.1564,432.0392,917.438,431.3209,916.5,430.3828" style="stroke:#383838;stroke-width:1.0;"/><path d="M655.5,434.3828 L655.5,434.6631 L665.3889,433.8304 L675.2778,434.6405 L685.1667,434.9157 L695.0556,433.4316 L704.9444,434.2792 L714.8333,433.8142 L724.7222,433.8715 L734.6111,434.2919 L744.5,433.461 L754.3889,435.121 L764.2778,433.5424 L774.1667,434.1191 L784.0556,434.9587 L793.9444,434.2684 L803.8333,434.4738 L813.7222,434.3402 L823.6111,434.6208 L833.5,434.7017 L843.3889,435.1637 L853.2778,435.2776 L863.1667,435.2885 L873.0556,434.7223 L882.9444,435.0009 L892.8333,435.3191 L902.7222,433.4212 L912.6111,435.2875 L922.5,434.3828 " fill="none" style="stroke:#383838;stroke-width:1.0;"/><text fill="#000000" font-family="FG Virgil" font-size="13" lengthAdjust="spacing" textLength="254" x="662.5" y="429.5264">addFruitWithQuantity(Fruit fruit, int quantity)</text><polygon fill="#383838" points="1127.5,490.7344,1127.526,490.7994,1129.4487,491.4061,1131.5239,492.3942,1133.5495,493.2581,1135.4117,493.7136,1137.5,494.7344,1137.4904,494.7103,1135.4472,495.4024,1133.4525,496.2157,1131.4916,497.1133,1129.4144,497.7204,1127.5,498.7344,1127.6305,498.8649,1128.1514,497.7858,1129.0534,497.0878,1130.0018,496.4362,1130.6798,495.5142,1131.5,494.7344,1131.5161,494.7505,1130.6925,493.9268,1129.9421,493.1765,1129.1564,492.3907,1128.438,491.6724,1127.5,490.7344" style="stroke:#383838;stroke-width:1.0;"/><path d="M334.5,494.7344 L334.5,495.0146 L344.4875,494.1819 L354.475,494.9921 L364.4625,495.2673 L374.45,493.7832 L384.4375,494.6308 L394.425,494.1657 L404.4125,494.223 L414.4,494.6435 L424.3875,493.8125 L434.375,495.4726 L444.3625,493.894 L454.35,494.4707 L464.3375,495.3103 L474.325,494.62 L484.3125,494.8254 L494.3,494.6918 L504.2875,494.9724 L514.275,495.0532 L524.2625,495.5153 L534.25,495.6291 L544.2375,495.6401 L554.225,495.0739 L564.2125,495.3525 L574.2,495.6707 L584.1875,493.7728 L594.175,495.6391 L604.1625,494.339 L614.15,495.4461 L624.1375,494.0743 L634.125,494.643 L644.1125,495.7232 L654.1,494.6694 L664.0875,494.8748 L674.075,495.1859 L684.0625,495.2894 L694.05,494.7292 L704.0375,495.1173 L714.025,493.9712 L724.0125,495.1136 L734,495.4653 L743.9875,495.3271 L753.975,495.5517 L763.9625,494.0903 L773.95,493.8648 L783.9375,493.9058 L793.925,494.6559 L803.9125,494.4723 L813.9,495.6429 L823.8875,494.5015 L833.875,494.277 L843.8625,495.0387 L853.85,493.8453 L863.8375,494.0422 L873.825,495.5996 L883.8125,495.3153 L893.8,495.7137 L903.7875,494.3053 L913.775,495.16 L923.7625,495.5216 L933.75,494.1045 L943.7375,494.6066 L953.725,494.9024 L963.7125,495.6034 L973.7,494.7288 L983.6875,495.3511 L993.675,493.996 L1003.6625,493.8314 L1013.65,495.4059 L1023.6375,493.7785 L1033.625,495.413 L1043.6125,495.0099 L1053.6,494.3772 L1063.5875,494.2627 L1073.575,495.3461 L1083.5625,494.3353 L1093.55,495.5235 L1103.5375,493.9974 L1113.525,495.5576 L1123.5125,495.3801 L1133.5,494.7344 " fill="none" style="stroke:#383838;stroke-width:1.0;"/><text fill="#000000" font-family="FG Virgil" font-size="13" lengthAdjust="spacing" textLength="56" x="341.5" y="489.8779">save(kart)</text><path d="M334.5,555.0859 L334.5,555.1794 L342.9,554.9018 L351.3,555.1718 L359.7,555.2636 L368.1,554.7689 L376.5,555.0859 " fill="none" style="stroke:#383838;stroke-width:1.0;"/><path d="M376.5,555.0859 L376.5934,555.0859 L376.3159,557.6859 L376.5859,560.2859 L376.6776,562.8859 L376.1829,565.4859 L376.5,568.0859 " fill="none" style="stroke:#383838;stroke-width:1.0;"/><path d="M335.5,568.0859 L335.5,568.1794 L343.7,567.9018 L351.9,568.1718 L360.1,568.2636 L368.3,567.7689 L376.5,568.0859 " fill="none" style="stroke:#383838;stroke-width:1.0;"/><polygon fill="#383838" points="345.5,564.0859,345.526,564.151,343.4487,564.7577,341.5239,565.7458,339.5495,566.6096,337.4117,567.0651,335.5,568.0859,335.4904,568.0619,337.4472,568.7539,339.4525,569.5672,341.4916,570.4648,343.4144,571.072,345.5,572.0859,345.6305,572.2164,344.5514,571.1374,343.8534,570.4393,343.2018,569.7877,342.2798,568.8657,341.5,568.0859,341.5161,568.102,342.2925,567.2784,343.1421,566.528,343.9564,565.7423,344.838,565.024,345.5,564.0859" style="stroke:#383838;stroke-width:1.0;"/><text fill="#000000" font-family="FG Virgil" font-size="13" lengthAdjust="spacing" textLength="38" x="341.5" y="550.2295">show()</text><polygon fill="#383838" points="33.5,594.4375,33.526,594.5025,31.4487,595.1093,29.5239,596.0973,27.5495,596.9612,25.4117,597.4167,23.5,598.4375,23.4904,598.4134,25.4472,599.1055,27.4525,599.9188,29.4916,600.8164,31.4144,601.4235,33.5,602.4375,33.6305,602.568,32.5514,601.4889,31.8534,600.7909,31.2018,600.1393,30.2798,599.2173,29.5,598.4375,29.5161,598.4536,30.2925,597.63,31.1421,596.8796,31.9564,596.0939,32.838,595.3755,33.5,594.4375" style="stroke:#383838;stroke-width:1.0;"/><path d="M27.5,598.4375 L27.5,598.7177 L37.5333,597.8851 L47.5667,598.6952 L57.6,598.9704 L67.6333,597.4863 L77.6667,598.3339 L87.7,597.8688 L97.7333,597.9262 L107.7667,598.3466 L117.8,597.5157 L127.8333,599.1757 L137.8667,597.5971 L147.9,598.1738 L157.9333,599.0134 L167.9667,598.3231 L178,598.5285 L188.0333,598.3949 L198.0667,598.6755 L208.1,598.7563 L218.1333,599.2184 L228.1667,599.3322 L238.2,599.3432 L248.2333,598.777 L258.2667,599.0556 L268.3,599.3738 L278.3333,597.4759 L288.3667,599.3422 L298.4,598.0422 L308.4333,599.1492 L318.4667,597.7775 L328.5,598.4375 " fill="none" style="stroke:#383838;stroke-width:1.0;stroke-dasharray:2.0,2.0;"/><text fill="#000000" font-family="FG Virgil" font-size="13" lengthAdjust="spacing" textLength="255" x="39.5" y="593.5811">Several Fruits are added and kart is updated</text><!--MD5=[71917b476d59a37800fab1a7ac8a1e8b]
@startuml
skinparam handwritten true
skinparam monochrome true
skinparam packageStyle rect
skinparam defaultFontName FG Virgil
skinparam shadowing false

actor User as Actor
participant "/fruit" as UI <<presentation>>
control AddFruitSpecificController as Controller <<application>>
participant "UserSession" as UserSession <<value object>>
participant "kart:Kart" as Domain <<domain>>
database FruitRepository as FS <<repository>>
database KartRepository as KS <<repository>>


Actor - -> UI: Add fruit to kart
activate UI
         UI -> Controller: getFruitById(String name)
      activate Controller

       Controller->FS : getFruitById(String name)
       activate FS
       deactivate FS
       deactivate Controller
       UI -> UI : show()
    UI - -> Actor: Shows fruit tab
    Actor - -> UI: Choses quantity and clicks button to add to kart

   UI -> Controller: addFruitToKartWithQuantity(Fruit fruit, int quantity)
 activate Controller
        Controller -> KS : kart=getKartById(String token)
        activate KS
        deactivate KS
       Controller -> Domain :  addFruitWithQuantity(Fruit fruit, int quantity)
       activate Domain
       deactivate Domain
       deactivate Controller

UI -> KS : save(kart)
activate KS
deactivate KS


UI -> UI : show()
 UI - -> Actor: Several Fruits are added and kart is updated
deactivate UI
@enduml

PlantUML version 1.2021.11(Sat Oct 02 15:26:11 CEST 2021)
(GPL source distribution)
Java Runtime: OpenJDK Runtime Environment
JVM: Dynamic Code Evolution 64-Bit Server VM
Default Encoding: Cp1252
Language: pt
Country: PT
--></g></svg>