<?xml version="1.0" encoding="UTF-8" standalone="no"?><svg xmlns="http://www.w3.org/2000/svg" xmlns:xlink="http://www.w3.org/1999/xlink" contentScriptType="application/ecmascript" contentStyleType="text/css" height="586px" preserveAspectRatio="none" style="width:778px;height:586px;background:#FFFFFF;" version="1.1" viewBox="0 0 778 586" width="778px" zoomAndPan="magnify"><defs/><g><polygon fill="#FFFFFF" points="17.5,118.5703,17.5,118.6404,19.5,118.4322,21.5,118.6347,23.5,118.7035,25.5,118.3325,27.5,118.5703,27.4223,118.5703,27.0735,128.6582,27.1165,138.7461,27.4318,148.834,26.8086,158.9219,28.0536,169.0098,26.8697,179.0977,27.3022,189.1855,27.9319,199.2734,27.4142,209.3613,27.5682,219.4492,27.4681,229.5371,27.6785,239.625,27.7391,249.7129,28.0857,259.8008,28.1711,269.8887,28.1793,279.9766,27.7546,290.0645,27.9636,300.1523,28.2022,310.2402,26.7788,320.3281,28.1785,330.416,27.2035,340.5039,28.0338,350.5918,27.005,360.6797,27.4315,370.7676,28.2416,380.8555,27.4513,390.9434,27.6053,401.0313,27.8386,411.1191,27.9162,421.207,27.4961,431.2949,27.7872,441.3828,26.9276,451.4707,27.7844,461.5586,28.0482,471.6465,27.5,481.7344,27.5,481.8826,25.5,481.9387,23.5,481.5733,21.5,481.517,19.5,481.5272,17.5,481.7344,17.4411,481.7344,17.3035,471.6465,18.1814,461.5586,17.3253,451.4707,17.1569,441.3828,17.7283,431.2949,16.8332,421.207,16.9809,411.1191,18.149,401.0313,17.9357,390.9434,18.2345,380.8555,17.1782,370.7676,17.8192,360.6797,18.0904,350.5918,17.0276,340.5039,17.4041,330.416,17.626,320.3281,18.1518,310.2402,17.4958,300.1523,17.9626,290.0645,16.9462,279.9766,16.8227,269.8887,18.0036,259.8008,16.7831,249.7129,18.009,239.625,17.7066,229.5371,17.2321,219.4492,17.1462,209.3613,17.9588,199.2734,17.2007,189.1855,18.0919,179.0977,16.9473,169.0098,18.1174,158.9219,17.9843,148.834,17.745,138.7461,17.5472,128.6582,17.5,118.5703" style="stroke:#383838;stroke-width:1.0;"/><polygon fill="#FFFFFF" points="200.5,118.5703,200.5,118.6404,202.5,118.4322,204.5,118.6347,206.5,118.7035,208.5,118.3325,210.5,118.5703,210.4223,118.5703,210.0735,128.6582,210.1165,138.7461,210.4318,148.834,209.8086,158.9219,211.0536,169.0098,209.8697,179.0977,210.3022,189.1855,210.9319,199.2734,210.4142,209.3613,210.5682,219.4492,210.4681,229.5371,210.6785,239.625,210.7391,249.7129,211.0857,259.8008,211.1711,269.8887,211.1793,279.9766,210.7546,290.0645,210.9636,300.1523,211.2022,310.2402,209.7788,320.3281,211.1785,330.416,210.2035,340.5039,211.0338,350.5918,210.005,360.6797,210.4315,370.7676,211.2416,380.8555,210.4513,390.9434,210.6053,401.0313,210.8386,411.1191,210.9162,421.207,210.4961,431.2949,210.7872,441.3828,209.9276,451.4707,210.7844,461.5586,211.0482,471.6465,210.5,481.7344,210.5,481.8826,208.5,481.9387,206.5,481.5733,204.5,481.517,202.5,481.5272,200.5,481.7344,200.4411,481.7344,200.3035,471.6465,201.1814,461.5586,200.3253,451.4707,200.1569,441.3828,200.7283,431.2949,199.8332,421.207,199.9809,411.1191,201.149,401.0313,200.9357,390.9434,201.2345,380.8555,200.1782,370.7676,200.8192,360.6797,201.0904,350.5918,200.0276,340.5039,200.4041,330.416,200.626,320.3281,201.1518,310.2402,200.4958,300.1523,200.9626,290.0645,199.9462,279.9766,199.8227,269.8887,201.0036,259.8008,199.7831,249.7129,201.009,239.625,200.7066,229.5371,200.2321,219.4492,200.1462,209.3613,200.9588,199.2734,200.2007,189.1855,201.0919,179.0977,199.9473,169.0098,201.1174,158.9219,200.9843,148.834,200.745,138.7461,200.5472,128.6582,200.5,118.5703" style="stroke:#383838;stroke-width:1.0;"/><polygon fill="#FFFFFF" points="367.5,148.9219,367.5,148.9919,369.5,148.7838,371.5,148.9863,373.5,149.0551,375.5,148.6841,377.5,148.9219,377.4223,148.9219,377.0735,158.9805,377.1165,169.0391,377.4318,179.0977,376.8086,189.1563,378.0536,199.2148,377.5,209.2734,377.5,209.0633,375.5,209.2075,373.5,209.4174,371.5,209.2448,369.5,209.2962,367.5,209.2734,367.4681,209.2734,367.6785,199.2148,367.7391,189.1563,368.0857,179.0977,368.1711,169.0391,368.1793,158.9805,367.5,148.9219" style="stroke:#383838;stroke-width:1.0;"/><polygon fill="#FFFFFF" points="367.5,300.3281,367.5,300.3982,369.5,300.19,371.5,300.3926,373.5,300.4614,375.5,300.0903,377.5,300.3281,377.4223,300.3281,377.0735,310.3984,377.1165,320.4688,377.4318,330.5391,376.8086,340.6094,378.0536,350.6797,376.8697,360.75,377.3022,370.8203,377.9319,380.8906,377.4142,390.9609,377.5682,401.0313,377.4681,411.1016,377.6785,421.1719,377.7391,431.2422,378.0857,441.3125,377.5,451.3828,377.5,451.6065,375.5,451.6092,373.5,451.4677,371.5,451.5373,369.5,451.6169,367.5,451.3828,366.7788,451.3828,368.1785,441.3125,367.2035,431.2422,368.0338,421.1719,367.005,411.1016,367.4315,401.0313,368.2416,390.9609,367.4513,380.8906,367.6053,370.8203,367.8386,360.75,367.9162,350.6797,367.4961,340.6094,367.7872,330.5391,366.9276,320.4688,367.7844,310.3984,367.5,300.3281" style="stroke:#383838;stroke-width:1.0;"/><polygon fill="#FFFFFF" points="532.5,330.6797,532.5,330.7497,534.5,330.5416,536.5,330.7441,538.5,330.8129,540.5,330.4419,542.5,330.6797,542.4223,330.6797,542.0735,340.7383,542.1165,350.7969,542.4318,360.8555,541.8086,370.9141,543.0536,380.9727,541.8697,391.0313,542.3022,401.0898,542.9319,411.1484,542.4142,421.207,542.5682,431.2656,542.4681,441.3242,542.5,451.3828,542.5,451.4423,540.5,451.4625,538.5,451.578,536.5,451.6065,534.5,451.6092,532.5,451.3828,532.7546,451.3828,532.9636,441.3242,533.2022,431.2656,531.7788,421.207,533.1785,411.1484,532.2035,401.0898,533.0338,391.0313,532.005,380.9727,532.4315,370.9141,533.2416,360.8555,532.4513,350.7969,532.6053,340.7383,532.5,330.6797" style="stroke:#383838;stroke-width:1.0;"/><polygon fill="#FFFFFF" points="722,179.2734,722,179.3435,724,179.1353,726,179.3379,728,179.4067,730,179.0356,732,179.2734,731.9741,179.2734,731.8578,185.2734,731.8722,191.2734,731.9773,197.2734,731.7695,203.2734,732,209.2734,732,209.458,730,209.0633,728,209.2075,726,209.4174,724,209.2448,722,209.2734,722.0227,209.2734,721.9894,203.2734,722.0595,197.2734,722.0797,191.2734,722.1952,185.2734,722,179.2734" style="stroke:#383838;stroke-width:1.0;"/><polygon fill="#FFFFFF" points="722,361.0313,722,361.1013,724,360.8931,726,361.0957,728,361.1645,730,360.7935,732,361.0313,731.9741,361.0313,731.8578,367.0313,731.8722,373.0313,731.9773,379.0313,731.7695,385.0313,732,391.0313,732,391.2158,730,390.8212,728,390.9653,726,391.1752,724,391.0027,722,391.0313,722.0227,391.0313,721.9894,385.0313,722.0595,379.0313,722.0797,373.0313,722.1952,367.0313,722,361.0313" style="stroke:#383838;stroke-width:1.0;"/><polygon fill="#FFFFFF" points="722,421.3828,722,421.4529,724,421.2447,726,421.4472,728,421.516,730,421.145,732,421.3828,731.9741,421.3828,731.8578,427.3828,731.8722,433.3828,731.9773,439.3828,731.7695,445.3828,732,451.3828,732,451.5674,730,451.1727,728,451.3169,726,451.5268,724,451.3542,722,451.3828,722.0227,451.3828,721.9894,445.3828,722.0595,439.3828,722.0797,433.3828,722.1952,427.3828,722,421.3828" style="stroke:#383838;stroke-width:1.0;"/><path d="M22,86.2188 L22.2802,86.2188 L21.4476,96.3045 L22.2577,106.3902 L22.5329,116.476 L21.0488,126.5617 L21.8964,136.6475 L21.4313,146.7332 L21.4887,156.819 L21.9091,166.9047 L21.0782,176.9905 L22.7382,187.0762 L21.1596,197.162 L21.7363,207.2477 L22.5759,217.3335 L21.8856,227.4192 L22.091,237.505 L21.9574,247.5907 L22.238,257.6764 L22.3188,267.7622 L22.7809,277.8479 L22.8947,287.9337 L22.9057,298.0194 L22.3395,308.1052 L22.6181,318.1909 L22.9363,328.2767 L21.0384,338.3624 L22.9047,348.4482 L21.6047,358.5339 L22.7117,368.6197 L21.34,378.7054 L21.9087,388.7912 L22.9888,398.8769 L21.935,408.9627 L22.1404,419.0484 L22.4515,429.1341 L22.555,439.2199 L21.9948,449.3056 L22.383,459.3914 L21.2368,469.4771 L22.3792,479.5629 L22.7309,489.6486 L22,499.7344 " fill="none" style="stroke:#383838;stroke-width:1.0;stroke-dasharray:5.0,5.0;"/><path d="M205,86.2188 L205.2802,86.2188 L204.4476,96.3045 L205.2577,106.3902 L205.5329,116.476 L204.0488,126.5617 L204.8964,136.6475 L204.4313,146.7332 L204.4887,156.819 L204.9091,166.9047 L204.0782,176.9905 L205.7382,187.0762 L204.1596,197.162 L204.7363,207.2477 L205.5759,217.3335 L204.8856,227.4192 L205.091,237.505 L204.9574,247.5907 L205.238,257.6764 L205.3188,267.7622 L205.7809,277.8479 L205.8947,287.9337 L205.9057,298.0194 L205.3395,308.1052 L205.6181,318.1909 L205.9363,328.2767 L204.0384,338.3624 L205.9047,348.4482 L204.6047,358.5339 L205.7117,368.6197 L204.34,378.7054 L204.9087,388.7912 L205.9888,398.8769 L204.935,408.9627 L205.1404,419.0484 L205.4515,429.1341 L205.555,439.2199 L204.9948,449.3056 L205.383,459.3914 L204.2368,469.4771 L205.3792,479.5629 L205.7309,489.6486 L205,499.7344 " fill="none" style="stroke:#383838;stroke-width:1.0;stroke-dasharray:5.0,5.0;"/><path d="M372,86.2188 L372.2802,86.2188 L371.4476,96.3045 L372.2577,106.3902 L372.5329,116.476 L371.0488,126.5617 L371.8964,136.6475 L371.4313,146.7332 L371.4887,156.819 L371.9091,166.9047 L371.0782,176.9905 L372.7382,187.0762 L371.1596,197.162 L371.7363,207.2477 L372.5759,217.3335 L371.8856,227.4192 L372.091,237.505 L371.9574,247.5907 L372.238,257.6764 L372.3188,267.7622 L372.7809,277.8479 L372.8947,287.9337 L372.9057,298.0194 L372.3395,308.1052 L372.6181,318.1909 L372.9363,328.2767 L371.0384,338.3624 L372.9047,348.4482 L371.6047,358.5339 L372.7117,368.6197 L371.34,378.7054 L371.9087,388.7912 L372.9888,398.8769 L371.935,408.9627 L372.1404,419.0484 L372.4515,429.1341 L372.555,439.2199 L371.9948,449.3056 L372.383,459.3914 L371.2368,469.4771 L372.3792,479.5629 L372.7309,489.6486 L372,499.7344 " fill="none" style="stroke:#383838;stroke-width:1.0;stroke-dasharray:5.0,5.0;"/><path d="M537,86.2188 L537.2802,86.2188 L536.4476,96.3045 L537.2577,106.3902 L537.5329,116.476 L536.0488,126.5617 L536.8964,136.6475 L536.4313,146.7332 L536.4887,156.819 L536.9091,166.9047 L536.0782,176.9905 L537.7382,187.0762 L536.1596,197.162 L536.7363,207.2477 L537.5759,217.3335 L536.8856,227.4192 L537.091,237.505 L536.9574,247.5907 L537.238,257.6764 L537.3188,267.7622 L537.7809,277.8479 L537.8947,287.9337 L537.9057,298.0194 L537.3395,308.1052 L537.6181,318.1909 L537.9363,328.2767 L536.0384,338.3624 L537.9047,348.4482 L536.6047,358.5339 L537.7117,368.6197 L536.34,378.7054 L536.9087,388.7912 L537.9888,398.8769 L536.935,408.9627 L537.1404,419.0484 L537.4515,429.1341 L537.555,439.2199 L536.9948,449.3056 L537.383,459.3914 L536.2368,469.4771 L537.3792,479.5629 L537.7309,489.6486 L537,499.7344 " fill="none" style="stroke:#383838;stroke-width:1.0;stroke-dasharray:5.0,5.0;"/><path d="M629,86.2188 L629.2802,86.2188 L628.4476,96.3045 L629.2577,106.3902 L629.5329,116.476 L628.0488,126.5617 L628.8964,136.6475 L628.4313,146.7332 L628.4887,156.819 L628.9091,166.9047 L628.0782,176.9905 L629.7382,187.0762 L628.1596,197.162 L628.7363,207.2477 L629.5759,217.3335 L628.8856,227.4192 L629.091,237.505 L628.9574,247.5907 L629.238,257.6764 L629.3188,267.7622 L629.7809,277.8479 L629.8947,287.9337 L629.9057,298.0194 L629.3395,308.1052 L629.6181,318.1909 L629.9363,328.2767 L628.0384,338.3624 L629.9047,348.4482 L628.6047,358.5339 L629.7117,368.6197 L628.34,378.7054 L628.9087,388.7912 L629.9888,398.8769 L628.935,408.9627 L629.1404,419.0484 L629.4515,429.1341 L629.555,439.2199 L628.9948,449.3056 L629.383,459.3914 L628.2368,469.4771 L629.3792,479.5629 L629.7309,489.6486 L629,499.7344 " fill="none" style="stroke:#383838;stroke-width:1.0;stroke-dasharray:5.0,5.0;"/><path d="M727,86.2188 L727.2802,86.2188 L726.4476,96.3045 L727.2577,106.3902 L727.5329,116.476 L726.0488,126.5617 L726.8964,136.6475 L726.4313,146.7332 L726.4887,156.819 L726.9091,166.9047 L726.0782,176.9905 L727.7382,187.0762 L726.1596,197.162 L726.7363,207.2477 L727.5759,217.3335 L726.8856,227.4192 L727.091,237.505 L726.9574,247.5907 L727.238,257.6764 L727.3188,267.7622 L727.7809,277.8479 L727.8947,287.9337 L727.9057,298.0194 L727.3395,308.1052 L727.6181,318.1909 L727.9363,328.2767 L726.0384,338.3624 L727.9047,348.4482 L726.6047,358.5339 L727.7117,368.6197 L726.34,378.7054 L726.9087,388.7912 L727.9888,398.8769 L726.935,408.9627 L727.1404,419.0484 L727.4515,429.1341 L727.555,439.2199 L726.9948,449.3056 L727.383,459.3914 L726.2368,469.4771 L727.3792,479.5629 L727.7309,489.6486 L727,499.7344 " fill="none" style="stroke:#383838;stroke-width:1.0;stroke-dasharray:5.0,5.0;"/><text fill="#000000" font-family="FG Virgil" font-size="14" lengthAdjust="spacing" textLength="29" x="5" y="83.1426">User</text><polygon fill="#F8F8F8" points="30.5442,17.5553,29.3715,19.1576,27.9845,21.5044,26.0008,23.086,23.9163,23.9509,22.2542,24.026,20.118,22.9443,18.1023,22.2377,16.5724,20.803,15.7699,19.1605,15.2939,17.8527,14.8277,16.1444,14.0709,14.6744,14.6525,13.2392,15.162,11.667,17.074,10.4235,18.4192,8.8102,20.0843,8.2744,22.0637,7.813,24.6021,8.0872,25.9924,8.7429,27.6089,9.0401,29.5743,11.0537,30.2595,13.1795,30.5571,14.63,30.22,17.0202" style="stroke:#383838;stroke-width:2.0;"/><path d="M22.5,23.6094 L22.6868,23.6094 L22.1317,29.0094 L22.6718,34.4094 L22.8553,39.8094 L21.8659,45.2094 L22.5,50.6094 M9.5,31.6094 L9.5,31.5403 L14.7,31.2303 L19.9,31.2685 L25.1,31.5488 L30.3,30.9948 L35.5,31.6094 M22.5,50.6094 L22.8719,50.9317 L19.4766,53.2425 L17.1672,56.4942 L14.9901,59.8608 L12.0424,62.5594 L9.5,65.6094 M22.5,50.6094 L22.5458,50.6491 L25.0785,53.5908 L27.8199,56.7133 L30.4606,59.7486 L33.2934,62.9503 L35.5,65.6094 " fill="none" style="stroke:#383838;stroke-width:2.0;"/><text fill="#000000" font-family="FG Virgil" font-size="14" lengthAdjust="spacing" textLength="29" x="5" y="513.2676">User</text><polygon fill="#F8F8F8" points="30.5442,528.2897,29.3715,529.892,27.9845,532.2388,26.0008,533.8204,23.9163,534.6853,22.2542,534.7603,20.118,533.6787,18.1023,532.9721,16.5724,531.5373,15.7699,529.8949,15.2939,528.587,14.8277,526.8788,14.0709,525.4088,14.6525,523.9736,15.162,522.4014,17.074,521.1579,18.4192,519.5445,20.0843,519.0088,22.0637,518.5474,24.6021,518.8215,25.9924,519.4772,27.6089,519.7744,29.5743,521.7881,30.2595,523.9139,30.5571,525.3644,30.22,527.7546" style="stroke:#383838;stroke-width:2.0;"/><path d="M22.5,534.3438 L22.6868,534.3438 L22.1317,539.7438 L22.6718,545.1438 L22.8553,550.5438 L21.8659,555.9438 L22.5,561.3438 M9.5,542.3438 L9.5,542.2747 L14.7,541.9646 L19.9,542.0029 L25.1,542.2832 L30.3,541.7292 L35.5,542.3438 M22.5,561.3438 L22.8719,561.6661 L19.4766,563.9768 L17.1672,567.2286 L14.9901,570.5952 L12.0424,573.2938 L9.5,576.3438 M22.5,561.3438 L22.5458,561.3835 L25.0785,564.3252 L27.8199,567.4477 L30.4606,570.483 L33.2934,573.6847 L35.5,576.3438 " fill="none" style="stroke:#383838;stroke-width:2.0;"/><polygon fill="#F8F8F8" points="151,36,151,36.2102,160.9091,35.5857,170.8182,36.1933,180.7273,36.3997,190.6364,35.2866,200.5455,35.9223,210.4545,35.5735,220.3636,35.6165,230.2727,35.9318,240.1818,35.3086,250.0909,36.5536,260,36,259.3697,36,259.8022,45.8438,260.4319,55.6875,259.9142,65.5313,260.0682,75.375,260,85.2188,260,85.1868,250.0909,85.3973,240.1818,85.4579,230.2727,85.8044,220.3636,85.8898,210.4545,85.898,200.5455,85.4734,190.6364,85.6823,180.7273,85.921,170.8182,84.4976,160.9091,85.8973,151,85.2188,150.7035,85.2188,151.5338,75.375,150.505,65.5313,150.9315,55.6875,151.7416,45.8438,151,36" style="stroke:#383838;stroke-width:1.5;"/><text fill="#000000" font-family="FG Virgil" font-size="14" font-style="italic" lengthAdjust="spacing" textLength="95" x="158" y="57.5332">«presentation»</text><text fill="#000000" font-family="FG Virgil" font-size="14" lengthAdjust="spacing" textLength="46" x="182.5" y="75.1426">cart.jsp</text><polygon fill="#F8F8F8" points="151,498.7344,151,498.9446,160.9091,498.3201,170.8182,498.9277,180.7273,499.1341,190.6364,498.021,200.5455,498.6567,210.4545,498.3079,220.3636,498.3509,230.2727,498.6662,240.1818,498.043,250.0909,499.288,260,498.7344,259.3697,498.7344,259.8022,508.5781,260.4319,518.4219,259.9142,528.2656,260.0682,538.1094,260,547.9531,260,547.9212,250.0909,548.1317,240.1818,548.1923,230.2727,548.5388,220.3636,548.6242,210.4545,548.6324,200.5455,548.2078,190.6364,548.4167,180.7273,548.6554,170.8182,547.2319,160.9091,548.6316,151,547.9531,150.7035,547.9531,151.5338,538.1094,150.505,528.2656,150.9315,518.4219,151.7416,508.5781,151,498.7344" style="stroke:#383838;stroke-width:1.5;"/><text fill="#000000" font-family="FG Virgil" font-size="14" font-style="italic" lengthAdjust="spacing" textLength="95" x="158" y="520.2676">«presentation»</text><text fill="#000000" font-family="FG Virgil" font-size="14" lengthAdjust="spacing" textLength="46" x="182.5" y="537.877">cart.jsp</text><text fill="#000000" font-family="FG Virgil" font-size="14" font-style="italic" lengthAdjust="spacing" textLength="84" x="327.5" y="65.5332">«application»</text><text fill="#000000" font-family="FG Virgil" font-size="14" lengthAdjust="spacing" textLength="89" x="325" y="83.1426">CartController</text><polygon fill="#F8F8F8" points="384.5663,37.9189,382.8073,40.3223,380.7268,43.8426,377.7512,46.215,374.6244,47.5123,372.1313,47.6249,368.9269,46.0024,365.9035,44.9425,363.6086,42.7904,362.4048,40.3267,361.6909,38.3649,360.9915,35.8026,359.8564,33.5976,360.7287,31.4447,361.4929,29.0864,364.3611,27.2212,366.3789,24.8012,368.8764,23.9976,371.8456,23.3055,375.6532,23.7167,377.7386,24.7002,380.1633,25.146,383.1115,28.1665,384.1392,31.3552,384.5857,33.5309,384.08,37.1162" style="stroke:#383838;stroke-width:2.0;"/><polygon fill="#383838" points="368.5,23,368.5449,23.0538,369.6116,21.8939,370.9412,21.0495,372.1853,20.1023,373.1478,18.8173,374.5,18,374.4759,17.9904,373.968,18.9472,373.5813,19.9525,373.2789,20.9916,372.686,21.9144,372.5,23,372.6713,23.0685,372.7049,23.922,373.2388,24.9755,373.8337,26.0535,374.0735,26.9894,374.5,28,374.5146,28.0175,373.2932,26.9918,372.1381,26.0457,370.951,25.0612,369.825,24.15,368.5,23" style="stroke:#383838;stroke-width:1.0;"/><text fill="#000000" font-family="FG Virgil" font-size="14" font-style="italic" lengthAdjust="spacing" textLength="84" x="327.5" y="513.2676">«application»</text><text fill="#000000" font-family="FG Virgil" font-size="14" lengthAdjust="spacing" textLength="89" x="325" y="530.877">CartController</text><polygon fill="#F8F8F8" points="384.5663,552.872,382.8073,555.2754,380.7268,558.7957,377.7512,561.1681,374.6244,562.4654,372.1313,562.578,368.9269,560.9555,365.9035,559.8956,363.6086,557.7435,362.4048,555.2798,361.6909,553.3181,360.9915,550.7557,359.8564,548.5507,360.7287,546.3979,361.4929,544.0396,364.3611,542.1744,366.3789,539.7543,368.8764,538.9507,371.8456,538.2586,375.6532,538.6698,377.7386,539.6533,380.1633,540.0991,383.1115,543.1196,384.1392,546.3083,384.5857,548.4841,384.08,552.0694" style="stroke:#383838;stroke-width:2.0;"/><polygon fill="#383838" points="368.5,537.9531,368.5449,538.0069,369.6116,536.847,370.9412,536.0026,372.1853,535.0555,373.1478,533.7704,374.5,532.9531,374.4759,532.9435,373.968,533.9003,373.5813,534.9056,373.2789,535.9447,372.686,536.8675,372.5,537.9531,372.6713,538.0217,372.7049,538.8751,373.2388,539.9286,373.8337,541.0066,374.0735,541.9425,374.5,542.9531,374.5146,542.9706,373.2932,541.9449,372.1381,540.9988,370.951,540.0144,369.825,539.1031,368.5,537.9531" style="stroke:#383838;stroke-width:1.0;"/><polygon fill="#F8F8F8" points="494,36,494,36.2102,503.6667,35.5857,513.3333,36.1933,523,36.3997,532.6667,35.2866,542.3333,35.9223,552,35.5735,561.6667,35.6165,571.3333,35.9318,581,36,580.3086,36,581.5536,45.8438,580.3697,55.6875,580.8022,65.5313,581.4319,75.375,581,85.2188,581,85.133,571.3333,85.287,561.6667,85.1868,552,85.3973,542.3333,85.4579,532.6667,85.8044,523,85.8898,513.3333,85.898,503.6667,85.4734,494,85.2188,494.4636,85.2188,494.7022,75.375,493.2788,65.5313,494.6785,55.6875,493.7035,45.8438,494,36" style="stroke:#383838;stroke-width:1.5;"/><text fill="#000000" font-family="FG Virgil" font-size="14" font-style="italic" lengthAdjust="spacing" textLength="60" x="507.5" y="57.5332">«service»</text><text fill="#000000" font-family="FG Virgil" font-size="14" lengthAdjust="spacing" textLength="73" x="501" y="75.1426">ItemService</text><polygon fill="#F8F8F8" points="494,498.7344,494,498.9446,503.6667,498.3201,513.3333,498.9277,523,499.1341,532.6667,498.021,542.3333,498.6567,552,498.3079,561.6667,498.3509,571.3333,498.6662,581,498.7344,580.3086,498.7344,581.5536,508.5781,580.3697,518.4219,580.8022,528.2656,581.4319,538.1094,581,547.9531,581,547.8673,571.3333,548.0214,561.6667,547.9212,552,548.1317,542.3333,548.1923,532.6667,548.5388,523,548.6242,513.3333,548.6324,503.6667,548.2078,494,547.9531,494.4636,547.9531,494.7022,538.1094,493.2788,528.2656,494.6785,518.4219,493.7035,508.5781,494,498.7344" style="stroke:#383838;stroke-width:1.5;"/><text fill="#000000" font-family="FG Virgil" font-size="14" font-style="italic" lengthAdjust="spacing" textLength="60" x="507.5" y="520.2676">«service»</text><text fill="#000000" font-family="FG Virgil" font-size="14" lengthAdjust="spacing" textLength="73" x="501" y="537.877">ItemService</text><polygon fill="#F8F8F8" points="591,36,591,36.2102,600.5,35.5857,610,36.1933,619.5,36.3997,629,35.2866,638.5,35.9223,648,35.5735,657.5,35.6165,667,36,666.9318,36,666.3086,45.8438,667.5536,55.6875,666.3697,65.5313,666.8022,75.375,667,85.2188,667,85.6507,657.5,85.133,648,85.287,638.5,85.1868,629,85.3973,619.5,85.4579,610,85.8044,600.5,85.8898,591,85.2188,591.6793,85.2188,591.2546,75.375,591.4636,65.5313,591.7022,55.6875,590.2788,45.8438,591,36" style="stroke:#383838;stroke-width:1.5;"/><text fill="#000000" font-family="FG Virgil" font-size="14" font-style="italic" lengthAdjust="spacing" textLength="62" x="598" y="57.5332">«domain»</text><text fill="#000000" font-family="FG Virgil" font-size="14" lengthAdjust="spacing" textLength="56" x="601" y="75.1426">item:Item</text><polygon fill="#F8F8F8" points="591,498.7344,591,498.9446,600.5,498.3201,610,498.9277,619.5,499.1341,629,498.021,638.5,498.6567,648,498.3079,657.5,498.3509,667,498.7344,666.9318,498.7344,666.3086,508.5781,667.5536,518.4219,666.3697,528.2656,666.8022,538.1094,667,547.9531,667,548.3851,657.5,547.8673,648,548.0214,638.5,547.9212,629,548.1317,619.5,548.1923,610,548.5388,600.5,548.6242,591,547.9531,591.6793,547.9531,591.2546,538.1094,591.4636,528.2656,591.7022,518.4219,590.2788,508.5781,591,498.7344" style="stroke:#383838;stroke-width:1.5;"/><text fill="#000000" font-family="FG Virgil" font-size="14" font-style="italic" lengthAdjust="spacing" textLength="62" x="598" y="520.2676">«domain»</text><text fill="#000000" font-family="FG Virgil" font-size="14" lengthAdjust="spacing" textLength="56" x="601" y="537.877">item:Item</text><text fill="#000000" font-family="FG Virgil" font-size="14" font-style="italic" lengthAdjust="spacing" textLength="79" x="684.5" y="65.5332">«repository»</text><text fill="#000000" font-family="FG Virgil" font-size="14" lengthAdjust="spacing" textLength="94" x="677" y="83.1426">ItemRepository</text><path d="M709,15 L709,15 L709.0651,15.067 L710.6716,13.118 L712.6599,11.5616 L714.5238,9.8774 L715.979,7.7727 L718,6.25 L717.9952,6.2158 L719.7739,5.8122 L721.5766,5.5812 L723.3958,5.47 L725.1577,4.9456 L727,5 L727,5 L727.0339,5.2437 L728.7615,4.9725 L730.5879,5.4129 L732.4264,5.9402 L734.1948,5.9622 L736,6.25 L736.0211,6.2717 L737.7901,7.9898 L739.6553,9.8069 L741.4741,11.5762 L743.3815,13.4366 L745,15 L745.5965,15 L745.6038,20.2 L745.2263,25.4 L745.4121,30.6 L745.6242,35.8 L745,41 L745,41 L744.7766,40.7702 L743.4102,42.9662 L741.3081,44.4055 L739.7654,46.4201 L737.6466,47.8423 L736,49.75 L735.9958,49.7198 L734.2453,50.3265 L732.397,50.2285 L730.6064,50.5464 L728.8207,50.8991 L727,51 L727,51 L727.0254,51.1832 L725.1998,50.7483 L723.4176,50.6264 L721.565,49.998 L719.8174,50.1252 L718,49.75 L718.1698,49.9247 L716.3377,48.1417 L714.5899,46.4453 L712.4503,44.3461 L710.5979,42.5422 L709,41 L708.4476,41 L708.9477,35.8 L708.8253,30.6 L709.6057,25.4 L708.8447,20.2 L709,15 " fill="#F8F8F8" style="stroke:#000000;stroke-width:1.5;"/><path d="M709,15 L709,15 L709.0651,15.067 L710.6716,16.618 L712.6599,18.5616 L714.5238,20.3774 L715.979,21.7727 L718,23.75 L717.9952,23.7158 L719.7739,23.8122 L721.5766,24.0812 L723.3958,24.47 L725.1577,24.4456 L727,25 L727,25 L727.0339,25.2437 L728.7615,24.4725 L730.5879,24.4129 L732.4264,24.4402 L734.1948,23.9622 L736,23.75 L736.0211,23.7717 L737.7901,21.9898 L739.6553,20.3069 L741.4741,18.5762 L743.3815,16.9366 L745,15 " fill="none" style="stroke:#000000;stroke-width:1.5;"/><text fill="#000000" font-family="FG Virgil" font-size="14" font-style="italic" lengthAdjust="spacing" textLength="79" x="684.5" y="513.2676">«repository»</text><text fill="#000000" font-family="FG Virgil" font-size="14" lengthAdjust="spacing" textLength="94" x="677" y="530.877">ItemRepository</text><path d="M709,543.9531 L709,543.9531 L709.0651,544.0201 L710.6716,542.0711 L712.6599,540.5147 L714.5238,538.8305 L715.979,536.7258 L718,535.2031 L717.9952,535.1689 L719.7739,534.7654 L721.5766,534.5343 L723.3958,534.4231 L725.1577,533.8988 L727,533.9531 L727,533.9531 L727.0339,534.1968 L728.7615,533.9257 L730.5879,534.3661 L732.4264,534.8933 L734.1948,534.9154 L736,535.2031 L736.0211,535.2249 L737.7901,536.9429 L739.6553,538.76 L741.4741,540.5293 L743.3815,542.3898 L745,543.9531 L745.5965,543.9531 L745.6038,549.1531 L745.2263,554.3531 L745.4121,559.5531 L745.6242,564.7531 L745,569.9531 L745,569.9531 L744.7766,569.7233 L743.4102,571.9193 L741.3081,573.3586 L739.7654,575.3732 L737.6466,576.7954 L736,578.7031 L735.9958,578.673 L734.2453,579.2796 L732.397,579.1817 L730.6064,579.4995 L728.8207,579.8522 L727,579.9531 L727,579.9531 L727.0254,580.1364 L725.1998,579.7014 L723.4176,579.5796 L721.565,578.9511 L719.8174,579.0783 L718,578.7031 L718.1698,578.8778 L716.3377,577.0948 L714.5899,575.3985 L712.4503,573.2992 L710.5979,571.4953 L709,569.9531 L708.4476,569.9531 L708.9477,564.7531 L708.8253,559.5531 L709.6057,554.3531 L708.8447,549.1531 L709,543.9531 " fill="#F8F8F8" style="stroke:#000000;stroke-width:1.5;"/><path d="M709,543.9531 L709,543.9531 L709.0651,544.0201 L710.6716,545.5711 L712.6599,547.5147 L714.5238,549.3305 L715.979,550.7258 L718,552.7031 L717.9952,552.6689 L719.7739,552.7654 L721.5766,553.0343 L723.3958,553.4231 L725.1577,553.3988 L727,553.9531 L727,553.9531 L727.0339,554.1968 L728.7615,553.4257 L730.5879,553.3661 L732.4264,553.3933 L734.1948,552.9154 L736,552.7031 L736.0211,552.7249 L737.7901,550.9429 L739.6553,549.26 L741.4741,547.5293 L743.3815,545.8898 L745,543.9531 " fill="none" style="stroke:#000000;stroke-width:1.5;"/><polygon fill="#FFFFFF" points="17.5,118.5703,17.5,118.6404,19.5,118.4322,21.5,118.6347,23.5,118.7035,25.5,118.3325,27.5,118.5703,27.4223,118.5703,27.0735,128.6582,27.1165,138.7461,27.4318,148.834,26.8086,158.9219,28.0536,169.0098,26.8697,179.0977,27.3022,189.1855,27.9319,199.2734,27.4142,209.3613,27.5682,219.4492,27.4681,229.5371,27.6785,239.625,27.7391,249.7129,28.0857,259.8008,28.1711,269.8887,28.1793,279.9766,27.7546,290.0645,27.9636,300.1523,28.2022,310.2402,26.7788,320.3281,28.1785,330.416,27.2035,340.5039,28.0338,350.5918,27.005,360.6797,27.4315,370.7676,28.2416,380.8555,27.4513,390.9434,27.6053,401.0313,27.8386,411.1191,27.9162,421.207,27.4961,431.2949,27.7872,441.3828,26.9276,451.4707,27.7844,461.5586,28.0482,471.6465,27.5,481.7344,27.5,481.8826,25.5,481.9387,23.5,481.5733,21.5,481.517,19.5,481.5272,17.5,481.7344,17.4411,481.7344,17.3035,471.6465,18.1814,461.5586,17.3253,451.4707,17.1569,441.3828,17.7283,431.2949,16.8332,421.207,16.9809,411.1191,18.149,401.0313,17.9357,390.9434,18.2345,380.8555,17.1782,370.7676,17.8192,360.6797,18.0904,350.5918,17.0276,340.5039,17.4041,330.416,17.626,320.3281,18.1518,310.2402,17.4958,300.1523,17.9626,290.0645,16.9462,279.9766,16.8227,269.8887,18.0036,259.8008,16.7831,249.7129,18.009,239.625,17.7066,229.5371,17.2321,219.4492,17.1462,209.3613,17.9588,199.2734,17.2007,189.1855,18.0919,179.0977,16.9473,169.0098,18.1174,158.9219,17.9843,148.834,17.745,138.7461,17.5472,128.6582,17.5,118.5703" style="stroke:#383838;stroke-width:1.0;"/><polygon fill="#FFFFFF" points="200.5,118.5703,200.5,118.6404,202.5,118.4322,204.5,118.6347,206.5,118.7035,208.5,118.3325,210.5,118.5703,210.4223,118.5703,210.0735,128.6582,210.1165,138.7461,210.4318,148.834,209.8086,158.9219,211.0536,169.0098,209.8697,179.0977,210.3022,189.1855,210.9319,199.2734,210.4142,209.3613,210.5682,219.4492,210.4681,229.5371,210.6785,239.625,210.7391,249.7129,211.0857,259.8008,211.1711,269.8887,211.1793,279.9766,210.7546,290.0645,210.9636,300.1523,211.2022,310.2402,209.7788,320.3281,211.1785,330.416,210.2035,340.5039,211.0338,350.5918,210.005,360.6797,210.4315,370.7676,211.2416,380.8555,210.4513,390.9434,210.6053,401.0313,210.8386,411.1191,210.9162,421.207,210.4961,431.2949,210.7872,441.3828,209.9276,451.4707,210.7844,461.5586,211.0482,471.6465,210.5,481.7344,210.5,481.8826,208.5,481.9387,206.5,481.5733,204.5,481.517,202.5,481.5272,200.5,481.7344,200.4411,481.7344,200.3035,471.6465,201.1814,461.5586,200.3253,451.4707,200.1569,441.3828,200.7283,431.2949,199.8332,421.207,199.9809,411.1191,201.149,401.0313,200.9357,390.9434,201.2345,380.8555,200.1782,370.7676,200.8192,360.6797,201.0904,350.5918,200.0276,340.5039,200.4041,330.416,200.626,320.3281,201.1518,310.2402,200.4958,300.1523,200.9626,290.0645,199.9462,279.9766,199.8227,269.8887,201.0036,259.8008,199.7831,249.7129,201.009,239.625,200.7066,229.5371,200.2321,219.4492,200.1462,209.3613,200.9588,199.2734,200.2007,189.1855,201.0919,179.0977,199.9473,169.0098,201.1174,158.9219,200.9843,148.834,200.745,138.7461,200.5472,128.6582,200.5,118.5703" style="stroke:#383838;stroke-width:1.0;"/><polygon fill="#FFFFFF" points="367.5,148.9219,367.5,148.9919,369.5,148.7838,371.5,148.9863,373.5,149.0551,375.5,148.6841,377.5,148.9219,377.4223,148.9219,377.0735,158.9805,377.1165,169.0391,377.4318,179.0977,376.8086,189.1563,378.0536,199.2148,377.5,209.2734,377.5,209.0633,375.5,209.2075,373.5,209.4174,371.5,209.2448,369.5,209.2962,367.5,209.2734,367.4681,209.2734,367.6785,199.2148,367.7391,189.1563,368.0857,179.0977,368.1711,169.0391,368.1793,158.9805,367.5,148.9219" style="stroke:#383838;stroke-width:1.0;"/><polygon fill="#FFFFFF" points="367.5,300.3281,367.5,300.3982,369.5,300.19,371.5,300.3926,373.5,300.4614,375.5,300.0903,377.5,300.3281,377.4223,300.3281,377.0735,310.3984,377.1165,320.4688,377.4318,330.5391,376.8086,340.6094,378.0536,350.6797,376.8697,360.75,377.3022,370.8203,377.9319,380.8906,377.4142,390.9609,377.5682,401.0313,377.4681,411.1016,377.6785,421.1719,377.7391,431.2422,378.0857,441.3125,377.5,451.3828,377.5,451.6065,375.5,451.6092,373.5,451.4677,371.5,451.5373,369.5,451.6169,367.5,451.3828,366.7788,451.3828,368.1785,441.3125,367.2035,431.2422,368.0338,421.1719,367.005,411.1016,367.4315,401.0313,368.2416,390.9609,367.4513,380.8906,367.6053,370.8203,367.8386,360.75,367.9162,350.6797,367.4961,340.6094,367.7872,330.5391,366.9276,320.4688,367.7844,310.3984,367.5,300.3281" style="stroke:#383838;stroke-width:1.0;"/><polygon fill="#FFFFFF" points="532.5,330.6797,532.5,330.7497,534.5,330.5416,536.5,330.7441,538.5,330.8129,540.5,330.4419,542.5,330.6797,542.4223,330.6797,542.0735,340.7383,542.1165,350.7969,542.4318,360.8555,541.8086,370.9141,543.0536,380.9727,541.8697,391.0313,542.3022,401.0898,542.9319,411.1484,542.4142,421.207,542.5682,431.2656,542.4681,441.3242,542.5,451.3828,542.5,451.4423,540.5,451.4625,538.5,451.578,536.5,451.6065,534.5,451.6092,532.5,451.3828,532.7546,451.3828,532.9636,441.3242,533.2022,431.2656,531.7788,421.207,533.1785,411.1484,532.2035,401.0898,533.0338,391.0313,532.005,380.9727,532.4315,370.9141,533.2416,360.8555,532.4513,350.7969,532.6053,340.7383,532.5,330.6797" style="stroke:#383838;stroke-width:1.0;"/><polygon fill="#FFFFFF" points="722,179.2734,722,179.3435,724,179.1353,726,179.3379,728,179.4067,730,179.0356,732,179.2734,731.9741,179.2734,731.8578,185.2734,731.8722,191.2734,731.9773,197.2734,731.7695,203.2734,732,209.2734,732,209.458,730,209.0633,728,209.2075,726,209.4174,724,209.2448,722,209.2734,722.0227,209.2734,721.9894,203.2734,722.0595,197.2734,722.0797,191.2734,722.1952,185.2734,722,179.2734" style="stroke:#383838;stroke-width:1.0;"/><polygon fill="#FFFFFF" points="722,361.0313,722,361.1013,724,360.8931,726,361.0957,728,361.1645,730,360.7935,732,361.0313,731.9741,361.0313,731.8578,367.0313,731.8722,373.0313,731.9773,379.0313,731.7695,385.0313,732,391.0313,732,391.2158,730,390.8212,728,390.9653,726,391.1752,724,391.0027,722,391.0313,722.0227,391.0313,721.9894,385.0313,722.0595,379.0313,722.0797,373.0313,722.1952,367.0313,722,361.0313" style="stroke:#383838;stroke-width:1.0;"/><polygon fill="#FFFFFF" points="722,421.3828,722,421.4529,724,421.2447,726,421.4472,728,421.516,730,421.145,732,421.3828,731.9741,421.3828,731.8578,427.3828,731.8722,433.3828,731.9773,439.3828,731.7695,445.3828,732,451.3828,732,451.5674,730,451.1727,728,451.3169,726,451.5268,724,451.3542,722,451.3828,722.0227,451.3828,721.9894,445.3828,722.0595,439.3828,722.0797,433.3828,722.1952,427.3828,722,421.3828" style="stroke:#383838;stroke-width:1.0;"/><polygon fill="#383838" points="188.5,114.5703,188.526,114.6354,190.4487,115.2421,192.5239,116.2301,194.5495,117.094,196.4117,117.5495,198.5,118.5703,198.4904,118.5463,196.4472,119.2383,194.4525,120.0516,192.4916,120.9492,190.4144,121.5563,188.5,122.5703,188.6305,122.7008,189.1514,121.6218,190.0534,120.9237,191.0018,120.2721,191.6798,119.3501,192.5,118.5703,192.5161,118.5864,191.6925,117.7628,190.9421,117.0124,190.1564,116.2267,189.438,115.5084,188.5,114.5703" style="stroke:#383838;stroke-width:1.0;"/><path d="M27.5,118.5703 L27.5,118.8506 L37.3235,118.0179 L47.1471,118.828 L56.9706,119.1032 L66.7941,117.6191 L76.6176,118.4667 L86.4412,118.0017 L96.2647,118.059 L106.0882,118.4794 L115.9118,117.6485 L125.7353,119.3085 L135.5588,117.7299 L145.3824,118.3066 L155.2059,119.1462 L165.0294,118.4559 L174.8529,118.6613 L184.6765,118.5277 L194.5,118.5703 " fill="none" style="stroke:#383838;stroke-width:1.0;stroke-dasharray:2.0,2.0;"/><text fill="#000000" font-family="FG Virgil" font-size="13" lengthAdjust="spacing" textLength="128" x="34.5" y="113.7139">Remove fruit from Cart</text><polygon fill="#383838" points="355.5,144.9219,355.526,144.9869,357.4487,145.5936,359.5239,146.5817,361.5495,147.4456,363.4117,147.9011,365.5,148.9219,365.4904,148.8978,363.4472,149.5899,361.4525,150.4032,359.4916,151.3008,357.4144,151.9079,355.5,152.9219,355.6305,153.0524,356.1514,151.9733,357.0534,151.2753,358.0018,150.6237,358.6798,149.7017,359.5,148.9219,359.5161,148.938,358.6925,148.1143,357.9421,147.364,357.1564,146.5782,356.438,145.8599,355.5,144.9219" style="stroke:#383838;stroke-width:1.0;"/><path d="M210.5,148.9219 L210.5,149.2021 L220.5667,148.3694 L230.6333,149.1796 L240.7,149.4548 L250.7667,147.9707 L260.8333,148.8183 L270.9,148.3532 L280.9667,148.4105 L291.0333,148.831 L301.1,148 L311.1667,149.6601 L321.2333,148.0815 L331.3,148.6582 L341.3667,149.4978 L351.4333,148.8075 L361.5,148.9219 " fill="none" style="stroke:#383838;stroke-width:1.0;"/><text fill="#000000" font-family="FG Virgil" font-size="13" lengthAdjust="spacing" textLength="138" x="217.5" y="144.0654">viewItems(Model model)</text><polygon fill="#383838" points="710,175.2734,710.026,175.3385,711.9487,175.9452,714.0239,176.9333,716.0495,177.7971,717.9117,178.2526,720,179.2734,719.9904,179.2494,717.9472,179.9414,715.9525,180.7547,713.9916,181.6523,711.9144,182.2595,710,183.2734,710.1305,183.4039,710.6514,182.3249,711.5534,181.6268,712.5018,180.9752,713.1798,180.0532,714,179.2734,714.0161,179.2895,713.1925,178.4659,712.4421,177.7155,711.6564,176.9298,710.938,176.2115,710,175.2734" style="stroke:#383838;stroke-width:1.0;"/><path d="M377.5,179.2734 L377.5,179.5537 L387.4559,178.721 L397.4118,179.5312 L407.3676,179.8063 L417.3235,178.3222 L427.2794,179.1698 L437.2353,178.7048 L447.1912,178.7621 L457.1471,179.1826 L467.1029,178.3516 L477.0588,180.0116 L487.0147,178.4331 L496.9706,179.0097 L506.9265,179.8494 L516.8824,179.1591 L526.8382,179.3644 L536.7941,179.2308 L546.75,179.5115 L556.7059,179.5923 L566.6618,180.0544 L576.6176,180.1682 L586.5735,180.1791 L596.5294,179.6129 L606.4853,179.8916 L616.4412,180.2097 L626.3971,178.3119 L636.3529,180.1781 L646.3088,178.8781 L656.2647,179.9852 L666.2206,178.6134 L676.1765,179.1821 L686.1324,180.2622 L696.0882,179.2085 L706.0441,179.4138 L716,179.2734 " fill="none" style="stroke:#383838;stroke-width:1.0;"/><text fill="#000000" font-family="FG Virgil" font-size="13" lengthAdjust="spacing" textLength="174" x="384.5" y="174.417">findUserCart(String username)</text><polygon fill="#383838" points="38.5,235.625,38.526,235.69,36.4487,236.2968,34.5239,237.2848,32.5495,238.1487,30.4117,238.6042,28.5,239.625,28.4904,239.6009,30.4472,240.293,32.4525,241.1063,34.4916,242.0039,36.4144,242.611,38.5,243.625,38.6305,243.7555,37.5514,242.6764,36.8534,241.9784,36.2018,241.3268,35.2798,240.4048,34.5,239.625,34.5161,239.6411,35.2925,238.8175,36.1421,238.0671,36.9564,237.2814,37.838,236.563,38.5,235.625" style="stroke:#383838;stroke-width:1.0;"/><path d="M32.5,239.625 L32.5,239.9052 L42.3235,239.0726 L52.1471,239.8827 L61.9706,240.1579 L71.7941,238.6738 L81.6176,239.5214 L91.4412,239.0563 L101.2647,239.1137 L111.0882,239.5341 L120.9118,238.7032 L130.7353,240.3632 L140.5588,238.7846 L150.3824,239.3613 L160.2059,240.2009 L170.0294,239.5106 L179.8529,239.716 L189.6765,239.5824 L199.5,239.625 " fill="none" style="stroke:#383838;stroke-width:1.0;stroke-dasharray:2.0,2.0;"/><text fill="#000000" font-family="FG Virgil" font-size="13" lengthAdjust="spacing" textLength="67" x="44.5" y="234.7686">Shows Cart</text><polygon fill="#383838" points="188.5,265.9766,188.526,266.0416,190.4487,266.6483,192.5239,267.6364,194.5495,268.5003,196.4117,268.9558,198.5,269.9766,198.4904,269.9525,196.4472,270.6446,194.4525,271.4579,192.4916,272.3555,190.4144,272.9626,188.5,273.9766,188.6305,274.1071,189.1514,273.028,190.0534,272.3299,191.0018,271.6784,191.6798,270.7563,192.5,269.9766,192.5161,269.9926,191.6925,269.169,190.9421,268.4186,190.1564,267.6329,189.438,266.9146,188.5,265.9766" style="stroke:#383838;stroke-width:1.0;"/><path d="M27.5,269.9766 L27.5,270.2568 L37.3235,269.4241 L47.1471,270.2343 L56.9706,270.5095 L66.7941,269.0254 L76.6176,269.8729 L86.4412,269.4079 L96.2647,269.4652 L106.0882,269.8857 L115.9118,269.0547 L125.7353,270.7148 L135.5588,269.1362 L145.3824,269.7129 L155.2059,270.5525 L165.0294,269.8622 L174.8529,270.0675 L184.6765,269.934 L194.5,269.9766 " fill="none" style="stroke:#383838;stroke-width:1.0;stroke-dasharray:2.0,2.0;"/><text fill="#000000" font-family="FG Virgil" font-size="13" lengthAdjust="spacing" textLength="133" x="34.5" y="265.1201">Presses remove button</text><polygon fill="#383838" points="355.5,296.3281,355.526,296.3932,357.4487,296.9999,359.5239,297.9879,361.5495,298.8518,363.4117,299.3073,365.5,300.3281,365.4904,300.3041,363.4472,300.9961,361.4525,301.8094,359.4916,302.707,357.4144,303.3142,355.5,304.3281,355.6305,304.4586,356.1514,303.3796,357.0534,302.6815,358.0018,302.0299,358.6798,301.1079,359.5,300.3281,359.5161,300.3442,358.6925,299.5206,357.9421,298.7702,357.1564,297.9845,356.438,297.2662,355.5,296.3281" style="stroke:#383838;stroke-width:1.0;"/><path d="M210.5,300.3281 L210.5,300.6084 L220.5667,299.7757 L230.6333,300.5858 L240.7,300.861 L250.7667,299.3769 L260.8333,300.2245 L270.9,299.7595 L280.9667,299.8168 L291.0333,300.2372 L301.1,299.4063 L311.1667,301.0663 L321.2333,299.4878 L331.3,300.0644 L341.3667,300.9041 L351.4333,300.2138 L361.5,300.3281 " fill="none" style="stroke:#383838;stroke-width:1.0;"/><text fill="#000000" font-family="FG Virgil" font-size="13" lengthAdjust="spacing" textLength="110" x="217.5" y="295.4717">deleteItem(Long id)</text><polygon fill="#383838" points="520.5,326.6797,520.526,326.7447,522.4487,327.3515,524.5239,328.3395,526.5495,329.2034,528.4117,329.6589,530.5,330.6797,530.4904,330.6556,528.4472,331.3477,526.4525,332.161,524.4916,333.0586,522.4144,333.6657,520.5,334.6797,520.6305,334.8102,521.1514,333.7311,522.0534,333.0331,523.0018,332.3815,523.6798,331.4595,524.5,330.6797,524.5161,330.6958,523.6925,329.8722,522.9421,329.1218,522.1564,328.3361,521.438,327.6177,520.5,326.6797" style="stroke:#383838;stroke-width:1.0;"/><path d="M377.5,330.6797 L377.5,330.9599 L387.4333,330.1273 L397.3667,330.9374 L407.3,331.2126 L417.2333,329.7285 L427.1667,330.5761 L437.1,330.111 L447.0333,330.1684 L456.9667,330.5888 L466.9,329.7579 L476.8333,331.4179 L486.7667,329.8393 L496.7,330.416 L506.6333,331.2556 L516.5667,330.5653 L526.5,330.6797 " fill="none" style="stroke:#383838;stroke-width:1.0;"/><text fill="#000000" font-family="FG Virgil" font-size="13" lengthAdjust="spacing" textLength="136" x="384.5" y="325.8232">deleteItemById(Long id)</text><polygon fill="#383838" points="710,357.0313,710.026,357.0963,711.9487,357.703,714.0239,358.6911,716.0495,359.5549,717.9117,360.0105,720,361.0313,719.9904,361.0072,717.9472,361.6993,715.9525,362.5126,713.9916,363.4102,711.9144,364.0173,710,365.0313,710.1305,365.1617,710.6514,364.0827,711.5534,363.3846,712.5018,362.7331,713.1798,361.811,714,361.0313,714.0161,361.0473,713.1925,360.2237,712.4421,359.4733,711.6564,358.6876,710.938,357.9693,710,357.0313" style="stroke:#383838;stroke-width:1.0;"/><path d="M542.5,361.0313 L542.5,361.3115 L552.7059,360.4788 L562.9118,361.289 L573.1176,361.5642 L583.3235,360.0801 L593.5294,360.9276 L603.7353,360.4626 L613.9412,360.5199 L624.1471,360.9404 L634.3529,360.1094 L644.5588,361.7694 L654.7647,360.1909 L664.9706,360.7676 L675.1765,361.6072 L685.3824,360.9169 L695.5882,361.1222 L705.7941,360.9887 L716,361.0313 " fill="none" style="stroke:#383838;stroke-width:1.0;"/><text fill="#000000" font-family="FG Virgil" font-size="13" lengthAdjust="spacing" textLength="129" x="549.5" y="356.1748">item=findById(Long id)</text><polygon fill="#383838" points="710,417.3828,710.026,417.4479,711.9487,418.0546,714.0239,419.0426,716.0495,419.9065,717.9117,420.362,720,421.3828,719.9904,421.3588,717.9472,422.0508,715.9525,422.8641,713.9916,423.7617,711.9144,424.3688,710,425.3828,710.1305,425.5133,710.6514,424.4343,711.5534,423.7362,712.5018,423.0846,713.1798,422.1626,714,421.3828,714.0161,421.3989,713.1925,420.5753,712.4421,419.8249,711.6564,419.0392,710.938,418.3209,710,417.3828" style="stroke:#383838;stroke-width:1.0;"/><path d="M542.5,421.3828 L542.5,421.6631 L552.7059,420.8304 L562.9118,421.6405 L573.1176,421.9157 L583.3235,420.4316 L593.5294,421.2792 L603.7353,420.8142 L613.9412,420.8715 L624.1471,421.2919 L634.3529,420.461 L644.5588,422.121 L654.7647,420.5424 L664.9706,421.1191 L675.1765,421.9587 L685.3824,421.2684 L695.5882,421.4738 L705.7941,421.3402 L716,421.3828 " fill="none" style="stroke:#383838;stroke-width:1.0;"/><text fill="#000000" font-family="FG Virgil" font-size="13" lengthAdjust="spacing" textLength="68" x="549.5" y="416.5264">delete(item)</text><polygon fill="#383838" points="33.5,477.7344,33.526,477.7994,31.4487,478.4061,29.5239,479.3942,27.5495,480.2581,25.4117,480.7136,23.5,481.7344,23.4904,481.7103,25.4472,482.4024,27.4525,483.2157,29.4916,484.1133,31.4144,484.7204,33.5,485.7344,33.6305,485.8649,32.5514,484.7858,31.8534,484.0878,31.2018,483.4362,30.2798,482.5142,29.5,481.7344,29.5161,481.7505,30.2925,480.9268,31.1421,480.1765,31.9564,479.3907,32.838,478.6724,33.5,477.7344" style="stroke:#383838;stroke-width:1.0;"/><path d="M27.5,481.7344 L27.5,482.0146 L37.3333,481.1819 L47.1667,481.9921 L57,482.2673 L66.8333,480.7832 L76.6667,481.6308 L86.5,481.1657 L96.3333,481.223 L106.1667,481.6435 L116,480.8125 L125.8333,482.4726 L135.6667,480.894 L145.5,481.4707 L155.3333,482.3103 L165.1667,481.62 L175,481.8254 L184.8333,481.6918 L194.6667,481.9724 L204.5,481.7344 " fill="none" style="stroke:#383838;stroke-width:1.0;stroke-dasharray:2.0,2.0;"/><text fill="#000000" font-family="FG Virgil" font-size="13" lengthAdjust="spacing" textLength="149" x="39.5" y="476.8779">Fruit is removed from Cart</text><!--MD5=[5c65eab5007c4dc5afcd020dced0fbae]
@startuml
skinparam handwritten true
skinparam monochrome true
skinparam packageStyle rect
skinparam defaultFontName FG Virgil
skinparam shadowing false

actor User as Actor
participant "cart.jsp" as UI <<presentation>>
control CartController as Controller <<application>>
participant ItemService as IS<<service>>
participant "item:Item" as Domain <<domain>>
database ItemRepository as IR <<repository>>


Actor - -> UI: Remove fruit from Cart
activate Actor
activate UI
         UI -> Controller: viewItems(Model model)
      activate Controller

       Controller -> IR: findUserCart(String username)
       activate IR
       deactivate IR
       deactivate Controller
    UI - -> Actor: Shows Cart
    Actor - -> UI: Presses remove button

   UI -> Controller: deleteItem(Long id)
 activate Controller

        Controller -> IS : deleteItemById(Long id)
        activate IS
        IS -> IR : item=findById(Long id)
        activate IR
        deactivate IR
       IS -> IR : delete(item)
       activate IR
       deactivate IR
       deactivate IS
       deactivate Controller

 UI - -> Actor: Fruit is removed from Cart
deactivate UI
deactivate Actor
@enduml

PlantUML version 1.2021.11(Sat Oct 02 15:26:11 CEST 2021)
(GPL source distribution)
Java Runtime: OpenJDK Runtime Environment
JVM: OpenJDK 64-Bit Server VM
Default Encoding: Cp1252
Language: pt
Country: PT
--></g></svg>