<?xml version="1.0" encoding="UTF-8" standalone="no"?><svg xmlns="http://www.w3.org/2000/svg" xmlns:xlink="http://www.w3.org/1999/xlink" contentScriptType="application/ecmascript" contentStyleType="text/css" height="619px" preserveAspectRatio="none" style="width:1076px;height:619px;background:#FFFFFF;" version="1.1" viewBox="0 0 1076 619" width="1076px" zoomAndPan="magnify"><defs/><g><polygon fill="#FFFFFF" points="17.5,118.5703,17.5,118.6404,19.5,118.4322,21.5,118.6347,23.5,118.7035,25.5,118.3325,27.5,118.5703,27.4223,118.5703,27.0735,128.4582,27.1165,138.3461,27.4318,148.234,26.8086,158.1219,28.0536,168.0098,26.8697,177.8977,27.3022,187.7855,27.9319,197.6734,27.4142,207.5613,27.5682,217.4492,27.4681,227.3371,27.6785,237.225,27.7391,247.1129,28.0857,257.0008,28.1711,266.8887,28.1793,276.7766,27.7546,286.6645,27.9636,296.5523,28.2022,306.4402,26.7788,316.3281,28.1785,326.216,27.2035,336.1039,28.0338,345.9918,27.005,355.8797,27.4315,365.7676,28.2416,375.6555,27.4513,385.5434,27.6053,395.4313,27.8386,405.3191,27.9162,415.207,27.4961,425.0949,27.7872,434.9828,26.9276,444.8707,27.7844,454.7586,28.0482,464.6465,27.9445,474.5344,28.113,484.4223,27.0169,494.3102,26.8478,504.198,27.5,514.0859,27.5,513.8788,25.5,514.0663,23.5,514.0204,21.5,514.3131,19.5,514.0277,17.5,514.0859,17.1569,514.0859,17.7283,504.198,16.8332,494.3102,16.9809,484.4223,18.149,474.5344,17.9357,464.6465,18.2345,454.7586,17.1782,444.8707,17.8192,434.9828,18.0904,425.0949,17.0276,415.207,17.4041,405.3191,17.626,395.4313,18.1518,385.5434,17.4958,375.6555,17.9626,365.7676,16.9462,355.8797,16.8227,345.9918,18.0036,336.1039,16.7831,326.216,18.009,316.3281,17.7066,306.4402,17.2321,296.5523,17.1462,286.6645,17.9588,276.7766,17.2007,266.8887,18.0919,257.0008,16.9473,247.1129,18.1174,237.225,17.9843,227.3371,17.745,217.4492,17.5472,207.5613,18.2266,197.6734,18.1136,187.7855,17.6693,177.8977,17.7682,168.0098,17.3697,158.1219,18.2165,148.234,17.6549,138.3461,17.6726,128.4582,17.5,118.5703" style="stroke:#383838;stroke-width:1.0;"/><polygon fill="#FFFFFF" points="200.5,118.5703,200.5,118.6404,202.5,118.4322,204.5,118.6347,206.5,118.7035,208.5,118.3325,210.5,118.5703,210.4223,118.5703,210.0735,128.4582,210.1165,138.3461,210.4318,148.234,209.8086,158.1219,211.0536,168.0098,209.8697,177.8977,210.3022,187.7855,210.9319,197.6734,210.4142,207.5613,210.5682,217.4492,210.4681,227.3371,210.6785,237.225,210.7391,247.1129,211.0857,257.0008,211.1711,266.8887,211.1793,276.7766,210.7546,286.6645,210.9636,296.5523,211.2022,306.4402,209.7788,316.3281,211.1785,326.216,210.2035,336.1039,211.0338,345.9918,210.005,355.8797,210.4315,365.7676,211.2416,375.6555,210.4513,385.5434,210.6053,395.4313,210.8386,405.3191,210.9162,415.207,210.4961,425.0949,210.7872,434.9828,209.9276,444.8707,210.7844,454.7586,211.0482,464.6465,210.9445,474.5344,211.113,484.4223,210.0169,494.3102,209.8478,504.198,210.5,514.0859,210.5,513.8788,208.5,514.0663,206.5,514.0204,204.5,514.3131,202.5,514.0277,200.5,514.0859,200.1569,514.0859,200.7283,504.198,199.8332,494.3102,199.9809,484.4223,201.149,474.5344,200.9357,464.6465,201.2345,454.7586,200.1782,444.8707,200.8192,434.9828,201.0904,425.0949,200.0276,415.207,200.4041,405.3191,200.626,395.4313,201.1518,385.5434,200.4958,375.6555,200.9626,365.7676,199.9462,355.8797,199.8227,345.9918,201.0036,336.1039,199.7831,326.216,201.009,316.3281,200.7066,306.4402,200.2321,296.5523,200.1462,286.6645,200.9588,276.7766,200.2007,266.8887,201.0919,257.0008,199.9473,247.1129,201.1174,237.225,200.9843,227.3371,200.745,217.4492,200.5472,207.5613,201.2266,197.6734,201.1136,187.7855,200.6693,177.8977,200.7682,168.0098,200.3697,158.1219,201.2165,148.234,200.6549,138.3461,200.6726,128.4582,200.5,118.5703" style="stroke:#383838;stroke-width:1.0;"/><polygon fill="#FFFFFF" points="367.5,148.9219,367.5,148.9919,369.5,148.7838,371.5,148.9863,373.5,149.0551,375.5,148.6841,377.5,148.9219,377.4223,148.9219,377.0735,158.9805,377.1165,169.0391,377.4318,179.0977,376.8086,189.1563,378.0536,199.2148,377.5,209.2734,377.5,209.0633,375.5,209.2075,373.5,209.4174,371.5,209.2448,369.5,209.2962,367.5,209.2734,367.4681,209.2734,367.6785,199.2148,367.7391,189.1563,368.0857,179.0977,368.1711,169.0391,368.1793,158.9805,367.5,148.9219" style="stroke:#383838;stroke-width:1.0;"/><polygon fill="#FFFFFF" points="367.5,300.3281,367.5,300.3982,369.5,300.19,371.5,300.3926,373.5,300.4614,375.5,300.0903,377.5,300.3281,377.4223,300.3281,377.0735,310.4021,377.1165,320.4762,377.4318,330.5502,376.8086,340.6242,378.0536,350.6982,376.8697,360.7722,377.3022,370.8462,377.9319,380.9202,377.4142,390.9942,377.5682,401.0683,377.4681,411.1423,377.6785,421.2163,377.7391,431.2903,378.0857,441.3643,378.1711,451.4383,378.1793,461.5123,377.7546,471.5863,377.9636,481.6604,377.5,491.7344,377.5,491.9685,375.5,491.494,373.5,491.9605,371.5,491.6355,369.5,491.9123,367.5,491.7344,367.005,491.7344,367.4315,481.6604,368.2416,471.5863,367.4513,461.5123,367.6053,451.4383,367.8386,441.3643,367.9162,431.2903,367.4961,421.2163,367.7872,411.1423,366.9276,401.0683,367.7844,390.9942,368.0482,380.9202,367.9445,370.8462,368.113,360.7722,367.0169,350.6982,366.8478,340.6242,366.8786,330.5502,367.4411,320.4762,367.3035,310.4021,367.5,300.3281" style="stroke:#383838;stroke-width:1.0;"/><polygon fill="#FFFFFF" points="624.5,330.6797,624.5,330.7497,626.5,330.5416,628.5,330.7441,630.5,330.8129,632.5,330.4419,634.5,330.6797,634.4223,330.6797,634.0735,340.7456,634.1165,350.8115,634.4318,360.8774,633.8086,370.9434,635.0536,381.0093,633.8697,391.0752,634.3022,401.1411,634.9319,411.207,634.4142,421.2729,634.5682,431.3389,634.4681,441.4048,634.6785,451.4707,634.7391,461.5366,635.0857,471.6025,635.1711,481.6685,634.5,491.7344,634.5,491.9608,632.5,491.8193,630.5,491.8889,628.5,491.9685,626.5,491.494,624.5,491.7344,625.1785,491.7344,624.2035,481.6685,625.0338,471.6025,624.005,461.5366,624.4315,451.4707,625.2416,441.4048,624.4513,431.3389,624.6053,421.2729,624.8386,411.207,624.9162,401.1411,624.4961,391.0752,624.7872,381.0093,623.9276,370.9434,624.7844,360.8774,625.0482,350.8115,624.9445,340.7456,624.5,330.6797" style="stroke:#383838;stroke-width:1.0;"/><polygon fill="#FFFFFF" points="1005.5,179.2734,1005.5,179.3435,1007.5,179.1353,1009.5,179.3379,1011.5,179.4067,1013.5,179.0356,1015.5,179.2734,1015.4741,179.2734,1015.3578,185.2734,1015.3722,191.2734,1015.4773,197.2734,1015.2695,203.2734,1015.5,209.2734,1015.5,209.458,1013.5,209.0633,1011.5,209.2075,1009.5,209.4174,1007.5,209.2448,1005.5,209.2734,1005.5227,209.2734,1005.4894,203.2734,1005.5595,197.2734,1005.5797,191.2734,1005.6952,185.2734,1005.5,179.2734" style="stroke:#383838;stroke-width:1.0;"/><polygon fill="#FFFFFF" points="1005.5,361.0313,1005.5,361.1013,1007.5,360.8931,1009.5,361.0957,1011.5,361.1645,1013.5,360.7935,1015.5,361.0313,1015.4741,361.0313,1015.3578,367.0313,1015.3722,373.0313,1015.4773,379.0313,1015.2695,385.0313,1015.5,391.0313,1015.5,391.2158,1013.5,390.8212,1011.5,390.9653,1009.5,391.1752,1007.5,391.0027,1005.5,391.0313,1005.5227,391.0313,1005.4894,385.0313,1005.5595,379.0313,1005.5797,373.0313,1005.6952,367.0313,1005.5,361.0313" style="stroke:#383838;stroke-width:1.0;"/><polygon fill="#FFFFFF" points="1005.5,446.7344,1005.5,446.8044,1007.5,446.5963,1009.5,446.7988,1011.5,446.8676,1013.5,446.4966,1015.5,446.7344,1015.4741,446.7344,1015.3578,452.7344,1015.3722,458.7344,1015.4773,464.7344,1015.2695,470.7344,1015.5,476.7344,1015.5,476.9189,1013.5,476.5243,1011.5,476.6685,1009.5,476.8784,1007.5,476.7058,1005.5,476.7344,1005.5227,476.7344,1005.4894,470.7344,1005.5595,464.7344,1005.5797,458.7344,1005.6952,452.7344,1005.5,446.7344" style="stroke:#383838;stroke-width:1.0;"/><polygon fill="#FFFFFF" points="576,406.0313,576,406.2414,586.0918,405.6169,596.1837,406.2245,606.2755,406.4309,616.3673,405.3179,626.4592,405.9535,636.551,405.6048,646.6429,405.6478,656.7347,405.9631,666.8265,405.3399,676.9184,406.5849,687.0102,405.401,697.102,405.8335,707.1939,406.4632,717.2857,405.9455,727.3776,406.0995,737.4694,405.9993,747.5612,406.2098,757.6531,406.2704,767.7449,406.6169,777.8367,406.7023,787.9286,406.7105,798.0204,406.2859,808.1122,406.4948,818.2041,406.7335,828.2959,405.3101,838.3878,406.7098,848.4796,405.7347,858.5714,406.5651,868.6633,405.5362,878.7551,405.9628,888.8469,406.7729,898.9388,405.9825,909.0306,406.1366,919.1224,406.3699,929.2143,406.4475,939.3061,406.0273,949.398,406.3185,959.4898,405.4588,969.5816,406.3156,979.6735,406.5794,989.7653,406.4758,999.8571,406.6443,1009.949,405.5482,1020.0408,405.3791,1030.1327,405.4098,1040.2245,405.9724,1050.3163,405.8347,1060.4082,406.7127,1070.5,406.0313,1070.3253,406.0313,1070.1569,415.8691,1070.7283,425.707,1069.8332,435.5449,1069.9809,445.3828,1071.149,455.2207,1070.9357,465.0586,1071.2345,474.8965,1070.5,484.7344,1070.5,484.4126,1060.4082,485.0536,1050.3163,485.3248,1040.2245,484.262,1030.1327,484.6385,1020.0408,484.8604,1009.949,485.3861,999.8571,484.7302,989.7653,485.1969,979.6735,484.1806,969.5816,484.0571,959.4898,485.238,949.398,484.0174,939.3061,485.2433,929.2143,484.941,919.1224,484.4665,909.0306,484.3806,898.9388,485.1931,888.8469,484.435,878.7551,485.3262,868.6633,484.1816,858.5714,485.3518,848.4796,485.2187,838.3878,484.9793,828.2959,484.7816,818.2041,485.461,808.1122,485.348,798.0204,484.9036,787.9286,485.0026,777.8367,484.6041,767.7449,485.4508,757.6531,484.8892,747.5612,484.9069,737.4694,484.126,727.3776,484.3292,717.2857,485.2651,707.1939,485.1641,697.102,484.6914,687.0102,484.4122,676.9184,484.5154,666.8265,484.0482,656.7347,485.1491,646.6429,485.4739,636.551,485.2608,626.4592,485.4293,616.3673,484.5976,606.2755,484.8216,596.1837,484.3468,586.0918,485.0184,576,484.7344,576.2468,484.7344,576.5524,474.8965,575.7703,465.0586,575.8656,455.2207,576.4435,445.3828,576.5673,435.5449,575.4875,425.707,575.8061,415.8691,576,406.0313" style="stroke:#000000;stroke-width:2.0;"/><path d="M22,86.2188 L22.2802,86.2188 L21.4476,96.1269 L22.2577,106.0351 L22.5329,115.9432 L21.0488,125.8514 L21.8964,135.7595 L21.4313,145.6677 L21.4887,155.5759 L21.9091,165.484 L21.0782,175.3922 L22.7382,185.3003 L21.1596,195.2085 L21.7363,205.1167 L22.5759,215.0248 L21.8856,224.933 L22.091,234.8411 L21.9574,244.7493 L22.238,254.6575 L22.3188,264.5656 L22.7809,274.4738 L22.8947,284.3819 L22.9057,294.2901 L22.3395,304.1983 L22.6181,314.1064 L22.9363,324.0146 L21.0384,333.9227 L22.9047,343.8309 L21.6047,353.7391 L22.7117,363.6472 L21.34,373.5554 L21.9087,383.4635 L22.9888,393.3717 L21.935,403.2799 L22.1404,413.188 L22.4515,423.0962 L22.555,433.0043 L21.9948,442.9125 L22.383,452.8207 L21.2368,462.7288 L22.3792,472.637 L22.7309,482.5451 L22.5927,492.4533 L22.8174,502.3615 L21.3559,512.2696 L21.1304,522.1778 L22,532.0859 " fill="none" style="stroke:#383838;stroke-width:1.0;stroke-dasharray:5.0,5.0;"/><path d="M205,86.2188 L205.2802,86.2188 L204.4476,96.1269 L205.2577,106.0351 L205.5329,115.9432 L204.0488,125.8514 L204.8964,135.7595 L204.4313,145.6677 L204.4887,155.5759 L204.9091,165.484 L204.0782,175.3922 L205.7382,185.3003 L204.1596,195.2085 L204.7363,205.1167 L205.5759,215.0248 L204.8856,224.933 L205.091,234.8411 L204.9574,244.7493 L205.238,254.6575 L205.3188,264.5656 L205.7809,274.4738 L205.8947,284.3819 L205.9057,294.2901 L205.3395,304.1983 L205.6181,314.1064 L205.9363,324.0146 L204.0384,333.9227 L205.9047,343.8309 L204.6047,353.7391 L205.7117,363.6472 L204.34,373.5554 L204.9087,383.4635 L205.9888,393.3717 L204.935,403.2799 L205.1404,413.188 L205.4515,423.0962 L205.555,433.0043 L204.9948,442.9125 L205.383,452.8207 L204.2368,462.7288 L205.3792,472.637 L205.7309,482.5451 L205.5927,492.4533 L205.8174,502.3615 L204.3559,512.2696 L204.1304,522.1778 L205,532.0859 " fill="none" style="stroke:#383838;stroke-width:1.0;stroke-dasharray:5.0,5.0;"/><path d="M372,86.2188 L372.2802,86.2188 L371.4476,96.1269 L372.2577,106.0351 L372.5329,115.9432 L371.0488,125.8514 L371.8964,135.7595 L371.4313,145.6677 L371.4887,155.5759 L371.9091,165.484 L371.0782,175.3922 L372.7382,185.3003 L371.1596,195.2085 L371.7363,205.1167 L372.5759,215.0248 L371.8856,224.933 L372.091,234.8411 L371.9574,244.7493 L372.238,254.6575 L372.3188,264.5656 L372.7809,274.4738 L372.8947,284.3819 L372.9057,294.2901 L372.3395,304.1983 L372.6181,314.1064 L372.9363,324.0146 L371.0384,333.9227 L372.9047,343.8309 L371.6047,353.7391 L372.7117,363.6472 L371.34,373.5554 L371.9087,383.4635 L372.9888,393.3717 L371.935,403.2799 L372.1404,413.188 L372.4515,423.0962 L372.555,433.0043 L371.9948,442.9125 L372.383,452.8207 L371.2368,462.7288 L372.3792,472.637 L372.7309,482.5451 L372.5927,492.4533 L372.8174,502.3615 L371.3559,512.2696 L371.1304,522.1778 L372,532.0859 " fill="none" style="stroke:#383838;stroke-width:1.0;stroke-dasharray:5.0,5.0;"/><path d="M629,86.2188 L629.2802,86.2188 L628.4476,96.1269 L629.2577,106.0351 L629.5329,115.9432 L628.0488,125.8514 L628.8964,135.7595 L628.4313,145.6677 L628.4887,155.5759 L628.9091,165.484 L628.0782,175.3922 L629.7382,185.3003 L628.1596,195.2085 L628.7363,205.1167 L629.5759,215.0248 L628.8856,224.933 L629.091,234.8411 L628.9574,244.7493 L629.238,254.6575 L629.3188,264.5656 L629.7809,274.4738 L629.8947,284.3819 L629.9057,294.2901 L629.3395,304.1983 L629.6181,314.1064 L629.9363,324.0146 L628.0384,333.9227 L629.9047,343.8309 L628.6047,353.7391 L629.7117,363.6472 L628.34,373.5554 L628.9087,383.4635 L629.9888,393.3717 L628.935,403.2799 L629.1404,413.188 L629.4515,423.0962 L629.555,433.0043 L628.9948,442.9125 L629.383,452.8207 L628.2368,462.7288 L629.3792,472.637 L629.7309,482.5451 L629.5927,492.4533 L629.8174,502.3615 L628.3559,512.2696 L628.1304,522.1778 L629,532.0859 " fill="none" style="stroke:#383838;stroke-width:1.0;stroke-dasharray:5.0,5.0;"/><path d="M721,86.2188 L721.2802,86.2188 L720.4476,96.1269 L721.2577,106.0351 L721.5329,115.9432 L720.0488,125.8514 L720.8964,135.7595 L720.4313,145.6677 L720.4887,155.5759 L720.9091,165.484 L720.0782,175.3922 L721.7382,185.3003 L720.1596,195.2085 L720.7363,205.1167 L721.5759,215.0248 L720.8856,224.933 L721.091,234.8411 L720.9574,244.7493 L721.238,254.6575 L721.3188,264.5656 L721.7809,274.4738 L721.8947,284.3819 L721.9057,294.2901 L721.3395,304.1983 L721.6181,314.1064 L721.9363,324.0146 L720.0384,333.9227 L721.9047,343.8309 L720.6047,353.7391 L721.7117,363.6472 L720.34,373.5554 L720.9087,383.4635 L721.9888,393.3717 L720.935,403.2799 L721.1404,413.188 L721.4515,423.0962 L721.555,433.0043 L720.9948,442.9125 L721.383,452.8207 L720.2368,462.7288 L721.3792,472.637 L721.7309,482.5451 L721.5927,492.4533 L721.8174,502.3615 L720.3559,512.2696 L720.1304,522.1778 L721,532.0859 " fill="none" style="stroke:#383838;stroke-width:1.0;stroke-dasharray:5.0,5.0;"/><path d="M1010.5,86.2188 L1010.7802,86.2188 L1009.9476,96.1269 L1010.7577,106.0351 L1011.0329,115.9432 L1009.5488,125.8514 L1010.3964,135.7595 L1009.9313,145.6677 L1009.9887,155.5759 L1010.4091,165.484 L1009.5782,175.3922 L1011.2382,185.3003 L1009.6596,195.2085 L1010.2363,205.1167 L1011.0759,215.0248 L1010.3856,224.933 L1010.591,234.8411 L1010.4574,244.7493 L1010.738,254.6575 L1010.8188,264.5656 L1011.2809,274.4738 L1011.3947,284.3819 L1011.4057,294.2901 L1010.8395,304.1983 L1011.1181,314.1064 L1011.4363,324.0146 L1009.5384,333.9227 L1011.4047,343.8309 L1010.1047,353.7391 L1011.2117,363.6472 L1009.84,373.5554 L1010.4087,383.4635 L1011.4888,393.3717 L1010.435,403.2799 L1010.6404,413.188 L1010.9515,423.0962 L1011.055,433.0043 L1010.4948,442.9125 L1010.883,452.8207 L1009.7368,462.7288 L1010.8792,472.637 L1011.2309,482.5451 L1011.0927,492.4533 L1011.3174,502.3615 L1009.8559,512.2696 L1009.6304,522.1778 L1010.5,532.0859 " fill="none" style="stroke:#383838;stroke-width:1.0;stroke-dasharray:5.0,5.0;"/><text fill="#000000" font-family="FG Virgil" font-size="14" lengthAdjust="spacing" textLength="29" x="5" y="83.1426">User</text><polygon fill="#F8F8F8" points="30.5442,17.5553,29.3715,19.1576,27.9845,21.5044,26.0008,23.086,23.9163,23.9509,22.2542,24.026,20.118,22.9443,18.1023,22.2377,16.5724,20.803,15.7699,19.1605,15.2939,17.8527,14.8277,16.1444,14.0709,14.6744,14.6525,13.2392,15.162,11.667,17.074,10.4235,18.4192,8.8102,20.0843,8.2744,22.0637,7.813,24.6021,8.0872,25.9924,8.7429,27.6089,9.0401,29.5743,11.0537,30.2595,13.1795,30.5571,14.63,30.22,17.0202" style="stroke:#383838;stroke-width:2.0;"/><path d="M22.5,23.6094 L22.6868,23.6094 L22.1317,29.0094 L22.6718,34.4094 L22.8553,39.8094 L21.8659,45.2094 L22.5,50.6094 M9.5,31.6094 L9.5,31.5403 L14.7,31.2303 L19.9,31.2685 L25.1,31.5488 L30.3,30.9948 L35.5,31.6094 M22.5,50.6094 L22.8719,50.9317 L19.4766,53.2425 L17.1672,56.4942 L14.9901,59.8608 L12.0424,62.5594 L9.5,65.6094 M22.5,50.6094 L22.5458,50.6491 L25.0785,53.5908 L27.8199,56.7133 L30.4606,59.7486 L33.2934,62.9503 L35.5,65.6094 " fill="none" style="stroke:#383838;stroke-width:2.0;"/><text fill="#000000" font-family="FG Virgil" font-size="14" lengthAdjust="spacing" textLength="29" x="5" y="545.6191">User</text><polygon fill="#F8F8F8" points="30.5442,560.6412,29.3715,562.2435,27.9845,564.5904,26.0008,566.172,23.9163,567.0368,22.2542,567.1119,20.118,566.0303,18.1023,565.3236,16.5724,563.8889,15.7699,562.2464,15.2939,560.9386,14.8277,559.2304,14.0709,557.7604,14.6525,556.3251,15.162,554.7529,17.074,553.5095,18.4192,551.8961,20.0843,551.3604,22.0637,550.899,24.6021,551.1731,25.9924,551.8288,27.6089,552.126,29.5743,554.1397,30.2595,556.2655,30.5571,557.7159,30.22,560.1061" style="stroke:#383838;stroke-width:2.0;"/><path d="M22.5,566.6953 L22.6868,566.6953 L22.1317,572.0953 L22.6718,577.4953 L22.8553,582.8953 L21.8659,588.2953 L22.5,593.6953 M9.5,574.6953 L9.5,574.6262 L14.7,574.3162 L19.9,574.3544 L25.1,574.6347 L30.3,574.0808 L35.5,574.6953 M22.5,593.6953 L22.8719,594.0176 L19.4766,596.3284 L17.1672,599.5802 L14.9901,602.9468 L12.0424,605.6454 L9.5,608.6953 M22.5,593.6953 L22.5458,593.735 L25.0785,596.6767 L27.8199,599.7992 L30.4606,602.8345 L33.2934,606.0363 L35.5,608.6953 " fill="none" style="stroke:#383838;stroke-width:2.0;"/><polygon fill="#F8F8F8" points="151,36,151,36.2102,160.9091,35.5857,170.8182,36.1933,180.7273,36.3997,190.6364,35.2866,200.5455,35.9223,210.4545,35.5735,220.3636,35.6165,230.2727,35.9318,240.1818,35.3086,250.0909,36.5536,260,36,259.3697,36,259.8022,45.8438,260.4319,55.6875,259.9142,65.5313,260.0682,75.375,260,85.2188,260,85.1868,250.0909,85.3973,240.1818,85.4579,230.2727,85.8044,220.3636,85.8898,210.4545,85.898,200.5455,85.4734,190.6364,85.6823,180.7273,85.921,170.8182,84.4976,160.9091,85.8973,151,85.2188,150.7035,85.2188,151.5338,75.375,150.505,65.5313,150.9315,55.6875,151.7416,45.8438,151,36" style="stroke:#383838;stroke-width:1.5;"/><text fill="#000000" font-family="FG Virgil" font-size="14" font-style="italic" lengthAdjust="spacing" textLength="95" x="158" y="57.5332">«presentation»</text><text fill="#000000" font-family="FG Virgil" font-size="14" lengthAdjust="spacing" textLength="46" x="182.5" y="75.1426">cart.jsp</text><polygon fill="#F8F8F8" points="151,531.0859,151,531.2961,160.9091,530.6716,170.8182,531.2792,180.7273,531.4856,190.6364,530.3725,200.5455,531.0082,210.4545,530.6594,220.3636,530.7024,230.2727,531.0178,240.1818,530.3946,250.0909,531.6396,260,531.0859,259.3697,531.0859,259.8022,540.9297,260.4319,550.7734,259.9142,560.6172,260.0682,570.4609,260,580.3047,260,580.2727,250.0909,580.4832,240.1818,580.5438,230.2727,580.8904,220.3636,580.9757,210.4545,580.9839,200.5455,580.5593,190.6364,580.7683,180.7273,581.0069,170.8182,579.5835,160.9091,580.9832,151,580.3047,150.7035,580.3047,151.5338,570.4609,150.505,560.6172,150.9315,550.7734,151.7416,540.9297,151,531.0859" style="stroke:#383838;stroke-width:1.5;"/><text fill="#000000" font-family="FG Virgil" font-size="14" font-style="italic" lengthAdjust="spacing" textLength="95" x="158" y="552.6191">«presentation»</text><text fill="#000000" font-family="FG Virgil" font-size="14" lengthAdjust="spacing" textLength="46" x="182.5" y="570.2285">cart.jsp</text><text fill="#000000" font-family="FG Virgil" font-size="14" font-style="italic" lengthAdjust="spacing" textLength="84" x="327.5" y="65.5332">«application»</text><text fill="#000000" font-family="FG Virgil" font-size="14" lengthAdjust="spacing" textLength="89" x="325" y="83.1426">CartController</text><polygon fill="#F8F8F8" points="384.5663,37.9189,382.8073,40.3223,380.7268,43.8426,377.7512,46.215,374.6244,47.5123,372.1313,47.6249,368.9269,46.0024,365.9035,44.9425,363.6086,42.7904,362.4048,40.3267,361.6909,38.3649,360.9915,35.8026,359.8564,33.5976,360.7287,31.4447,361.4929,29.0864,364.3611,27.2212,366.3789,24.8012,368.8764,23.9976,371.8456,23.3055,375.6532,23.7167,377.7386,24.7002,380.1633,25.146,383.1115,28.1665,384.1392,31.3552,384.5857,33.5309,384.08,37.1162" style="stroke:#383838;stroke-width:2.0;"/><polygon fill="#383838" points="368.5,23,368.5449,23.0538,369.6116,21.8939,370.9412,21.0495,372.1853,20.1023,373.1478,18.8173,374.5,18,374.4759,17.9904,373.968,18.9472,373.5813,19.9525,373.2789,20.9916,372.686,21.9144,372.5,23,372.6713,23.0685,372.7049,23.922,373.2388,24.9755,373.8337,26.0535,374.0735,26.9894,374.5,28,374.5146,28.0175,373.2932,26.9918,372.1381,26.0457,370.951,25.0612,369.825,24.15,368.5,23" style="stroke:#383838;stroke-width:1.0;"/><text fill="#000000" font-family="FG Virgil" font-size="14" font-style="italic" lengthAdjust="spacing" textLength="84" x="327.5" y="545.6191">«application»</text><text fill="#000000" font-family="FG Virgil" font-size="14" lengthAdjust="spacing" textLength="89" x="325" y="563.2285">CartController</text><polygon fill="#F8F8F8" points="384.5663,585.2236,382.8073,587.627,380.7268,591.1473,377.7512,593.5197,374.6244,594.817,372.1313,594.9296,368.9269,593.3071,365.9035,592.2471,363.6086,590.0951,362.4048,587.6314,361.6909,585.6696,360.9915,583.1073,359.8564,580.9023,360.7287,578.7494,361.4929,576.3911,364.3611,574.5259,366.3789,572.1059,368.8764,571.3023,371.8456,570.6102,375.6532,571.0214,377.7386,572.0049,380.1633,572.4507,383.1115,575.4712,384.1392,578.6599,384.5857,580.8356,384.08,584.4209" style="stroke:#383838;stroke-width:2.0;"/><polygon fill="#383838" points="368.5,570.3047,368.5449,570.3585,369.6116,569.1986,370.9412,568.3542,372.1853,567.407,373.1478,566.122,374.5,565.3047,374.4759,565.2951,373.968,566.2519,373.5813,567.2572,373.2789,568.2962,372.686,569.2191,372.5,570.3047,372.6713,570.3732,372.7049,571.2267,373.2388,572.2802,373.8337,573.3582,374.0735,574.2941,374.5,575.3047,374.5146,575.3222,373.2932,574.2965,372.1381,573.3504,370.951,572.3659,369.825,571.4547,368.5,570.3047" style="stroke:#383838;stroke-width:1.0;"/><polygon fill="#F8F8F8" points="586,36,586,36.2102,595.6667,35.5857,605.3333,36.1933,615,36.3997,624.6667,35.2866,634.3333,35.9223,644,35.5735,653.6667,35.6165,663.3333,35.9318,673,36,672.3086,36,673.5536,45.8438,672.3697,55.6875,672.8022,65.5313,673.4319,75.375,673,85.2188,673,85.133,663.3333,85.287,653.6667,85.1868,644,85.3973,634.3333,85.4579,624.6667,85.8044,615,85.8898,605.3333,85.898,595.6667,85.4734,586,85.2188,586.4636,85.2188,586.7022,75.375,585.2788,65.5313,586.6785,55.6875,585.7035,45.8438,586,36" style="stroke:#383838;stroke-width:1.5;"/><text fill="#000000" font-family="FG Virgil" font-size="14" font-style="italic" lengthAdjust="spacing" textLength="60" x="599.5" y="57.5332">«service»</text><text fill="#000000" font-family="FG Virgil" font-size="14" lengthAdjust="spacing" textLength="73" x="593" y="75.1426">ItemService</text><polygon fill="#F8F8F8" points="586,531.0859,586,531.2961,595.6667,530.6716,605.3333,531.2792,615,531.4856,624.6667,530.3725,634.3333,531.0082,644,530.6594,653.6667,530.7024,663.3333,531.0178,673,531.0859,672.3086,531.0859,673.5536,540.9297,672.3697,550.7734,672.8022,560.6172,673.4319,570.4609,673,580.3047,673,580.2189,663.3333,580.3729,653.6667,580.2727,644,580.4832,634.3333,580.5438,624.6667,580.8904,615,580.9757,605.3333,580.9839,595.6667,580.5593,586,580.3047,586.4636,580.3047,586.7022,570.4609,585.2788,560.6172,586.6785,550.7734,585.7035,540.9297,586,531.0859" style="stroke:#383838;stroke-width:1.5;"/><text fill="#000000" font-family="FG Virgil" font-size="14" font-style="italic" lengthAdjust="spacing" textLength="60" x="599.5" y="552.6191">«service»</text><text fill="#000000" font-family="FG Virgil" font-size="14" lengthAdjust="spacing" textLength="73" x="593" y="570.2285">ItemService</text><polygon fill="#F8F8F8" points="683,36,683,36.2102,692.5,35.5857,702,36.1933,711.5,36.3997,721,35.2866,730.5,35.9223,740,35.5735,749.5,35.6165,759,36,758.9318,36,758.3086,45.8438,759.5536,55.6875,758.3697,65.5313,758.8022,75.375,759,85.2188,759,85.6507,749.5,85.133,740,85.287,730.5,85.1868,721,85.3973,711.5,85.4579,702,85.8044,692.5,85.8898,683,85.2188,683.6793,85.2188,683.2546,75.375,683.4636,65.5313,683.7022,55.6875,682.2788,45.8438,683,36" style="stroke:#383838;stroke-width:1.5;"/><text fill="#000000" font-family="FG Virgil" font-size="14" font-style="italic" lengthAdjust="spacing" textLength="62" x="690" y="57.5332">«domain»</text><text fill="#000000" font-family="FG Virgil" font-size="14" lengthAdjust="spacing" textLength="56" x="693" y="75.1426">item:Item</text><polygon fill="#F8F8F8" points="683,531.0859,683,531.2961,692.5,530.6716,702,531.2792,711.5,531.4856,721,530.3725,730.5,531.0082,740,530.6594,749.5,530.7024,759,531.0859,758.9318,531.0859,758.3086,540.9297,759.5536,550.7734,758.3697,560.6172,758.8022,570.4609,759,580.3047,759,580.7366,749.5,580.2189,740,580.3729,730.5,580.2727,721,580.4832,711.5,580.5438,702,580.8904,692.5,580.9757,683,580.3047,683.6793,580.3047,683.2546,570.4609,683.4636,560.6172,683.7022,550.7734,682.2788,540.9297,683,531.0859" style="stroke:#383838;stroke-width:1.5;"/><text fill="#000000" font-family="FG Virgil" font-size="14" font-style="italic" lengthAdjust="spacing" textLength="62" x="690" y="552.6191">«domain»</text><text fill="#000000" font-family="FG Virgil" font-size="14" lengthAdjust="spacing" textLength="56" x="693" y="570.2285">item:Item</text><text fill="#000000" font-family="FG Virgil" font-size="14" font-style="italic" lengthAdjust="spacing" textLength="79" x="968" y="65.5332">«repository»</text><text fill="#000000" font-family="FG Virgil" font-size="14" lengthAdjust="spacing" textLength="94" x="960.5" y="83.1426">ItemRepository</text><path d="M992.5,15 L992.5,15 L992.5651,15.067 L994.1716,13.118 L996.1599,11.5616 L998.0238,9.8774 L999.479,7.7727 L1001.5,6.25 L1001.4952,6.2158 L1003.2739,5.8122 L1005.0766,5.5812 L1006.8958,5.47 L1008.6577,4.9456 L1010.5,5 L1010.5,5 L1010.5339,5.2437 L1012.2615,4.9725 L1014.0879,5.4129 L1015.9264,5.9402 L1017.6948,5.9622 L1019.5,6.25 L1019.5211,6.2717 L1021.2901,7.9898 L1023.1553,9.8069 L1024.9741,11.5762 L1026.8815,13.4366 L1028.5,15 L1029.0965,15 L1029.1038,20.2 L1028.7263,25.4 L1028.9121,30.6 L1029.1242,35.8 L1028.5,41 L1028.5,41 L1028.2766,40.7702 L1026.9102,42.9662 L1024.8081,44.4055 L1023.2654,46.4201 L1021.1466,47.8423 L1019.5,49.75 L1019.4958,49.7198 L1017.7453,50.3265 L1015.897,50.2285 L1014.1064,50.5464 L1012.3207,50.8991 L1010.5,51 L1010.5,51 L1010.5254,51.1832 L1008.6998,50.7483 L1006.9176,50.6264 L1005.065,49.998 L1003.3174,50.1252 L1001.5,49.75 L1001.6698,49.9247 L999.8377,48.1417 L998.0899,46.4453 L995.9503,44.3461 L994.0979,42.5422 L992.5,41 L991.9476,41 L992.4477,35.8 L992.3253,30.6 L993.1057,25.4 L992.3447,20.2 L992.5,15 " fill="#F8F8F8" style="stroke:#000000;stroke-width:1.5;"/><path d="M992.5,15 L992.5,15 L992.5651,15.067 L994.1716,16.618 L996.1599,18.5616 L998.0238,20.3774 L999.479,21.7727 L1001.5,23.75 L1001.4952,23.7158 L1003.2739,23.8122 L1005.0766,24.0812 L1006.8958,24.47 L1008.6577,24.4456 L1010.5,25 L1010.5,25 L1010.5339,25.2437 L1012.2615,24.4725 L1014.0879,24.4129 L1015.9264,24.4402 L1017.6948,23.9622 L1019.5,23.75 L1019.5211,23.7717 L1021.2901,21.9898 L1023.1553,20.3069 L1024.9741,18.5762 L1026.8815,16.9366 L1028.5,15 " fill="none" style="stroke:#000000;stroke-width:1.5;"/><text fill="#000000" font-family="FG Virgil" font-size="14" font-style="italic" lengthAdjust="spacing" textLength="79" x="968" y="545.6191">«repository»</text><text fill="#000000" font-family="FG Virgil" font-size="14" lengthAdjust="spacing" textLength="94" x="960.5" y="563.2285">ItemRepository</text><path d="M992.5,576.3047 L992.5,576.3047 L992.5651,576.3717 L994.1716,574.4227 L996.1599,572.8663 L998.0238,571.1821 L999.479,569.0774 L1001.5,567.5547 L1001.4952,567.5205 L1003.2739,567.1169 L1005.0766,566.8859 L1006.8958,566.7747 L1008.6577,566.2503 L1010.5,566.3047 L1010.5,566.3047 L1010.5339,566.5484 L1012.2615,566.2772 L1014.0879,566.7176 L1015.9264,567.2448 L1017.6948,567.2669 L1019.5,567.5547 L1019.5211,567.5764 L1021.2901,569.2945 L1023.1553,571.1116 L1024.9741,572.8809 L1026.8815,574.7413 L1028.5,576.3047 L1029.0965,576.3047 L1029.1038,581.5047 L1028.7263,586.7047 L1028.9121,591.9047 L1029.1242,597.1047 L1028.5,602.3047 L1028.5,602.3047 L1028.2766,602.0749 L1026.9102,604.2709 L1024.8081,605.7102 L1023.2654,607.7248 L1021.1466,609.1469 L1019.5,611.0547 L1019.4958,611.0245 L1017.7453,611.6312 L1015.897,611.5332 L1014.1064,611.851 L1012.3207,612.2038 L1010.5,612.3047 L1010.5,612.3047 L1010.5254,612.4879 L1008.6998,612.053 L1006.9176,611.9311 L1005.065,611.3027 L1003.3174,611.4299 L1001.5,611.0547 L1001.6698,611.2294 L999.8377,609.4463 L998.0899,607.75 L995.9503,605.6507 L994.0979,603.8469 L992.5,602.3047 L991.9476,602.3047 L992.4477,597.1047 L992.3253,591.9047 L993.1057,586.7047 L992.3447,581.5047 L992.5,576.3047 " fill="#F8F8F8" style="stroke:#000000;stroke-width:1.5;"/><path d="M992.5,576.3047 L992.5,576.3047 L992.5651,576.3717 L994.1716,577.9227 L996.1599,579.8663 L998.0238,581.6821 L999.479,583.0774 L1001.5,585.0547 L1001.4952,585.0205 L1003.2739,585.1169 L1005.0766,585.3859 L1006.8958,585.7747 L1008.6577,585.7503 L1010.5,586.3047 L1010.5,586.3047 L1010.5339,586.5484 L1012.2615,585.7772 L1014.0879,585.7176 L1015.9264,585.7448 L1017.6948,585.2669 L1019.5,585.0547 L1019.5211,585.0764 L1021.2901,583.2945 L1023.1553,581.6116 L1024.9741,579.8809 L1026.8815,578.2413 L1028.5,576.3047 " fill="none" style="stroke:#000000;stroke-width:1.5;"/><polygon fill="#FFFFFF" points="17.5,118.5703,17.5,118.6404,19.5,118.4322,21.5,118.6347,23.5,118.7035,25.5,118.3325,27.5,118.5703,27.4223,118.5703,27.0735,128.4582,27.1165,138.3461,27.4318,148.234,26.8086,158.1219,28.0536,168.0098,26.8697,177.8977,27.3022,187.7855,27.9319,197.6734,27.4142,207.5613,27.5682,217.4492,27.4681,227.3371,27.6785,237.225,27.7391,247.1129,28.0857,257.0008,28.1711,266.8887,28.1793,276.7766,27.7546,286.6645,27.9636,296.5523,28.2022,306.4402,26.7788,316.3281,28.1785,326.216,27.2035,336.1039,28.0338,345.9918,27.005,355.8797,27.4315,365.7676,28.2416,375.6555,27.4513,385.5434,27.6053,395.4313,27.8386,405.3191,27.9162,415.207,27.4961,425.0949,27.7872,434.9828,26.9276,444.8707,27.7844,454.7586,28.0482,464.6465,27.9445,474.5344,28.113,484.4223,27.0169,494.3102,26.8478,504.198,27.5,514.0859,27.5,513.8788,25.5,514.0663,23.5,514.0204,21.5,514.3131,19.5,514.0277,17.5,514.0859,17.1569,514.0859,17.7283,504.198,16.8332,494.3102,16.9809,484.4223,18.149,474.5344,17.9357,464.6465,18.2345,454.7586,17.1782,444.8707,17.8192,434.9828,18.0904,425.0949,17.0276,415.207,17.4041,405.3191,17.626,395.4313,18.1518,385.5434,17.4958,375.6555,17.9626,365.7676,16.9462,355.8797,16.8227,345.9918,18.0036,336.1039,16.7831,326.216,18.009,316.3281,17.7066,306.4402,17.2321,296.5523,17.1462,286.6645,17.9588,276.7766,17.2007,266.8887,18.0919,257.0008,16.9473,247.1129,18.1174,237.225,17.9843,227.3371,17.745,217.4492,17.5472,207.5613,18.2266,197.6734,18.1136,187.7855,17.6693,177.8977,17.7682,168.0098,17.3697,158.1219,18.2165,148.234,17.6549,138.3461,17.6726,128.4582,17.5,118.5703" style="stroke:#383838;stroke-width:1.0;"/><polygon fill="#FFFFFF" points="200.5,118.5703,200.5,118.6404,202.5,118.4322,204.5,118.6347,206.5,118.7035,208.5,118.3325,210.5,118.5703,210.4223,118.5703,210.0735,128.4582,210.1165,138.3461,210.4318,148.234,209.8086,158.1219,211.0536,168.0098,209.8697,177.8977,210.3022,187.7855,210.9319,197.6734,210.4142,207.5613,210.5682,217.4492,210.4681,227.3371,210.6785,237.225,210.7391,247.1129,211.0857,257.0008,211.1711,266.8887,211.1793,276.7766,210.7546,286.6645,210.9636,296.5523,211.2022,306.4402,209.7788,316.3281,211.1785,326.216,210.2035,336.1039,211.0338,345.9918,210.005,355.8797,210.4315,365.7676,211.2416,375.6555,210.4513,385.5434,210.6053,395.4313,210.8386,405.3191,210.9162,415.207,210.4961,425.0949,210.7872,434.9828,209.9276,444.8707,210.7844,454.7586,211.0482,464.6465,210.9445,474.5344,211.113,484.4223,210.0169,494.3102,209.8478,504.198,210.5,514.0859,210.5,513.8788,208.5,514.0663,206.5,514.0204,204.5,514.3131,202.5,514.0277,200.5,514.0859,200.1569,514.0859,200.7283,504.198,199.8332,494.3102,199.9809,484.4223,201.149,474.5344,200.9357,464.6465,201.2345,454.7586,200.1782,444.8707,200.8192,434.9828,201.0904,425.0949,200.0276,415.207,200.4041,405.3191,200.626,395.4313,201.1518,385.5434,200.4958,375.6555,200.9626,365.7676,199.9462,355.8797,199.8227,345.9918,201.0036,336.1039,199.7831,326.216,201.009,316.3281,200.7066,306.4402,200.2321,296.5523,200.1462,286.6645,200.9588,276.7766,200.2007,266.8887,201.0919,257.0008,199.9473,247.1129,201.1174,237.225,200.9843,227.3371,200.745,217.4492,200.5472,207.5613,201.2266,197.6734,201.1136,187.7855,200.6693,177.8977,200.7682,168.0098,200.3697,158.1219,201.2165,148.234,200.6549,138.3461,200.6726,128.4582,200.5,118.5703" style="stroke:#383838;stroke-width:1.0;"/><polygon fill="#FFFFFF" points="367.5,148.9219,367.5,148.9919,369.5,148.7838,371.5,148.9863,373.5,149.0551,375.5,148.6841,377.5,148.9219,377.4223,148.9219,377.0735,158.9805,377.1165,169.0391,377.4318,179.0977,376.8086,189.1563,378.0536,199.2148,377.5,209.2734,377.5,209.0633,375.5,209.2075,373.5,209.4174,371.5,209.2448,369.5,209.2962,367.5,209.2734,367.4681,209.2734,367.6785,199.2148,367.7391,189.1563,368.0857,179.0977,368.1711,169.0391,368.1793,158.9805,367.5,148.9219" style="stroke:#383838;stroke-width:1.0;"/><polygon fill="#FFFFFF" points="367.5,300.3281,367.5,300.3982,369.5,300.19,371.5,300.3926,373.5,300.4614,375.5,300.0903,377.5,300.3281,377.4223,300.3281,377.0735,310.4021,377.1165,320.4762,377.4318,330.5502,376.8086,340.6242,378.0536,350.6982,376.8697,360.7722,377.3022,370.8462,377.9319,380.9202,377.4142,390.9942,377.5682,401.0683,377.4681,411.1423,377.6785,421.2163,377.7391,431.2903,378.0857,441.3643,378.1711,451.4383,378.1793,461.5123,377.7546,471.5863,377.9636,481.6604,377.5,491.7344,377.5,491.9685,375.5,491.494,373.5,491.9605,371.5,491.6355,369.5,491.9123,367.5,491.7344,367.005,491.7344,367.4315,481.6604,368.2416,471.5863,367.4513,461.5123,367.6053,451.4383,367.8386,441.3643,367.9162,431.2903,367.4961,421.2163,367.7872,411.1423,366.9276,401.0683,367.7844,390.9942,368.0482,380.9202,367.9445,370.8462,368.113,360.7722,367.0169,350.6982,366.8478,340.6242,366.8786,330.5502,367.4411,320.4762,367.3035,310.4021,367.5,300.3281" style="stroke:#383838;stroke-width:1.0;"/><polygon fill="#FFFFFF" points="624.5,330.6797,624.5,330.7497,626.5,330.5416,628.5,330.7441,630.5,330.8129,632.5,330.4419,634.5,330.6797,634.4223,330.6797,634.0735,340.7456,634.1165,350.8115,634.4318,360.8774,633.8086,370.9434,635.0536,381.0093,633.8697,391.0752,634.3022,401.1411,634.9319,411.207,634.4142,421.2729,634.5682,431.3389,634.4681,441.4048,634.6785,451.4707,634.7391,461.5366,635.0857,471.6025,635.1711,481.6685,634.5,491.7344,634.5,491.9608,632.5,491.8193,630.5,491.8889,628.5,491.9685,626.5,491.494,624.5,491.7344,625.1785,491.7344,624.2035,481.6685,625.0338,471.6025,624.005,461.5366,624.4315,451.4707,625.2416,441.4048,624.4513,431.3389,624.6053,421.2729,624.8386,411.207,624.9162,401.1411,624.4961,391.0752,624.7872,381.0093,623.9276,370.9434,624.7844,360.8774,625.0482,350.8115,624.9445,340.7456,624.5,330.6797" style="stroke:#383838;stroke-width:1.0;"/><polygon fill="#FFFFFF" points="1005.5,179.2734,1005.5,179.3435,1007.5,179.1353,1009.5,179.3379,1011.5,179.4067,1013.5,179.0356,1015.5,179.2734,1015.4741,179.2734,1015.3578,185.2734,1015.3722,191.2734,1015.4773,197.2734,1015.2695,203.2734,1015.5,209.2734,1015.5,209.458,1013.5,209.0633,1011.5,209.2075,1009.5,209.4174,1007.5,209.2448,1005.5,209.2734,1005.5227,209.2734,1005.4894,203.2734,1005.5595,197.2734,1005.5797,191.2734,1005.6952,185.2734,1005.5,179.2734" style="stroke:#383838;stroke-width:1.0;"/><polygon fill="#FFFFFF" points="1005.5,361.0313,1005.5,361.1013,1007.5,360.8931,1009.5,361.0957,1011.5,361.1645,1013.5,360.7935,1015.5,361.0313,1015.4741,361.0313,1015.3578,367.0313,1015.3722,373.0313,1015.4773,379.0313,1015.2695,385.0313,1015.5,391.0313,1015.5,391.2158,1013.5,390.8212,1011.5,390.9653,1009.5,391.1752,1007.5,391.0027,1005.5,391.0313,1005.5227,391.0313,1005.4894,385.0313,1005.5595,379.0313,1005.5797,373.0313,1005.6952,367.0313,1005.5,361.0313" style="stroke:#383838;stroke-width:1.0;"/><polygon fill="#FFFFFF" points="1005.5,446.7344,1005.5,446.8044,1007.5,446.5963,1009.5,446.7988,1011.5,446.8676,1013.5,446.4966,1015.5,446.7344,1015.4741,446.7344,1015.3578,452.7344,1015.3722,458.7344,1015.4773,464.7344,1015.2695,470.7344,1015.5,476.7344,1015.5,476.9189,1013.5,476.5243,1011.5,476.6685,1009.5,476.8784,1007.5,476.7058,1005.5,476.7344,1005.5227,476.7344,1005.4894,470.7344,1005.5595,464.7344,1005.5797,458.7344,1005.6952,452.7344,1005.5,446.7344" style="stroke:#383838;stroke-width:1.0;"/><polygon fill="#383838" points="188.5,114.5703,188.526,114.6354,190.4487,115.2421,192.5239,116.2301,194.5495,117.094,196.4117,117.5495,198.5,118.5703,198.4904,118.5463,196.4472,119.2383,194.4525,120.0516,192.4916,120.9492,190.4144,121.5563,188.5,122.5703,188.6305,122.7008,189.1514,121.6218,190.0534,120.9237,191.0018,120.2721,191.6798,119.3501,192.5,118.5703,192.5161,118.5864,191.6925,117.7628,190.9421,117.0124,190.1564,116.2267,189.438,115.5084,188.5,114.5703" style="stroke:#383838;stroke-width:1.0;"/><path d="M27.5,118.5703 L27.5,118.8506 L37.3235,118.0179 L47.1471,118.828 L56.9706,119.1032 L66.7941,117.6191 L76.6176,118.4667 L86.4412,118.0017 L96.2647,118.059 L106.0882,118.4794 L115.9118,117.6485 L125.7353,119.3085 L135.5588,117.7299 L145.3824,118.3066 L155.2059,119.1462 L165.0294,118.4559 L174.8529,118.6613 L184.6765,118.5277 L194.5,118.5703 " fill="none" style="stroke:#383838;stroke-width:1.0;stroke-dasharray:2.0,2.0;"/><text fill="#000000" font-family="FG Virgil" font-size="13" lengthAdjust="spacing" textLength="65" x="34.5" y="113.7139">Delete Cart</text><polygon fill="#383838" points="355.5,144.9219,355.526,144.9869,357.4487,145.5936,359.5239,146.5817,361.5495,147.4456,363.4117,147.9011,365.5,148.9219,365.4904,148.8978,363.4472,149.5899,361.4525,150.4032,359.4916,151.3008,357.4144,151.9079,355.5,152.9219,355.6305,153.0524,356.1514,151.9733,357.0534,151.2753,358.0018,150.6237,358.6798,149.7017,359.5,148.9219,359.5161,148.938,358.6925,148.1143,357.9421,147.364,357.1564,146.5782,356.438,145.8599,355.5,144.9219" style="stroke:#383838;stroke-width:1.0;"/><path d="M210.5,148.9219 L210.5,149.2021 L220.5667,148.3694 L230.6333,149.1796 L240.7,149.4548 L250.7667,147.9707 L260.8333,148.8183 L270.9,148.3532 L280.9667,148.4105 L291.0333,148.831 L301.1,148 L311.1667,149.6601 L321.2333,148.0815 L331.3,148.6582 L341.3667,149.4978 L351.4333,148.8075 L361.5,148.9219 " fill="none" style="stroke:#383838;stroke-width:1.0;"/><text fill="#000000" font-family="FG Virgil" font-size="13" lengthAdjust="spacing" textLength="138" x="217.5" y="144.0654">viewItems(Model model)</text><polygon fill="#383838" points="993.5,175.2734,993.526,175.3385,995.4487,175.9452,997.5239,176.9333,999.5495,177.7971,1001.4117,178.2526,1003.5,179.2734,1003.4904,179.2494,1001.4472,179.9414,999.4525,180.7547,997.4916,181.6523,995.4144,182.2595,993.5,183.2734,993.6305,183.4039,994.1514,182.3249,995.0534,181.6268,996.0018,180.9752,996.6798,180.0532,997.5,179.2734,997.5161,179.2895,996.6925,178.4659,995.9421,177.7155,995.1564,176.9298,994.438,176.2115,993.5,175.2734" style="stroke:#383838;stroke-width:1.0;"/><path d="M377.5,179.2734 L377.5,179.5537 L387.5323,178.721 L397.5645,179.5312 L407.5968,179.8063 L417.629,178.3222 L427.6613,179.1698 L437.6935,178.7048 L447.7258,178.7621 L457.7581,179.1826 L467.7903,178.3516 L477.8226,180.0116 L487.8548,178.4331 L497.8871,179.0097 L507.9194,179.8494 L517.9516,179.1591 L527.9839,179.3644 L538.0161,179.2308 L548.0484,179.5115 L558.0806,179.5923 L568.1129,180.0544 L578.1452,180.1682 L588.1774,180.1791 L598.2097,179.6129 L608.2419,179.8916 L618.2742,180.2097 L628.3065,178.3119 L638.3387,180.1781 L648.371,178.8781 L658.4032,179.9852 L668.4355,178.6134 L678.4677,179.1821 L688.5,180.2622 L698.5323,179.2085 L708.5645,179.4138 L718.5968,179.7249 L728.629,179.8284 L738.6613,179.2682 L748.6935,179.6564 L758.7258,178.5102 L768.7581,179.6526 L778.7903,180.0044 L788.8226,179.8661 L798.8548,180.0908 L808.8871,178.6293 L818.9194,178.4039 L828.9516,178.4449 L838.9839,179.1949 L849.0161,179.0114 L859.0484,180.182 L869.0806,179.0405 L879.1129,178.816 L889.1452,179.5778 L899.1774,178.3843 L909.2097,178.5813 L919.2419,180.1387 L929.2742,179.8543 L939.3065,180.2528 L949.3387,178.8444 L959.371,179.699 L969.4032,180.0607 L979.4355,178.6436 L989.4677,179.1456 L999.5,179.2734 " fill="none" style="stroke:#383838;stroke-width:1.0;"/><text fill="#000000" font-family="FG Virgil" font-size="13" lengthAdjust="spacing" textLength="174" x="384.5" y="174.417">findUserCart(String username)</text><polygon fill="#383838" points="38.5,235.625,38.526,235.69,36.4487,236.2968,34.5239,237.2848,32.5495,238.1487,30.4117,238.6042,28.5,239.625,28.4904,239.6009,30.4472,240.293,32.4525,241.1063,34.4916,242.0039,36.4144,242.611,38.5,243.625,38.6305,243.7555,37.5514,242.6764,36.8534,241.9784,36.2018,241.3268,35.2798,240.4048,34.5,239.625,34.5161,239.6411,35.2925,238.8175,36.1421,238.0671,36.9564,237.2814,37.838,236.563,38.5,235.625" style="stroke:#383838;stroke-width:1.0;"/><path d="M32.5,239.625 L32.5,239.9052 L42.3235,239.0726 L52.1471,239.8827 L61.9706,240.1579 L71.7941,238.6738 L81.6176,239.5214 L91.4412,239.0563 L101.2647,239.1137 L111.0882,239.5341 L120.9118,238.7032 L130.7353,240.3632 L140.5588,238.7846 L150.3824,239.3613 L160.2059,240.2009 L170.0294,239.5106 L179.8529,239.716 L189.6765,239.5824 L199.5,239.625 " fill="none" style="stroke:#383838;stroke-width:1.0;stroke-dasharray:2.0,2.0;"/><text fill="#000000" font-family="FG Virgil" font-size="13" lengthAdjust="spacing" textLength="67" x="44.5" y="234.7686">Shows Cart</text><polygon fill="#383838" points="188.5,265.9766,188.526,266.0416,190.4487,266.6483,192.5239,267.6364,194.5495,268.5003,196.4117,268.9558,198.5,269.9766,198.4904,269.9525,196.4472,270.6446,194.4525,271.4579,192.4916,272.3555,190.4144,272.9626,188.5,273.9766,188.6305,274.1071,189.1514,273.028,190.0534,272.3299,191.0018,271.6784,191.6798,270.7563,192.5,269.9766,192.5161,269.9926,191.6925,269.169,190.9421,268.4186,190.1564,267.6329,189.438,266.9146,188.5,265.9766" style="stroke:#383838;stroke-width:1.0;"/><path d="M27.5,269.9766 L27.5,270.2568 L37.3235,269.4241 L47.1471,270.2343 L56.9706,270.5095 L66.7941,269.0254 L76.6176,269.8729 L86.4412,269.4079 L96.2647,269.4652 L106.0882,269.8857 L115.9118,269.0547 L125.7353,270.7148 L135.5588,269.1362 L145.3824,269.7129 L155.2059,270.5525 L165.0294,269.8622 L174.8529,270.0675 L184.6765,269.934 L194.5,269.9766 " fill="none" style="stroke:#383838;stroke-width:1.0;stroke-dasharray:2.0,2.0;"/><text fill="#000000" font-family="FG Virgil" font-size="13" lengthAdjust="spacing" textLength="127" x="34.5" y="265.1201">Presses delete button</text><polygon fill="#383838" points="355.5,296.3281,355.526,296.3932,357.4487,296.9999,359.5239,297.9879,361.5495,298.8518,363.4117,299.3073,365.5,300.3281,365.4904,300.3041,363.4472,300.9961,361.4525,301.8094,359.4916,302.707,357.4144,303.3142,355.5,304.3281,355.6305,304.4586,356.1514,303.3796,357.0534,302.6815,358.0018,302.0299,358.6798,301.1079,359.5,300.3281,359.5161,300.3442,358.6925,299.5206,357.9421,298.7702,357.1564,297.9845,356.438,297.2662,355.5,296.3281" style="stroke:#383838;stroke-width:1.0;"/><path d="M210.5,300.3281 L210.5,300.6084 L220.5667,299.7757 L230.6333,300.5858 L240.7,300.861 L250.7667,299.3769 L260.8333,300.2245 L270.9,299.7595 L280.9667,299.8168 L291.0333,300.2372 L301.1,299.4063 L311.1667,301.0663 L321.2333,299.4878 L331.3,300.0644 L341.3667,300.9041 L351.4333,300.2138 L361.5,300.3281 " fill="none" style="stroke:#383838;stroke-width:1.0;"/><text fill="#000000" font-family="FG Virgil" font-size="13" lengthAdjust="spacing" textLength="100" x="217.5" y="295.4717">deleteAll(Long id)</text><polygon fill="#383838" points="612.5,326.6797,612.526,326.7447,614.4487,327.3515,616.5239,328.3395,618.5495,329.2034,620.4117,329.6589,622.5,330.6797,622.4904,330.6556,620.4472,331.3477,618.4525,332.161,616.4916,333.0586,614.4144,333.6657,612.5,334.6797,612.6305,334.8102,613.1514,333.7311,614.0534,333.0331,615.0018,332.3815,615.6798,331.4595,616.5,330.6797,616.5161,330.6958,615.6925,329.8722,614.9421,329.1218,614.1564,328.3361,613.438,327.6177,612.5,326.6797" style="stroke:#383838;stroke-width:1.0;"/><path d="M377.5,330.6797 L377.5,330.9599 L387.5417,330.1273 L397.5833,330.9374 L407.625,331.2126 L417.6667,329.7285 L427.7083,330.5761 L437.75,330.111 L447.7917,330.1684 L457.8333,330.5888 L467.875,329.7579 L477.9167,331.4179 L487.9583,329.8393 L498,330.416 L508.0417,331.2556 L518.0833,330.5653 L528.125,330.7707 L538.1667,330.6371 L548.2083,330.9177 L558.25,330.9985 L568.2917,331.4606 L578.3333,331.5744 L588.375,331.5854 L598.4167,331.0192 L608.4583,331.2978 L618.5,330.6797 " fill="none" style="stroke:#383838;stroke-width:1.0;"/><text fill="#000000" font-family="FG Virgil" font-size="13" lengthAdjust="spacing" textLength="228" x="384.5" y="325.8232">deleteAllItemsByUser(String username)</text><polygon fill="#383838" points="993.5,357.0313,993.526,357.0963,995.4487,357.703,997.5239,358.6911,999.5495,359.5549,1001.4117,360.0105,1003.5,361.0313,1003.4904,361.0072,1001.4472,361.6993,999.4525,362.5126,997.4916,363.4102,995.4144,364.0173,993.5,365.0313,993.6305,365.1617,994.1514,364.0827,995.0534,363.3846,996.0018,362.7331,996.6798,361.811,997.5,361.0313,997.5161,361.0473,996.6925,360.2237,995.9421,359.4733,995.1564,358.6876,994.438,357.9693,993.5,357.0313" style="stroke:#383838;stroke-width:1.0;"/><path d="M634.5,361.0313 L634.5,361.3115 L644.3649,360.4788 L654.2297,361.289 L664.0946,361.5642 L673.9595,360.0801 L683.8243,360.9276 L693.6892,360.4626 L703.5541,360.5199 L713.4189,360.9404 L723.2838,360.1094 L733.1486,361.7694 L743.0135,360.1909 L752.8784,360.7676 L762.7432,361.6072 L772.6081,360.9169 L782.473,361.1222 L792.3378,360.9887 L802.2027,361.2693 L812.0676,361.3501 L821.9324,361.8122 L831.7973,361.926 L841.6622,361.9369 L851.527,361.3708 L861.3919,361.6494 L871.2568,361.9676 L881.1216,360.0697 L890.9865,361.9359 L900.8514,360.6359 L910.7162,361.743 L920.5811,360.3712 L930.4459,360.9399 L940.3108,362.0201 L950.1757,360.9663 L960.0405,361.1717 L969.9054,361.4828 L979.7703,361.5862 L989.6351,361.026 L999.5,361.0313 " fill="none" style="stroke:#383838;stroke-width:1.0;"/><text fill="#000000" font-family="FG Virgil" font-size="13" lengthAdjust="spacing" textLength="352" x="641.5" y="356.1748">Iterable&lt;Item&gt; itemsToDelete=findUserCart(String username)</text><path d="M576,406.0313 L576,406.5917 L586.4286,404.9264 L596.8571,406.5467 L607.2857,407.0971 L617.7143,404.1289 L628.1429,405.824 L638.5714,404.8939 L649,406.0313 L648.6591,406.0313 L648.9394,407.6313 L648.3854,409.2313 L649.4921,410.8313 L648.4398,412.4313 L649,414.0313 L648.8757,413.9069 L647.2715,416.3027 L644.9461,417.9773 L643.0429,420.0741 L640.9799,422.0112 L639,424.0313 L639,424.5073 L628.5,424.6689 L618,425.5931 L607.5,425.8207 L597,425.8426 L586.5,424.7103 L576,424.0313 L576.4121,424.0313 L576.6242,420.4313 L575.3589,416.8313 L576.6031,413.2313 L575.7364,409.6313 L576,406.0313 " fill="#EEEEEE" style="stroke:#000000;stroke-width:1.0;"/><polygon fill="none" points="576,406.0313,576,406.2414,586.0918,405.6169,596.1837,406.2245,606.2755,406.4309,616.3673,405.3179,626.4592,405.9535,636.551,405.6048,646.6429,405.6478,656.7347,405.9631,666.8265,405.3399,676.9184,406.5849,687.0102,405.401,697.102,405.8335,707.1939,406.4632,717.2857,405.9455,727.3776,406.0995,737.4694,405.9993,747.5612,406.2098,757.6531,406.2704,767.7449,406.6169,777.8367,406.7023,787.9286,406.7105,798.0204,406.2859,808.1122,406.4948,818.2041,406.7335,828.2959,405.3101,838.3878,406.7098,848.4796,405.7347,858.5714,406.5651,868.6633,405.5362,878.7551,405.9628,888.8469,406.7729,898.9388,405.9825,909.0306,406.1366,919.1224,406.3699,929.2143,406.4475,939.3061,406.0273,949.398,406.3185,959.4898,405.4588,969.5816,406.3156,979.6735,406.5794,989.7653,406.4758,999.8571,406.6443,1009.949,405.5482,1020.0408,405.3791,1030.1327,405.4098,1040.2245,405.9724,1050.3163,405.8347,1060.4082,406.7127,1070.5,406.0313,1070.3253,406.0313,1070.1569,415.8691,1070.7283,425.707,1069.8332,435.5449,1069.9809,445.3828,1071.149,455.2207,1070.9357,465.0586,1071.2345,474.8965,1070.5,484.7344,1070.5,484.4126,1060.4082,485.0536,1050.3163,485.3248,1040.2245,484.262,1030.1327,484.6385,1020.0408,484.8604,1009.949,485.3861,999.8571,484.7302,989.7653,485.1969,979.6735,484.1806,969.5816,484.0571,959.4898,485.238,949.398,484.0174,939.3061,485.2433,929.2143,484.941,919.1224,484.4665,909.0306,484.3806,898.9388,485.1931,888.8469,484.435,878.7551,485.3262,868.6633,484.1816,858.5714,485.3518,848.4796,485.2187,838.3878,484.9793,828.2959,484.7816,818.2041,485.461,808.1122,485.348,798.0204,484.9036,787.9286,485.0026,777.8367,484.6041,767.7449,485.4508,757.6531,484.8892,747.5612,484.9069,737.4694,484.126,727.3776,484.3292,717.2857,485.2651,707.1939,485.1641,697.102,484.6914,687.0102,484.4122,676.9184,484.5154,666.8265,484.0482,656.7347,485.1491,646.6429,485.4739,636.551,485.2608,626.4592,485.4293,616.3673,484.5976,606.2755,484.8216,596.1837,484.3468,586.0918,485.0184,576,484.7344,576.2468,484.7344,576.5524,474.8965,575.7703,465.0586,575.8656,455.2207,576.4435,445.3828,576.5673,435.5449,575.4875,425.707,575.8061,415.8691,576,406.0313" style="stroke:#000000;stroke-width:2.0;"/><text fill="#000000" font-family="FG Virgil" font-size="13" font-weight="bold" lengthAdjust="spacing" textLength="28" x="591" y="420.5264">loop</text><text fill="#000000" font-family="FG Virgil" font-size="11" font-weight="bold" lengthAdjust="spacing" textLength="177" x="664" y="419.4502">[while itemsToDelete.hasNext()]</text><polygon fill="#383838" points="993.5,442.7344,993.526,442.7994,995.4487,443.4061,997.5239,444.3942,999.5495,445.2581,1001.4117,445.7136,1003.5,446.7344,1003.4904,446.7103,1001.4472,447.4024,999.4525,448.2157,997.4916,449.1133,995.4144,449.7204,993.5,450.7344,993.6305,450.8649,994.1514,449.7858,995.0534,449.0878,996.0018,448.4362,996.6798,447.5142,997.5,446.7344,997.5161,446.7505,996.6925,445.9268,995.9421,445.1765,995.1564,444.3907,994.438,443.6724,993.5,442.7344" style="stroke:#383838;stroke-width:1.0;"/><path d="M634.5,446.7344 L634.5,447.0146 L644.3649,446.1819 L654.2297,446.9921 L664.0946,447.2673 L673.9595,445.7832 L683.8243,446.6308 L693.6892,446.1657 L703.5541,446.223 L713.4189,446.6435 L723.2838,445.8125 L733.1486,447.4726 L743.0135,445.894 L752.8784,446.4707 L762.7432,447.3103 L772.6081,446.62 L782.473,446.8254 L792.3378,446.6918 L802.2027,446.9724 L812.0676,447.0532 L821.9324,447.5153 L831.7973,447.6291 L841.6622,447.6401 L851.527,447.0739 L861.3919,447.3525 L871.2568,447.6707 L881.1216,445.7728 L890.9865,447.6391 L900.8514,446.339 L910.7162,447.4461 L920.5811,446.0743 L930.4459,446.643 L940.3108,447.7232 L950.1757,446.6694 L960.0405,446.8748 L969.9054,447.1859 L979.7703,447.2894 L989.6351,446.7292 L999.5,446.7344 " fill="none" style="stroke:#383838;stroke-width:1.0;"/><text fill="#000000" font-family="FG Virgil" font-size="13" lengthAdjust="spacing" textLength="68" x="641.5" y="441.8779">delete(item)</text><polygon fill="#383838" points="33.5,510.0859,33.526,510.151,31.4487,510.7577,29.5239,511.7458,27.5495,512.6096,25.4117,513.0651,23.5,514.0859,23.4904,514.0619,25.4472,514.7539,27.4525,515.5672,29.4916,516.4648,31.4144,517.072,33.5,518.0859,33.6305,518.2164,32.5514,517.1374,31.8534,516.4393,31.2018,515.7877,30.2798,514.8657,29.5,514.0859,29.5161,514.102,30.2925,513.2784,31.1421,512.528,31.9564,511.7423,32.838,511.024,33.5,510.0859" style="stroke:#383838;stroke-width:1.0;"/><path d="M27.5,514.0859 L27.5,514.3662 L37.3333,513.5335 L47.1667,514.3437 L57,514.6188 L66.8333,513.1347 L76.6667,513.9823 L86.5,513.5173 L96.3333,513.5746 L106.1667,513.9951 L116,513.1641 L125.8333,514.8241 L135.6667,513.2456 L145.5,513.8222 L155.3333,514.6619 L165.1667,513.9716 L175,514.1769 L184.8333,514.0433 L194.6667,514.324 L204.5,514.0859 " fill="none" style="stroke:#383838;stroke-width:1.0;stroke-dasharray:2.0,2.0;"/><text fill="#000000" font-family="FG Virgil" font-size="13" lengthAdjust="spacing" textLength="149" x="39.5" y="509.2295">Fruit is removed from Cart</text><!--MD5=[e4bf8f1c157103d4344eaf9162c38650]
@startuml
skinparam handwritten true
skinparam monochrome true
skinparam packageStyle rect
skinparam defaultFontName FG Virgil
skinparam shadowing false

actor User as Actor
participant "cart.jsp" as UI <<presentation>>
control CartController as Controller <<application>>
participant ItemService as IS<<service>>
participant "item:Item" as Domain <<domain>>
database ItemRepository as IR <<repository>>


Actor - -> UI: Delete Cart
activate Actor
activate UI
         UI -> Controller: viewItems(Model model)
      activate Controller

       Controller -> IR: findUserCart(String username)
       activate IR
       deactivate IR
       deactivate Controller
    UI - -> Actor: Shows Cart
    Actor - -> UI: Presses delete button

   UI -> Controller: deleteAll(Long id)
 activate Controller

        Controller -> IS : deleteAllItemsByUser(String username)
        activate IS
        IS -> IR : Iterable<Item> itemsToDelete=findUserCart(String username)
        activate IR
        deactivate IR
        loop while itemsToDelete.hasNext()
       IS -> IR : delete(item)
       activate IR
       deactivate IR
       end loop
       deactivate IS
       deactivate Controller

 UI - -> Actor: Fruit is removed from Cart
deactivate UI
deactivate Actor
@enduml

PlantUML version 1.2021.11(Sat Oct 02 15:26:11 CEST 2021)
(GPL source distribution)
Java Runtime: OpenJDK Runtime Environment
JVM: OpenJDK 64-Bit Server VM
Default Encoding: Cp1252
Language: pt
Country: PT
--></g></svg>