<?xml version="1.0" encoding="UTF-8" standalone="no"?><svg xmlns="http://www.w3.org/2000/svg" xmlns:xlink="http://www.w3.org/1999/xlink" contentScriptType="application/ecmascript" contentStyleType="text/css" height="399px" preserveAspectRatio="none" style="width:203px;height:399px;background:#FFFFFF;" version="1.1" viewBox="0 0 203 399" width="203px" zoomAndPan="magnify"><defs/><g><!--MD5=[bd59dd36ede24b5b373052cddc78cee3]
class CartController--><polygon fill="#F8F8F8" points="30.5,7,30.5,7.2102,40.6429,6.5857,50.7857,7.1933,60.9286,7.3997,71.0714,6.2866,81.2143,6.9223,91.3571,6.5735,101.5,6.6165,111.6429,6.9318,121.7857,6.3086,131.9286,7.5536,142.0714,6.3697,152.2143,6.8022,162.3571,7.4319,172.5,7,172.4142,7,172.5682,16.7695,172.4681,26.5391,172.6785,36.3086,172.7391,46.0781,173.0857,55.8477,173.1711,65.6172,173.1793,75.3867,172.7546,85.1563,172.9636,94.9258,172.5,104.6953,172.5,105.3975,162.3571,103.9741,152.2143,105.3738,142.0714,104.3988,131.9286,105.2291,121.7857,104.2003,111.6429,104.6268,101.5,105.4369,91.3571,104.6466,81.2143,104.8006,71.0714,105.0339,60.9286,105.1115,50.7857,104.6914,40.6429,104.9825,30.5,104.6953,29.9276,104.6953,30.7844,94.9258,31.0482,85.1563,30.9445,75.3867,31.113,65.6172,30.0169,55.8477,29.8478,46.0781,29.8786,36.3086,30.4411,26.5391,30.3035,16.7695,30.5,7" style="stroke:#383838;stroke-width:1.5;"/><polygon fill="#C2C2C2" points="71.4108,29.7694,69.7984,31.9725,67.8912,35.1995,65.1636,37.3741,62.2974,38.5634,60.012,38.6666,57.0747,37.1793,54.3032,36.2077,52.1995,34.2349,51.0961,31.9765,50.4417,30.1783,49.8006,27.8295,48.76,25.8082,49.5596,23.8348,50.2602,21.673,52.8893,19.9632,54.739,17.7448,57.0284,17.0082,59.7501,16.3738,63.2404,16.7507,65.1521,17.6523,67.3747,18.0609,70.0772,20.8297,71.0193,23.7527,71.4286,25.7471,70.965,29.0336" style="stroke:#383838;stroke-width:1.0;"/><path d="M62.35,23.5938 Q62.5531,23.0938 62.7875,22.8438 Q63.0219,22.5938 63.2875,22.5938 Q63.7563,22.5938 64.0531,22.875 Q64.35,23.1563 64.35,23.8125 L64.35,25.375 Q64.35,26.0313 64.0688,26.3125 Q63.7875,26.5938 63.35,26.5938 Q62.9594,26.5938 62.7094,26.4219 Q62.4594,26.25 62.35,25.7969 Q62.3031,25.4844 62.1313,25.3125 Q61.8188,24.9844 61.2563,24.7969 Q60.6938,24.5938 60.1313,24.5938 Q59.4281,24.5938 58.8344,24.875 Q58.2563,25.1563 57.8031,25.7813 Q57.35,26.4063 57.35,27.2656 L57.35,28.1875 Q57.35,29.2188 58.1938,29.9063 Q59.0375,30.5938 60.5375,30.5938 Q61.4281,30.5938 62.0531,30.3906 Q62.4125,30.2813 62.8188,29.9219 Q63.0844,29.7188 63.225,29.6563 Q63.3656,29.5938 63.5375,29.5938 Q63.8656,29.5938 64.1,29.8594 Q64.35,30.1094 64.35,30.4688 Q64.35,30.8125 64.0063,31.2188 Q63.5063,31.8125 62.7094,32.1406 Q61.6625,32.5938 60.3813,32.5938 Q58.8813,32.5938 57.6781,32 Q56.7094,31.5313 56.0219,30.5156 Q55.35,29.5 55.35,28.2969 L55.35,27.2031 Q55.35,25.9531 55.9438,24.8594 Q56.5531,23.7656 57.6,23.1875 Q58.6625,22.5938 59.85,22.5938 Q60.5688,22.5938 61.1938,22.8438 Q61.8188,23.0938 62.35,23.5938 Z " fill="#000000"/><text fill="#000000" font-family="FG Virgil" font-size="12" font-style="italic" lengthAdjust="spacing" textLength="74" x="79.15" y="24.457">«application»</text><text fill="#000000" font-family="FG Virgil" font-size="12" lengthAdjust="spacing" textLength="77" x="77.65" y="39.5508">CartController</text><path d="M31.5,47.1875 L31.5,47.4677 L41.5,46.6351 L51.5,47.4452 L61.5,47.7204 L71.5,46.2363 L81.5,47.0839 L91.5,46.6188 L101.5,46.6762 L111.5,47.0966 L121.5,46.2657 L131.5,47.9257 L141.5,46.3471 L151.5,46.9238 L161.5,47.7634 L171.5,47.1875 " fill="#F8F8F8" style="stroke:#383838;stroke-width:1.5;"/><path d="M31.5,55.1875 L31.5,55.4677 L41.5,54.6351 L51.5,55.4452 L61.5,55.7204 L71.5,54.2363 L81.5,55.0839 L91.5,54.6188 L101.5,54.6762 L111.5,55.0966 L121.5,54.2657 L131.5,55.9257 L141.5,54.3471 L151.5,54.9238 L161.5,55.7634 L171.5,55.1875 " fill="#F8F8F8" style="stroke:#383838;stroke-width:1.5;"/><polygon fill="#A6A6A6" points="44.5166,66.9172,44.0768,67.5181,43.5567,68.3981,42.8128,68.9912,42.0311,69.3156,41.4078,69.3437,40.6067,68.9381,39.8509,68.6731,39.2771,68.1351,38.9762,67.5192,38.7977,67.0287,38.6229,66.3881,38.3391,65.8369,38.5572,65.2987,38.7482,64.7091,39.4653,64.2428,39.9697,63.6378,40.5941,63.4369,41.3364,63.2639,42.2883,63.3667,42.8097,63.6126,43.4158,63.724,44.1529,64.4791,44.4098,65.2763,44.5214,65.8202,44.395,66.7166" style="stroke:#545454;stroke-width:1.0;"/><text fill="#000000" font-family="FG Virgil" font-size="11" lengthAdjust="spacing" textLength="116" x="50.5" y="70.6064">viewItems(Model model)</text><polygon fill="#A6A6A6" points="44.5166,80.7532,44.0768,81.354,43.5567,82.2341,42.8128,82.8272,42.0311,83.1515,41.4078,83.1797,40.6067,82.774,39.8509,82.5091,39.2771,81.971,38.9762,81.3551,38.7977,80.8647,38.6229,80.2241,38.3391,79.6728,38.5572,79.1346,38.7482,78.545,39.4653,78.0787,39.9697,77.4737,40.5941,77.2728,41.3364,77.0998,42.2883,77.2026,42.8097,77.4485,43.4158,77.5599,44.1529,78.3151,44.4098,79.1122,44.5214,79.6562,44.395,80.5525" style="stroke:#545454;stroke-width:1.0;"/><text fill="#000000" font-family="FG Virgil" font-size="11" lengthAdjust="spacing" textLength="91" x="50.5" y="84.4424">deleteItem(Long id)</text><polygon fill="#A6A6A6" points="44.5166,94.5891,44.0768,95.19,43.5567,96.07,42.8128,96.6631,42.0311,96.9875,41.4078,97.0156,40.6067,96.61,39.8509,96.345,39.2771,95.807,38.9762,95.191,38.7977,94.7006,38.6229,94.06,38.3391,93.5088,38.5572,92.9706,38.7482,92.381,39.4653,91.9147,39.9697,91.3097,40.5941,91.1088,41.3364,90.9358,42.2883,91.0385,42.8097,91.2844,43.4158,91.3959,44.1529,92.151,44.4098,92.9482,44.5214,93.4921,44.395,94.3884" style="stroke:#545454;stroke-width:1.0;"/><text fill="#000000" font-family="FG Virgil" font-size="11" lengthAdjust="spacing" textLength="74" x="50.5" y="98.2783">deleteAllItems()</text><!--MD5=[5ee510b617988fb328de72a9e1ecfcf9]
class ItemService--><polygon fill="#F8F8F8" points="7,165,7,165.2102,16.9474,164.5857,26.8947,165.1933,36.8421,165.3997,46.7895,164.2866,56.7368,164.9223,66.6842,164.5735,76.6316,164.6165,86.5789,164.9318,96.5263,164.3086,106.4737,165.5536,116.4211,164.3697,126.3684,164.8022,136.3158,165.4319,146.2632,164.9142,156.2105,165.0682,166.1579,164.9681,176.1053,165.1785,186.0526,165.2391,196,165,196.5857,165,196.6711,175.4824,196.6793,185.9648,196.2546,196.4473,196.4636,206.9297,196.7022,217.4121,195.2788,227.8945,196.6785,238.377,196,248.8594,196,248.5629,186.0526,249.3932,176.1053,248.3644,166.1579,248.7909,156.2105,249.601,146.2632,248.8106,136.3158,248.9647,126.3684,249.198,116.4211,249.2756,106.4737,248.8555,96.5263,249.1466,86.5789,248.287,76.6316,249.1438,66.6842,249.4076,56.7368,249.3039,46.7895,249.4724,36.8421,248.3763,26.8947,248.2072,16.9474,248.238,7,248.8594,6.9411,248.8594,6.8035,238.377,7.6814,227.8945,6.8253,217.4121,6.6569,206.9297,7.2283,196.4473,6.3332,185.9648,6.4809,175.4824,7,165" style="stroke:#383838;stroke-width:1.5;"/><polygon fill="#C2C2C2" points="76.3108,187.7694,74.6984,189.9725,72.7912,193.1995,70.0636,195.3741,67.1974,196.5634,64.912,196.6666,61.9747,195.1793,59.2032,194.2077,57.0995,192.2349,55.9961,189.9765,55.3417,188.1783,54.7006,185.8295,53.66,183.8082,54.4596,181.8348,55.1602,179.673,57.7893,177.9632,59.639,175.7448,61.9284,175.0082,64.6501,174.3738,68.1404,174.7507,70.0521,175.6523,72.2747,176.0609,74.9772,178.8297,75.9193,181.7527,76.3286,183.7471,75.865,187.0336" style="stroke:#383838;stroke-width:1.0;"/><path d="M67.25,181.5938 Q67.4531,181.0938 67.6875,180.8438 Q67.9219,180.5938 68.1875,180.5938 Q68.6563,180.5938 68.9531,180.875 Q69.25,181.1563 69.25,181.8125 L69.25,183.375 Q69.25,184.0313 68.9688,184.3125 Q68.6875,184.5938 68.25,184.5938 Q67.8594,184.5938 67.6094,184.4219 Q67.3594,184.25 67.25,183.7969 Q67.2031,183.4844 67.0313,183.3125 Q66.7188,182.9844 66.1563,182.7969 Q65.5938,182.5938 65.0313,182.5938 Q64.3281,182.5938 63.7344,182.875 Q63.1563,183.1563 62.7031,183.7813 Q62.25,184.4063 62.25,185.2656 L62.25,186.1875 Q62.25,187.2188 63.0938,187.9063 Q63.9375,188.5938 65.4375,188.5938 Q66.3281,188.5938 66.9531,188.3906 Q67.3125,188.2813 67.7188,187.9219 Q67.9844,187.7188 68.125,187.6563 Q68.2656,187.5938 68.4375,187.5938 Q68.7656,187.5938 69,187.8594 Q69.25,188.1094 69.25,188.4688 Q69.25,188.8125 68.9063,189.2188 Q68.4063,189.8125 67.6094,190.1406 Q66.5625,190.5938 65.2813,190.5938 Q63.7813,190.5938 62.5781,190 Q61.6094,189.5313 60.9219,188.5156 Q60.25,187.5 60.25,186.2969 L60.25,185.2031 Q60.25,183.9531 60.8438,182.8594 Q61.4531,181.7656 62.5,181.1875 Q63.5625,180.5938 64.75,180.5938 Q65.4688,180.5938 66.0938,180.8438 Q66.7188,181.0938 67.25,181.5938 Z " fill="#000000"/><text fill="#000000" font-family="FG Virgil" font-size="12" font-style="italic" lengthAdjust="spacing" textLength="53" x="91.25" y="182.457">«service»</text><text fill="#000000" font-family="FG Virgil" font-size="12" lengthAdjust="spacing" textLength="64" x="85.75" y="197.5508">ItemService</text><path d="M8,205.1875 L8,205.4677 L17.8421,204.6351 L27.6842,205.4452 L37.5263,205.7204 L47.3684,204.2363 L57.2105,205.0839 L67.0526,204.6188 L76.8947,204.6762 L86.7368,205.0966 L96.5789,204.2657 L106.4211,205.9257 L116.2632,204.3471 L126.1053,204.9238 L135.9474,205.7634 L145.7895,205.0731 L155.6316,205.2785 L165.4737,205.1449 L175.3158,205.4255 L185.1579,205.5063 L195,205.1875 " fill="#F8F8F8" style="stroke:#383838;stroke-width:1.5;"/><path d="M8,213.1875 L8,213.4677 L17.8421,212.6351 L27.6842,213.4452 L37.5263,213.7204 L47.3684,212.2363 L57.2105,213.0839 L67.0526,212.6188 L76.8947,212.6762 L86.7368,213.0966 L96.5789,212.2657 L106.4211,213.9257 L116.2632,212.3471 L126.1053,212.9238 L135.9474,213.7634 L145.7895,213.0731 L155.6316,213.2785 L165.4737,213.1449 L175.3158,213.4255 L185.1579,213.5063 L195,213.1875 " fill="#F8F8F8" style="stroke:#383838;stroke-width:1.5;"/><polygon fill="#A6A6A6" points="21.0166,224.9172,20.5768,225.5181,20.0567,226.3981,19.3128,226.9912,18.5311,227.3156,17.9078,227.3437,17.1067,226.9381,16.3509,226.6731,15.7771,226.1351,15.4762,225.5192,15.2977,225.0287,15.1229,224.3881,14.8391,223.8369,15.0572,223.2987,15.2482,222.7091,15.9653,222.2428,16.4697,221.6378,17.0941,221.4369,17.8364,221.2639,18.7883,221.3667,19.3097,221.6126,19.9158,221.724,20.6529,222.4791,20.9098,223.2763,21.0214,223.8202,20.895,224.7166" style="stroke:#545454;stroke-width:1.0;"/><text fill="#000000" font-family="FG Virgil" font-size="11" lengthAdjust="spacing" textLength="163" x="27" y="228.6064">deleteAllItemsByUser(String user)</text><polygon fill="#A6A6A6" points="21.0166,238.7532,20.5768,239.354,20.0567,240.2341,19.3128,240.8272,18.5311,241.1515,17.9078,241.1797,17.1067,240.774,16.3509,240.5091,15.7771,239.971,15.4762,239.3551,15.2977,238.8647,15.1229,238.2241,14.8391,237.6728,15.0572,237.1346,15.2482,236.545,15.9653,236.0787,16.4697,235.4737,17.0941,235.2728,17.8364,235.0998,18.7883,235.2026,19.3097,235.4485,19.9158,235.5599,20.6529,236.3151,20.9098,237.1122,21.0214,237.6562,20.895,238.5525" style="stroke:#545454;stroke-width:1.0;"/><text fill="#000000" font-family="FG Virgil" font-size="11" lengthAdjust="spacing" textLength="112" x="27" y="242.4424">deleteItemById(Long id)</text><!--MD5=[ce1398305a9b40be4cd6d90fd229e3b0]
class ItemRepository--><polygon fill="#F8F8F8" points="27.5,309,27.5,309.2102,37.3667,308.5857,47.2333,309.1933,57.1,309.3997,66.9667,308.2866,76.8333,308.9223,86.7,308.5735,96.5667,308.6165,106.4333,308.9318,116.3,308.3086,126.1667,309.5536,136.0333,308.3697,145.9,308.8022,155.7667,309.4319,165.6333,308.9142,175.5,309,175.5682,309,175.4681,319.4824,175.6785,329.9648,175.7391,340.4473,176.0857,350.9297,176.1711,361.4121,176.1793,371.8945,175.7546,382.377,175.5,392.8594,175.5,393.323,165.6333,393.5616,155.7667,392.1382,145.9,393.5379,136.0333,392.5629,126.1667,393.3932,116.3,392.3644,106.4333,392.7909,96.5667,393.601,86.7,392.8106,76.8333,392.9647,66.9667,393.198,57.1,393.2756,47.2333,392.8555,37.3667,393.1466,27.5,392.8594,26.9276,392.8594,27.7844,382.377,28.0482,371.8945,27.9445,361.4121,28.113,350.9297,27.0169,340.4473,26.8478,329.9648,26.8786,319.4824,27.5,309" style="stroke:#383838;stroke-width:1.5;"/><polygon fill="#B1B1B1" points="67.9608,331.7694,66.3484,333.9725,64.4412,337.1995,61.7136,339.3741,58.8474,340.5634,56.562,340.6666,53.6247,339.1793,50.8532,338.2077,48.7495,336.2349,47.6461,333.9765,46.9917,332.1783,46.3506,329.8295,45.31,327.8082,46.1096,325.8348,46.8102,323.673,49.4393,321.9632,51.289,319.7448,53.5784,319.0082,56.3001,318.3738,59.7904,318.7507,61.7021,319.6523,63.9247,320.0609,66.6272,322.8297,67.5693,325.7527,67.9786,327.7471,67.515,331.0336" style="stroke:#383838;stroke-width:1.0;"/><path d="M57.9,326.0938 L57.9,332.0938 L59.9,332.0938 L60.3844,332.0938 L60.9,332.7188 L60.9,333.0938 L60.9,333.4688 L60.3844,334.0938 L59.9,334.0938 L53.9,334.0938 L53.4156,334.0938 L52.9,333.4688 L52.9,333.0938 L52.9,332.7188 L53.4156,332.0938 L53.9,332.0938 L55.9,332.0938 L55.9,326.0938 L53.9,326.0938 L53.4156,326.0938 L52.9,325.4688 L52.9,325.0938 L52.9,324.7188 L53.4156,324.0938 L53.9,324.0938 L59.9,324.0938 L60.3844,324.0938 L60.9,324.7188 L60.9,325.0938 L60.9,325.4688 L60.3844,326.0938 L59.9,326.0938 L57.9,326.0938 Z " fill="#000000"/><text fill="#000000" font-family="FG Virgil" font-size="12" font-style="italic" lengthAdjust="spacing" textLength="68" x="82.1" y="326.457">«repository»</text><text fill="#000000" font-family="FG Virgil" font-size="12" font-style="italic" lengthAdjust="spacing" textLength="84" x="74.1" y="341.5508">ItemRepository</text><path d="M28.5,349.1875 L28.5,349.4677 L38.2333,348.6351 L47.9667,349.4452 L57.7,349.7204 L67.4333,348.2363 L77.1667,349.0839 L86.9,348.6188 L96.6333,348.6762 L106.3667,349.0966 L116.1,348.2657 L125.8333,349.9257 L135.5667,348.3471 L145.3,348.9238 L155.0333,349.7634 L164.7667,349.0731 L174.5,349.1875 " fill="#F8F8F8" style="stroke:#383838;stroke-width:1.5;"/><path d="M28.5,357.1875 L28.5,357.4677 L38.2333,356.6351 L47.9667,357.4452 L57.7,357.7204 L67.4333,356.2363 L77.1667,357.0839 L86.9,356.6188 L96.6333,356.6762 L106.3667,357.0966 L116.1,356.2657 L125.8333,357.9257 L135.5667,356.3471 L145.3,356.9238 L155.0333,357.7634 L164.7667,357.0731 L174.5,357.1875 " fill="#F8F8F8" style="stroke:#383838;stroke-width:1.5;"/><polygon fill="#A6A6A6" points="41.5166,368.9172,41.0768,369.5181,40.5567,370.3981,39.8128,370.9912,39.0311,371.3156,38.4078,371.3437,37.6067,370.9381,36.8509,370.6731,36.2771,370.1351,35.9762,369.5192,35.7977,369.0287,35.6229,368.3881,35.3391,367.8369,35.5572,367.2987,35.7482,366.7091,36.4653,366.2428,36.9697,365.6378,37.5941,365.4369,38.3364,365.2639,39.2883,365.3667,39.8097,365.6126,40.4158,365.724,41.1529,366.4791,41.4098,367.2763,41.5214,367.8202,41.395,368.7166" style="stroke:#545454;stroke-width:1.0;"/><text fill="#000000" font-family="FG Virgil" font-size="11" lengthAdjust="spacing" textLength="122" x="47.5" y="372.6064">findUserCart(String user)</text><polygon fill="#A6A6A6" points="41.5166,382.7532,41.0768,383.354,40.5567,384.2341,39.8128,384.8272,39.0311,385.1515,38.4078,385.1797,37.6067,384.774,36.8509,384.5091,36.2771,383.971,35.9762,383.3551,35.7977,382.8647,35.6229,382.2241,35.3391,381.6728,35.5572,381.1346,35.7482,380.545,36.4653,380.0787,36.9697,379.4737,37.5941,379.2728,38.3364,379.0998,39.2883,379.2026,39.8097,379.4485,40.4158,379.5599,41.1529,380.3151,41.4098,381.1122,41.5214,381.6562,41.395,382.5525" style="stroke:#545454;stroke-width:1.0;"/><text fill="#000000" font-family="FG Virgil" font-size="11" lengthAdjust="spacing" textLength="82" x="47.5" y="386.4424">findById(Long id)</text><!--MD5=[e845d8c22b744917614d5cf86f932b43]
link CartController to ItemService--><path d="M101.5,105.38 L101.7802,105.38 L100.9476,116.222 L101.7577,127.064 L102.0329,137.906 L100.5488,148.748 L101.5,159.59 " fill="none" style="stroke:#383838;stroke-width:1.0;"/><polygon fill="#383838" points="101.5,164.86,101.564,164.8885,102.1738,163.0039,103.1589,161.2862,104.0217,159.5141,104.4827,157.5634,105.5,155.86,105.4817,155.8417,104.5995,156.5595,103.8096,157.3696,103.0839,158.2439,102.137,158.897,101.5,159.86,101.6305,159.9905,100.5514,158.9114,99.8534,158.2134,99.2018,157.5618,98.2798,156.6398,97.5,155.86,97.5208,155.8692,98.2903,157.6557,99.1544,159.4842,99.9728,161.2924,100.8784,163.1393,101.5,164.86" style="stroke:#383838;stroke-width:1.0;"/><!--MD5=[7e4438329ece6063ad1b900a89a2875b]
link ItemService to ItemRepository--><path d="M101.5,249.07 L101.7802,249.07 L100.9476,259.892 L101.7577,270.714 L102.0329,281.536 L100.5488,292.358 L101.5,303.18 " fill="none" style="stroke:#383838;stroke-width:1.0;"/><polygon fill="#383838" points="101.5,308.53,101.564,308.5585,102.1738,306.6739,103.1589,304.9562,104.0217,303.1841,104.4827,301.2334,105.5,299.53,105.4817,299.5117,104.5995,300.2295,103.8096,301.0396,103.0839,301.9139,102.137,302.567,101.5,303.53,101.6305,303.6605,100.5514,302.5814,99.8534,301.8834,99.2018,301.2318,98.2798,300.3098,97.5,299.53,97.5208,299.5392,98.2903,301.3257,99.1544,303.1542,99.9728,304.9624,100.8784,306.8093,101.5,308.53" style="stroke:#383838;stroke-width:1.0;"/><!--MD5=[0b513236d960c557a69d94b0d34c75b0]
@startuml
skinparam handwritten true
skinparam monochrome true
skinparam packageStyle rect
skinparam defaultFontName FG Virgil
skinparam shadowing false


class  CartController <<application>>{
+viewItems(Model model)
+deleteItem(Long id)
+deleteAllItems()
}


class ItemService<<service>>{
+deleteAllItemsByUser(String user)
+deleteItemById(Long id)

}

interface ItemRepository<<repository>>{
+findUserCart(String user)
+findById(Long id)
}





CartController - -> ItemService


ItemService - -> ItemRepository




@enduml

PlantUML version 1.2021.11(Sat Oct 02 15:26:11 CEST 2021)
(GPL source distribution)
Java Runtime: OpenJDK Runtime Environment
JVM: OpenJDK 64-Bit Server VM
Default Encoding: Cp1252
Language: pt
Country: PT
--></g></svg>