<?xml version="1.0" encoding="UTF-8" standalone="no"?><svg xmlns="http://www.w3.org/2000/svg" xmlns:xlink="http://www.w3.org/1999/xlink" contentScriptType="application/ecmascript" contentStyleType="text/css" height="243px" preserveAspectRatio="none" style="width:804px;height:243px;background:#FFFFFF;" version="1.1" viewBox="0 0 804 243" width="804px" zoomAndPan="magnify"><defs><filter height="300%" id="fricdx8ftn7ev" width="300%" x="-1" y="-1"><feGaussianBlur result="blurOut" stdDeviation="2.0"/><feColorMatrix in="blurOut" result="blurOut2" type="matrix" values="0 0 0 0 0 0 0 0 0 0 0 0 0 0 0 0 0 0 .4 0"/><feOffset dx="4.0" dy="4.0" in="blurOut2" result="blurOut3"/><feBlend in="SourceGraphic" in2="blurOut3" mode="normal"/></filter></defs><g><!--MD5=[385b8a2fd003af01fa07704922124a5e]
class Fruit--><rect codeLine="3" fill="#FEFECE" filter="url(#fricdx8ftn7ev)" height="222.2188" id="Fruit" style="stroke:#A80036;stroke-width:1.5;" width="227" x="345" y="7"/><ellipse cx="434.75" cy="27.0938" fill="#ADD1B2" rx="11" ry="11" style="stroke:#A80036;stroke-width:1.0;"/><path d="M436.75,23.5938 Q436.9531,23.0938 437.1875,22.8438 Q437.4219,22.5938 437.6875,22.5938 Q438.1563,22.5938 438.4531,22.875 Q438.75,23.1563 438.75,23.8125 L438.75,25.375 Q438.75,26.0313 438.4688,26.3125 Q438.1875,26.5938 437.75,26.5938 Q437.3594,26.5938 437.1094,26.4219 Q436.8594,26.25 436.75,25.7969 Q436.7031,25.4844 436.5313,25.3125 Q436.2188,24.9844 435.6563,24.7969 Q435.0938,24.5938 434.5313,24.5938 Q433.8281,24.5938 433.2344,24.875 Q432.6563,25.1563 432.2031,25.7813 Q431.75,26.4063 431.75,27.2656 L431.75,28.1875 Q431.75,29.2188 432.5938,29.9063 Q433.4375,30.5938 434.9375,30.5938 Q435.8281,30.5938 436.4531,30.3906 Q436.8125,30.2813 437.2188,29.9219 Q437.4844,29.7188 437.625,29.6563 Q437.7656,29.5938 437.9375,29.5938 Q438.2656,29.5938 438.5,29.8594 Q438.75,30.1094 438.75,30.4688 Q438.75,30.8125 438.4063,31.2188 Q437.9063,31.8125 437.1094,32.1406 Q436.0625,32.5938 434.7813,32.5938 Q433.2813,32.5938 432.0781,32 Q431.1094,31.5313 430.4219,30.5156 Q429.75,29.5 429.75,28.2969 L429.75,27.2031 Q429.75,25.9531 430.3438,24.8594 Q430.9531,23.7656 432,23.1875 Q433.0625,22.5938 434.25,22.5938 Q434.9688,22.5938 435.5938,22.8438 Q436.2188,23.0938 436.75,23.5938 Z " fill="#000000"/><text fill="#000000" font-family="sans-serif" font-size="12" font-style="italic" lengthAdjust="spacing" textLength="43" x="453.25" y="24.457">«entity»</text><text fill="#000000" font-family="sans-serif" font-size="12" lengthAdjust="spacing" textLength="24" x="462.75" y="39.5508">Fruit</text><line style="stroke:#A80036;stroke-width:1.5;" x1="346" x2="571" y1="47.1875" y2="47.1875"/><rect fill="none" height="6" style="stroke:#C82930;stroke-width:1.0;" width="6" x="353" y="55.1875"/><text fill="#000000" font-family="sans-serif" font-size="11" lengthAdjust="spacing" textLength="57" x="365" y="62.6064">String name</text><rect fill="none" height="6" style="stroke:#C82930;stroke-width:1.0;" width="6" x="353" y="69.0234"/><text fill="#000000" font-family="sans-serif" font-size="11" lengthAdjust="spacing" textLength="48" x="365" y="76.4424">float price</text><rect fill="none" height="6" style="stroke:#C82930;stroke-width:1.0;" width="6" x="353" y="82.8594"/><text fill="#000000" font-family="sans-serif" font-size="11" lengthAdjust="spacing" textLength="52" x="365" y="90.2783">int quantity</text><rect fill="none" height="6" style="stroke:#C82930;stroke-width:1.0;" width="6" x="353" y="96.6953"/><text fill="#000000" font-family="sans-serif" font-size="11" lengthAdjust="spacing" textLength="126" x="365" y="104.1143">Set&lt;Category&gt; categories</text><rect fill="none" height="6" style="stroke:#C82930;stroke-width:1.0;" width="6" x="353" y="110.5313"/><text fill="#000000" font-family="sans-serif" font-size="11" lengthAdjust="spacing" textLength="59" x="365" y="117.9502">String image</text><line style="stroke:#A80036;stroke-width:1.5;" x1="346" x2="571" y1="124.3672" y2="124.3672"/><ellipse cx="356" cy="135.3672" fill="#84BE84" rx="3" ry="3" style="stroke:#038048;stroke-width:1.0;"/><text fill="#000000" font-family="sans-serif" font-size="11" lengthAdjust="spacing" textLength="86" x="365" y="139.7861">Fruit(String name)</text><rect fill="#F24D5C" height="6" style="stroke:#C82930;stroke-width:1.0;" width="6" x="353" y="146.2031"/><text fill="#000000" font-family="sans-serif" font-size="11" lengthAdjust="spacing" textLength="29" x="365" y="153.6221">Fruit()</text><ellipse cx="356" cy="163.0391" fill="#84BE84" rx="3" ry="3" style="stroke:#038048;stroke-width:1.0;"/><text fill="#000000" font-family="sans-serif" font-size="11" lengthAdjust="spacing" textLength="123" x="365" y="167.458">addCategory(Category c)</text><ellipse cx="356" cy="176.875" fill="#84BE84" rx="3" ry="3" style="stroke:#038048;stroke-width:1.0;"/><text fill="#000000" font-family="sans-serif" font-size="11" lengthAdjust="spacing" textLength="134" x="365" y="181.2939">deleteCategory(Category c)</text><ellipse cx="356" cy="190.7109" fill="#84BE84" rx="3" ry="3" style="stroke:#038048;stroke-width:1.0;"/><text fill="#000000" font-family="sans-serif" font-size="11" lengthAdjust="spacing" textLength="84" x="365" y="195.1299">removeQuantity()</text><ellipse cx="356" cy="204.5469" fill="#84BE84" rx="3" ry="3" style="stroke:#038048;stroke-width:1.0;"/><text fill="#000000" font-family="sans-serif" font-size="11" lengthAdjust="spacing" textLength="89" x="365" y="208.9658">deleteCategories()</text><ellipse cx="356" cy="218.3828" fill="#84BE84" rx="3" ry="3" style="stroke:#038048;stroke-width:1.0;"/><text fill="#000000" font-family="sans-serif" font-size="11" lengthAdjust="spacing" textLength="201" x="365" y="222.8018">setCategories(Set&lt;Category&gt; categories)</text><!--MD5=[44a1b4afaef76c16e6c9ec4990ad0c8d]
class Item--><rect codeLine="17" fill="#FEFECE" filter="url(#fricdx8ftn7ev)" height="166.875" id="Item" style="stroke:#A80036;stroke-width:1.5;" width="239" x="7" y="34.5"/><ellipse cx="102.75" cy="54.5938" fill="#ADD1B2" rx="11" ry="11" style="stroke:#A80036;stroke-width:1.0;"/><path d="M104.75,51.0938 Q104.9531,50.5938 105.1875,50.3438 Q105.4219,50.0938 105.6875,50.0938 Q106.1563,50.0938 106.4531,50.375 Q106.75,50.6563 106.75,51.3125 L106.75,52.875 Q106.75,53.5313 106.4688,53.8125 Q106.1875,54.0938 105.75,54.0938 Q105.3594,54.0938 105.1094,53.9219 Q104.8594,53.75 104.75,53.2969 Q104.7031,52.9844 104.5313,52.8125 Q104.2188,52.4844 103.6563,52.2969 Q103.0938,52.0938 102.5313,52.0938 Q101.8281,52.0938 101.2344,52.375 Q100.6563,52.6563 100.2031,53.2813 Q99.75,53.9063 99.75,54.7656 L99.75,55.6875 Q99.75,56.7188 100.5938,57.4063 Q101.4375,58.0938 102.9375,58.0938 Q103.8281,58.0938 104.4531,57.8906 Q104.8125,57.7813 105.2188,57.4219 Q105.4844,57.2188 105.625,57.1563 Q105.7656,57.0938 105.9375,57.0938 Q106.2656,57.0938 106.5,57.3594 Q106.75,57.6094 106.75,57.9688 Q106.75,58.3125 106.4063,58.7188 Q105.9063,59.3125 105.1094,59.6406 Q104.0625,60.0938 102.7813,60.0938 Q101.2813,60.0938 100.0781,59.5 Q99.1094,59.0313 98.4219,58.0156 Q97.75,57 97.75,55.7969 L97.75,54.7031 Q97.75,53.4531 98.3438,52.3594 Q98.9531,51.2656 100,50.6875 Q101.0625,50.0938 102.25,50.0938 Q102.9688,50.0938 103.5938,50.3438 Q104.2188,50.5938 104.75,51.0938 Z " fill="#000000"/><text fill="#000000" font-family="sans-serif" font-size="12" font-style="italic" lengthAdjust="spacing" textLength="43" x="121.25" y="51.957">«entity»</text><text fill="#000000" font-family="sans-serif" font-size="12" lengthAdjust="spacing" textLength="24" x="130.75" y="67.0508">Item</text><line style="stroke:#A80036;stroke-width:1.5;" x1="8" x2="245" y1="74.6875" y2="74.6875"/><rect fill="none" height="6" style="stroke:#C82930;stroke-width:1.0;" width="6" x="15" y="82.6875"/><text fill="#000000" font-family="sans-serif" font-size="11" lengthAdjust="spacing" textLength="35" x="27" y="90.1064">Long id</text><rect fill="none" height="6" style="stroke:#C82930;stroke-width:1.0;" width="6" x="15" y="96.5234"/><text fill="#000000" font-family="sans-serif" font-size="11" lengthAdjust="spacing" textLength="79" x="27" y="103.9424">String username</text><rect fill="none" height="6" style="stroke:#C82930;stroke-width:1.0;" width="6" x="15" y="110.3594"/><text fill="#000000" font-family="sans-serif" font-size="11" lengthAdjust="spacing" textLength="43" x="27" y="117.7783">Fruit fruit</text><rect fill="none" height="6" style="stroke:#C82930;stroke-width:1.0;" width="6" x="15" y="124.1953"/><text fill="#000000" font-family="sans-serif" font-size="11" lengthAdjust="spacing" textLength="52" x="27" y="131.6143">int quantity</text><line style="stroke:#A80036;stroke-width:1.5;" x1="8" x2="245" y1="138.0313" y2="138.0313"/><ellipse cx="18" cy="149.0313" fill="#84BE84" rx="3" ry="3" style="stroke:#038048;stroke-width:1.0;"/><text fill="#000000" font-family="sans-serif" font-size="11" lengthAdjust="spacing" textLength="213" x="27" y="153.4502">Item(String username, Fruit fruit, int quantity)</text><rect fill="#F24D5C" height="6" style="stroke:#C82930;stroke-width:1.0;" width="6" x="15" y="159.8672"/><text fill="#000000" font-family="sans-serif" font-size="11" lengthAdjust="spacing" textLength="27" x="27" y="167.2861">Item()</text><ellipse cx="18" cy="176.7031" fill="#84BE84" rx="3" ry="3" style="stroke:#038048;stroke-width:1.0;"/><text fill="#000000" font-family="sans-serif" font-size="11" lengthAdjust="spacing" textLength="136" x="27" y="181.1221">addSeveralFruit(int quantity)</text><ellipse cx="18" cy="190.5391" fill="#84BE84" rx="3" ry="3" style="stroke:#038048;stroke-width:1.0;"/><text fill="#000000" font-family="sans-serif" font-size="11" lengthAdjust="spacing" textLength="80" x="27" y="194.958">addUniqueFruit()</text><!--MD5=[a96594a83e2ecdc78cbf17c2ddf01934]
class Category--><rect codeLine="28" fill="#FEFECE" filter="url(#fricdx8ftn7ev)" height="97.6953" id="Category" style="stroke:#A80036;stroke-width:1.5;" width="147" x="643" y="69"/><ellipse cx="687.75" cy="89.0938" fill="#ADD1B2" rx="11" ry="11" style="stroke:#A80036;stroke-width:1.0;"/><path d="M689.75,85.5938 Q689.9531,85.0938 690.1875,84.8438 Q690.4219,84.5938 690.6875,84.5938 Q691.1563,84.5938 691.4531,84.875 Q691.75,85.1563 691.75,85.8125 L691.75,87.375 Q691.75,88.0313 691.4688,88.3125 Q691.1875,88.5938 690.75,88.5938 Q690.3594,88.5938 690.1094,88.4219 Q689.8594,88.25 689.75,87.7969 Q689.7031,87.4844 689.5313,87.3125 Q689.2188,86.9844 688.6563,86.7969 Q688.0938,86.5938 687.5313,86.5938 Q686.8281,86.5938 686.2344,86.875 Q685.6563,87.1563 685.2031,87.7813 Q684.75,88.4063 684.75,89.2656 L684.75,90.1875 Q684.75,91.2188 685.5938,91.9063 Q686.4375,92.5938 687.9375,92.5938 Q688.8281,92.5938 689.4531,92.3906 Q689.8125,92.2813 690.2188,91.9219 Q690.4844,91.7188 690.625,91.6563 Q690.7656,91.5938 690.9375,91.5938 Q691.2656,91.5938 691.5,91.8594 Q691.75,92.1094 691.75,92.4688 Q691.75,92.8125 691.4063,93.2188 Q690.9063,93.8125 690.1094,94.1406 Q689.0625,94.5938 687.7813,94.5938 Q686.2813,94.5938 685.0781,94 Q684.1094,93.5313 683.4219,92.5156 Q682.75,91.5 682.75,90.2969 L682.75,89.2031 Q682.75,87.9531 683.3438,86.8594 Q683.9531,85.7656 685,85.1875 Q686.0625,84.5938 687.25,84.5938 Q687.9688,84.5938 688.5938,84.8438 Q689.2188,85.0938 689.75,85.5938 Z " fill="#000000"/><text fill="#000000" font-family="sans-serif" font-size="12" font-style="italic" lengthAdjust="spacing" textLength="43" x="711.25" y="86.457">«entity»</text><text fill="#000000" font-family="sans-serif" font-size="12" lengthAdjust="spacing" textLength="49" x="708.25" y="101.5508">Category</text><line style="stroke:#A80036;stroke-width:1.5;" x1="644" x2="789" y1="109.1875" y2="109.1875"/><rect fill="none" height="6" style="stroke:#C82930;stroke-width:1.0;" width="6" x="651" y="117.1875"/><text fill="#000000" font-family="sans-serif" font-size="11" lengthAdjust="spacing" textLength="56" x="663" y="124.6064">string name</text><line style="stroke:#A80036;stroke-width:1.5;" x1="644" x2="789" y1="131.0234" y2="131.0234"/><ellipse cx="654" cy="142.0234" fill="#84BE84" rx="3" ry="3" style="stroke:#038048;stroke-width:1.0;"/><text fill="#000000" font-family="sans-serif" font-size="11" lengthAdjust="spacing" textLength="52" x="663" y="146.4424">Category()</text><ellipse cx="654" cy="155.8594" fill="#84BE84" rx="3" ry="3" style="stroke:#038048;stroke-width:1.0;"/><text fill="#000000" font-family="sans-serif" font-size="11" lengthAdjust="spacing" textLength="121" x="663" y="160.2783">setFruits(Set&lt;Fruit fruits)</text><!--MD5=[011b2d83d36b9cf5ce1924a70aede988]
link Item to Fruit--><path codeLine="35" d="M246.36,118 C278.49,118 313.13,118 344.91,118 " fill="none" id="Item-Fruit" style="stroke:#A80036;stroke-width:1.0;"/><polygon fill="#000000" points="273.5,106.1758,264.4549,103.2369,264.4549,109.1147,273.5,106.1758" style="stroke:#000000;stroke-width:1.0;"/><text fill="#000000" font-family="sans-serif" font-size="13" lengthAdjust="spacing" textLength="49" x="277.5" y="111.4951">contains</text><text fill="#000000" font-family="sans-serif" font-size="13" lengthAdjust="spacing" textLength="5" x="253.8163" y="115.0221">*</text><text fill="#000000" font-family="sans-serif" font-size="13" lengthAdjust="spacing" textLength="7" x="330.043" y="114.9621">1</text><!--MD5=[d91363bbdc9ff146bf07b3f8581cf141]
link Fruit to Category--><path codeLine="36" d="M572.04,118 C595.97,118 620.62,118 642.63,118 " fill="none" id="Fruit-Category" style="stroke:#A80036;stroke-width:1.0;"/><polygon fill="#000000" points="599.5,106.1758,590.4549,103.2369,590.4549,109.1147,599.5,106.1758" style="stroke:#000000;stroke-width:1.0;"/><text fill="#000000" font-family="sans-serif" font-size="13" lengthAdjust="spacing" textLength="21" x="603.5" y="111.4951">has</text><text fill="#000000" font-family="sans-serif" font-size="13" lengthAdjust="spacing" textLength="5" x="579.8364" y="114.9621">*</text><text fill="#000000" font-family="sans-serif" font-size="13" lengthAdjust="spacing" textLength="5" x="630.1123" y="114.7399">*</text><!--MD5=[3bffc937724c4d217fc7c8f7e7aa515c]
@startuml
'https://plantuml.com/class-diagram

class Fruit <<entity>>{
-String name
-float price
-int quantity
-Set<Category> categories
-String image
+Fruit(String name)
-Fruit()
+addCategory(Category c)
+deleteCategory(Category c)
+removeQuantity()
+deleteCategories()
+setCategories(Set<Category> categories)
}
class Item <<entity>>{
-Long id
-String username
-Fruit fruit
-int quantity
+Item(String username, Fruit fruit, int quantity)
-Item()
+addSeveralFruit(int quantity)
+addUniqueFruit()

}
class Category <<entity>>{
-string name
+Category()
+setFruits(Set<Fruit fruits)
}


Item "*"- "1" Fruit : contains >
Fruit "*"- "*" Category : has >
@enduml

@startuml

class Fruit <<entity>>{
-String name
-float price
-int quantity
-Set<Category> categories
-String image
+Fruit(String name)
-Fruit()
+addCategory(Category c)
+deleteCategory(Category c)
+removeQuantity()
+deleteCategories()
+setCategories(Set<Category> categories)
}
class Item <<entity>>{
-Long id
-String username
-Fruit fruit
-int quantity
+Item(String username, Fruit fruit, int quantity)
-Item()
+addSeveralFruit(int quantity)
+addUniqueFruit()

}
class Category <<entity>>{
-string name
+Category()
+setFruits(Set<Fruit fruits)
}


Item "*"- "1" Fruit : contains >
Fruit "*"- "*" Category : has >
@enduml

PlantUML version 1.2021.11(Sat Oct 02 15:26:11 CEST 2021)
(GPL source distribution)
Java Runtime: OpenJDK Runtime Environment
JVM: OpenJDK 64-Bit Server VM
Default Encoding: Cp1252
Language: pt
Country: PT
--></g></svg>