<?xml version="1.0" encoding="UTF-8" standalone="no"?><svg xmlns="http://www.w3.org/2000/svg" xmlns:xlink="http://www.w3.org/1999/xlink" contentScriptType="application/ecmascript" contentStyleType="text/css" height="187px" preserveAspectRatio="none" style="width:663px;height:187px;background:#FFFFFF;" version="1.1" viewBox="0 0 663 187" width="663px" zoomAndPan="magnify"><defs><filter height="300%" id="f1lfnna6g2cyz2" width="300%" x="-1" y="-1"><feGaussianBlur result="blurOut" stdDeviation="2.0"/><feColorMatrix in="blurOut" result="blurOut2" type="matrix" values="0 0 0 0 0 0 0 0 0 0 0 0 0 0 0 0 0 0 .4 0"/><feOffset dx="4.0" dy="4.0" in="blurOut2" result="blurOut3"/><feBlend in="SourceGraphic" in2="blurOut3" mode="normal"/></filter></defs><g><!--MD5=[385b8a2fd003af01fa07704922124a5e]
class Fruit--><rect codeLine="3" fill="#FEFECE" filter="url(#f1lfnna6g2cyz2)" height="153.0391" id="Fruit" style="stroke:#A80036;stroke-width:1.5;" width="152" x="344.5" y="14"/><ellipse cx="396.75" cy="34.0938" fill="#ADD1B2" rx="11" ry="11" style="stroke:#A80036;stroke-width:1.0;"/><path d="M398.75,30.5938 Q398.9531,30.0938 399.1875,29.8438 Q399.4219,29.5938 399.6875,29.5938 Q400.1563,29.5938 400.4531,29.875 Q400.75,30.1563 400.75,30.8125 L400.75,32.375 Q400.75,33.0313 400.4688,33.3125 Q400.1875,33.5938 399.75,33.5938 Q399.3594,33.5938 399.1094,33.4219 Q398.8594,33.25 398.75,32.7969 Q398.7031,32.4844 398.5313,32.3125 Q398.2188,31.9844 397.6563,31.7969 Q397.0938,31.5938 396.5313,31.5938 Q395.8281,31.5938 395.2344,31.875 Q394.6563,32.1563 394.2031,32.7813 Q393.75,33.4063 393.75,34.2656 L393.75,35.1875 Q393.75,36.2188 394.5938,36.9063 Q395.4375,37.5938 396.9375,37.5938 Q397.8281,37.5938 398.4531,37.3906 Q398.8125,37.2813 399.2188,36.9219 Q399.4844,36.7188 399.625,36.6563 Q399.7656,36.5938 399.9375,36.5938 Q400.2656,36.5938 400.5,36.8594 Q400.75,37.1094 400.75,37.4688 Q400.75,37.8125 400.4063,38.2188 Q399.9063,38.8125 399.1094,39.1406 Q398.0625,39.5938 396.7813,39.5938 Q395.2813,39.5938 394.0781,39 Q393.1094,38.5313 392.4219,37.5156 Q391.75,36.5 391.75,35.2969 L391.75,34.2031 Q391.75,32.9531 392.3438,31.8594 Q392.9531,30.7656 394,30.1875 Q395.0625,29.5938 396.25,29.5938 Q396.9688,29.5938 397.5938,29.8438 Q398.2188,30.0938 398.75,30.5938 Z " fill="#000000"/><text fill="#000000" font-family="sans-serif" font-size="12" font-style="italic" lengthAdjust="spacing" textLength="43" x="415.25" y="31.457">«entity»</text><text fill="#000000" font-family="sans-serif" font-size="12" lengthAdjust="spacing" textLength="24" x="424.75" y="46.5508">Fruit</text><line style="stroke:#A80036;stroke-width:1.5;" x1="345.5" x2="495.5" y1="54.1875" y2="54.1875"/><rect fill="none" height="6" style="stroke:#C82930;stroke-width:1.0;" width="6" x="352.5" y="62.1875"/><text fill="#000000" font-family="sans-serif" font-size="11" lengthAdjust="spacing" textLength="57" x="364.5" y="69.6064">String name</text><rect fill="none" height="6" style="stroke:#C82930;stroke-width:1.0;" width="6" x="352.5" y="76.0234"/><text fill="#000000" font-family="sans-serif" font-size="11" lengthAdjust="spacing" textLength="48" x="364.5" y="83.4424">float price</text><rect fill="none" height="6" style="stroke:#C82930;stroke-width:1.0;" width="6" x="352.5" y="89.8594"/><text fill="#000000" font-family="sans-serif" font-size="11" lengthAdjust="spacing" textLength="52" x="364.5" y="97.2783">int quantity</text><rect fill="none" height="6" style="stroke:#C82930;stroke-width:1.0;" width="6" x="352.5" y="103.6953"/><text fill="#000000" font-family="sans-serif" font-size="11" lengthAdjust="spacing" textLength="126" x="364.5" y="111.1143">Set&lt;Category&gt; categories</text><rect fill="none" height="6" style="stroke:#C82930;stroke-width:1.0;" width="6" x="352.5" y="117.5313"/><text fill="#000000" font-family="sans-serif" font-size="11" lengthAdjust="spacing" textLength="59" x="364.5" y="124.9502">String image</text><line style="stroke:#A80036;stroke-width:1.5;" x1="345.5" x2="495.5" y1="131.3672" y2="131.3672"/><ellipse cx="355.5" cy="142.3672" fill="#84BE84" rx="3" ry="3" style="stroke:#038048;stroke-width:1.0;"/><text fill="#000000" font-family="sans-serif" font-size="11" lengthAdjust="spacing" textLength="86" x="364.5" y="146.7861">Fruit(String name)</text><rect fill="#F24D5C" height="6" style="stroke:#C82930;stroke-width:1.0;" width="6" x="352.5" y="153.2031"/><text fill="#000000" font-family="sans-serif" font-size="11" lengthAdjust="spacing" textLength="29" x="364.5" y="160.6221">Fruit()</text><!--MD5=[44a1b4afaef76c16e6c9ec4990ad0c8d]
class Item--><rect codeLine="12" fill="#FEFECE" filter="url(#f1lfnna6g2cyz2)" height="166.875" id="Item" style="stroke:#A80036;stroke-width:1.5;" width="239" x="7" y="7"/><ellipse cx="102.75" cy="27.0938" fill="#ADD1B2" rx="11" ry="11" style="stroke:#A80036;stroke-width:1.0;"/><path d="M104.75,23.5938 Q104.9531,23.0938 105.1875,22.8438 Q105.4219,22.5938 105.6875,22.5938 Q106.1563,22.5938 106.4531,22.875 Q106.75,23.1563 106.75,23.8125 L106.75,25.375 Q106.75,26.0313 106.4688,26.3125 Q106.1875,26.5938 105.75,26.5938 Q105.3594,26.5938 105.1094,26.4219 Q104.8594,26.25 104.75,25.7969 Q104.7031,25.4844 104.5313,25.3125 Q104.2188,24.9844 103.6563,24.7969 Q103.0938,24.5938 102.5313,24.5938 Q101.8281,24.5938 101.2344,24.875 Q100.6563,25.1563 100.2031,25.7813 Q99.75,26.4063 99.75,27.2656 L99.75,28.1875 Q99.75,29.2188 100.5938,29.9063 Q101.4375,30.5938 102.9375,30.5938 Q103.8281,30.5938 104.4531,30.3906 Q104.8125,30.2813 105.2188,29.9219 Q105.4844,29.7188 105.625,29.6563 Q105.7656,29.5938 105.9375,29.5938 Q106.2656,29.5938 106.5,29.8594 Q106.75,30.1094 106.75,30.4688 Q106.75,30.8125 106.4063,31.2188 Q105.9063,31.8125 105.1094,32.1406 Q104.0625,32.5938 102.7813,32.5938 Q101.2813,32.5938 100.0781,32 Q99.1094,31.5313 98.4219,30.5156 Q97.75,29.5 97.75,28.2969 L97.75,27.2031 Q97.75,25.9531 98.3438,24.8594 Q98.9531,23.7656 100,23.1875 Q101.0625,22.5938 102.25,22.5938 Q102.9688,22.5938 103.5938,22.8438 Q104.2188,23.0938 104.75,23.5938 Z " fill="#000000"/><text fill="#000000" font-family="sans-serif" font-size="12" font-style="italic" lengthAdjust="spacing" textLength="43" x="121.25" y="24.457">«entity»</text><text fill="#000000" font-family="sans-serif" font-size="12" lengthAdjust="spacing" textLength="24" x="130.75" y="39.5508">Item</text><line style="stroke:#A80036;stroke-width:1.5;" x1="8" x2="245" y1="47.1875" y2="47.1875"/><rect fill="none" height="6" style="stroke:#C82930;stroke-width:1.0;" width="6" x="15" y="55.1875"/><text fill="#000000" font-family="sans-serif" font-size="11" lengthAdjust="spacing" textLength="35" x="27" y="62.6064">Long id</text><rect fill="none" height="6" style="stroke:#C82930;stroke-width:1.0;" width="6" x="15" y="69.0234"/><text fill="#000000" font-family="sans-serif" font-size="11" lengthAdjust="spacing" textLength="79" x="27" y="76.4424">String username</text><rect fill="none" height="6" style="stroke:#C82930;stroke-width:1.0;" width="6" x="15" y="82.8594"/><text fill="#000000" font-family="sans-serif" font-size="11" lengthAdjust="spacing" textLength="43" x="27" y="90.2783">Fruit fruit</text><rect fill="none" height="6" style="stroke:#C82930;stroke-width:1.0;" width="6" x="15" y="96.6953"/><text fill="#000000" font-family="sans-serif" font-size="11" lengthAdjust="spacing" textLength="52" x="27" y="104.1143">int quantity</text><line style="stroke:#A80036;stroke-width:1.5;" x1="8" x2="245" y1="110.5313" y2="110.5313"/><ellipse cx="18" cy="121.5313" fill="#84BE84" rx="3" ry="3" style="stroke:#038048;stroke-width:1.0;"/><text fill="#000000" font-family="sans-serif" font-size="11" lengthAdjust="spacing" textLength="213" x="27" y="125.9502">Item(String username, Fruit fruit, int quantity)</text><rect fill="#F24D5C" height="6" style="stroke:#C82930;stroke-width:1.0;" width="6" x="15" y="132.3672"/><text fill="#000000" font-family="sans-serif" font-size="11" lengthAdjust="spacing" textLength="27" x="27" y="139.7861">Item()</text><ellipse cx="18" cy="149.2031" fill="#84BE84" rx="3" ry="3" style="stroke:#038048;stroke-width:1.0;"/><text fill="#000000" font-family="sans-serif" font-size="11" lengthAdjust="spacing" textLength="80" x="27" y="153.6221">addUniqueFruit()</text><ellipse cx="18" cy="163.0391" fill="#84BE84" rx="3" ry="3" style="stroke:#038048;stroke-width:1.0;"/><text fill="#000000" font-family="sans-serif" font-size="11" lengthAdjust="spacing" textLength="136" x="27" y="167.458">addSeveralFruit(int quantity)</text><!--MD5=[a96594a83e2ecdc78cbf17c2ddf01934]
class Category--><rect codeLine="24" fill="#FEFECE" filter="url(#f1lfnna6g2cyz2)" height="83.8594" id="Category" style="stroke:#A80036;stroke-width:1.5;" width="82" x="567.5" y="48.5"/><ellipse cx="582.95" cy="68.5938" fill="#ADD1B2" rx="11" ry="11" style="stroke:#A80036;stroke-width:1.0;"/><path d="M584.95,65.0938 Q585.1531,64.5938 585.3875,64.3438 Q585.6219,64.0938 585.8875,64.0938 Q586.3563,64.0938 586.6531,64.375 Q586.95,64.6563 586.95,65.3125 L586.95,66.875 Q586.95,67.5313 586.6688,67.8125 Q586.3875,68.0938 585.95,68.0938 Q585.5594,68.0938 585.3094,67.9219 Q585.0594,67.75 584.95,67.2969 Q584.9031,66.9844 584.7313,66.8125 Q584.4188,66.4844 583.8563,66.2969 Q583.2938,66.0938 582.7313,66.0938 Q582.0281,66.0938 581.4344,66.375 Q580.8563,66.6563 580.4031,67.2813 Q579.95,67.9063 579.95,68.7656 L579.95,69.6875 Q579.95,70.7188 580.7938,71.4063 Q581.6375,72.0938 583.1375,72.0938 Q584.0281,72.0938 584.6531,71.8906 Q585.0125,71.7813 585.4188,71.4219 Q585.6844,71.2188 585.825,71.1563 Q585.9656,71.0938 586.1375,71.0938 Q586.4656,71.0938 586.7,71.3594 Q586.95,71.6094 586.95,71.9688 Q586.95,72.3125 586.6063,72.7188 Q586.1063,73.3125 585.3094,73.6406 Q584.2625,74.0938 582.9813,74.0938 Q581.4813,74.0938 580.2781,73.5 Q579.3094,73.0313 578.6219,72.0156 Q577.95,71 577.95,69.7969 L577.95,68.7031 Q577.95,67.4531 578.5438,66.3594 Q579.1531,65.2656 580.2,64.6875 Q581.2625,64.0938 582.45,64.0938 Q583.1688,64.0938 583.7938,64.3438 Q584.4188,64.5938 584.95,65.0938 Z " fill="#000000"/><text fill="#000000" font-family="sans-serif" font-size="12" font-style="italic" lengthAdjust="spacing" textLength="43" x="600.05" y="65.957">«entity»</text><text fill="#000000" font-family="sans-serif" font-size="12" lengthAdjust="spacing" textLength="49" x="597.05" y="81.0508">Category</text><line style="stroke:#A80036;stroke-width:1.5;" x1="568.5" x2="648.5" y1="88.6875" y2="88.6875"/><rect fill="none" height="6" style="stroke:#C82930;stroke-width:1.0;" width="6" x="575.5" y="96.6875"/><text fill="#000000" font-family="sans-serif" font-size="11" lengthAdjust="spacing" textLength="56" x="587.5" y="104.1064">string name</text><line style="stroke:#A80036;stroke-width:1.5;" x1="568.5" x2="648.5" y1="110.5234" y2="110.5234"/><ellipse cx="578.5" cy="121.5234" fill="#84BE84" rx="3" ry="3" style="stroke:#038048;stroke-width:1.0;"/><text fill="#000000" font-family="sans-serif" font-size="11" lengthAdjust="spacing" textLength="52" x="587.5" y="125.9424">Category()</text><!--MD5=[011b2d83d36b9cf5ce1924a70aede988]
link Item to Fruit--><path codeLine="30" d="M246.08,90.5 C279.31,90.5 314.47,90.5 344.45,90.5 " fill="none" id="Item-Fruit" style="stroke:#A80036;stroke-width:1.0;"/><polygon fill="#000000" points="273.25,78.6758,264.2049,75.7369,264.2049,81.6147,273.25,78.6758" style="stroke:#000000;stroke-width:1.0;"/><text fill="#000000" font-family="sans-serif" font-size="13" lengthAdjust="spacing" textLength="49" x="277.25" y="83.9951">contains</text><text fill="#000000" font-family="sans-serif" font-size="13" lengthAdjust="spacing" textLength="7" x="253.9648" y="87.4979">1</text><text fill="#000000" font-family="sans-serif" font-size="13" lengthAdjust="spacing" textLength="5" x="331.3495" y="87.1862">*</text><!--MD5=[d91363bbdc9ff146bf07b3f8581cf141]
link Fruit to Category--><path codeLine="31" d="M496.7,90.5 C520.82,90.5 546.56,90.5 567.26,90.5 " fill="none" id="Fruit-Category" style="stroke:#A80036;stroke-width:1.0;"/><polygon fill="#000000" points="524,78.6758,514.9549,75.7369,514.9549,81.6147,524,78.6758" style="stroke:#000000;stroke-width:1.0;"/><text fill="#000000" font-family="sans-serif" font-size="13" lengthAdjust="spacing" textLength="21" x="528" y="83.9951">has</text><text fill="#000000" font-family="sans-serif" font-size="13" lengthAdjust="spacing" textLength="5" x="504.447" y="87.223">*</text><text fill="#000000" font-family="sans-serif" font-size="13" lengthAdjust="spacing" textLength="5" x="554.4688" y="86.614">*</text><!--MD5=[f757093ce276fbd921998054e756c91d]
@startuml
'https://plantuml.com/class-diagram

class Fruit <<entity>>{
-String name
-float price
-int quantity
-Set<Category> categories
-String image
+Fruit(String name)
-Fruit()
}
class Item <<entity>>{
-Long id
-String username
-Fruit fruit
-int quantity
+Item(String username, Fruit fruit, int quantity)
-Item()
+addUniqueFruit()
+addSeveralFruit(int quantity)


}
class Category <<entity>>{
-string name
+Category()
}


Item "1"- "*" Fruit : contains >
Fruit "*"- "*" Category : has >
@enduml

@startuml

class Fruit <<entity>>{
-String name
-float price
-int quantity
-Set<Category> categories
-String image
+Fruit(String name)
-Fruit()
}
class Item <<entity>>{
-Long id
-String username
-Fruit fruit
-int quantity
+Item(String username, Fruit fruit, int quantity)
-Item()
+addUniqueFruit()
+addSeveralFruit(int quantity)


}
class Category <<entity>>{
-string name
+Category()
}


Item "1"- "*" Fruit : contains >
Fruit "*"- "*" Category : has >
@enduml

PlantUML version 1.2021.11(Sat Oct 02 15:26:11 CEST 2021)
(GPL source distribution)
Java Runtime: OpenJDK Runtime Environment
JVM: Dynamic Code Evolution 64-Bit Server VM
Default Encoding: Cp1252
Language: pt
Country: PT
--></g></svg>