<?xml version="1.0" encoding="UTF-8" standalone="no"?><svg xmlns="http://www.w3.org/2000/svg" xmlns:xlink="http://www.w3.org/1999/xlink" contentScriptType="application/ecmascript" contentStyleType="text/css" height="160px" preserveAspectRatio="none" style="width:133px;height:160px;background:#FFFFFF;" version="1.1" viewBox="0 0 133 160" width="133px" zoomAndPan="magnify"><defs><filter height="300%" id="fnsyey1ixzu5y" width="300%" x="-1" y="-1"><feGaussianBlur result="blurOut" stdDeviation="2.0"/><feColorMatrix in="blurOut" result="blurOut2" type="matrix" values="0 0 0 0 0 0 0 0 0 0 0 0 0 0 0 0 0 0 .4 0"/><feOffset dx="4.0" dy="4.0" in="blurOut2" result="blurOut3"/><feBlend in="SourceGraphic" in2="blurOut3" mode="normal"/></filter></defs><g><!--MD5=[385b8a2fd003af01fa07704922124a5e]
class Fruit--><rect codeLine="3" fill="#FEFECE" filter="url(#fnsyey1ixzu5y)" height="139.2031" id="Fruit" style="stroke:#A80036;stroke-width:1.5;" width="112" x="7" y="7"/><ellipse cx="40.45" cy="27.0938" fill="#ADD1B2" rx="11" ry="11" style="stroke:#A80036;stroke-width:1.0;"/><path d="M42.45,23.5938 Q42.6531,23.0938 42.8875,22.8438 Q43.1219,22.5938 43.3875,22.5938 Q43.8563,22.5938 44.1531,22.875 Q44.45,23.1563 44.45,23.8125 L44.45,25.375 Q44.45,26.0313 44.1688,26.3125 Q43.8875,26.5938 43.45,26.5938 Q43.0594,26.5938 42.8094,26.4219 Q42.5594,26.25 42.45,25.7969 Q42.4031,25.4844 42.2313,25.3125 Q41.9188,24.9844 41.3563,24.7969 Q40.7938,24.5938 40.2313,24.5938 Q39.5281,24.5938 38.9344,24.875 Q38.3563,25.1563 37.9031,25.7813 Q37.45,26.4063 37.45,27.2656 L37.45,28.1875 Q37.45,29.2188 38.2938,29.9063 Q39.1375,30.5938 40.6375,30.5938 Q41.5281,30.5938 42.1531,30.3906 Q42.5125,30.2813 42.9188,29.9219 Q43.1844,29.7188 43.325,29.6563 Q43.4656,29.5938 43.6375,29.5938 Q43.9656,29.5938 44.2,29.8594 Q44.45,30.1094 44.45,30.4688 Q44.45,30.8125 44.1063,31.2188 Q43.6063,31.8125 42.8094,32.1406 Q41.7625,32.5938 40.4813,32.5938 Q38.9813,32.5938 37.7781,32 Q36.8094,31.5313 36.1219,30.5156 Q35.45,29.5 35.45,28.2969 L35.45,27.2031 Q35.45,25.9531 36.0438,24.8594 Q36.6531,23.7656 37.7,23.1875 Q38.7625,22.5938 39.95,22.5938 Q40.6688,22.5938 41.2938,22.8438 Q41.9188,23.0938 42.45,23.5938 Z " fill="#000000"/><text fill="#000000" font-family="sans-serif" font-size="12" font-style="italic" lengthAdjust="spacing" textLength="43" x="56.55" y="24.457">«entity»</text><text fill="#000000" font-family="sans-serif" font-size="12" lengthAdjust="spacing" textLength="24" x="66.05" y="39.5508">Fruit</text><line style="stroke:#A80036;stroke-width:1.5;" x1="8" x2="118" y1="47.1875" y2="47.1875"/><rect fill="none" height="6" style="stroke:#C82930;stroke-width:1.0;" width="6" x="15" y="55.1875"/><text fill="#000000" font-family="sans-serif" font-size="11" lengthAdjust="spacing" textLength="35" x="27" y="62.6064">Long id</text><rect fill="none" height="6" style="stroke:#C82930;stroke-width:1.0;" width="6" x="15" y="69.0234"/><text fill="#000000" font-family="sans-serif" font-size="11" lengthAdjust="spacing" textLength="57" x="27" y="76.4424">String name</text><line style="stroke:#A80036;stroke-width:1.5;" x1="8" x2="118" y1="82.8594" y2="82.8594"/><ellipse cx="18" cy="93.8594" fill="#84BE84" rx="3" ry="3" style="stroke:#038048;stroke-width:1.0;"/><text fill="#000000" font-family="sans-serif" font-size="11" lengthAdjust="spacing" textLength="86" x="27" y="98.2783">Fruit(String name)</text><rect fill="#F24D5C" height="6" style="stroke:#C82930;stroke-width:1.0;" width="6" x="15" y="104.6953"/><text fill="#000000" font-family="sans-serif" font-size="11" lengthAdjust="spacing" textLength="29" x="27" y="112.1143">Fruit()</text><ellipse cx="18" cy="121.5313" fill="#84BE84" rx="3" ry="3" style="stroke:#038048;stroke-width:1.0;"/><text fill="#000000" font-family="sans-serif" font-size="11" lengthAdjust="spacing" textLength="50" x="27" y="125.9502">getName()</text><ellipse cx="18" cy="135.3672" fill="#84BE84" rx="3" ry="3" style="stroke:#038048;stroke-width:1.0;"/><text fill="#000000" font-family="sans-serif" font-size="11" lengthAdjust="spacing" textLength="50" x="27" y="139.7861">setName()</text><!--MD5=[baf15a169d2549f0ec949671ff2f1d16]
@startuml
'https://plantuml.com/class-diagram

class Fruit <<entity>>{
-Long id
-String name
+Fruit(String name)
-Fruit()
+getName()
+setName()

}
@enduml

@startuml

class Fruit <<entity>>{
-Long id
-String name
+Fruit(String name)
-Fruit()
+getName()
+setName()

}
@enduml

PlantUML version 1.2021.11(Sat Oct 02 15:26:11 CEST 2021)
(GPL source distribution)
Java Runtime: OpenJDK Runtime Environment
JVM: Dynamic Code Evolution 64-Bit Server VM
Default Encoding: Cp1252
Language: pt
Country: PT
--></g></svg>